<svg xmlns="http://www.w3.org/2000/svg" viewBox="0 0 383.15 161.69"><defs><style>.cls-1,.cls-2{fill:#00a54d;}.cls-2{font-size:25.63px;font-family:RotondaC-Bold, RotondaC;font-weight:700;letter-spacing:0.03em;}</style></defs><title>10p_1r</title><g id="layer_2" data-name="layer 2"><g id="layer_1-2" data-name="layer 1"><g id="group" data-name="group"><g id="group2" data-name="group"><path id="composite_path" data-name="composite_path" class="cls-1" d="M29.62,28.15h-.36S22.38,35.64,9,40.61A6.7,6.7,0,0,1,.39,36.56h0a6.67,6.67,0,0,1,3.3-8.21C19.27,20.65,26.33,13.57,29.35,9.6a8.61,8.61,0,0,1,6.87-3.35h0A8.72,8.72,0,0,1,44.95,15v100.8a7.66,7.66,0,0,1-7.66,7.66h0a7.66,7.66,0,0,1-7.66-7.66Z"/><path id="composite_path2" data-name="composite_path" class="cls-1" d="M142.86,63.63c0,38.55-14.3,59.84-39.43,59.84-22.15,0-37.16-20.76-37.51-58.27,0-38,16.4-59,39.43-59C129.25,6.23,142.86,27.51,142.86,63.63ZM81.28,65.37c0,29.48,9.07,46.23,23,46.23,15.7,0,23.2-18.32,23.2-47.28,0-27.91-7.15-46.23-23-46.23C91,18.09,81.28,34.49,81.28,65.37Z"/></g><g id="group3" data-name="group"><g id="group4" data-name="group"><path id="composite_path3" data-name="composite_path" class="cls-1" d="M294.08,62.45h-.18a27.77,27.77,0,0,1-10.08,6.22,3.38,3.38,0,0,1-4.4-2h0a3.37,3.37,0,0,1,1.7-4.13c7.74-3.83,11.27-7.35,12.8-9.34a4.36,4.36,0,0,1,3.47-1.71h0a4.38,4.38,0,0,1,4.38,4.38v50.54a3.84,3.84,0,0,1-3.84,3.84h0a3.84,3.84,0,0,1-3.84-3.84Z"/><path id="composite_path4" data-name="composite_path" class="cls-1" d="M327.92,87.8a13.67,13.67,0,0,0,4.62-.67,8.57,8.57,0,0,0,3.17-2,7.78,7.78,0,0,0,1.69-2.56,8.29,8.29,0,0,0,.61-3.19,7.7,7.7,0,0,0-.82-3.77,7.18,7.18,0,0,0-2.3-2.47A8.75,8.75,0,0,0,332,71.89a17.11,17.11,0,0,0-4-.39h-5.92A1.13,1.13,0,0,0,321,72.63V84.86h-1a1.49,1.49,0,0,0,0,3h1v2.42h-1a1.49,1.49,0,0,0,0,3h1v2.54a1.73,1.73,0,0,0,3.45,0V93.22h10.58a1.49,1.49,0,0,0,0-3H324.47V87.8Zm-3.45-13.33h3.42a12.7,12.7,0,0,1,2.71.24,6.39,6.39,0,0,1,1.93.76,4.1,4.1,0,0,1,1.41,1.63,5.34,5.34,0,0,1,.48,2.34,6.09,6.09,0,0,1-.33,2.08,4.57,4.57,0,0,1-1.19,1.74,4.93,4.93,0,0,1-2.12,1.21,12.21,12.21,0,0,1-3.42.39h-2.9Z"/></g><path id="composite_path5" data-name="composite_path" class="cls-1" d="M302.3,161.69a80.85,80.85,0,1,1,80.85-80.85A80.94,80.94,0,0,1,302.3,161.69Zm0-157.75a76.9,76.9,0,1,0,76.9,76.9A77,77,0,0,0,302.3,3.94Z"/><path id="composite_path6" data-name="composite_path" class="cls-1" d="M305.28,147.82a2,2,0,0,1-.08-3.94q1.89-.08,3.76-.28a2,2,0,0,1,.41,3.92q-2,.21-4,.3Zm-9.71-.28h-.2q-2-.21-4-.53a2,2,0,1,1,.64-3.89q1.85.3,3.74.5a2,2,0,0,1-.2,3.93Zm23.16-1.75a2,2,0,0,1-.49-3.88q1.83-.48,3.62-1.06a2,2,0,0,1,1.22,3.75q-1.9.62-3.85,1.12A1.94,1.94,0,0,1,318.72,145.8Zm-36.46-1.05a2,2,0,0,1-.61-.1q-1.92-.62-3.78-1.35a2,2,0,1,1,1.44-3.67q1.76.69,3.56,1.27a2,2,0,0,1-.61,3.85ZM331.45,141a2,2,0,0,1-.89-3.74q1.69-.84,3.31-1.79a2,2,0,1,1,2,3.41q-1.73,1-3.53,1.9A2,2,0,0,1,331.45,141Zm-61.63-1.79a2,2,0,0,1-1-.26q-1.74-1-3.42-2.11a2,2,0,0,1,2.17-3.29q1.57,1,3.21,2a2,2,0,0,1-1,3.68Zm73.07-5.54a2,2,0,0,1-1.23-3.51q1.47-1.18,2.88-2.44a2,2,0,0,1,2.64,2.93q-1.49,1.34-3.06,2.59A2,2,0,0,1,342.89,133.68Zm-84.08-2.45a2,2,0,0,1-1.32-.5q-1.49-1.34-2.9-2.77a2,2,0,1,1,2.81-2.77q1.32,1.34,2.73,2.6a2,2,0,0,1-1.32,3.44Zm93.75-7.1a2,2,0,0,1-1.52-3.22q1.2-1.46,2.31-3a2,2,0,1,1,3.19,2.32q-1.18,1.62-2.45,3.17A2,2,0,0,1,352.57,124.13Zm-102.87-3a2,2,0,0,1-1.59-.81q-1.18-1.61-2.27-3.31a2,2,0,0,1,3.32-2.13q1,1.59,2.13,3.11a2,2,0,0,1-1.59,3.13Zm110.37-8.36a2,2,0,0,1-1.75-2.88q.87-1.67,1.64-3.4a2,2,0,0,1,3.6,1.61q-.82,1.84-1.74,3.62A2,2,0,0,1,360.07,112.79Zm-117.19-3.4a2,2,0,0,1-1.8-1.17q-.81-1.82-1.53-3.7a2,2,0,1,1,3.69-1.4q.67,1.77,1.44,3.49a2,2,0,0,1-1.8,2.78ZM365,100.12a2,2,0,0,1-1.9-2.5q.5-1.81.89-3.67a2,2,0,1,1,3.86.82q-.42,2-.95,3.9A2,2,0,0,1,365,100.12ZM238.66,96.47a2,2,0,0,1-1.93-1.56q-.42-2-.72-3.94a2,2,0,0,1,3.9-.59q.28,1.87.68,3.71a2,2,0,0,1-1.52,2.34A1.9,1.9,0,0,1,238.66,96.47Zm128.6-9.77h-.12a2,2,0,0,1-1.85-2.08q.11-1.87.11-3.77v-.27a2,2,0,1,1,3.94,0v.22c0,1.39,0,2.72-.12,4A2,2,0,0,1,367.26,86.71Zm-130-3.82a1.91,1.91,0,0,1-2-1.9v-.13q0-1.95.11-3.86a2,2,0,1,1,3.94.22q-.1,1.81-.1,3.65A2,2,0,0,1,237.23,82.88Zm129.38-10a2,2,0,0,1-1.95-1.67q-.29-1.87-.68-3.71a2,2,0,1,1,3.86-.83q.42,1.95.73,3.94a2,2,0,0,1-1.65,2.25Zm-128-3.44A2,2,0,0,1,236.68,67q.41-2,.94-3.9a2,2,0,1,1,3.81,1q-.49,1.81-.88,3.67A2,2,0,0,1,238.61,69.43Zm124.54-9.71a2,2,0,0,1-1.84-1.27q-.67-1.76-1.44-3.48a2,2,0,0,1,3.6-1.62q.82,1.82,1.53,3.7a2,2,0,0,1-1.14,2.54A1.93,1.93,0,0,1,363.15,59.72ZM242.77,56.48a2,2,0,0,1-1.8-2.77q.81-1.84,1.74-3.62a2,2,0,1,1,3.5,1.81q-.87,1.68-1.63,3.41A2,2,0,0,1,242.77,56.48ZM357,47.59a2,2,0,0,1-1.66-.9q-1-1.59-2.14-3.1a2,2,0,0,1,3.18-2.33q1.19,1.61,2.27,3.3a2,2,0,0,1-1.66,3Zm-107.46-2.9A2,2,0,0,1,248,41.56q1.18-1.62,2.45-3.17a2,2,0,1,1,3.05,2.5q-1.2,1.46-2.31,3A2,2,0,0,1,249.56,44.69ZM348.5,37a2,2,0,0,1-1.4-.59q-1.32-1.34-2.73-2.6A2,2,0,0,1,347,30.88q1.49,1.34,2.91,2.76A2,2,0,0,1,348.5,37Zm-89.86-2.43a2,2,0,0,1-1.32-3.43c1-.9,2-1.76,3-2.6a2,2,0,1,1,2.47,3.07q-1.47,1.18-2.87,2.45A2,2,0,0,1,258.64,34.56ZM338,28.39a2,2,0,0,1-1.08-.33q-1.57-1-3.21-2a2,2,0,1,1,2-3.42q1.75,1,3.42,2.1A2,2,0,0,1,338,28.39Zm-68.36-1.85a2,2,0,0,1-1-3.68q1.73-1,3.52-1.91a2,2,0,1,1,1.78,3.52q-1.68.85-3.31,1.8A2,2,0,0,1,269.61,26.54Zm56.27-4.39a2,2,0,0,1-.71-.13q-1.76-.68-3.56-1.26A2,2,0,0,1,322.81,17q1.92.62,3.78,1.34a2,2,0,0,1-.71,3.81ZM282,21a2,2,0,0,1-.61-3.85q1.9-.62,3.85-1.13a2,2,0,1,1,1,3.82c-1.22.32-2.43.68-3.62,1.06A2,2,0,0,1,282,21Zm30.75-2.39-.31,0q-1.85-.3-3.74-.49a2,2,0,1,1,.4-3.92q2,.2,4,.52a2,2,0,0,1-.31,3.92Zm-17.45-.46a2,2,0,0,1-.21-3.93q2-.21,4-.31a1.94,1.94,0,0,1,2.06,1.88,2,2,0,0,1-1.88,2.06c-1.26.06-2.52.15-3.76.29Z"/></g><g id="group5" data-name="group"><path id="_Контур_" data-name="&lt;Контур&gt;" class="cls-1" d="M194.34,75.8H164.48a2,2,0,1,1,0-3.94h29.86a2,2,0,1,1,0,3.94Z"/><path id="_Контур_2" data-name="&lt;Контур&gt;" class="cls-1" d="M194.34,89.84H164.48a2,2,0,1,1,0-3.94h29.86a2,2,0,1,1,0,3.94Z"/></g><text class="cls-2" transform="translate(27.27 153.03)">баллов</text></g></g></g></svg>
