<svg xmlns="http://www.w3.org/2000/svg" viewBox="0 0 18.26 29.09"><defs><style>.cls-1{fill:#8bb751}</style></defs><title>c2</title><g id="layer_2" data-name="layer 2"><path class="cls-1" d="M0 27.42a1.67 1.67 0 0 1 .51-1.2L3 23.76c7.3-7 10.61-10.65 10.65-15 0-2.9-1.41-5.59-5.68-5.59a9 9 0 0 0-4.63 1.45A1.48 1.48 0 0 1 1.2 4a1.47 1.47 0 0 1 .5-1.82A12.64 12.64 0 0 1 8.8 0c6.2 0 8.76 4.22 8.76 8.32 0 5.28-3.83 9.55-9.86 15.36l-2.29 2.11v.09h11.38a1.47 1.47 0 0 1 1.47 1.47v.27a1.47 1.47 0 0 1-1.47 1.47H1.67A1.67 1.67 0 0 1 0 27.42z" id="layer_1-2" data-name="layer 1"/></g></svg>