<svg xmlns="http://www.w3.org/2000/svg" viewBox="0 0 17.54 29.57"><defs><style>.cls-1{fill:#8bb751;}</style></defs><title>c3</title><g id="Слой_2" data-name="Слой 2"><g id="Слой_1-2" data-name="Слой 1"><path class="cls-1" d="M.17,26.21a1.45,1.45,0,0,1,1.95-.85,12.91,12.91,0,0,0,4.94,1.08c5,0,6.51-3.17,6.47-5.54,0-4-3.65-5.72-7.39-5.72h-.7A1.45,1.45,0,0,1,4,13.73H4a1.45,1.45,0,0,1,1.45-1.45h.7c2.82,0,6.38-1.45,6.38-4.84,0-2.29-1.45-4.31-5-4.31A10.13,10.13,0,0,0,3.17,4.2a1.44,1.44,0,0,1-2-.83l0-.06a1.45,1.45,0,0,1,.69-1.78A14.37,14.37,0,0,1,8.25,0c5.63,0,8.18,3.34,8.18,6.82,0,2.95-1.76,5.46-5.28,6.73v.09c3.52.7,6.38,3.34,6.38,7.35,0,4.58-3.56,8.58-10.43,8.58A15.61,15.61,0,0,1,.83,28.26a1.44,1.44,0,0,1-.75-1.8Z"/></g></g></svg>