<svg xmlns="http://www.w3.org/2000/svg" viewBox="0 0 20.95 28.6"><defs><style>.cls-1{fill:#8bb751}</style></defs><title>c4</title><g id="layer_2" data-name="layer 2"><path class="cls-1" d="M13.29 27.09v-6.27H1.94A1.94 1.94 0 0 1 0 18.87a1.94 1.94 0 0 1 .35-1.11L11.94 1.17A2.75 2.75 0 0 1 14.19 0a2.75 2.75 0 0 1 2.75 2.75v15h2.49a1.52 1.52 0 0 1 1.52 1.52 1.52 1.52 0 0 1-1.52 1.52h-2.49v6.27a1.52 1.52 0 0 1-1.52 1.52h-.62a1.52 1.52 0 0 1-1.51-1.49zm0-9.31V8.23q0-2.24.13-4.49h-.13c-.88 1.67-1.58 2.9-2.38 4.22l-7 9.73v.09z" id="layer_1-2" data-name="layer 1"/></g></svg>