<svg xmlns="http://www.w3.org/2000/svg" viewBox="0 0 17.44 29.09"><defs><style>.cls-1{fill:#8bb751}</style></defs><title>c5</title><g id="layer_2" data-name="layer 2"><path class="cls-1" d="M15.3 3.26H6l-1.1 7.35a15.32 15.32 0 0 1 2.33-.18A12.09 12.09 0 0 1 13.35 12a8.16 8.16 0 0 1 4.09 7.35c0 5.59-4.44 9.77-10.65 9.77A15.53 15.53 0 0 1 1 28a1.58 1.58 0 0 1-.91-1.95 1.55 1.55 0 0 1 2-1 13.15 13.15 0 0 0 4.66.95c3.65 0 6.78-2.38 6.78-6.21S11 13.42 5.29 13.42c-.7 0-1.33 0-1.91.08a1.65 1.65 0 0 1-1.77-1.87L3.18 0H15.3a1.57 1.57 0 0 1 1.57 1.57v.12a1.57 1.57 0 0 1-1.57 1.57z" id="layer_1-2" data-name="layer 1"/></g></svg>