<svg xmlns="http://www.w3.org/2000/svg" viewBox="0 0 19.63 29.45"><defs><style>.cls-1{fill:#8bb751;}</style></defs><title>c6</title><g id="Слой_2" data-name="Слой 2"><g id="Слой_1-2" data-name="Слой 1"><path class="cls-1" d="M16.81,1.56a1.55,1.55,0,0,1-1.46,1.55c-.45,0-.94.08-1.44.16A11.63,11.63,0,0,0,4,13.43h.13A8.52,8.52,0,0,1,11,10.13c5.06,0,8.63,3.65,8.63,9.24,0,5.24-3.56,10.08-9.5,10.08C4,29.45,0,24.7,0,17.26A18,18,0,0,1,4.84,4.37,15.57,15.57,0,0,1,14,.14c.39-.06.76-.1,1.11-.14a1.56,1.56,0,0,1,1.71,1.55Zm-1.1,18c0-4.09-2.33-6.56-5.9-6.56a6.37,6.37,0,0,0-5.54,3.52,3.3,3.3,0,0,0-.44,1.72c.09,4.71,2.24,8.18,6.29,8.18C13.47,26.46,15.71,23.69,15.71,19.6Z"/></g></g></svg>