<svg xmlns="http://www.w3.org/2000/svg" viewBox="0 0 49.18 61.5"><defs><style>.cls-1{fill:#6fab48;}</style></defs><title>card-popup-icon-4</title><g id="Слой_2" data-name="Слой 2"><g id="Слой_1-2" data-name="Слой 1"><path class="cls-1" d="M11.57,37.54H8.74a3.89,3.89,0,0,0-3.88,3.89v2.39A3.89,3.89,0,0,0,8.74,47.7h2.83a3.89,3.89,0,0,0,3.89-3.88V41.42A3.89,3.89,0,0,0,11.57,37.54Zm2.1,6.27a2.1,2.1,0,0,1-2.1,2.1H8.74a2.1,2.1,0,0,1-2.1-2.1V41.42a2.1,2.1,0,0,1,2.1-2.1h2.83a2.1,2.1,0,0,1,2.1,2.1Z"/><path class="cls-1" d="M31.7,52.62H27.34a1,1,0,1,0,0,2H31.7a1,1,0,0,0,0-2Z"/><path class="cls-1" d="M10.21,52.62H5.85a1,1,0,0,0,0,2h4.36a1,1,0,1,0,0-2Z"/><path class="cls-1" d="M21,52.62H16.6a1,1,0,0,0,0,2H21a1,1,0,1,0,0-2Z"/><path class="cls-1" d="M42.45,52.62H38.09a1,1,0,1,0,0,2h4.35a1,1,0,0,0,0-2Z"/><path class="cls-1" d="M29,39.53H42.34a1,1,0,1,0,0-2H29a1,1,0,1,0,0,2Z"/><path class="cls-1" d="M0,33.78V56.37A5.14,5.14,0,0,0,5.14,61.5H44a5.14,5.14,0,0,0,5.13-5.13V33.78A5.14,5.14,0,0,0,44,28.64H42.55l.25-.39A12.2,12.2,0,0,0,29.05,9.94l-.29.09,0-.3a10.85,10.85,0,1,0-8.68,11.54l.3-.06v.38a12.16,12.16,0,0,0,2,6.67l.25.39-9.49,0-.12,0H5.14A5.14,5.14,0,0,0,0,33.78ZM20.52,19.65l-.16,0a9.26,9.26,0,1,1,6.94-9.23v.16l-.14.07a12.27,12.27,0,0,0-6.62,8.8Zm1.3,2A10.74,10.74,0,1,1,32.56,32.38,10.76,10.76,0,0,1,21.81,21.63ZM24,30.35l.07.07a12.16,12.16,0,0,0,16.92,0l.07-.07h3a3.43,3.43,0,0,1,3.43,3.43V56.37A3.43,3.43,0,0,1,44,59.8H5.14a3.43,3.43,0,0,1-3.43-3.43V33.78a3.43,3.43,0,0,1,3.43-3.43Z"/><path class="cls-1" d="M31,22.52h3.69a3.75,3.75,0,0,0,3.07-1.17,3.56,3.56,0,0,0,1-2.51,5.29,5.29,0,0,0-.38-1.8,3.05,3.05,0,0,0-.86-1.19,3.3,3.3,0,0,0-1.4-.71A6.65,6.65,0,0,0,34.53,15H30a.64.64,0,0,0-.64.65v5.49h-.15a.69.69,0,1,0,0,1.38h.15v.56h-.15a.69.69,0,1,0,0,1.38h.15v3.06a.74.74,0,0,0,1.47,0V24.46h4.59a.69.69,0,1,0,0-1.38H30.86v-.56Zm-.09-6.11h3.77a4.33,4.33,0,0,1,1.24.12,2,2,0,0,1,.84.78A3,3,0,0,1,37,18.73a2.73,2.73,0,0,1-.65,1.79,2,2,0,0,1-1.72.63h-3.8Z"/></g></g></svg>