<svg xmlns="http://www.w3.org/2000/svg" viewBox="0 0 47.02 59.5"><defs><style>.cls-1{fill:#8bb751}</style></defs><title>Layer 6</title><g id="layer_2" data-name="layer 2"><g id="layer_1-2" data-name="layer 1"><path class="cls-1" d="M38.78 21.56a2.12 2.12 0 0 1-2.68 1.32 3.72 3.72 0 0 0-4.72 2.32.81.81 0 0 0 .5 1 .78.78 0 0 0 1-.5 2.11 2.11 0 0 1 2.67-1.32 3.72 3.72 0 0 0 4.71-2.33.8.8 0 1 0-1.52-.52zm-2.31-4.4a2.13 2.13 0 0 1 1.61-.1 3.72 3.72 0 0 0 4.71-2.33.81.81 0 0 0-.5-1 .8.8 0 0 0-1 .51 2.11 2.11 0 0 1-2.67 1.31 3.71 3.71 0 0 0-2.84.19 3.69 3.69 0 0 0-1.87 2.14.8.8 0 0 0 .5 1 .78.78 0 0 0 1-.5 2.11 2.11 0 0 1 1.06-1.22zM44.07 8a.81.81 0 0 0-.5-1 .8.8 0 0 0-1 .5 1.6 1.6 0 0 1-.82.93 1.58 1.58 0 0 1-1.24.08 3.24 3.24 0 0 0-4.1 2 .81.81 0 0 0 0 .62.79.79 0 0 0 .46.4.8.8 0 0 0 1-.5A1.62 1.62 0 0 1 40 10a3.23 3.23 0 0 0 4.11-2z"/><path class="cls-1" d="M7.56 59.5H37.2A5.76 5.76 0 0 0 43 54l1.8-26.39a1.13 1.13 0 0 0-.49-1 1.17 1.17 0 0 0-.49-.19h-.29l.08-.28A74 74 0 0 0 47 6.3 6.84 6.84 0 0 0 44.23.61 4.1 4.1 0 0 0 40 .57c-3.08 1.59-5.31 6.33-7.11 10.14l-.2.42-.43.9-.16-.72a5.84 5.84 0 0 0-3.21-4.07l-.11-.05v-.12A4.76 4.76 0 0 0 25 3.38h-.16v-.15c0-.13-.05-.22-.08-.31a3.34 3.34 0 0 0-4.9-2l-.13.08-.13-.09a3.56 3.56 0 0 0-1.74-.45 3.67 3.67 0 0 0-3.54 2.8v.14h-.14a4.5 4.5 0 0 0-3.31 4.29v.19h-.19a5 5 0 0 0-3.43 6.7l.05.14-.09.11a3.92 3.92 0 0 0-.87 2.46 3.82 3.82 0 0 0 .32 1.55l.61 1.38-1-1.11a5.54 5.54 0 0 0-3.86-2h-.2a.81.81 0 0 0-.57.26.79.79 0 0 0-.21.57.81.81 0 0 0 .8.79h.1a4 4 0 0 1 2.77 1.5l.26.3-.36.23c-1.63.46-3.6 1.24-4.51 2.92a5.12 5.12 0 0 0-.23 3.72v.1l-.06.09a1.6 1.6 0 0 0-.23.9L1.8 54a5.77 5.77 0 0 0 5.76 5.5zM33 14.17c.4-.74.83-1.64 1.35-2.76 1.6-3.4 3.8-8.06 6.39-9.4a2.55 2.55 0 0 1 2.67 0 5.28 5.28 0 0 1 2 4.29A72.45 72.45 0 0 1 42 25.85c-.07.22-.22.68-.44 1.29v.1l-1.9.84h-.08a3.51 3.51 0 0 1-3.64 0l-.75-.45a5.33 5.33 0 0 0-2.7-.74 5.25 5.25 0 0 0-2.72.74l-.75.45a3.51 3.51 0 0 1-1.45.46h-.37l.1-.36.07-.23c.27-.93.58-1.89.95-3 .12-.37.25-.74.38-1.1.27-.76.55-1.52.85-2.27l.17-.42c.08-.2.15-.39.23-.58A69.85 69.85 0 0 1 33 14.17zm-13.48 2.48l.34-.43a3.07 3.07 0 0 0 .2-.32 2 2 0 0 0 .18-1.4l-.06-.25 4.89-1.07.06.24a2.42 2.42 0 0 0 .1.36 2.11 2.11 0 0 0 .93 1l.4.22.59.32.15.08.29.17.09.06.32.21.25.19.1.08.3.27c.12.11.22.22.32.33a4.15 4.15 0 0 1 .48.69l.06.11-.05.11c-.43.94-.84 1.92-1.27 3-.06.16-.13.32-.2.48v.11h-.12a10.67 10.67 0 0 0-3.6 1.79 6.34 6.34 0 0 1-3.94 1.41 9.79 9.79 0 0 1-1.41-.11h-.17l-.68-3.1c-.46-2.1.55-3.4 1.45-4.55zm-.67-4a.68.68 0 0 1-.3-.44.69.69 0 0 1 .52-.81l5.84-1.27H25a.7.7 0 0 1 .67.54.64.64 0 0 1-.11.53.65.65 0 0 1-.42.29l-5.83 1.28h-.14a.69.69 0 0 1-.32-.11zM19.51 26a7.83 7.83 0 0 0 5.69-1.67 13.69 13.69 0 0 1 1.48-.93l.55-.3-.2.6-.14.42-.35 1c-.35 1.05-.63 2-.88 2.83l-.09.31-1-.58a5.21 5.21 0 0 0-2.68-.75h-.6a5.27 5.27 0 0 0-1.6.43l-.28.13-.3-1.49zM8.76 15.59l.53-.43-.34-.59a3.48 3.48 0 0 1-.46-1.72 3.42 3.42 0 0 1 3.29-3.43h1l-.23-1a3.1 3.1 0 0 1-.08-.67 2.88 2.88 0 0 1 2.63-2.84l.74-.05V4a2 2 0 0 1 2-2 2 2 0 0 1 1.35.53l.56.51.54-.53a1.75 1.75 0 0 1 1.44-.49 1.78 1.78 0 0 1 1.47 1.31 1.65 1.65 0 0 1 .06.66l-.09.9h.91a3.16 3.16 0 0 1 3.14 2.93v.53l.5.18a4.27 4.27 0 0 1 2.86 4.13 4.12 4.12 0 0 1-.73 2.23l-.16.23-.21-.18a10.74 10.74 0 0 0-2.06-1.31l-.42-.26a.5.5 0 0 1-.25-.35.86.86 0 0 1 .21-.68 2 2 0 0 0 .44-1.73l-.17-.61a2 2 0 0 0-.88-1.26 2 2 0 0 0-1.5-.27l-.35.07-6.06 1.36a2 2 0 0 0-1.53 2.38l.13.58a2 2 0 0 0 1.16 1.4.92.92 0 0 1 .49.48.48.48 0 0 1-.07.44l-.35.46-.36.46-.13.17-.05.08-.19.27-.14.21-.23.37-.12.22c-.07.14-.14.29-.21.45l-.1.21a5 5 0 0 0-.22.68v.13a5.21 5.21 0 0 0-.11.64v1.26l-.43-.46.15-.17-.18.12-.05-.08c-.16-.2-.33-.42-.52-.62l-.18-.2-.45-.45-.15-.15c-.19-.17-.38-.32-.57-.46l-.17-.11a5.91 5.91 0 0 0-.42-.26l-.21-.11a4 4 0 0 0-.45-.19h-.14a4.61 4.61 0 0 0-.51-.13h-1.6a5.61 5.61 0 0 0-.57.15h-.08a6.24 6.24 0 0 0-1.43.7l-.25.17-.12-.28a2.19 2.19 0 0 1-.17-.85 2.33 2.33 0 0 1 .85-1.82zm-6.84 8.85c.48-.91 1.62-1.59 3.57-2.14A5.48 5.48 0 0 0 7.75 21c.3-.29.59-.54.86-.76A4.94 4.94 0 0 1 11 19h.07a2.48 2.48 0 0 1 .65 0h.18l.32.09.16.07.15.07.2.11.13.09.09.06.08.06.2.15.16.14.08.08.25.23.24.26.26.29c.08.09.16.19.24.3l.07.1.2.25.24.35.17.26.1.15c.17.25.34.54.51.85a8.31 8.31 0 0 1 .72 5.33v.23h-.42a3.47 3.47 0 0 1-1.22-.44l-.83-.4a5.39 5.39 0 0 0-2.7-.74 5.25 5.25 0 0 0-2.73.74l-.37.22a4.42 4.42 0 0 1-2.19.62 4.44 4.44 0 0 1-2.2-.62L2.43 27a1.57 1.57 0 0 0-.51-.2h-.16v-.16a3.26 3.26 0 0 1 .16-2.2zm1 4.84a6 6 0 0 0 3.08.85h.05a6 6 0 0 0 3.07-.85l.36-.22a3.51 3.51 0 0 1 3.63 0l.75.46a5.1 5.1 0 0 0 3 .72h.33a5.22 5.22 0 0 0 2-.65h.14l.79-.46a3.51 3.51 0 0 1 3.63 0l.75.46a5.16 5.16 0 0 0 2.46.73 4.59 4.59 0 0 0 .93 0 3.2 3.2 0 0 0 .37-.07h.35a5.1 5.1 0 0 0 1.3-.53l.75-.45a3.51 3.51 0 0 1 3.63 0l.75.46a5.18 5.18 0 0 0 2.69.74h.07a5.21 5.21 0 0 0 2.61-.71l2.75-1.26v.41l-1.81 25.03a4.16 4.16 0 0 1-4.15 3.94H7.56a4.17 4.17 0 0 1-4.15-4l-1.79-25.4z"/><path class="cls-1" d="M13.48 43.29H6.09a.8.8 0 1 0 0 1.61h7.39a.8.8 0 0 0 0-1.61zm2.11 4.23h-9.5a.8.8 0 1 0 0 1.61h9.5a.8.8 0 1 0 0-1.61zm2.11 4.22H6.09a.81.81 0 1 0 0 1.61H17.7a.81.81 0 0 0 0-1.61zm4.23 1.61H24a.81.81 0 0 0 0-1.61h-2.07a.81.81 0 1 0 0 1.61z"/></g></g></svg>