<svg xmlns="http://www.w3.org/2000/svg" viewBox="0 0 46.89 59"><defs><style>.cls-1{fill:#6fab48}</style></defs><title>card-popup-icon-3</title><g id="layer_2" data-name="layer 2"><g id="layer_1-2" data-name="layer 1"><path class="cls-1" d="M32.79 27.13a.85.85 0 0 0-1.21 0L14.13 44.59a.86.86 0 0 0 0 1.21.89.89 0 0 0 1.22 0l17.43-17.45a.86.86 0 0 0 .01-1.22zM30 37.72a4.52 4.52 0 1 0 3.2 7.71 4.46 4.46 0 0 0 1.32-3.2A4.54 4.54 0 0 0 33.21 39 4.45 4.45 0 0 0 30 37.72zm2 6.5a2.81 2.81 0 1 1 .82-2 2.84 2.84 0 0 1-.82 2.01zm-11.92-10.3a4.52 4.52 0 0 0-3.2-7.71 4.54 4.54 0 0 0-3.2 1.32 4.52 4.52 0 0 0 6.41 6.39zm-5.19-5.18a2.81 2.81 0 1 1 0 4 2.84 2.84 0 0 1 0-4z"/><path class="cls-1" d="M43.42 12.57a.85.85 0 0 0-.86-.77h-8v-.64a11.16 11.16 0 0 0-22.32 0v.64h-8a.86.86 0 0 0-.86.78L0 51.66v.08C0 55.75 3.72 59 8.28 59h30.33c4.57 0 8.28-3.25 8.28-7.26v-.12zM14 11.15a9.45 9.45 0 0 1 18.91 0v.64H14zm24.61 46.13H8.28c-3.58 0-6.53-2.46-6.57-5.48v-.07l3.4-38.23h7.17v5.9a.85.85 0 0 0 1.71 0v-5.9H32.9v5.9a.85.85 0 0 0 1.71 0v-5.9h7.17l3.4 38.27h-.17.18c-.06 3.06-3 5.51-6.58 5.51z"/></g></g></svg>