<svg xmlns="http://www.w3.org/2000/svg" viewBox="0 0 49.18 61.5"><defs><style>.cls-1{fill:#8bb751}</style></defs><title>Ресурс 4</title><g id="layer_2" data-name="layer 2"><g id="layer_1-2" data-name="layer 1"><path class="cls-1" d="M11.57 37.54H8.74a3.89 3.89 0 0 0-3.88 3.89v2.39a3.89 3.89 0 0 0 3.88 3.88h2.83a3.89 3.89 0 0 0 3.89-3.88v-2.4a3.89 3.89 0 0 0-3.89-3.88zm2.1 6.27a2.1 2.1 0 0 1-2.1 2.1H8.74a2.1 2.1 0 0 1-2.1-2.1v-2.39a2.1 2.1 0 0 1 2.1-2.1h2.83a2.1 2.1 0 0 1 2.1 2.1zm18.03 8.81h-4.36a1 1 0 1 0 0 2h4.36a1 1 0 0 0 0-2zm-21.49 0H5.85a1 1 0 0 0 0 2h4.36a1 1 0 1 0 0-2zm10.79 0h-4.4a1 1 0 0 0 0 2H21a1 1 0 1 0 0-2zm21.45 0h-4.36a1 1 0 1 0 0 2h4.35a1 1 0 0 0 0-2zm-.11-15.08H29a1 1 0 1 0 0 2h13.34a1 1 0 1 0 0-2z"/><path class="cls-1" d="M44 28.64h-1.45l.25-.39A12.2 12.2 0 0 0 29.05 9.94l-.29.09v-.3a10.85 10.85 0 1 0-8.68 11.54l.3-.06v.38a12.16 12.16 0 0 0 2 6.67l.25.39H5.14A5.14 5.14 0 0 0 0 33.78v22.59a5.14 5.14 0 0 0 5.14 5.13H44a5.14 5.14 0 0 0 5.13-5.13V33.78A5.14 5.14 0 0 0 44 28.64zm-23.53-9h-.16a9.26 9.26 0 1 1 6.94-9.23v.16l-.14.07a12.28 12.28 0 0 0-4.37 3.65V7.83a.81.81 0 0 0-1.45-.5 4.77 4.77 0 0 1-1.72 1.25.67.67 0 0 0 0 1.2.66.66 0 0 0 .51 0 4.51 4.51 0 0 0 1.17-.64v5.7a.73.73 0 0 0 .65.72 12.1 12.1 0 0 0-1.43 3.91zm1.3 2a10.74 10.74 0 1 1 10.79 10.74 10.76 10.76 0 0 1-10.75-10.75zm25.7 34.73A3.43 3.43 0 0 1 44 59.8H5.14a3.43 3.43 0 0 1-3.43-3.43V33.78a3.43 3.43 0 0 1 3.43-3.43H24l.07.07a12.16 12.16 0 0 0 16.92 0l.07-.07h3a3.43 3.43 0 0 1 3.43 3.43z"/><path class="cls-1" d="M32.66 27.11h5a.74.74 0 1 0 0-1.48H34.4l.43-.4c2-1.9 3.37-3.39 3.37-5.3a2.9 2.9 0 0 0-3.14-3 4.43 4.43 0 0 0-2.49.75.7.7 0 0 0 .18 1.25.69.69 0 0 0 .56-.07 2.79 2.79 0 0 1 1.47-.45 1.51 1.51 0 0 1 1.72 1.69c0 1.34-1 2.53-3.51 4.88l-.85.83a.76.76 0 0 0 .53 1.31zM17.78 10.66H16V8.92a.65.65 0 0 0-1.3 0v1.74H13A.65.65 0 0 0 13 12h1.74v1.7a.65.65 0 1 0 1.3 0V12h1.74a.65.65 0 0 0 0-1.3zm8.34 12.02h1.74v1.74a.65.65 0 0 0 1.3 0v-1.74h1.74a.65.65 0 0 0 0-1.3h-1.74v-1.75a.65.65 0 0 0-1.3 0v1.74h-1.74a.65.65 0 0 0 0 1.3z"/></g></g></svg>