<svg xmlns="http://www.w3.org/2000/svg" viewBox="0 0 68.88 57.9"><defs><style>.cls-1{fill:#8bb751}</style></defs><title>Layer 5</title><g id="layer_2" data-name="layer 2"><g id="layer_1-2" data-name="layer 1"><path class="cls-1" d="M12.49 17.82a2.78 2.78 0 0 0 .37-2.11L12.48 14a2.81 2.81 0 0 0-2.73-2.19 2.84 2.84 0 0 0-.62.07l-2 .46A2.81 2.81 0 0 0 5 15.68l.38 1.71a2.81 2.81 0 0 0 3.35 2.12l2-.46a2.78 2.78 0 0 0 1.76-1.23zm-4 .51a1.59 1.59 0 0 1-1.9-1.2l-.38-1.71a1.59 1.59 0 0 1 1.2-1.9l2-.46a1.59 1.59 0 0 1 1.9 1.2l.37 1.74a1.59 1.59 0 0 1-1.2 1.9zm13.85 2.62a.68.68 0 0 0 .81.51l3.12-.7a.68.68 0 0 0 .21-1.24.69.69 0 0 0-.51-.09l-3.12.7a.68.68 0 0 0-.51.82zm-15.4 3.46a.68.68 0 0 0 .3.43.66.66 0 0 0 .51.09l3.12-.7a.68.68 0 0 0 .51-.81.69.69 0 0 0-.81-.51l-3.12.7a.68.68 0 0 0-.51.8zm7.79-2.24a.67.67 0 0 0-.09.51.68.68 0 0 0 .3.43.67.67 0 0 0 .51.09l3.12-.7a.68.68 0 0 0 .51-.81.68.68 0 0 0-.81-.51l-3.12.7a.68.68 0 0 0-.42.29zm16.12-2.44L34 19a.68.68 0 0 0 .51-.81.69.69 0 0 0-.81-.51l-3.12.7a.68.68 0 1 0 .3 1.33zM20 7.15a.76.76 0 0 0 .81 1.14l9.58-2.15a.76.76 0 0 0 .61-.91.76.76 0 0 0-.74-.59h-.17l-9.62 2.17a.75.75 0 0 0-.47.34z"/><path class="cls-1" d="M10.31 4.73l-1.58.34h-.11L3 6.36A3.91 3.91 0 0 0 .1 11l3.63 16.21a3.9 3.9 0 0 0 4.66 2.95L9.2 30l7 20.78a10.41 10.41 0 0 0 9.88 7.1h23.8a10.45 10.45 0 0 0 10-7.64l6.14-22.18h2a.8.8 0 0 0 0-1.6H39.38l.06-.08L53.08 7.15a.91.91 0 0 0-.22-1.27.92.92 0 0 0-1.27.22L37.27 26.31a.34.34 0 0 0 0 .09v.06H24.74l11.52-2.59a3.9 3.9 0 0 0 3-4.66L35.58 3.05a3.91 3.91 0 0 0-4.67-3L29 .53 16.12 3.4zm40 23.59H64.1l-1.7 6.14H50.32zm0 8h11.58l-2.11 7.64h-9.46zm0 9.47h9l-1.11 4a8.59 8.59 0 0 1-7.79 6.28h-.05zM38.93 28.31h9.57v6.14h-9.57zm0 8h9.57v7.64h-9.57zm0 9.47h9.57v10.29h-9.57zM26.82 28.31H37.1v6.14H26.82zm0 8H37.1v7.64H26.82zm0 9.47H37.1v10.29H26.82zM25 56h-.06a8.53 8.53 0 0 1-7-5.77l-1.5-4.46H25zm0-12.07h-9.19l-2.56-7.61H25zm0-15.61v6.14H12.63L11 29.57l5.55-1.25zm6.24-26.74a2.39 2.39 0 0 1 2.86 1.8l3.64 16.18a2.39 2.39 0 0 1-1.81 2.85L8.06 28.68a2.38 2.38 0 0 1-2.84-1.8L1.58 10.69a2.39 2.39 0 0 1 1.8-2.85z"/></g></g></svg>