<svg xmlns="http://www.w3.org/2000/svg" viewBox="0 0 39.47 61.5"><defs><style>.cls-1{fill:#c63525;}</style></defs><title>card-popup-icon-6</title><g id="Слой_2" data-name="Слой 2"><g id="Слой_1-2" data-name="Слой 1"><path class="cls-1" d="M.61,61.5H38.87a.61.61,0,0,0,.61-.63v-7a.61.61,0,0,0-.61-.63H.61a.62.62,0,0,0-.61.63v7A.61.61,0,0,0,.61,61.5Z"/><path class="cls-1" d="M1.82,38.75l6.35,2.46a.6.6,0,0,0,.78-.37l2.74-7.53H27.8c.27.73,2.61,7.22,2.72,7.53a.62.62,0,0,0,.78.37l6.35-2.46a.63.63,0,0,0,.36-.81L26.34,6c-1.1-3-2.42-6-6.6-6s-5.55,3-6.61,6C12.58,7.53,1.86,36.83,1.47,37.95A.63.63,0,0,0,1.82,38.75Zm17.88-29h.07l5.47,16.36h-11Z"/></g></g></svg>