<svg xmlns="http://www.w3.org/2000/svg" viewBox="0 0 62.61 38.5"><defs><style>.cls-1{fill:#6fab48}</style></defs><title>card-popup-icon-1</title><g id="layer_2" data-name="layer 2"><g id="layer_1-2" data-name="layer 1"><path class="cls-1" d="M11.59 14.6H8.76A3.8 3.8 0 0 0 5 18.39v2.39a3.8 3.8 0 0 0 3.79 3.79h2.83a3.8 3.8 0 0 0 3.79-3.79v-2.39a3.8 3.8 0 0 0-3.82-3.79zm0 8.39H8.76a2.2 2.2 0 0 1-2.2-2.2v-2.4a2.2 2.2 0 0 1 2.2-2.2h2.83a2.2 2.2 0 0 1 2.2 2.2v2.39a2.2 2.2 0 0 1-2.2 2.22zm20.16 6.61h-4.36a1 1 0 1 0 0 2h4.36a1 1 0 0 0 0-2zm-21.53 0H5.86a1 1 0 0 0 0 2h4.36a1 1 0 1 0 0-2zm10.78 0h-4.37a1 1 0 0 0 0 2H21a1 1 0 1 0 0-2zm21.52 0h-4.36a1 1 0 1 0 0 2h4.36a1 1 0 0 0 0-2zM29 13.35h13.4a1 1 0 1 0 0-2H29a1 1 0 1 0 0 2z"/><path class="cls-1" d="M62.61 27.76V5.14A5.15 5.15 0 0 0 57.47 0h-39a5.15 5.15 0 0 0-5.14 5.14v.38l-.33.06H5.14A5.15 5.15 0 0 0 0 10.73v22.63a5.15 5.15 0 0 0 5.14 5.14h39a5.15 5.15 0 0 0 5.14-5.14V33l.36-.08h7.85a5.15 5.15 0 0 0 5.12-5.16zM60.92 17.4H49.26v-4.17h11.66zm-13.36 16a3.44 3.44 0 0 1-3.44 3.44h-39a3.44 3.44 0 0 1-3.44-3.44V10.73a3.44 3.44 0 0 1 3.46-3.44h39a3.44 3.44 0 0 1 3.44 3.44zM44.12 5.58H15.06v-.41a3.46 3.46 0 0 1 3.44-3.48h39a3.45 3.45 0 0 1 3.45 3.45v6.38H49.26v-.79a5.15 5.15 0 0 0-5.14-5.15zm5.14 25.62V19.11h11.66v8.65a3.45 3.45 0 0 1-3.45 3.45z"/></g></g></svg>