<svg xmlns="http://www.w3.org/2000/svg" viewBox="0 0 62.7 60.11"><defs><style>.cls-1{fill:#6fab48;}</style></defs><title>card-popup-icon-5</title><g id="Слой_2" data-name="Слой 2"><g id="Слой_1-2" data-name="Слой 1"><path class="cls-1" d="M12.14,34.8h-3a3.77,3.77,0,0,0-3.77,3.77v2.52a3.77,3.77,0,0,0,3.77,3.77h3a3.77,3.77,0,0,0,3.77-3.77V38.57A3.77,3.77,0,0,0,12.14,34.8Zm2.54,6.29a2.54,2.54,0,0,1-2.54,2.54h-3a2.54,2.54,0,0,1-2.54-2.54V38.57A2.54,2.54,0,0,1,9.16,36h3a2.54,2.54,0,0,1,2.54,2.54Z"/><path class="cls-1" d="M33.36,50.7H28.77a.72.72,0,0,0,0,1.44h4.59a.72.72,0,0,0,0-1.44Z"/><path class="cls-1" d="M10.7,50.7H6.11a.72.72,0,0,0,0,1.44H10.7a.72.72,0,0,0,0-1.44Z"/><path class="cls-1" d="M22,50.7H17.44a.72.72,0,0,0,0,1.44H22a.72.72,0,0,0,0-1.44Z"/><path class="cls-1" d="M44.7,50.7H40.1a.72.72,0,0,0,0,1.44H44.7a.72.72,0,0,0,0-1.44Z"/><path class="cls-1" d="M62.42,15.61a.84.84,0,0,0-.57-.67.81.81,0,0,0-.82.18.83.83,0,0,0-.27.74,16.79,16.79,0,0,1,.27,3,17.17,17.17,0,0,1-34.22,2A17,17,0,0,1,31.07,7.4,17.13,17.13,0,0,1,56,6.68a.84.84,0,0,0,1.46-.55.79.79,0,0,0-.23-.58A18.7,18.7,0,0,0,43.87,0a19.64,19.64,0,0,0-2.71.19,18.84,18.84,0,0,0-14.87,25.4H5.35A5.36,5.36,0,0,0,0,30.94V54.76a5.36,5.36,0,0,0,5.35,5.35h41a5.36,5.36,0,0,0,5.35-5.35V35.93A18.78,18.78,0,0,0,62.42,15.61ZM50.07,54.76a3.69,3.69,0,0,1-3.69,3.69h-41a3.69,3.69,0,0,1-3.69-3.69V30.94a3.69,3.69,0,0,1,3.69-3.69H27a18.88,18.88,0,0,0,19.63,10.2,18.06,18.06,0,0,0,3.41-.85Z"/><path class="cls-1" d="M35.84,16a.83.83,0,0,0-1.18,1.18l9.75,9.75L62.23,9.09a.83.83,0,0,0,0-1.18.85.85,0,0,0-1.18,0L44.41,24.55Z"/></g></g></svg>