<svg xmlns="http://www.w3.org/2000/svg" viewBox="0 0 49.18 61.5"><defs><style>.cls-1{fill:#6fab48}</style></defs><title>card-popup-icon-4</title><g id="layer_2" data-name="layer 2"><g id="layer_1-2" data-name="layer 1"><path class="cls-1" d="M11.57 37.54H8.74a3.89 3.89 0 0 0-3.88 3.89v2.39a3.89 3.89 0 0 0 3.88 3.88h2.83a3.89 3.89 0 0 0 3.89-3.88v-2.4a3.89 3.89 0 0 0-3.89-3.88zm2.1 6.27a2.1 2.1 0 0 1-2.1 2.1H8.74a2.1 2.1 0 0 1-2.1-2.1v-2.39a2.1 2.1 0 0 1 2.1-2.1h2.83a2.1 2.1 0 0 1 2.1 2.1zm18.03 8.81h-4.36a1 1 0 1 0 0 2h4.36a1 1 0 0 0 0-2zm-21.49 0H5.85a1 1 0 0 0 0 2h4.36a1 1 0 1 0 0-2zm10.79 0h-4.4a1 1 0 0 0 0 2H21a1 1 0 1 0 0-2zm21.45 0h-4.36a1 1 0 1 0 0 2h4.35a1 1 0 0 0 0-2zM29 39.53h13.34a1 1 0 1 0 0-2H29a1 1 0 1 0 0 2z"/><path class="cls-1" d="M0 33.78v22.59a5.14 5.14 0 0 0 5.14 5.13H44a5.14 5.14 0 0 0 5.13-5.13V33.78A5.14 5.14 0 0 0 44 28.64h-1.45l.25-.39A12.2 12.2 0 0 0 29.05 9.94l-.29.09v-.3a10.85 10.85 0 1 0-8.68 11.54l.3-.06v.38a12.16 12.16 0 0 0 2 6.67l.25.39H5.14A5.14 5.14 0 0 0 0 33.78zm20.52-14.13h-.16a9.26 9.26 0 1 1 6.94-9.23v.16l-.14.07a12.27 12.27 0 0 0-6.62 8.8zm1.3 2a10.74 10.74 0 1 1 10.74 10.73 10.76 10.76 0 0 1-10.75-10.75zm2.18 8.7l.07.07a12.16 12.16 0 0 0 16.92 0l.07-.07h3a3.43 3.43 0 0 1 3.43 3.43v22.59A3.43 3.43 0 0 1 44 59.8H5.14a3.43 3.43 0 0 1-3.43-3.43V33.78a3.43 3.43 0 0 1 3.43-3.43z"/><path class="cls-1" d="M31 22.52h3.69a3.75 3.75 0 0 0 3.07-1.17 3.56 3.56 0 0 0 1-2.51 5.29 5.29 0 0 0-.38-1.8 3.05 3.05 0 0 0-.86-1.19 3.3 3.3 0 0 0-1.4-.71 6.65 6.65 0 0 0-1.59-.14H30a.64.64 0 0 0-.64.65v5.49h-.15a.69.69 0 1 0 0 1.38h.15v.56h-.15a.69.69 0 1 0 0 1.38h.15v3.06a.74.74 0 0 0 1.47 0v-3.06h4.59a.69.69 0 1 0 0-1.38h-4.56v-.56zm-.09-6.11h3.77a4.33 4.33 0 0 1 1.24.12 2 2 0 0 1 .84.78 3 3 0 0 1 .24 1.42 2.73 2.73 0 0 1-.65 1.79 2 2 0 0 1-1.72.63h-3.8z"/></g></g></svg>