<svg xmlns="http://www.w3.org/2000/svg" viewBox="0 0 19.84 19.84">
    <defs>
        <style>
            .cls-1{fill:#6fab48}
        </style>
    </defs>
    <title>
        card-popup-icon-11
    </title>
    <g id="layer_2" data-name="layer 2">
        <g id="layer_1-2" data-name="layer 1">
            <path class="cls-1" d="M9.92 14.95a.77.77 0 0 0-.54 1.31.76.76 0 0 0 1.09 0 .77.77 0 0 0-.54-1.31m0 2.56a1.8 1.8 0 1 1 1.27-3.06 1.8 1.8 0 0 1-1.27 3.06M9.66 12.13h.47c.08-.6.16-1.2.24-1.77.24-1.73.46-3.37.54-4.61.1-1.68-.12-2-.18-2.11a1.27 1.27 0 0 0-.86-.27 1 1 0 0 0-.73.22c-.47.63-.06 3.84.34 6.93.07.52.14 1.06.21 1.62m.23 1.07a1.13 1.13 0 0 1-1.25-.89l-.21-1.66C7.9 6.45 7.57 3.92 8.29 3a1.91 1.91 0 0 1 1.54-.63 2.33 2.33 0 0 1 1.62.57c.86.86.49 3.54-.06 7.59-.08.59-.16 1.2-.25 1.82a1.14 1.14 0 0 1-1.25.89"/>
            <path class="cls-1" d="M9.92.95a9 9 0 1 0 9 9 9 9 0 0 0-9-9m0 18.9a9.92 9.92 0 1 1 9.92-9.92 9.93 9.93 0 0 1-9.92 9.92"/>
        </g>
    </g>
</svg>
