<svg xmlns="http://www.w3.org/2000/svg" viewBox="0 0 56.72 51.3"><defs><style>.cls-1{fill:#8bb751}</style></defs><title>Ресурс 2</title><g id="layer_2" data-name="layer 2"><g id="layer_1-2" data-name="layer 1"><circle class="cls-1" cx="44.87" cy="31.86" r="2.11"/><path class="cls-1" d="M53.94 25V13.87a5.22 5.22 0 0 0-5.22-5.22h-4l-4-7.11a3 3 0 0 0-4-1.16L21.84 8.65H5.22A5.22 5.22 0 0 0 0 13.87v32.21a5.22 5.22 0 0 0 5.22 5.22h43.5a5.22 5.22 0 0 0 5.22-5.22v-7.57h2.78V25zm-5.22-14.82a3.68 3.68 0 0 1 3.65 3.28v.39h-4.74l-2-3.67zM37.46 1.71a1.49 1.49 0 0 1 2 .57l6.43 11.57H15.64zm14.95 44.37a3.69 3.69 0 0 1-3.69 3.69H5.22a3.69 3.69 0 0 1-3.69-3.69V13.87a3.69 3.69 0 0 1 3.69-3.69H19.1l-6.6 3.67H5.91a.76.76 0 1 0 0 1.53h46.5V25h-8.49a6.52 6.52 0 0 0-6.51 6.51V32a6.52 6.52 0 0 0 6.51 6.51h8.49zM55.19 37H43.92a5 5 0 0 1-5-5v-.48a5 5 0 0 1 5-5h11.27z"/><path class="cls-1" d="M29 10.29a.6.6 0 0 0 .43.14.58.58 0 0 0 .4-.2 3.22 3.22 0 0 0 .38-.56L32 12.8a.63.63 0 0 0 .55.32.63.63 0 0 0 .55-.94L30.79 8a.68.68 0 0 0-1.27.23 3.08 3.08 0 0 1-.58 1.24.59.59 0 0 0 .06.82zm5.58 1.56a1.71 1.71 0 0 0 .84-.22c1.18-.66 1.31-2 .36-3.73-.9-1.62-2.11-2.22-3.22-1.6s-1.27 2.08-.37 3.7a3.07 3.07 0 0 0 2.39 1.85zm-1.8-3.95a.63.63 0 0 1 .22-.63c.64-.36 1.36.77 1.64 1.27A3.73 3.73 0 0 1 35.2 10c0 .44-.15.59-.29.67-.42.24-1.07-.26-1.64-1.27a3.45 3.45 0 0 1-.49-1.5zm5.56 1.85a1.72 1.72 0 0 0 .84-.22c1.18-.66 1.31-2 .35-3.73s-2.11-2.22-3.22-1.6a1.86 1.86 0 0 0-1 1.48 3.87 3.87 0 0 0 .58 2.21 3.07 3.07 0 0 0 2.45 1.86zm.34-1.2c-.43.24-1.07-.26-1.64-1.27s-.66-1.87-.23-2.11a.53.53 0 0 1 .26-.07c.54 0 1.08.81 1.37 1.34s.89 1.75.24 2.11z"/></g></g></svg>