<svg xmlns="http://www.w3.org/2000/svg" viewBox="0 0 62.61 38.5"><defs><style>.cls-1{fill:#6fab48;}</style></defs><title>card-popup-icon-1</title><g id="Слой_2" data-name="Слой 2"><g id="Слой_1-2" data-name="Слой 1"><path class="cls-1" d="M11.59,14.6H8.76A3.8,3.8,0,0,0,5,18.39v2.39a3.8,3.8,0,0,0,3.79,3.79h2.83a3.8,3.8,0,0,0,3.79-3.79V18.39A3.8,3.8,0,0,0,11.59,14.6Zm0,8.39H8.76a2.2,2.2,0,0,1-2.2-2.2V18.39a2.2,2.2,0,0,1,2.2-2.2h2.83a2.2,2.2,0,0,1,2.2,2.2v2.39A2.2,2.2,0,0,1,11.59,23Z"/><path class="cls-1" d="M31.75,29.6H27.39a1,1,0,1,0,0,2h4.36a1,1,0,0,0,0-2Z"/><path class="cls-1" d="M10.22,29.6H5.86a1,1,0,0,0,0,2h4.36a1,1,0,1,0,0-2Z"/><path class="cls-1" d="M21,29.6H16.63a1,1,0,0,0,0,2H21a1,1,0,1,0,0-2Z"/><path class="cls-1" d="M42.52,29.6H38.16a1,1,0,1,0,0,2h4.36a1,1,0,0,0,0-2Z"/><path class="cls-1" d="M29,13.35h13.4a1,1,0,1,0,0-2H29a1,1,0,1,0,0,2Z"/><path class="cls-1" d="M62.61,27.76V5.14A5.15,5.15,0,0,0,57.47,0h-39a5.15,5.15,0,0,0-5.14,5.14v.38L13,5.58H5.14A5.15,5.15,0,0,0,0,10.73V33.36A5.15,5.15,0,0,0,5.14,38.5h39a5.15,5.15,0,0,0,5.14-5.14V33l.36-.08h7.85A5.15,5.15,0,0,0,62.61,27.76ZM60.92,17.4H49.26V13.23H60.92Zm-13.36,16a3.44,3.44,0,0,1-3.44,3.44h-39a3.44,3.44,0,0,1-3.44-3.44V10.73A3.44,3.44,0,0,1,5.14,7.29h39a3.44,3.44,0,0,1,3.44,3.44ZM44.12,5.58H15.06V5.17A3.46,3.46,0,0,1,18.5,1.69h39a3.45,3.45,0,0,1,3.45,3.45v6.38H49.26v-.79A5.15,5.15,0,0,0,44.12,5.58Zm5.14,25.62V19.11H60.92v8.65a3.45,3.45,0,0,1-3.45,3.45Z"/></g></g></svg>