<svg xmlns="http://www.w3.org/2000/svg" width="36.875" height="28.812" viewBox="0 0 36.875 28.812">
  <metadata><?xpacket begin="﻿" id="W5M0MpCehiHzreSzNTczkc9d"?>
<x:xmpmeta xmlns:x="adobe:ns:meta/" x:xmptk="Adobe XMP Core 5.6-c138 79.159824, 2016/09/14-01:09:01        ">
   <rdf:RDF xmlns:rdf="http://www.w3.org/1999/02/22-rdf-syntax-ns#">
      <rdf:Description rdf:about=""/>
   </rdf:RDF>
</x:xmpmeta>
                                                                                                    
                                                                                                    
                                                                                                    
                                                                                                    
                                                                                                    
                                                                                                    
                                                                                                    
                                                                                                    
                                                                                                    
                                                                                                    
                                                                                                    
                                                                                                    
                                                                                                    
                                                                                                    
                                                                                                    
                                                                                                    
                                                                                                    
                                                                                                    
                                                                                                    
                                                                                                    
                           
<?xpacket end="w"?></metadata>
<defs>
    <style>
      .cls-1 {
        fill: #b1d235;
        fill-rule: evenodd;
      }
    </style>
  </defs>
  <path id="cart" class="cls-1" d="M819.105,101.722A2.425,2.425,0,1,1,816.68,99.3,2.425,2.425,0,0,1,819.105,101.722Zm16.312,0a2.425,2.425,0,1,1-2.425-2.423A2.425,2.425,0,0,1,835.417,101.722ZM804.161,78.4h6.59l2.97,19.433h19.184a3.833,3.833,0,0,0,3.759-3.056H816.371l-0.523-3.437h19.2a3.839,3.839,0,0,0,3.759-3.064H815.382l-0.489-3.217h22.373a3.839,3.839,0,0,0,3.759-3.064h-26.6L813.4,75.345h-5.516a3.8,3.8,0,0,0-3.726,3.05" transform="translate(-804.156 -75.344)"/>
</svg>
