<svg xmlns="http://www.w3.org/2000/svg" viewBox="0 0 148.14 102.5"><defs><style>.cls-1{fill:#fff}</style></defs><title>personal-area-buttons-card</title><g id="layer_2" data-name="layer 2"><g id="Capa_1" data-name="Capa 1"><path class="cls-1" d="M13.61 42.19H16a1.85 1.85 0 1 0 0-3.7h-2.39a1.85 1.85 0 1 0 0 3.7zm25.88-3.7a1.85 1.85 0 1 0 0 3.7h2.35a1.85 1.85 0 1 0 0-3.7zm-4.71-11.77H13.61a1.85 1.85 0 1 0 0 3.7h21.17a1.85 1.85 0 1 0 0-3.7zM11.76 82.53A3.51 3.51 0 0 0 15.27 86h19.86a3.51 3.51 0 0 0 3.51-3.51V71.72a3.51 3.51 0 0 0-3.51-3.51H15.27a3.51 3.51 0 0 0-3.51 3.51zm3.7-10.6h19.47v10.4H15.47zm117.41-3.71H113a3.51 3.51 0 0 0-3.51 3.51v10.8A3.51 3.51 0 0 0 113 86h19.86a3.51 3.51 0 0 0 3.51-3.51V71.72a3.51 3.51 0 0 0-3.5-3.5zm-.2 14.11H113.2V71.92h19.47zM30.08 38.49h-4.7a1.85 1.85 0 1 0 0 3.7h4.7a1.85 1.85 0 1 0 0-3.7z"/><path class="cls-1" d="M138.72 0H9.42A9.43 9.43 0 0 0 0 9.42v83.66a9.43 9.43 0 0 0 9.42 9.42h129.3a9.43 9.43 0 0 0 9.42-9.42V9.42A9.43 9.43 0 0 0 138.72 0zm5.71 93.08a5.72 5.72 0 0 1-5.71 5.72H9.42a5.72 5.72 0 0 1-5.72-5.72V9.42A5.72 5.72 0 0 1 9.42 3.7h129.3a5.72 5.72 0 0 1 5.71 5.71z"/><path class="cls-1" d="M100.29 68.22H80.43a3.51 3.51 0 0 0-3.51 3.51v10.8A3.51 3.51 0 0 0 80.43 86h19.86a3.51 3.51 0 0 0 3.51-3.51V71.72a3.51 3.51 0 0 0-3.51-3.5zm-.2 14.11H80.63V71.92h19.47zM66.68 39a1.84 1.84 0 0 0-1.33-.53 1.78 1.78 0 0 0-1.28.5 1.85 1.85 0 0 0-.56 1.32 1.92 1.92 0 0 0 .54 1.33 2 2 0 0 0 2.63 0 2 2 0 0 0 .53-1.31 1.87 1.87 0 0 0-.53-1.31zM47.85 86h19.86a3.51 3.51 0 0 0 3.51-3.51V71.72a3.51 3.51 0 0 0-3.51-3.51H47.85a3.51 3.51 0 0 0-3.51 3.51v10.8A3.51 3.51 0 0 0 47.85 86zM48 71.92h19.51v10.41H48zm17.36-45.2H44.19a1.85 1.85 0 1 0 0 3.7h21.17a1.85 1.85 0 1 0 0-3.7zM51.25 42.19H56a1.85 1.85 0 1 0 0-3.7h-4.7a1.85 1.85 0 1 0 0 3.7z"/><path class="cls-1" d="M112.65 34.46l-5.5-5.69a8.39 8.39 0 0 0-6.2-2.65 8.14 8.14 0 0 0-8.09 8.34A8.14 8.14 0 0 0 101 42.8a8.39 8.39 0 0 0 6.2-2.65zM101 39.23a4.78 4.78 0 0 1 0-9.55 4.81 4.81 0 0 1 3.69 1.61l3.17 3.16-3.15 3.14a4.82 4.82 0 0 1-3.71 1.64zm13.66-2.8c-.48 0-5.67 5.52-5.67 5.52a8.44 8.44 0 0 0-2.64 6.22 8.32 8.32 0 0 0 16.63 0 8.44 8.44 0 0 0-2.69-6.17zm0 16.29a4.56 4.56 0 0 1-4.76-4.55 4.83 4.83 0 0 1 1.61-3.7l3.15-3.18 3.13 3.16a4.86 4.86 0 0 1 1.63 3.72 4.56 4.56 0 0 1-4.8 4.55zm0-20.24l5.63-5.48a8.45 8.45 0 0 0 2.65-6.22 8.32 8.32 0 0 0-16.63 0 8.45 8.45 0 0 0 2.64 6.22zm0-16.29a4.61 4.61 0 0 1 4.76 4.55 4.83 4.83 0 0 1-1.61 3.7l-3.15 3.18-3.13-3.15a4.86 4.86 0 0 1-1.63-3.72 4.55 4.55 0 0 1 4.72-4.56zm13.66 9.92a8.4 8.4 0 0 0-6.2 2.65l-5.5 5.69 5.5 5.69a8.4 8.4 0 0 0 6.2 2.65 8.14 8.14 0 0 0 8.09-8.35 8.14 8.14 0 0 0-8.13-8.33zm0 13.12a4.8 4.8 0 0 1-3.69-1.61l-3.16-3.16 3.14-3.14a4.84 4.84 0 0 1 3.71-1.63 4.78 4.78 0 0 1 0 9.55z" id="_Группа_" data-name="&lt;Группа&gt;"/></g></g></svg>