<svg xmlns="http://www.w3.org/2000/svg" viewBox="0 0 148.14 102.5"><defs><style>.cls-1{fill:#fff;}</style></defs><title>personal-area-buttons-card</title><g id="Слой_2" data-name="Слой 2"><g id="Capa_1" data-name="Capa 1"><path class="cls-1" d="M13.61,42.19H16a1.85,1.85,0,1,0,0-3.7H13.61a1.85,1.85,0,1,0,0,3.7Z"/><path class="cls-1" d="M39.49,38.49a1.85,1.85,0,1,0,0,3.7h2.35a1.85,1.85,0,1,0,0-3.7Z"/><path class="cls-1" d="M34.78,26.72H13.61a1.85,1.85,0,1,0,0,3.7H34.78a1.85,1.85,0,1,0,0-3.7Z"/><path class="cls-1" d="M11.76,82.53A3.51,3.51,0,0,0,15.27,86H35.13a3.51,3.51,0,0,0,3.51-3.51V71.72a3.51,3.51,0,0,0-3.51-3.51H15.27a3.51,3.51,0,0,0-3.51,3.51Zm3.7-10.6H34.93V82.33H15.47Z"/><path class="cls-1" d="M132.87,68.22H113a3.51,3.51,0,0,0-3.51,3.51v10.8A3.51,3.51,0,0,0,113,86h19.86a3.51,3.51,0,0,0,3.51-3.51V71.72A3.51,3.51,0,0,0,132.87,68.22Zm-.2,14.11H113.2V71.92h19.47Z"/><path class="cls-1" d="M30.08,38.49h-4.7a1.85,1.85,0,1,0,0,3.7h4.7a1.85,1.85,0,1,0,0-3.7Z"/><path class="cls-1" d="M138.72,0H9.42A9.43,9.43,0,0,0,0,9.42V93.08a9.43,9.43,0,0,0,9.42,9.42h129.3a9.43,9.43,0,0,0,9.42-9.42V9.42A9.43,9.43,0,0,0,138.72,0Zm5.71,93.08a5.72,5.72,0,0,1-5.71,5.72H9.42A5.72,5.72,0,0,1,3.7,93.08V9.42A5.72,5.72,0,0,1,9.42,3.7h129.3a5.72,5.72,0,0,1,5.71,5.71Z"/><path class="cls-1" d="M100.29,68.22H80.43a3.51,3.51,0,0,0-3.51,3.51v10.8A3.51,3.51,0,0,0,80.43,86h19.86a3.51,3.51,0,0,0,3.51-3.51V71.72A3.51,3.51,0,0,0,100.29,68.22Zm-.2,14.11H80.63V71.92h19.47Z"/><path class="cls-1" d="M66.68,39a1.84,1.84,0,0,0-1.33-.53,1.78,1.78,0,0,0-1.28.5h0a1.85,1.85,0,0,0-.56,1.32,1.92,1.92,0,0,0,.54,1.33,2,2,0,0,0,2.63,0,2,2,0,0,0,.53-1.31A1.87,1.87,0,0,0,66.68,39Z"/><path class="cls-1" d="M47.85,86H67.71a3.51,3.51,0,0,0,3.51-3.51V71.72a3.51,3.51,0,0,0-3.51-3.51H47.85a3.51,3.51,0,0,0-3.51,3.51v10.8A3.51,3.51,0,0,0,47.85,86ZM48,71.92H67.51V82.33H48Z"/><path class="cls-1" d="M65.36,26.72H44.19a1.85,1.85,0,1,0,0,3.7H65.36a1.85,1.85,0,1,0,0-3.7Z"/><path class="cls-1" d="M51.25,42.19H56a1.85,1.85,0,1,0,0-3.7h-4.7a1.85,1.85,0,1,0,0,3.7Z"/><g id="_Группа_" data-name="&lt;Группа&gt;"><path class="cls-1" d="M112.65,34.46l-5.5-5.69a8.39,8.39,0,0,0-6.2-2.65,8.14,8.14,0,0,0-8.09,8.34A8.14,8.14,0,0,0,101,42.8a8.39,8.39,0,0,0,6.2-2.65ZM101,39.23a4.78,4.78,0,0,1,0-9.55,4.81,4.81,0,0,1,3.69,1.61l3.17,3.16-3.15,3.14A4.82,4.82,0,0,1,101,39.23Zm13.66-2.8c-.48,0-5.67,5.52-5.67,5.52a8.44,8.44,0,0,0-2.64,6.22,8.32,8.32,0,0,0,16.63,0A8.44,8.44,0,0,0,120.29,42Zm0,16.29a4.56,4.56,0,0,1-4.76-4.55,4.83,4.83,0,0,1,1.61-3.7l3.15-3.18,3.13,3.16a4.86,4.86,0,0,1,1.63,3.72A4.56,4.56,0,0,1,114.62,52.72Zm0-20.24L120.29,27a8.45,8.45,0,0,0,2.65-6.22,8.32,8.32,0,0,0-16.63,0A8.45,8.45,0,0,0,108.95,27Zm0-16.29a4.61,4.61,0,0,1,4.76,4.55,4.83,4.83,0,0,1-1.61,3.7l-3.15,3.18-3.13-3.15a4.86,4.86,0,0,1-1.63-3.72A4.55,4.55,0,0,1,114.62,16.19Zm13.66,9.92a8.4,8.4,0,0,0-6.2,2.65l-5.5,5.69,5.5,5.69a8.4,8.4,0,0,0,6.2,2.65,8.14,8.14,0,0,0,8.09-8.35A8.14,8.14,0,0,0,128.28,26.11Zm0,13.12a4.8,4.8,0,0,1-3.69-1.61l-3.16-3.16,3.14-3.14a4.84,4.84,0,0,1,3.71-1.63,4.78,4.78,0,0,1,0,9.55Z"/></g></g></g></svg>