<svg xmlns="http://www.w3.org/2000/svg" viewBox="0 0 14.35 20.1"><defs><style>.cls-1{fill:#0c434a;}.cls-2{fill:none;stroke:#0c434a;stroke-miterlimit:10;stroke-width:0.15px;}</style></defs><title>terminals</title><g id="Слой_2" data-name="Слой 2"><g id="Слой_1-2" data-name="Слой 1"><path class="cls-1" d="M3.8,19.35h9.8V6.23L11,.75H2.29l-.47.71L3.77,6l0,.13ZM13.93,20H3.46a.34.34,0,0,1-.34-.34V6.22l-2-4.66a.34.34,0,0,1,0-.32l.68-1A.34.34,0,0,1,2.11.08h9.12a.34.34,0,0,1,.31.19L14.24,6l0,.14V19.69a.34.34,0,0,1-.34.34"/><path class="cls-2" d="M3.8,19.35h9.8V6.23L11,.75H2.29l-.47.71L3.77,6l0,.13ZM13.93,20H3.46a.34.34,0,0,1-.34-.34V6.22l-2-4.66a.34.34,0,0,1,0-.32l.68-1A.34.34,0,0,1,2.11.08h9.12a.34.34,0,0,1,.31.19L14.24,6l0,.14V19.69A.34.34,0,0,1,13.93,20Z"/><path class="cls-1" d="M4,2.1,5.7,5.83h6L10,2.1Zm1.5,4.4a.34.34,0,0,1-.31-.2l-2-4.4a.34.34,0,0,1,.31-.48h6.76a.34.34,0,0,1,.31.2l2,4.39a.34.34,0,0,1-.31.48H5.49Z"/><path class="cls-2" d="M4,2.1,5.7,5.83h6L10,2.1Zm1.5,4.4a.34.34,0,0,1-.31-.2l-2-4.4a.34.34,0,0,1,.31-.48h6.76a.34.34,0,0,1,.31.2l2,4.39a.34.34,0,0,1-.31.48H5.49Z"/><rect class="cls-1" x="9.2" y="7.84" width="3.38" height="0.68"/><rect class="cls-2" x="9.2" y="7.84" width="3.38" height="0.68"/><path class="cls-1" d="M3.46,20H1.77a.34.34,0,0,1-.34-.34V6.22L.1,2.9l.63-.25L2.09,6l0,.13v13.2H3.46Z"/><path class="cls-2" d="M3.46,20H1.77a.34.34,0,0,1-.34-.34V6.22L.1,2.9l.63-.25L2.09,6l0,.13v13.2H3.46Z"/></g></g></svg>