<svg xmlns="http://www.w3.org/2000/svg" viewBox="0 0 14.35 20.1"><defs><style>.cls-1{fill:#0c434a}.cls-2{fill:none;stroke:#0c434a;stroke-miterlimit:10;stroke-width:.15px}</style></defs><title>terminals</title><g id="layer_2" data-name="layer 2"><g id="layer_1-2" data-name="layer 1"><path class="cls-1" d="M3.8 19.35h9.8V6.23L11 .75H2.29l-.47.71L3.77 6v.13zm10.13.65H3.46a.34.34 0 0 1-.34-.34V6.22l-2-4.66a.34.34 0 0 1 0-.32l.68-1a.34.34 0 0 1 .31-.16h9.12a.34.34 0 0 1 .31.19L14.24 6v13.69a.34.34 0 0 1-.34.34"/><path class="cls-2" d="M3.8 19.35h9.8V6.23L11 .75H2.29l-.47.71L3.77 6v.13zm10.13.65H3.46a.34.34 0 0 1-.34-.34V6.22l-2-4.66a.34.34 0 0 1 0-.32l.68-1a.34.34 0 0 1 .31-.16h9.12a.34.34 0 0 1 .31.19L14.24 6v13.69a.34.34 0 0 1-.31.31z"/><path class="cls-1" d="M4 2.1l1.7 3.73h6L10 2.1zm1.5 4.4a.34.34 0 0 1-.31-.2l-2-4.4a.34.34 0 0 1 .31-.48h6.76a.34.34 0 0 1 .31.2l2 4.39a.34.34 0 0 1-.31.48H5.49z"/><path class="cls-2" d="M4 2.1l1.7 3.73h6L10 2.1zm1.5 4.4a.34.34 0 0 1-.31-.2l-2-4.4a.34.34 0 0 1 .31-.48h6.76a.34.34 0 0 1 .31.2l2 4.39a.34.34 0 0 1-.31.48H5.49z"/><path class="cls-1" d="M9.2 7.84h3.38v.68H9.2z"/><path class="cls-2" d="M9.2 7.84h3.38v.68H9.2z"/><path class="cls-1" d="M3.46 20H1.77a.34.34 0 0 1-.34-.34V6.22L.1 2.9l.63-.25L2.09 6v13.33h1.37z"/><path class="cls-2" d="M3.46 20H1.77a.34.34 0 0 1-.34-.34V6.22L.1 2.9l.63-.25L2.09 6v13.33h1.37z"/></g></g></svg>