<svg xmlns="http://www.w3.org/2000/svg" viewBox="0 0 23.58 14.4"><defs><style>.cls-1{fill:#0c434a;}</style></defs><title>Ресурс 1</title><g id="Слой_2" data-name="Слой 2"><g id="Слой_1-2" data-name="Слой 1"><path class="cls-1" d="M1,3.17a.21.21,0,0,0-.21.21v10A.21.21,0,0,0,1,13.6H16.63a.21.21,0,0,0,.21-.21v-10a.21.21,0,0,0-.21-.21ZM16.63,14.4H1a1,1,0,0,1-1-1v-10a1,1,0,0,1,1-1H16.63a1,1,0,0,1,1,1v10a1,1,0,0,1-1,1"/><path class="cls-1" d="M2.57,7.13a.21.21,0,0,0-.21.21V9.47a.21.21,0,0,0,.21.21H5.45a.21.21,0,0,0,.21-.21V7.34a.21.21,0,0,0-.21-.21Zm2.88,3.34H2.57a1,1,0,0,1-1-1V7.34a1,1,0,0,1,1-1H5.45a1,1,0,0,1,1,1V9.47a1,1,0,0,1-1,1"/><path class="cls-1" d="M4.31,12.45H2.06a.4.4,0,0,1,0-.8H4.31a.4.4,0,0,1,0,.8"/><path class="cls-1" d="M8.16,12.45H5.91a.4.4,0,0,1,0-.8H8.16a.4.4,0,0,1,0,.8"/><path class="cls-1" d="M12,12.45H9.77a.4.4,0,0,1,0-.8H12a.4.4,0,0,1,0,.8"/><path class="cls-1" d="M15.88,12.45H13.63a.4.4,0,0,1,0-.8h2.25a.4.4,0,0,1,0,.8"/><path class="cls-1" d="M15,5.35H9a.4.4,0,0,1,0-.8H15a.4.4,0,0,1,0,.8"/><path class="cls-1" d="M17.19,12h5.38a1,1,0,0,0,1-1V1a1,1,0,0,0-1-1H7a1,1,0,0,0-1,1v1.8h.8V1A.21.21,0,0,1,7,.8H22.57a.21.21,0,0,1,.21.21V11a.21.21,0,0,1-.21.21H17.19Z"/><path class="cls-1" d="M22.94,5.35H17.51a.4.4,0,0,1,0-.8h5.43a.4.4,0,0,1,0,.8"/><path class="cls-1" d="M22.94,7.49H17.51a.4.4,0,0,1,0-.8h5.43a.4.4,0,0,1,0,.8"/></g></g></svg>