<svg xmlns="http://www.w3.org/2000/svg" viewBox="0 0 197.6 82"><defs><style>.cls-1{fill:#005725}.cls-2,.cls-3,.cls-4{fill:none;stroke:#005725;stroke-miterlimit:10;stroke-width:2px}.cls-3,.cls-4{stroke-linecap:round}.cls-3{stroke-dasharray:1.97 4.94}</style></defs><title>10-1r</title><g id="layer2" data-name="layer 2"><g id="layer1-2" data-name="layer 1"><g id="group" data-name="group"><path id="composite_path" data-name="composite_path" class="cls-1" d="M152.43 31.67h-.09a14.08 14.08 0 0 1-5.11 3.16 1.72 1.72 0 0 1-2.23-1 1.71 1.71 0 0 1 .86-2.1c3.92-1.94 5.72-3.73 6.49-4.74a2.21 2.21 0 0 1 1.76-.87 2.22 2.22 0 0 1 2.22 2.22V54a2 2 0 0 1-1.95 1.95 2 2 0 0 1-1.95-1.95z"/><path id="composite_path2" data-name="composite_path" class="cls-1" d="M169.6 44.52a6.93 6.93 0 0 0 2.34-.34 4.35 4.35 0 0 0 1.61-1 3.94 3.94 0 0 0 .86-1.3 4.21 4.21 0 0 0 .31-1.62 3.9 3.9 0 0 0-.41-1.91 3.64 3.64 0 0 0-1.17-1.25 4.44 4.44 0 0 0-1.46-.63 8.68 8.68 0 0 0-2-.2h-3a.57.57 0 0 0-.57.57V43h-.49a.75.75 0 0 0 0 1.51h.49v1.23h-.49a.75.75 0 0 0 0 1.51h.49v1.29a.88.88 0 0 0 1.75 0v-1.27h5.37a.75.75 0 1 0 0-1.51h-5.37v-1.24zm-1.75-6.76h1.73a6.44 6.44 0 0 1 1.37.12 3.24 3.24 0 0 1 1 .39 2.08 2.08 0 0 1 .72.83 2.71 2.71 0 0 1 .24 1.19 3.09 3.09 0 0 1-.17 1.05 2.32 2.32 0 0 1-.6.88 2.5 2.5 0 0 1-1.07.61 6.19 6.19 0 0 1-1.73.2h-1.47z"/></g><g id="group2" data-name="group"><path id="composite_path3" data-name="composite_path" class="cls-1" d="M15.41 21.9h-.19a28.86 28.86 0 0 1-10.53 6.49A3.49 3.49 0 0 1 .2 26.28 3.47 3.47 0 0 1 1.92 22c8.08-4 11.78-7.68 13.35-9.75a4.48 4.48 0 0 1 3.57-1.74A4.54 4.54 0 0 1 23.39 15v52.5a4 4 0 0 1-4 4 4 4 0 0 1-4-4z"/><path id="composite_path4" data-name="composite_path" class="cls-1" d="M74.34 40.36c0 20.06-7.44 31.14-20.51 31.14-11.53 0-19.34-10.8-19.52-30.32 0-19.79 8.53-30.68 20.51-30.68 12.43 0 19.52 11.07 19.52 29.86zm-32 .91c0 15.34 4.72 24.06 12 24.06 8.17 0 12.07-9.53 12.07-24.6 0-14.52-3.72-24.06-12-24.06-7.03 0-12.12 8.54-12.12 24.6z"/></g><circle id="path" data-name="path" class="cls-2" cx="156.6" cy="41" r="40"/><circle class="cls-3" cx="156.6" cy="41" r="33" id="group3" data-name="group"/><g id="group4" data-name="group"><path id="path2" data-name="path" class="cls-4" d="M86.71 37.44h15.14"/><path id="path3" data-name="path" class="cls-4" d="M86.71 44.56h15.14"/></g></g></g></svg>