<svg xmlns="http://www.w3.org/2000/svg" viewBox="0 0 154.52 82"><defs><style>.cls-1{fill:#005725;}.cls-2,.cls-3,.cls-4{fill:none;stroke:#005725;stroke-miterlimit:10;stroke-width:2px;}.cls-3,.cls-4{stroke-linecap:round;}.cls-3{stroke-dasharray:1.97 4.94;}</style></defs><title>10r-1</title><g id="Слой_2" data-name="Слой 2"><g id="Слой_1-2" data-name="Слой 1"><g id="_Группа_" data-name="&lt;Группа&gt;"><g id="_Группа_2" data-name="&lt;Группа&gt;"><path id="_Составной_контур_" data-name="&lt;Составной контур&gt;" class="cls-1" d="M146.55,21.9h-.19a28.86,28.86,0,0,1-10.54,6.49,3.49,3.49,0,0,1-4.49-2.11h0A3.47,3.47,0,0,1,133.06,22c8.11-4,11.78-7.69,13.36-9.76A4.48,4.48,0,0,1,150,10.51h0A4.54,4.54,0,0,1,154.52,15V67.5a4,4,0,0,1-4,4h0a4,4,0,0,1-4-4Z"/></g><g id="_Группа_3" data-name="&lt;Группа&gt;"><path id="_Составной_контур_2" data-name="&lt;Составной контур&gt;" class="cls-1" d="M24.38,31.67h-.09a14.1,14.1,0,0,1-5.15,3.17,1.7,1.7,0,0,1-2.19-1h0a1.7,1.7,0,0,1,.84-2.09c4-2,5.76-3.76,6.52-4.77a2.19,2.19,0,0,1,1.75-.85h0a2.22,2.22,0,0,1,2.22,2.22V53.95a2,2,0,0,1-1.95,1.95h0a2,2,0,0,1-1.95-1.95Z"/><path id="_Составной_контур_3" data-name="&lt;Составной контур&gt;" class="cls-1" d="M52.16,40.69c0,9.8-3.64,15.21-10,15.21-5.63,0-9.44-5.28-9.53-14.81s4.17-15,10-15C48.71,26.1,52.16,31.51,52.16,40.69Zm-15.65.44c0,7.49,2.31,11.75,5.85,11.75,4,0,5.9-4.66,5.9-12,0-7.09-1.82-11.75-5.85-11.75C39,29.12,36.51,33.28,36.51,41.13Z"/></g><circle id="_Контур_" data-name="&lt;Контур&gt;" class="cls-2" cx="41" cy="41" r="40"/><g id="_Группа_4" data-name="&lt;Группа&gt;"><circle class="cls-3" cx="41" cy="41" r="33"/></g><g id="_Группа_5" data-name="&lt;Группа&gt;"><line id="_Контур_2" data-name="&lt;Контур&gt;" class="cls-4" x1="97.13" y1="37.44" x2="112.28" y2="37.44"/><line id="_Контур_3" data-name="&lt;Контур&gt;" class="cls-4" x1="97.13" y1="44.56" x2="112.28" y2="44.56"/></g><path id="_Составной_контур_4" data-name="&lt;Составной контур&gt;" class="cls-1" d="M60,44.52a6.93,6.93,0,0,0,2.34-.34,4.35,4.35,0,0,0,1.61-1,3.94,3.94,0,0,0,.86-1.3,4.21,4.21,0,0,0,.31-1.62,3.9,3.9,0,0,0-.41-1.91,3.64,3.64,0,0,0-1.17-1.25,4.44,4.44,0,0,0-1.46-.63,8.68,8.68,0,0,0-2-.2h-3a.57.57,0,0,0-.57.57V43H56a.75.75,0,1,0,0,1.51h.49v1.23H56a.75.75,0,1,0,0,1.51h.49v1.29a.88.88,0,0,0,1.75,0V47.27h5.37a.75.75,0,1,0,0-1.51H58.27V44.52Zm-1.75-6.76H60a6.44,6.44,0,0,1,1.37.12,3.24,3.24,0,0,1,1,.39,2.08,2.08,0,0,1,.72.83,2.71,2.71,0,0,1,.24,1.19,3.09,3.09,0,0,1-.17,1.05,2.32,2.32,0,0,1-.6.88,2.5,2.5,0,0,1-1.07.61,6.19,6.19,0,0,1-1.73.2H58.27Z"/></g></g></g></svg>