<svg xmlns="http://www.w3.org/2000/svg" viewBox="0 0 161.18 82"><defs><style>.cls-1{fill:#005725}.cls-2,.cls-3,.cls-4{fill:none;stroke:#005725;stroke-miterlimit:10;stroke-width:2px}.cls-3,.cls-4{stroke-linecap:round}.cls-3{stroke-dasharray:1.97 4.94}</style></defs><title>10r-3</title><g id="layer_2" data-name="layer 2"><g id="layer_1-2" data-name="layer 1"><g id="group" data-name="group"><path id="composite_path" data-name="composite_path" class="cls-1" d="M24.38 31.67h-.09a14.1 14.1 0 0 1-5.15 3.17 1.7 1.7 0 0 1-2.19-1 1.7 1.7 0 0 1 .84-2.09c4-2 5.76-3.76 6.52-4.77a2.19 2.19 0 0 1 1.75-.85 2.22 2.22 0 0 1 2.22 2.22v25.6a2 2 0 0 1-1.95 1.95 2 2 0 0 1-1.95-1.95z"/><path id="composite_path2" data-name="composite_path" class="cls-1" d="M52.16 40.69c0 9.8-3.64 15.21-10 15.21-5.63 0-9.44-5.28-9.53-14.81s4.17-15 10-15c6.08.01 9.53 5.42 9.53 14.6zm-15.65.44c0 7.49 2.31 11.75 5.85 11.75 4 0 5.9-4.66 5.9-12 0-7.09-1.82-11.75-5.85-11.75-3.41-.01-5.9 4.15-5.9 12z"/></g><circle id="path" data-name="path" class="cls-2" cx="41" cy="41" r="40"/><circle class="cls-3" cx="41" cy="41" r="33" id="group2" data-name="group"/><g id="group3" data-name="group"><path id="path2" data-name="path" class="cls-4" d="M97.13 37.44h15.15"/><path id="path3" data-name="path" class="cls-4" d="M97.13 44.56h15.15"/></g><path id="composite_path3" data-name="composite_path" class="cls-1" d="M60 44.52a6.93 6.93 0 0 0 2.34-.34 4.35 4.35 0 0 0 1.61-1 3.94 3.94 0 0 0 .86-1.3 4.21 4.21 0 0 0 .31-1.62 3.9 3.9 0 0 0-.41-1.91 3.64 3.64 0 0 0-1.17-1.25 4.44 4.44 0 0 0-1.46-.63 8.68 8.68 0 0 0-2-.2h-3a.57.57 0 0 0-.57.57V43H56a.75.75 0 1 0 0 1.51h.49v1.23H56a.75.75 0 1 0 0 1.51h.49v1.29a.88.88 0 0 0 1.75 0v-1.27h5.37a.75.75 0 1 0 0-1.51h-5.34v-1.24zm-1.75-6.76H60a6.44 6.44 0 0 1 1.37.12 3.24 3.24 0 0 1 1 .39 2.08 2.08 0 0 1 .72.83 2.71 2.71 0 0 1 .24 1.19 3.09 3.09 0 0 1-.17 1.05 2.32 2.32 0 0 1-.6.88 2.5 2.5 0 0 1-1.07.61 6.19 6.19 0 0 1-1.73.2h-1.49z"/><g id="group4" data-name="group"><path id="composite_path4" data-name="composite_path" class="cls-1" d="M124.67 65.24a3.32 3.32 0 0 1 4.4-2 27 27 0 0 0 10.14 2.18c10.43 0 13.65-6.64 13.56-11.62-.09-8.4-7.66-12-15.5-12h-1.48a3 3 0 0 1-3-3 3 3 0 0 1 3-3h1.48c5.9 0 13.38-3 13.38-10.15 0-4.8-3-9-10.52-9a21.18 21.18 0 0 0-9 2.2 3.11 3.11 0 0 1-4.24-1.85 3.12 3.12 0 0 1 1.51-3.83A30.17 30.17 0 0 1 141.71 10c11.81 0 17.16 7 17.16 14.3 0 6.18-3.69 11.44-11.07 14.12v.18c7.38 1.48 13.38 7 13.38 15.41 0 9.6-7.47 18-21.87 18a32.86 32.86 0 0 1-12.89-2.62 3.31 3.31 0 0 1-1.75-4.13z"/></g></g></g></svg>