<svg xmlns="http://www.w3.org/2000/svg" viewBox="0 0 142.42 142.91"><defs><style>.cls-1{opacity:.2}.cls-2{fill:#a3d310}</style></defs><title>card_pattern</title><g id="layer_2" data-name="layer 2"><g id="layer_1-2" data-name="layer 1"><g id="group" data-name="group" class="cls-1"><path class="cls-2" d="M64.77 71.45l-18-18.62c-5-4.92-11.16-8.68-20.28-8.68C11.46 44.15 0 56.37 0 71.45s11.46 27.31 26.49 27.31c9.12 0 15.27-3.76 20.28-8.69zM26.49 87.08c-8.33 0-14.85-6.86-14.85-15.63s6.52-15.62 14.85-15.62c4.81 0 8.22 1.5 12.07 5.28l10.36 10.34-10.3 10.28c-3.91 3.85-7.32 5.35-12.13 5.35zm44.72-9.17C69.63 77.91 52.66 96 52.66 96c-4.9 5-8.65 11.19-8.65 20.35 0 15.08 12.17 26.59 27.21 26.59s27.21-11.5 27.21-26.59c0-9.16-3.75-15.33-8.65-20.35zm0 53.32c-8.87 0-15.57-6.4-15.57-14.9 0-4.83 1.49-8.24 5.27-12.11l10.3-10.4 10.23 10.33c3.84 3.94 5.34 7.35 5.34 12.18.01 8.49-6.69 14.9-15.57 14.9zm0-66.24l18.55-18.06c4.9-5 8.66-11.2 8.66-20.35C98.43 11.5 86.24 0 71.21 0S44 11.5 44 26.58c0 9.15 3.75 15.33 8.65 20.35zm0-53.31c8.74 0 15.57 6.55 15.57 14.9 0 4.83-1.5 8.24-5.28 12.11L71.21 49.08 61 38.76c-3.83-3.93-5.32-7.35-5.32-12.18-.03-8.5 6.66-14.9 15.53-14.9zm44.72 32.47c-9.11 0-15.27 3.76-20.28 8.68l-18 18.62 18 18.63c5 4.92 11.17 8.69 20.28 8.69 15 0 26.49-12.22 26.49-27.31S131 44.15 115.93 44.15zm0 42.93c-4.81 0-8.21-1.49-12.07-5.28L93.51 71.45l10.29-10.28c3.92-3.84 7.32-5.34 12.13-5.34 8.33 0 14.85 6.86 14.85 15.62s-6.52 15.63-14.85 15.63z"/></g></g></g></svg>