<svg xmlns="http://www.w3.org/2000/svg" width="36.875" height="28.812" viewBox="0 0 36.875 28.812"><defs><style>.cls-1{fill:#b1d235;fill-rule:evenodd}</style></defs><path id="cart" class="cls-1" d="M819.105 101.722a2.425 2.425 0 1 1-2.425-2.422 2.425 2.425 0 0 1 2.425 2.422zm16.312 0a2.425 2.425 0 1 1-2.425-2.423 2.425 2.425 0 0 1 2.425 2.423zM804.161 78.4h6.59l2.97 19.433h19.184a3.833 3.833 0 0 0 3.759-3.056h-20.293l-.523-3.437h19.2a3.839 3.839 0 0 0 3.759-3.064h-23.425l-.489-3.217h22.373a3.839 3.839 0 0 0 3.759-3.064h-26.6l-1.025-6.65h-5.516a3.8 3.8 0 0 0-3.726 3.05" transform="translate(-804.156 -75.344)"/></svg>