<svg data-name="layer 1" xmlns="http://www.w3.org/2000/svg" viewBox="0 0 194.83 153.44"><defs><clipPath id="a" transform="translate(-3957.67 -8297.78)"><path data-name="composite_path" d="M4152.5 8294.47v81.78h-10a65 65 0 0 1-124.89 25.3h-63.27v-107.08h198.16z" fill="none" clip-rule="evenodd"/></clipPath></defs><title>q</title><g data-name="group"><path data-name="composite_path;" d="M119.83 8.44a70 70 0 1 1-70 70 70 70 0 0 1 70-70z" fill="#0e6724" fill-rule="evenodd"/><path data-name="composite_path;" d="M119.83 13.44a65 65 0 1 1-65 65 65.07 65.07 0 0 1 65-65m0-10a75 75 0 1 0 75 75 75 75 0 0 0-75-75z" fill="#e8e8e8"/></g><g data-name="group" clip-path="url(#a)"><path data-name="path" d="M154.21 145.82h-65.6V22.15L66.17 0h66.42a21.62 21.62 0 0 1 21.62 21.62v124.2z" fill="#fff"/><g data-name="group"><path data-name="composite_path;" d="M120.19 114.13l-3.41-3.52a5.2 5.2 0 0 0-3.84-1.64 5.17 5.17 0 0 0 0 10.33 5.19 5.19 0 0 0 3.84-1.64zm-7.24 3a3 3 0 0 1 0-5.91 3 3 0 0 1 2.28 1l2 2-1.95 1.94a3 3 0 0 1-2.33.93zm8.46-1.73a38.39 38.39 0 0 0-3.51 3.42 5.23 5.23 0 0 0-1.64 3.85 5.15 5.15 0 0 0 10.3 0 5.23 5.23 0 0 0-1.64-3.85zm0 10.09a2.82 2.82 0 0 1-2.95-2.82 3 3 0 0 1 1-2.29l1.95-2 1.94 2a3 3 0 0 1 1 2.3 2.82 2.82 0 0 1-2.94 2.76zm0-12.53l3.51-3.42a5.23 5.23 0 0 0 1.64-3.85 5.15 5.15 0 0 0-10.3 0 5.23 5.23 0 0 0 1.64 3.85zm0-10.09a2.85 2.85 0 0 1 2.95 2.82 3 3 0 0 1-1 2.29l-1.95 2-1.94-2a3 3 0 0 1-1-2.3 2.82 2.82 0 0 1 2.94-2.86zm8.46 6.14a5.2 5.2 0 0 0-3.84 1.64l-3.41 3.52 3.41 3.52a5.2 5.2 0 0 0 3.84 1.64 5.18 5.18 0 0 0 0-10.36zm0 8.12a3 3 0 0 1-2.28-1l-2-2 1.95-1.95a3 3 0 0 1 2.3-1 3 3 0 0 1 .03 5.91z" fill="#3b3f39"/></g><rect data-name="rect" x="104.41" y="83.77" width="33.98" height="1.5" rx=".75" ry=".75" fill="#3b3f39" opacity=".85"/><rect data-name="rect" x="96.43" y="71.96" width="49.92" height="1.5" rx=".75" ry=".75" fill="#3b3f39" opacity=".85"/><rect data-name="rect" x="96.43" y="60.15" width="49.92" height="1.5" rx=".75" ry=".75" fill="#3b3f39" opacity=".85"/><rect data-name="rect" x="96.43" y="36.53" width="49.92" height="1.5" rx=".75" ry=".75" fill="#3b3f39" opacity=".85"/><rect data-name="rect" x="96.43" y="24.33" width="49.92" height="1.5" rx=".75" ry=".75" fill="#3b3f39" opacity=".85"/><rect data-name="rect" x="93.83" y="12.91" width="49.92" height="1.5" rx=".75" ry=".75" fill="#3b3f39" opacity=".85"/><rect data-name="rect" x="85.12" y="3.86" width="49.92" height="1.5" rx=".75" ry=".75" fill="#3b3f39" opacity=".85"/><g data-name="group" opacity=".85" fill="#3b3f39"><rect data-name="rect" x="120.58" y="48.34" width="25.78" height="1.5" rx=".75" ry=".75"/><rect data-name="rect" x="96.43" y="48.34" width="15.59" height="1.5" rx=".75" ry=".75"/></g><path data-name="path" d="M0 37.05v24.62a22.155 22.155 0 1 0 44.31 0V37.05H0z" fill="#fff"/><g data-name="group" fill="#3b3f39"><rect data-name="rect" x="3973.1" y="8341.02" width="33.98" height="3" rx="1.5" ry="1.5" transform="rotate(180 2011.255 4193.625)" opacity=".85"/><rect data-name="rect" x="3965.13" y="8350.58" width="49.92" height="1.5" rx=".75" ry=".75" transform="rotate(180 2011.255 4202.435)" opacity=".85"/><rect data-name="rect" x="3965.13" y="8359.39" width="49.92" height="1.5" rx=".75" ry=".75" transform="rotate(180 2011.255 4211.245)" opacity=".85"/><rect data-name="rect" x="3972.13" y="8374.21" width="49.92" height="1.5" rx=".75" ry=".75" transform="rotate(180 2018.255 4226.075)" opacity=".85"/><g data-name="group" opacity=".85"><rect data-name="rect" x="3967.13" y="8367.44" width="20.78" height="1.5" rx=".75" ry=".75" transform="rotate(-180 1998.685 4219.305)"/><rect data-name="rect" x="3993.46" y="8367.44" width="15.59" height="1.5" rx=".75" ry=".75" transform="rotate(-180 2022.425 4219.305)"/></g></g><path data-name="path" d="M66.46 0a22.15 22.15 0 0 0-22.15 22.15v39.53a22.15 22.15 0 0 1-22.15 22.15h44.31a22.15 22.15 0 0 0 22.15-22.15V22.15A22.15 22.15 0 0 0 66.46 0z" fill="#eae4d8"/></g></svg>