<svg data-name="Слой 1" xmlns="http://www.w3.org/2000/svg" viewBox="0 0 150 156.77"><defs><clipPath id="a" transform="translate(-4748.38 -8294.45)"><path data-name="composite_path" d="M4888.5 8290.91v85.34h-.12a65 65 0 0 1-124.89 25.3h-3.74v-110.64h128.75z" fill="none" clip-rule="evenodd"/></clipPath><clipPath id="b" transform="translate(-4748.38 -8294.45)"><path data-name="rect" fill="none" d="M4774.75 8326.4h97.28v43.57h-97.28z"/></clipPath><clipPath id="c" transform="translate(-4748.38 -8294.45)"><path data-name="composite_path" fill="none" d="M4823.29 8365.86l-2.12-1.69 2.04-1.86-2.17-1.72 2.05-1.87-2.17-1.72 2.04-1.87-2.17-1.72 2.05-1.86-2.17-1.72 2.04-1.87-50.19 1.75.62 17.89 50.15-1.74z"/></clipPath><clipPath id="d" transform="translate(-4748.38 -8294.45)"><path data-name="composite_path" fill="none" d="M4815.16 8350.8l-2.27-1.48 1.86-2.05-2.32-1.51 1.86-2.05-2.32-1.51 1.86-2.04-2.32-1.52 1.87-2.05-2.32-1.51 1.86-2.04v-.01l-49.82 6.41 2.29 17.76 49.77-6.4z"/></clipPath></defs><title>q4</title><g data-name="group"><path data-name="composite_path" d="M75 11.77a70 70 0 1 1-70 70 70 70 0 0 1 70-70z" fill="#0e6724" fill-rule="evenodd"/><path data-name="composite_path" d="M75 16.77a65 65 0 1 1-65 65 65.07 65.07 0 0 1 65-65m0-10a75 75 0 1 0 75 75 75 75 0 0 0-75-75z" fill="#e8e8e8"/></g><g data-name="group" clip-path="url(#a)"><path data-name="rect" fill="#fff" d="M20.03 24.11h109.94v131.63H20.03z"/><path data-name="path" d="M129.21 0H20.79a.76.76 0 0 0-.76.76v24h109.94v-24a.76.76 0 0 0-.76-.76z" fill="#e5d7c8"/><path data-name="rect" fill="#fff" d="M51.76 9.99h62.29v4.87H51.76z"/><path data-name="path" d="M41.37 14.43a2 2 0 0 0 0-4h-.36a2 2 0 1 0 0 4h.36zm-9.1 0a2 2 0 0 0 0-4h-.36a2 2 0 1 0 0 4h.36z" fill="#3b3f39" opacity=".85"/><path data-name="composite_path" d="M114.82 8.48H51.01a.76.76 0 0 0-.76.76v6.39a.76.76 0 0 0 .76.76h63.81a.76.76 0 0 0 .76-.76V9.24a.76.76 0 0 0-.76-.76zm-.76 6.39H51.77V10h62.29v4.87z" fill="#3b3f39" opacity=".85"/><path data-name="rect" fill="#bccf04" d="M26.37 31.94h97.28v43.57H26.37z"/><path data-name="path" d="M98.31 88.38h-46.6a1 1 0 0 1 0-2h46.6a1 1 0 0 1 0 2zm25.31 6.89H26.34a.5.5 0 1 1 0-1h97.28a.5.5 0 0 1 0 1zm0 7.4H26.34a.5.5 0 1 1 0-1h97.28a.5.5 0 0 1 0 1zm0 7.4H26.34a.5.5 0 1 1 0-1h97.28a.5.5 0 0 1 0 1z" fill="#3b3f39"/><g data-name="group"><path data-name="composite_path" d="M98.38 53.73l-3.82-3.95a5.82 5.82 0 0 0-4.3-1.84 5.79 5.79 0 0 0 0 11.58 5.82 5.82 0 0 0 4.3-1.84zm-8.11 3.31a3.32 3.32 0 0 1 0-6.62 3.34 3.34 0 0 1 2.56 1.12l2.2 2.19-2.18 2.18a3.34 3.34 0 0 1-2.59 1.13zm9.48-1.94c-.33 0-3.93 3.83-3.93 3.83a5.86 5.86 0 0 0-1.83 4.31 5.77 5.77 0 0 0 11.54 0 5.86 5.86 0 0 0-1.83-4.31zm0 11.3a3.16 3.16 0 0 1-3.3-3.16 3.35 3.35 0 0 1 1.12-2.57l2.18-2.2 2.17 2.19a3.37 3.37 0 0 1 1.13 2.58 3.16 3.16 0 0 1-3.31 3.16zm0-14l3.93-3.83a5.86 5.86 0 0 0 1.84-4.31 5.77 5.77 0 0 0-11.54 0 5.86 5.86 0 0 0 1.83 4.31zm0-11.3a3.2 3.2 0 0 1 3.3 3.16 3.35 3.35 0 0 1-1.12 2.57l-2.18 2.2-2.17-2.19a3.37 3.37 0 0 1-1.13-2.58 3.16 3.16 0 0 1 3.29-3.2zm9.48 6.88a5.82 5.82 0 0 0-4.3 1.84l-3.82 3.95 3.82 3.95a5.82 5.82 0 0 0 4.3 1.84 5.81 5.81 0 0 0-.01-11.62zm0 9.1a3.33 3.33 0 0 1-2.56-1.12l-2.19-2.19 2.14-2.22a3.36 3.36 0 0 1 2.57-1.13 3.32 3.32 0 0 1 .03 6.62z" fill="#0d6725" opacity=".25"/></g><g data-name="group" clip-path="url(#b)"><g data-name="group"><path data-name="path" fill="#e32213" d="M74.91 71.41l-2.12-1.69 2.04-1.87-2.17-1.72 2.04-1.86-2.16-1.72 2.04-1.87-2.17-1.72 2.04-1.87-2.16-1.72 2.04-1.86-50.19 1.74.62 17.9 50.15-1.74z"/><g data-name="group" clip-path="url(#c)"><path data-name="composite_path" d="M42.25 63.55l-3.36-3.25a5 5 0 0 0-3.71-1.44 4.93 4.93 0 0 0 .34 9.85 5 5 0 0 0 3.6-1.69zm-6.81 3.06a2.822 2.822 0 0 1-.2-5.64 2.84 2.84 0 0 1 2.21.88l1.93 1.8-1.79 1.92a2.85 2.85 0 0 1-2.15 1.07zm8-1.93a36.56 36.56 0 0 0-3.23 3.38 5 5 0 0 0-1.43 3.72 4.91 4.91 0 0 0 9.81-.34 5 5 0 0 0-1.69-3.62zm.33 9.62a2.69 2.69 0 0 1-2.9-2.59 2.86 2.86 0 0 1 .87-2.22l1.79-1.94 1.91 1.8a2.87 2.87 0 0 1 1 2.16 2.69 2.69 0 0 1-2.65 2.82zm-.42-11.95l3.23-3.37a5 5 0 0 0 1.43-3.72 4.913 4.913 0 0 0-9.82.34 5 5 0 0 0 1.69 3.62zm-.33-9.62a2.72 2.72 0 0 1 2.9 2.59 2.85 2.85 0 0 1-.88 2.22l-1.79 1.94-1.91-1.8a2.87 2.87 0 0 1-1-2.16 2.69 2.69 0 0 1 2.7-2.76zm8.27 5.58a5 5 0 0 0-3.6 1.69l-3.07 3.55 3.36 3.25a5 5 0 0 0 3.71 1.44 4.954 4.954 0 0 0-.39-9.9zm.27 7.74a2.84 2.84 0 0 1-2.21-.88l-1.93-1.8 1.79-1.92a2.86 2.86 0 0 1 2.15-1 2.82 2.82 0 0 1 .26 5.63z" fill="#ea5937"/></g></g><path data-name="path" fill="#873935" opacity=".15" d="M74.91 71.41l-2.12-1.69 2.04-1.87-2.17-1.72 2.04-1.86-2.16-1.72 2.04-1.87-2.17-1.72 2.04-1.87-2.16-1.72 2.04-1.86-50.19 1.74.62 17.9 50.15-1.74z"/><g data-name="group"><path data-name="path" fill="#424242" opacity=".15" d="M67.4 57.22l-2.36-1.54 1.93-2.13-2.41-1.57 1.94-2.13-2.42-1.57 1.94-2.14-2.41-1.57 1.94-2.13-2.42-1.57 1.94-2.13-51.83 6.66 2.37 18.48 51.79-6.66z"/><path data-name="path" fill="#e32213" d="M66.78 56.35l-2.28-1.48 1.87-2.05-2.32-1.51 1.86-2.05-2.32-1.51 1.86-2.05-2.32-1.51 1.86-2.05-2.32-1.51 1.87-2.05-49.82 6.4L17 62.75l49.78-6.4z"/><g data-name="group" clip-path="url(#d)"><path data-name="composite_path" d="M29.88 48.68a5 5 0 0 0-3.83-1.09 4.93 4.93 0 0 0 1.26 9.78 5 5 0 0 0 3.43-2l2.79-3.75zm-.79 5.36a2.85 2.85 0 0 1-2 1.24 2.82 2.82 0 0 1-.72-5.59 2.84 2.84 0 0 1 2.28.67l2.09 1.61zm9.48 1.37l-3.74-2.81a36.59 36.59 0 0 0-2.91 3.66 5 5 0 0 0-1.08 3.84 4.91 4.91 0 0 0 9.74-1.25 5 5 0 0 0-2.01-3.44zm-2.51 6.74a2.69 2.69 0 0 1-3.13-2.31 2.86 2.86 0 0 1 .66-2.29l1.6-2.1 2.07 1.61a2.87 2.87 0 0 1 1.24 2.06 2.69 2.69 0 0 1-2.44 3.03zM30.8 47.49l3.74 2.81 2.91-3.66a5 5 0 0 0 1.08-3.84 4.91 4.91 0 0 0-9.74 1.25 5 5 0 0 0 2.01 3.44zm2.51-6.74a2.72 2.72 0 0 1 3.13 2.31 2.86 2.86 0 0 1-.67 2.29l-1.6 2.1-2.07-1.61a2.87 2.87 0 0 1-1.23-2.06 2.69 2.69 0 0 1 2.44-3.03zm14.12 9.06a4.81 4.81 0 0 0-5.37-4.28 5 5 0 0 0-3.43 2l-2.79 3.75 3.65 2.92a5 5 0 0 0 3.83 1.09 4.81 4.81 0 0 0 4.11-5.48zm-4.38 3.41a2.84 2.84 0 0 1-2.28-.67l-2.09-1.61 1.61-2.08a2.86 2.86 0 0 1 2-1.23 2.82 2.82 0 0 1 .76 5.59z" fill="#ea5937"/></g></g></g></g></svg>