<svg id="Слой_1" data-name="Слой 1" xmlns="http://www.w3.org/2000/svg" xmlns:xlink="http://www.w3.org/1999/xlink" viewBox="0 0 150 169"><defs><clipPath id="clip-path" transform="translate(-4247.5 -8290.53)"><path id="_Составной_обтравочный_контур_" data-name="&lt;Составной обтравочный контур&gt;" d="M4369.83,8287.58v88.68h17.67a65,65,0,0,1-124.89,25.3H4276v-114h93.83Z" fill="none" clip-rule="evenodd"/></clipPath></defs><title>q2</title><g id="_Группа_" data-name="&lt;Группа&gt;"><path id="_Составной_контур_" data-name="&lt;Составной контур&gt;" d="M4322.5,8306.22a70,70,0,1,1-70,70A70,70,0,0,1,4322.5,8306.22Z" transform="translate(-4247.5 -8290.53)" fill="#0e6724" fill-rule="evenodd"/><path id="_Составной_контур_2" data-name="&lt;Составной контур&gt;" d="M4322.5,8311.22a65,65,0,1,1-65,65,65.07,65.07,0,0,1,65-65m0-10a75,75,0,1,0,75,75,75,75,0,0,0-75-75h0Z" transform="translate(-4247.5 -8290.53)" fill="#e8e8e8"/></g><g id="_Группа_обтравки_" data-name="&lt;Группа обтравки&gt;"><g clip-path="url(#clip-path)"><g id="_Группа_2" data-name="&lt;Группа&gt;"><g id="_Группа_3" data-name="&lt;Группа&gt;"><rect id="_Прямоугольник_" data-name="&lt;Прямоугольник&gt;" x="34.33" width="81.33" height="169" rx="13.94" ry="13.94" fill="#fff"/><path id="_Составной_контур_3" data-name="&lt;Составной контур&gt;" d="M4349.23,8290.83a13.65,13.65,0,0,1,13.64,13.64V8445.6a13.65,13.65,0,0,1-13.64,13.64h-53.46a13.65,13.65,0,0,1-13.64-13.64V8304.47a13.65,13.65,0,0,1,13.64-13.64h53.46m0-.3h-53.46a13.94,13.94,0,0,0-13.94,13.94V8445.6a13.94,13.94,0,0,0,13.94,13.94h53.46a13.94,13.94,0,0,0,13.94-13.94V8304.47a13.94,13.94,0,0,0-13.94-13.94h0Z" transform="translate(-4247.5 -8290.53)" fill="#e8e8e8"/></g><g id="_Прямоугольник_2" data-name="&lt;Прямоугольник&gt;"><rect id="_Контур_" data-name="&lt;Контур&gt;" x="37.76" y="19.01" width="74.49" height="114.96" fill="#e5d7c8"/></g><rect id="_Прямоугольник_3" data-name="&lt;Прямоугольник&gt;" x="62.87" y="8.75" width="24.25" height="2.5" rx="1.25" ry="1.25" fill="#323232"/><rect id="_Прямоугольник_4" data-name="&lt;Прямоугольник&gt;" x="70" y="138.5" width="10" height="10" rx="5" ry="5" fill="#323232"/><g id="_Группа_4" data-name="&lt;Группа&gt;"><g id="_Прямоугольник_5" data-name="&lt;Прямоугольник&gt;"><rect id="_Контур_2" data-name="&lt;Контур&gt;" x="50.67" y="47.22" width="48.66" height="48.66" rx="9.91" ry="9.91" fill="#fff"/></g><g id="_Группа_5" data-name="&lt;Группа&gt;"><path id="_Составной_контур_4" data-name="&lt;Составной контур&gt;" d="M4318.43,8367.42a6,6,0,0,0-1.9,4.43,6,6,0,0,0,11.94,0,6,6,0,0,0-1.9-4.43l-4.07-3.93Zm6.32,1.78a3.45,3.45,0,0,1,1.17,2.65,3.42,3.42,0,0,1-6.83,0,3.44,3.44,0,0,1,1.15-2.64l2.26-2.27Z" transform="translate(-4247.5 -8290.53)" fill="#00a54d"/><path id="_Составной_контур_5" data-name="&lt;Составной контур&gt;" d="M4327.86,8358l-3.95,4.06c0,0.35,3.95,4.06,3.95,4.06a6,6,0,0,0,4.45,1.89,5.95,5.95,0,0,0,0-11.89A6,6,0,0,0,4327.86,8358Zm7.7,4.06a3.26,3.26,0,0,1-3.26,3.4,3.46,3.46,0,0,1-2.65-1.15l-2.27-2.25,2.26-2.24a3.48,3.48,0,0,1,2.66-1.17A3.26,3.26,0,0,1,4335.56,8362.08Z" transform="translate(-4247.5 -8290.53)" fill="#015924"/><path id="_Составной_контур_6" data-name="&lt;Составной контур&gt;" d="M4306.88,8362.08a5.82,5.82,0,0,0,5.81,5.95,6,6,0,0,0,4.45-1.89l3.95-4.06-3.95-4.06a6,6,0,0,0-4.45-1.89A5.82,5.82,0,0,0,4306.88,8362.08Zm8.46-2.25,2.27,2.25-2.26,2.24a3.48,3.48,0,0,1-2.66,1.16,3.26,3.26,0,0,1-3.26-3.4,3.3,3.3,0,0,1,3.26-3.4A3.46,3.46,0,0,1,4315.34,8359.83Z" transform="translate(-4247.5 -8290.53)" fill="#70c03c"/><path id="_Составной_контур_7" data-name="&lt;Составной контур&gt;" d="M4316.53,8352.31a6,6,0,0,0,1.9,4.43l4.07,3.93,4.07-3.93a6,6,0,0,0,1.9-4.43A6,6,0,0,0,4316.53,8352.31Zm9.38,0a3.44,3.44,0,0,1-1.15,2.64l-2.26,2.26-2.25-2.25a3.46,3.46,0,0,1-1.17-2.65A3.42,3.42,0,0,1,4325.91,8352.31Z" transform="translate(-4247.5 -8290.53)" fill="#b1d31d"/></g></g></g></g></g></svg>