<svg id="Слой_1" data-name="Слой 1" xmlns="http://www.w3.org/2000/svg" xmlns:xlink="http://www.w3.org/1999/xlink" viewBox="0 0 194.83 153.44"><defs><clipPath id="clip-path" transform="translate(-3957.67 -8297.78)"><path id="_Составной_обтравочный_контур_" data-name="&lt;Составной обтравочный контур&gt;" d="M4152.5,8294.47v81.78h-10a65,65,0,0,1-124.89,25.3h-63.27V8294.47H4152.5Z" fill="none" clip-rule="evenodd"/></clipPath></defs><title>q</title><g id="_Группа_" data-name="&lt;Группа&gt;"><path id="_Составной_контур_" data-name="&lt;Составной контур&gt;" d="M4077.5,8306.22a70,70,0,1,1-70,70A70,70,0,0,1,4077.5,8306.22Z" transform="translate(-3957.67 -8297.78)" fill="#0e6724" fill-rule="evenodd"/><path id="_Составной_контур_2" data-name="&lt;Составной контур&gt;" d="M4077.5,8311.22a65,65,0,1,1-65,65,65.07,65.07,0,0,1,65-65m0-10a75,75,0,1,0,75,75,75,75,0,0,0-75-75h0Z" transform="translate(-3957.67 -8297.78)" fill="#e8e8e8"/></g><g id="_Группа_обтравки_" data-name="&lt;Группа обтравки&gt;"><g clip-path="url(#clip-path)"><g id="_Группа_2" data-name="&lt;Группа&gt;"><path id="_Контур_" data-name="&lt;Контур&gt;" d="M4111.88,8443.6h-65.6V8319.93l-22.44-22.15h66.42a21.62,21.62,0,0,1,21.62,21.62v124.2Z" transform="translate(-3957.67 -8297.78)" fill="#fff"/><g id="_Группа_3" data-name="&lt;Группа&gt;"><g id="_Группа_4" data-name="&lt;Группа&gt;"><path id="_Составной_контур_3" data-name="&lt;Составной контур&gt;" d="M4077.86,8411.91l-3.41-3.52a5.2,5.2,0,0,0-3.84-1.64,5.17,5.17,0,0,0,0,10.33,5.19,5.19,0,0,0,3.84-1.64Zm-7.24,3a3,3,0,0,1,0-5.91,3,3,0,0,1,2.28,1l2,2-1.95,1.94A3,3,0,0,1,4070.62,8414.87Zm8.46-1.73a38.39,38.39,0,0,0-3.51,3.42,5.23,5.23,0,0,0-1.64,3.85,5.15,5.15,0,0,0,10.3,0,5.23,5.23,0,0,0-1.64-3.85Zm0,10.09a2.82,2.82,0,0,1-2.95-2.82,3,3,0,0,1,1-2.29l1.95-2,1.94,2a3,3,0,0,1,1,2.3A2.82,2.82,0,0,1,4079.08,8423.22Zm0-12.53,3.51-3.42a5.23,5.23,0,0,0,1.64-3.85,5.15,5.15,0,0,0-10.3,0,5.23,5.23,0,0,0,1.64,3.85Zm0-10.09a2.85,2.85,0,0,1,2.95,2.82,3,3,0,0,1-1,2.29l-1.95,2-1.94-2a3,3,0,0,1-1-2.3A2.82,2.82,0,0,1,4079.08,8400.6Zm8.46,6.14a5.2,5.2,0,0,0-3.84,1.64l-3.41,3.52,3.41,3.52a5.2,5.2,0,0,0,3.84,1.64A5.17,5.17,0,0,0,4087.54,8406.75Zm0,8.12a3,3,0,0,1-2.28-1l-2-2,1.95-1.95a3,3,0,0,1,2.3-1A3,3,0,0,1,4087.54,8414.87Z" transform="translate(-3957.67 -8297.78)" fill="#3b3f39"/></g></g><rect id="_Прямоугольник_" data-name="&lt;Прямоугольник&gt;" x="104.41" y="83.77" width="33.98" height="1.5" rx="0.75" ry="0.75" fill="#3b3f39" opacity="0.85"/><rect id="_Прямоугольник_2" data-name="&lt;Прямоугольник&gt;" x="96.43" y="71.96" width="49.92" height="1.5" rx="0.75" ry="0.75" fill="#3b3f39" opacity="0.85"/><rect id="_Прямоугольник_3" data-name="&lt;Прямоугольник&gt;" x="96.43" y="60.15" width="49.92" height="1.5" rx="0.75" ry="0.75" fill="#3b3f39" opacity="0.85"/><rect id="_Прямоугольник_4" data-name="&lt;Прямоугольник&gt;" x="96.43" y="36.53" width="49.92" height="1.5" rx="0.75" ry="0.75" fill="#3b3f39" opacity="0.85"/><rect id="_Прямоугольник_5" data-name="&lt;Прямоугольник&gt;" x="96.43" y="24.33" width="49.92" height="1.5" rx="0.75" ry="0.75" fill="#3b3f39" opacity="0.85"/><rect id="_Прямоугольник_6" data-name="&lt;Прямоугольник&gt;" x="93.83" y="12.91" width="49.92" height="1.5" rx="0.75" ry="0.75" fill="#3b3f39" opacity="0.85"/><rect id="_Прямоугольник_7" data-name="&lt;Прямоугольник&gt;" x="85.12" y="3.86" width="49.92" height="1.5" rx="0.75" ry="0.75" fill="#3b3f39" opacity="0.85"/><g id="_Группа_5" data-name="&lt;Группа&gt;" opacity="0.85"><rect id="_Прямоугольник_8" data-name="&lt;Прямоугольник&gt;" x="120.58" y="48.34" width="25.78" height="1.5" rx="0.75" ry="0.75" fill="#3b3f39"/><rect id="_Прямоугольник_9" data-name="&lt;Прямоугольник&gt;" x="96.43" y="48.34" width="15.59" height="1.5" rx="0.75" ry="0.75" fill="#3b3f39"/></g><path id="_Контур_2" data-name="&lt;Контур&gt;" d="M3957.67,8334.83v24.62a22.15,22.15,0,1,0,44.31,0v-24.62h-44.31Z" transform="translate(-3957.67 -8297.78)" fill="#fff"/><g id="_Группа_6" data-name="&lt;Группа&gt;"><rect id="_Прямоугольник_10" data-name="&lt;Прямоугольник&gt;" x="3973.1" y="8341.02" width="33.98" height="3" rx="1.5" ry="1.5" transform="translate(4022.51 8387.25) rotate(180)" fill="#3b3f39" opacity="0.85"/><rect id="_Прямоугольник_11" data-name="&lt;Прямоугольник&gt;" x="3965.13" y="8350.58" width="49.92" height="1.5" rx="0.75" ry="0.75" transform="translate(4022.51 8404.87) rotate(180)" fill="#3b3f39" opacity="0.85"/><rect id="_Прямоугольник_12" data-name="&lt;Прямоугольник&gt;" x="3965.13" y="8359.39" width="49.92" height="1.5" rx="0.75" ry="0.75" transform="translate(4022.51 8422.49) rotate(180)" fill="#3b3f39" opacity="0.85"/><rect id="_Прямоугольник_13" data-name="&lt;Прямоугольник&gt;" x="3972.13" y="8374.21" width="49.92" height="1.5" rx="0.75" ry="0.75" transform="translate(4036.51 8452.15) rotate(180)" fill="#3b3f39" opacity="0.85"/><g id="_Группа_7" data-name="&lt;Группа&gt;" opacity="0.85"><rect id="_Прямоугольник_14" data-name="&lt;Прямоугольник&gt;" x="3967.13" y="8367.44" width="20.78" height="1.5" rx="0.75" ry="0.75" transform="translate(3997.37 8438.61) rotate(-180)" fill="#3b3f39"/><rect id="_Прямоугольник_15" data-name="&lt;Прямоугольник&gt;" x="3993.46" y="8367.44" width="15.59" height="1.5" rx="0.75" ry="0.75" transform="translate(4044.85 8438.61) rotate(-180)" fill="#3b3f39"/></g></g><path id="_Контур_3" data-name="&lt;Контур&gt;" d="M4024.13,8297.78a22.15,22.15,0,0,0-22.15,22.15v39.53a22.15,22.15,0,0,1-22.15,22.15h44.31a22.15,22.15,0,0,0,22.15-22.15v-39.53A22.15,22.15,0,0,0,4024.13,8297.78Z" transform="translate(-3957.67 -8297.78)" fill="#eae4d8"/></g></g></g></svg>