<svg xmlns="http://www.w3.org/2000/svg" xmlns:xlink="http://www.w3.org/1999/xlink" viewBox="0 0 150 182.65"><defs><clipPath id="clip-path" transform="translate(-4492.5 -8294.47)"><path id="_Составной_обтравочный_контур_" data-name="&lt;Составной обтравочный контур&gt;" d="M4630.5,8290.91v85.34h2a65,65,0,0,1-124.89,25.3H4492.5V8290.91h138Z" fill="none" clip-rule="evenodd"/></clipPath><clipPath id="clip-path-2" transform="translate(-4492.5 -8294.47)"><polygon id="_Обтравочный_контур_" data-name="&lt;Обтравочный контур&gt;" points="4606.42 8421.53 4604.9 8416.17 4600.93 8414.42 4603.3 8410.78 4601.69 8405.4 4600.09 8400.01 4598.49 8394.62 4598.49 8394.62 4523.08 8417.02 4531.07 8443.92 4606.42 8421.53" fill="none"/></clipPath><clipPath id="clip-path-3" transform="translate(-4492.5 -8294.47)"><polygon id="_Обтравочный_контур_2" data-name="&lt;Обтравочный контур&gt;" points="4613.65 8414.29 4610.31 8411.46 4613.71 8408.56 4610.31 8405.67 4613.71 8402.77 4610.31 8399.88 4613.71 8396.98 4610.31 8394.09 4613.71 8391.19 4610.31 8388.3 4613.71 8385.41 4613.71 8385.41 4532.7 8385.41 4532.7 8414.29 4613.65 8414.29" fill="none"/></clipPath></defs><title>q3</title><g style="isolation:isolate"><g id="Слой_1" data-name="Слой 1"><g id="_Группа_" data-name="&lt;Группа&gt;"><path id="_Составной_контур_" data-name="&lt;Составной контур&gt;" d="M4567.5,8306.22a70,70,0,1,1-70,70A70,70,0,0,1,4567.5,8306.22Z" transform="translate(-4492.5 -8294.47)" fill="#0e6724" fill-rule="evenodd"/><path id="_Составной_контур_2" data-name="&lt;Составной контур&gt;" d="M4567.5,8311.22a65,65,0,1,1-65,65,65.07,65.07,0,0,1,65-65m0-10a75,75,0,1,0,75,75,75,75,0,0,0-75-75h0Z" transform="translate(-4492.5 -8294.47)" fill="#e8e8e8"/></g><g id="_Группа_обтравки_" data-name="&lt;Группа обтравки&gt;"><g clip-path="url(#clip-path)"><g id="_Группа_2" data-name="&lt;Группа&gt;"><g id="_Группа_3" data-name="&lt;Группа&gt;"><rect id="_Прямоугольник_" data-name="&lt;Прямоугольник&gt;" x="4517.67" y="8317.16" width="84.95" height="151" transform="translate(-6693.89 -6648.16) rotate(-16.55)" fill="#fff"/><rect id="_Прямоугольник_2" data-name="&lt;Прямоугольник&gt;" x="4509.83" y="8326.32" width="72.39" height="37.65" transform="translate(-6680.95 -6654.15) rotate(-16.55)" fill="#e5d7c8"/><rect id="_Прямоугольник_3" data-name="&lt;Прямоугольник&gt;" x="4520" y="8381.35" width="31.48" height="2" rx="1" ry="1" transform="translate(-6691.97 -6655.54) rotate(-16.55)" fill="#3b3f39" opacity="0.85"/><rect id="_Прямоугольник_4" data-name="&lt;Прямоугольник&gt;" x="4522.09" y="8388.38" width="31.48" height="2" rx="1" ry="1" transform="translate(-6693.88 -6654.65) rotate(-16.55)" fill="#3b3f39" opacity="0.85"/><rect id="_Прямоугольник_5" data-name="&lt;Прямоугольник&gt;" x="4524.18" y="8395.41" width="31.48" height="2" rx="1" ry="1" transform="translate(-6695.8 -6653.77) rotate(-16.55)" fill="#3b3f39" opacity="0.85"/><rect id="_Прямоугольник_6" data-name="&lt;Прямоугольник&gt;" x="4559.22" y="8369.69" width="31.48" height="2" rx="1" ry="1" transform="translate(-6687.02 -6644.85) rotate(-16.55)" fill="#3b3f39" opacity="0.85"/><rect id="_Прямоугольник_7" data-name="&lt;Прямоугольник&gt;" x="4561.31" y="8376.72" width="31.48" height="2" rx="1" ry="1" transform="translate(-6688.94 -6643.97) rotate(-16.55)" fill="#3b3f39" opacity="0.85"/><rect id="_Прямоугольник_8" data-name="&lt;Прямоугольник&gt;" x="4563.4" y="8383.75" width="31.48" height="2" rx="1" ry="1" transform="translate(-6690.86 -6643.08) rotate(-16.55)" fill="#3b3f39" opacity="0.85"/><polygon id="_Контур_" data-name="&lt;Контур&gt;" points="113.92 127.06 110.03 125.34 112.4 121.7 108.43 119.95 110.8 116.31 106.83 114.56 109.19 110.92 105.23 109.17 107.59 105.54 103.63 103.78 105.99 100.15 105.99 100.15 30.58 122.55 38.57 149.44 113.92 127.06" fill="#e32213"/><g id="_Группа_обтравки_2" data-name="&lt;Группа обтравки&gt;"><g clip-path="url(#clip-path-2)"><g id="_Группа_4" data-name="&lt;Группа&gt;"><g id="_Группа_5" data-name="&lt;Группа&gt;"><path id="_Составной_контур_3" data-name="&lt;Составной контур&gt;" d="M4547.44,8418.93a7.76,7.76,0,0,0-6.19-.72,7.72,7.72,0,0,0,4.4,14.8,7.76,7.76,0,0,0,4.8-4l3.38-6.5Zm0.12,8.49a4.46,4.46,0,0,1-2.86,2.43,4.42,4.42,0,0,1-2.52-8.47,4.45,4.45,0,0,1,3.7.46l3.64,2Zm15-.26-6.48-3.4c-0.43.13-3.57,6.39-3.57,6.39a7.81,7.81,0,0,0-.71,6.21,7.69,7.69,0,0,0,14.75-4.38A7.81,7.81,0,0,0,4562.56,8427.16Zm-2.19,11a4.21,4.21,0,0,1-5.42-2.78,4.47,4.47,0,0,1,.45-3.71l2-3.65,3.6,2a4.5,4.5,0,0,1,2.43,2.87A4.22,4.22,0,0,1,4560.37,8438.2Zm-11.81-21.35,6.48,3.4,3.57-6.39a7.82,7.82,0,0,0,.71-6.21,7.7,7.7,0,0,0-14.75,4.38A7.82,7.82,0,0,0,4548.56,8416.85Zm2.19-11a4.26,4.26,0,0,1,5.42,2.78,4.47,4.47,0,0,1-.45,3.71l-2,3.65-3.61-2a4.5,4.5,0,0,1-2.42-2.87A4.21,4.21,0,0,1,4550.75,8405.81Zm24.11,10.46a7.53,7.53,0,0,0-9.38-5.27,7.77,7.77,0,0,0-4.8,4l-3.38,6.49,6.38,3.6a7.77,7.77,0,0,0,6.2.72A7.53,7.53,0,0,0,4574.86,8416.27Zm-5.92,6.37a4.44,4.44,0,0,1-3.7-.46l-3.64-2,2-3.61a4.48,4.48,0,0,1,2.86-2.42A4.42,4.42,0,0,1,4568.94,8422.64Z" transform="translate(-4492.5 -8294.47)" fill="#ea5937"/></g></g></g></g><rect id="_Прямоугольник_9" data-name="&lt;Прямоугольник&gt;" x="4517.67" y="8317.16" width="84.95" height="151" transform="translate(-6693.89 -6648.16) rotate(-16.55)" fill="#eae6e1" opacity="0.5" style="mix-blend-mode:multiply"/></g><g id="_Группа_6" data-name="&lt;Группа&gt;"><rect id="_Прямоугольник_10" data-name="&lt;Прямоугольник&gt;" x="40.2" width="87.48" height="155.5" fill="#fff"/><rect id="_Прямоугольник_11" data-name="&lt;Прямоугольник&gt;" x="46.66" y="7.32" width="74.55" height="38.78" fill="#e5d7c8"/><rect id="_Прямоугольник_12" data-name="&lt;Прямоугольник&gt;" x="46.66" y="59.39" width="32.42" height="2.06" rx="1" ry="1" fill="#3b3f39" opacity="0.85"/><rect id="_Прямоугольник_13" data-name="&lt;Прямоугольник&gt;" x="46.66" y="66.94" width="32.42" height="2.06" rx="1" ry="1" fill="#3b3f39" opacity="0.85"/><rect id="_Прямоугольник_14" data-name="&lt;Прямоугольник&gt;" x="46.66" y="74.49" width="32.42" height="2.06" rx="1" ry="1" fill="#3b3f39" opacity="0.85"/><rect id="_Прямоугольник_15" data-name="&lt;Прямоугольник&gt;" x="88.79" y="59.39" width="32.42" height="2.06" rx="1" ry="1" fill="#3b3f39" opacity="0.85"/><rect id="_Прямоугольник_16" data-name="&lt;Прямоугольник&gt;" x="88.79" y="66.94" width="32.42" height="2.06" rx="1" ry="1" fill="#3b3f39" opacity="0.85"/><rect id="_Прямоугольник_17" data-name="&lt;Прямоугольник&gt;" x="88.79" y="74.49" width="32.42" height="2.06" rx="1" ry="1" fill="#3b3f39" opacity="0.85"/><polygon id="_Контур_2" data-name="&lt;Контур&gt;" points="121.15 119.82 117.81 116.98 121.21 114.09 117.81 111.19 121.21 108.3 117.81 105.41 121.21 102.51 117.81 99.62 121.21 96.72 117.81 93.83 121.21 90.93 121.21 90.93 40.2 90.93 40.2 119.82 121.15 119.82" fill="#e32213"/><g id="_Группа_обтравки_3" data-name="&lt;Группа обтравки&gt;"><g clip-path="url(#clip-path-3)"><g id="_Группа_7" data-name="&lt;Группа&gt;"><g id="_Группа_8" data-name="&lt;Группа&gt;"><path id="_Составной_контур_4" data-name="&lt;Составной контур&gt;" d="M4561.43,8399.85l-5.24-5.42a8,8,0,0,0-5.9-2.53,8,8,0,0,0,0,15.9,8,8,0,0,0,5.9-2.53Zm-11.14,4.55a4.55,4.55,0,0,1,0-9.1,4.58,4.58,0,0,1,3.51,1.54l3,3-3,3A4.59,4.59,0,0,1,4550.28,8404.4Zm13-2.67c-0.46,0-5.4,5.26-5.4,5.26a8,8,0,0,0-2.52,5.92,7.92,7.92,0,0,0,15.84,0,8,8,0,0,0-2.52-5.92Zm0,15.52a4.34,4.34,0,0,1-4.53-4.34,4.61,4.61,0,0,1,1.53-3.53l3-3,3,3a4.63,4.63,0,0,1,1.55,3.55A4.34,4.34,0,0,1,4563.3,8417.25Zm0-19.28,5.4-5.26a8.05,8.05,0,0,0,2.52-5.92,7.92,7.92,0,0,0-15.84,0,8.05,8.05,0,0,0,2.52,5.92Zm0-15.52a4.39,4.39,0,0,1,4.53,4.34,4.61,4.61,0,0,1-1.54,3.53l-3,3-3-3a4.63,4.63,0,0,1-1.55-3.55A4.34,4.34,0,0,1,4563.3,8382.45Zm13,9.45a8,8,0,0,0-5.9,2.53l-5.24,5.42,5.24,5.42a8,8,0,0,0,5.9,2.53A8,8,0,0,0,4576.32,8391.9Zm0,12.5a4.58,4.58,0,0,1-3.51-1.54l-3-3,3-3a4.61,4.61,0,0,1,3.53-1.55A4.55,4.55,0,0,1,4576.32,8404.4Z" transform="translate(-4492.5 -8294.47)" fill="#ea5937"/></g></g></g></g></g></g></g></g></g></g></svg>