<svg xmlns="http://www.w3.org/2000/svg" viewBox="0 0 150 182.65"><defs><clipPath id="a" transform="translate(-4492.5 -8294.47)"><path data-name="composite_path" d="M4630.5 8290.91v85.34h2a65 65 0 0 1-124.89 25.3h-15.11v-110.64h138z" fill="none" clip-rule="evenodd"/></clipPath><clipPath id="b" transform="translate(-4492.5 -8294.47)"><path data-name="composite_path;" fill="none" d="M4606.42 8421.53l-1.52-5.36-3.97-1.75 2.37-3.64-1.61-5.38-1.6-5.39-1.6-5.39-75.41 22.4 7.99 26.9 75.35-22.39z"/></clipPath><clipPath id="c" transform="translate(-4492.5 -8294.47)"><path data-name="composite_path;" fill="none" d="M4613.65 8414.29l-3.34-2.83 3.4-2.9-3.4-2.89 3.4-2.9-3.4-2.89 3.4-2.9-3.4-2.89 3.4-2.9-3.4-2.89 3.4-2.89h-81.01v28.88h80.95z"/></clipPath></defs><title>q3</title><g data-name="layer 1" style="isolation:isolate"><g data-name="group"><path data-name="composite_path" d="M75 11.75a70 70 0 1 1-70 70 70 70 0 0 1 70-70z" fill="#0e6724" fill-rule="evenodd"/><path data-name="composite_path" d="M75 16.75a65 65 0 1 1-65 65 65.07 65.07 0 0 1 65-65m0-10a75 75 0 1 0 75 75 75 75 0 0 0-75-75z" fill="#e8e8e8"/></g><g data-name="group" clip-path="url(#a)"><g data-name="group"><path data-name="rect" fill="#fff" d="M5.78 37.566l81.43-24.199 43.012 144.745-81.43 24.198z"/><path data-name="rect" fill="#e5d7c8" d="M13.813 42.59l69.391-20.621 10.725 36.09-69.391 20.62z"/><rect data-name="rect" x="4520" y="8381.35" width="31.48" height="2" rx="1" ry="1" transform="rotate(-16.55 -26226.907 19678.394)" fill="#3b3f39" opacity=".85"/><rect data-name="rect" x="4522.09" y="8388.38" width="31.48" height="2" rx="1" ry="1" transform="rotate(-16.55 -26224.802 19685.405)" fill="#3b3f39" opacity=".85"/><rect data-name="rect" x="4524.18" y="8395.41" width="31.48" height="2" rx="1" ry="1" transform="rotate(-16.55 -26222.737 19692.446)" fill="#3b3f39" opacity=".85"/><rect data-name="rect" x="4559.22" y="8369.69" width="31.48" height="2" rx="1" ry="1" transform="rotate(-16.55 -26187.681 19666.721)" fill="#3b3f39" opacity=".85"/><rect data-name="rect" x="4561.31" y="8376.72" width="31.48" height="2" rx="1" ry="1" transform="rotate(-16.55 -26185.616 19673.762)" fill="#3b3f39" opacity=".85"/><rect data-name="rect" x="4563.4" y="8383.75" width="31.48" height="2" rx="1" ry="1" transform="rotate(-16.55 -26183.516 19680.808)" fill="#3b3f39" opacity=".85"/><path data-name="path" fill="#e32213" d="M113.92 127.06l-3.89-1.72 2.37-3.64-3.97-1.75 2.37-3.64-3.97-1.75 2.36-3.64-3.96-1.75 2.36-3.63-3.96-1.76 2.36-3.63-75.41 22.4 7.99 26.89 75.35-22.38z"/><g data-name="group" clip-path="url(#b)"><path data-name="composite_path" d="M54.94 124.46a7.76 7.76 0 0 0-6.19-.72 7.72 7.72 0 0 0 4.4 14.8 7.76 7.76 0 0 0 4.8-4l3.38-6.5zm.12 8.49a4.46 4.46 0 0 1-2.86 2.43 4.42 4.42 0 0 1-2.52-8.47 4.45 4.45 0 0 1 3.7.46l3.64 2zm15-.26l-6.48-3.4c-.43.13-3.57 6.39-3.57 6.39a7.81 7.81 0 0 0-.71 6.21 7.693 7.693 0 0 0 14.75-4.38 7.81 7.81 0 0 0-3.99-4.82zm-2.19 11a4.21 4.21 0 0 1-5.42-2.78 4.47 4.47 0 0 1 .45-3.71l2-3.65 3.6 2a4.5 4.5 0 0 1 2.43 2.87 4.22 4.22 0 0 1-3.06 5.31zm-11.81-21.35l6.48 3.4 3.57-6.39a7.82 7.82 0 0 0 .71-6.21 7.7 7.7 0 0 0-14.75 4.38 7.82 7.82 0 0 0 3.99 4.86zm2.19-11a4.26 4.26 0 0 1 5.42 2.78 4.47 4.47 0 0 1-.45 3.71l-2 3.65-3.61-2a4.5 4.5 0 0 1-2.42-2.87 4.21 4.21 0 0 1 3.06-5.27zm24.11 10.46a7.53 7.53 0 0 0-9.38-5.27 7.77 7.77 0 0 0-4.8 4l-3.38 6.49 6.38 3.6a7.77 7.77 0 0 0 6.2.72 7.53 7.53 0 0 0 4.98-9.54zm-5.92 6.37a4.44 4.44 0 0 1-3.7-.46l-3.64-2 2-3.61a4.48 4.48 0 0 1 2.86-2.42 4.422 4.422 0 0 1 2.48 8.49z" fill="#ea5937"/></g><path data-name="rect" fill="#eae6e1" opacity=".5" style="mix-blend-mode:multiply" d="M5.78 37.566l81.43-24.199 43.012 144.745-81.43 24.198z"/></g><g data-name="group"><path data-name="rect" fill="#fff" d="M40.2 0h87.48v155.5H40.2z"/><path data-name="rect" fill="#e5d7c8" d="M46.66 7.32h74.55V46.1H46.66z"/><rect data-name="rect" x="46.66" y="59.39" width="32.42" height="2.06" rx="1" ry="1" fill="#3b3f39" opacity=".85"/><rect data-name="rect" x="46.66" y="66.94" width="32.42" height="2.06" rx="1" ry="1" fill="#3b3f39" opacity=".85"/><rect data-name="rect" x="46.66" y="74.49" width="32.42" height="2.06" rx="1" ry="1" fill="#3b3f39" opacity=".85"/><rect data-name="rect" x="88.79" y="59.39" width="32.42" height="2.06" rx="1" ry="1" fill="#3b3f39" opacity=".85"/><rect data-name="rect" x="88.79" y="66.94" width="32.42" height="2.06" rx="1" ry="1" fill="#3b3f39" opacity=".85"/><rect data-name="rect" x="88.79" y="74.49" width="32.42" height="2.06" rx="1" ry="1" fill="#3b3f39" opacity=".85"/><path data-name="path" fill="#e32213" d="M121.15 119.82l-3.34-2.84 3.4-2.89-3.4-2.9 3.4-2.89-3.4-2.89 3.4-2.9-3.4-2.89 3.4-2.9-3.4-2.89 3.4-2.9H40.2v28.89h80.95z"/><g data-name="group" clip-path="url(#c)"><path data-name="composite_path" d="M68.93 105.38l-5.24-5.42a8 8 0 0 0-5.9-2.53 8 8 0 0 0 0 15.9 8 8 0 0 0 5.9-2.53zm-11.14 4.55a4.55 4.55 0 0 1 0-9.1 4.58 4.58 0 0 1 3.51 1.54l3 3-3 3a4.59 4.59 0 0 1-3.52 1.56zm13-2.67c-.46 0-5.4 5.26-5.4 5.26a8 8 0 0 0-2.52 5.92 7.92 7.92 0 0 0 15.84 0 8 8 0 0 0-2.52-5.92zm0 15.52a4.34 4.34 0 0 1-4.53-4.34 4.61 4.61 0 0 1 1.53-3.53l3-3 3 3a4.63 4.63 0 0 1 1.55 3.55 4.34 4.34 0 0 1-4.54 4.32zm0-19.28l5.4-5.26a8.05 8.05 0 0 0 2.52-5.92 7.92 7.92 0 0 0-15.84 0 8.05 8.05 0 0 0 2.52 5.92zm0-15.52a4.39 4.39 0 0 1 4.53 4.34 4.61 4.61 0 0 1-1.54 3.53l-3 3-3-3a4.63 4.63 0 0 1-1.55-3.55 4.34 4.34 0 0 1 4.57-4.32zm13 9.45a8 8 0 0 0-5.9 2.53l-5.24 5.42 5.24 5.42a8 8 0 0 0 5.9 2.53 8 8 0 0 0 .03-15.9zm0 12.5a4.58 4.58 0 0 1-3.51-1.54l-3-3 3-3a4.61 4.61 0 0 1 3.53-1.55 4.55 4.55 0 0 1 .01 9.09z" fill="#ea5937"/></g></g></g></g></svg>