<svg id="Слой_1" data-name="Слой 1" xmlns="http://www.w3.org/2000/svg" xmlns:xlink="http://www.w3.org/1999/xlink" viewBox="0 0 150 156.77"><defs><clipPath id="clip-path" transform="translate(-4748.38 -8294.45)"><path id="_Составной_обтравочный_контур_" data-name="&lt;Составной обтравочный контур&gt;" d="M4888.5,8290.91v85.34h-0.12a65,65,0,0,1-124.89,25.3h-3.74V8290.91H4888.5Z" fill="none" clip-rule="evenodd"/></clipPath><clipPath id="clip-path-2" transform="translate(-4748.38 -8294.45)"><rect id="_Прямоугольник_" data-name="&lt;Прямоугольник&gt;" x="4774.75" y="8326.4" width="97.28" height="43.57" fill="none"/></clipPath><clipPath id="clip-path-3" transform="translate(-4748.38 -8294.45)"><polygon id="_Обтравочный_контур_" data-name="&lt;Обтравочный контур&gt;" points="4823.29 8365.86 4821.17 8364.17 4823.21 8362.31 4821.04 8360.59 4823.09 8358.72 4820.92 8357 4822.96 8355.13 4820.79 8353.41 4822.84 8351.55 4820.67 8349.83 4822.71 8347.96 4822.71 8347.96 4772.52 8349.71 4773.14 8367.6 4823.29 8365.86" fill="none"/></clipPath><clipPath id="clip-path-4" transform="translate(-4748.38 -8294.45)"><polygon id="_Обтравочный_контур_2" data-name="&lt;Обтравочный контур&gt;" points="4815.16 8350.8 4812.89 8349.32 4814.75 8347.27 4812.43 8345.76 4814.29 8343.71 4811.97 8342.2 4813.83 8340.16 4811.51 8338.64 4813.38 8336.59 4811.06 8335.08 4812.92 8333.04 4812.92 8333.03 4763.1 8339.44 4765.39 8357.2 4815.16 8350.8" fill="none"/></clipPath></defs><title>q4</title><g id="_Группа_" data-name="&lt;Группа&gt;"><path id="_Составной_контур_" data-name="&lt;Составной контур&gt;" d="M4823.38,8306.22a70,70,0,1,1-70,70A70,70,0,0,1,4823.38,8306.22Z" transform="translate(-4748.38 -8294.45)" fill="#0e6724" fill-rule="evenodd"/><path id="_Составной_контур_2" data-name="&lt;Составной контур&gt;" d="M4823.38,8311.22a65,65,0,1,1-65,65,65.07,65.07,0,0,1,65-65m0-10a75,75,0,1,0,75,75,75,75,0,0,0-75-75h0Z" transform="translate(-4748.38 -8294.45)" fill="#e8e8e8"/></g><g id="_Группа_обтравки_" data-name="&lt;Группа обтравки&gt;"><g clip-path="url(#clip-path)"><g id="_Группа_2" data-name="&lt;Группа&gt;"><rect id="_Прямоугольник_2" data-name="&lt;Прямоугольник&gt;" x="20.03" y="24.11" width="109.94" height="131.63" fill="#fff"/><path id="_Контур_" data-name="&lt;Контур&gt;" d="M4877.59,8294.45H4769.17a0.76,0.76,0,0,0-.76.76v24h109.94v-24A0.76,0.76,0,0,0,4877.59,8294.45Z" transform="translate(-4748.38 -8294.45)" fill="#e5d7c8"/><rect id="_Прямоугольник_3" data-name="&lt;Прямоугольник&gt;" x="51.76" y="9.99" width="62.29" height="4.87" fill="#fff"/><path id="_Контур_2" data-name="&lt;Контур&gt;" d="M4789.75,8308.88a2,2,0,0,0,0-4h-0.36a2,2,0,1,0,0,4h0.36Z" transform="translate(-4748.38 -8294.45)" fill="#3b3f39" opacity="0.85"/><path id="_Контур_3" data-name="&lt;Контур&gt;" d="M4780.65,8308.88a2,2,0,0,0,0-4h-0.36a2,2,0,1,0,0,4h0.36Z" transform="translate(-4748.38 -8294.45)" fill="#3b3f39" opacity="0.85"/><path id="_Составной_контур_3" data-name="&lt;Составной контур&gt;" d="M4863.2,8302.93h-63.81a0.76,0.76,0,0,0-.76.76v6.39a0.76,0.76,0,0,0,.76.76h63.81a0.76,0.76,0,0,0,.76-0.76v-6.39A0.76,0.76,0,0,0,4863.2,8302.93Zm-0.76,6.39h-62.29v-4.87h62.29v4.87Z" transform="translate(-4748.38 -8294.45)" fill="#3b3f39" opacity="0.85"/><rect id="_Прямоугольник_4" data-name="&lt;Прямоугольник&gt;" x="26.37" y="31.94" width="97.28" height="43.57" fill="#bccf04"/><path id="_Контур_4" data-name="&lt;Контур&gt;" d="M4846.69,8382.83h-46.6a1,1,0,0,1,0-2h46.6A1,1,0,0,1,4846.69,8382.83Z" transform="translate(-4748.38 -8294.45)" fill="#3b3f39"/><path id="_Контур_5" data-name="&lt;Контур&gt;" d="M4872,8389.72h-97.28a0.5,0.5,0,1,1,0-1H4872A0.5,0.5,0,0,1,4872,8389.72Z" transform="translate(-4748.38 -8294.45)" fill="#3b3f39"/><path id="_Контур_6" data-name="&lt;Контур&gt;" d="M4872,8397.12h-97.28a0.5,0.5,0,1,1,0-1H4872A0.5,0.5,0,0,1,4872,8397.12Z" transform="translate(-4748.38 -8294.45)" fill="#3b3f39"/><path id="_Контур_7" data-name="&lt;Контур&gt;" d="M4872,8404.52h-97.28a0.5,0.5,0,1,1,0-1H4872A0.5,0.5,0,0,1,4872,8404.52Z" transform="translate(-4748.38 -8294.45)" fill="#3b3f39"/><g id="_Группа_3" data-name="&lt;Группа&gt;" opacity="0.25"><g id="_Группа_4" data-name="&lt;Группа&gt;"><path id="_Составной_контур_4" data-name="&lt;Составной контур&gt;" d="M4846.76,8348.18l-3.82-3.95a5.82,5.82,0,0,0-4.3-1.84,5.79,5.79,0,0,0,0,11.58,5.82,5.82,0,0,0,4.3-1.84Zm-8.11,3.31a3.32,3.32,0,0,1,0-6.62,3.34,3.34,0,0,1,2.56,1.12l2.2,2.19-2.18,2.18A3.34,3.34,0,0,1,4838.64,8351.49Zm9.48-1.94c-0.33,0-3.93,3.83-3.93,3.83a5.86,5.86,0,0,0-1.83,4.31,5.77,5.77,0,0,0,11.54,0,5.86,5.86,0,0,0-1.83-4.31Zm0,11.3a3.16,3.16,0,0,1-3.3-3.16,3.35,3.35,0,0,1,1.12-2.57l2.18-2.2,2.17,2.19a3.37,3.37,0,0,1,1.13,2.58A3.16,3.16,0,0,1,4848.12,8360.85Zm0-14,3.93-3.83a5.86,5.86,0,0,0,1.84-4.31,5.77,5.77,0,0,0-11.54,0,5.86,5.86,0,0,0,1.83,4.31Zm0-11.3a3.2,3.2,0,0,1,3.3,3.16,3.35,3.35,0,0,1-1.12,2.57l-2.18,2.2-2.17-2.19a3.37,3.37,0,0,1-1.13-2.58A3.16,3.16,0,0,1,4848.12,8335.51Zm9.48,6.88a5.82,5.82,0,0,0-4.3,1.84l-3.82,3.95,3.82,3.95a5.82,5.82,0,0,0,4.3,1.84A5.79,5.79,0,0,0,4857.6,8342.39Zm0,9.1a3.33,3.33,0,0,1-2.56-1.12l-2.19-2.19L4855,8346a3.36,3.36,0,0,1,2.57-1.13A3.32,3.32,0,0,1,4857.6,8351.49Z" transform="translate(-4748.38 -8294.45)" fill="#0d6725"/></g></g><g id="_Группа_обтравки_2" data-name="&lt;Группа обтравки&gt;"><g clip-path="url(#clip-path-2)"><g id="_Группа_5" data-name="&lt;Группа&gt;"><g id="_Группа_6" data-name="&lt;Группа&gt;"><polygon id="_Контур_8" data-name="&lt;Контур&gt;" points="74.91 71.41 72.79 69.72 74.83 67.85 72.66 66.13 74.7 64.27 72.54 62.55 74.58 60.68 72.41 58.96 74.45 57.09 72.29 55.37 74.33 53.51 74.33 53.51 24.14 55.25 24.76 73.15 74.91 71.41" fill="#e32213"/><g id="_Группа_обтравки_3" data-name="&lt;Группа обтравки&gt;"><g clip-path="url(#clip-path-3)"><g id="_Группа_7" data-name="&lt;Группа&gt;"><g id="_Группа_8" data-name="&lt;Группа&gt;"><path id="_Составной_контур_5" data-name="&lt;Составной контур&gt;" d="M4790.63,8358l-3.36-3.25a5,5,0,0,0-3.71-1.44,4.93,4.93,0,0,0,.34,9.85,5,5,0,0,0,3.6-1.69Zm-6.81,3.06a2.82,2.82,0,0,1-.2-5.64,2.84,2.84,0,0,1,2.21.88l1.93,1.8-1.79,1.92A2.85,2.85,0,0,1,4783.82,8361.09Zm8-1.93a36.56,36.56,0,0,0-3.23,3.38,5,5,0,0,0-1.43,3.72,4.91,4.91,0,0,0,9.81-.34,5,5,0,0,0-1.69-3.62Zm0.33,9.62a2.69,2.69,0,0,1-2.9-2.59,2.86,2.86,0,0,1,.87-2.22l1.79-1.94,1.91,1.8a2.87,2.87,0,0,1,1,2.16A2.69,2.69,0,0,1,4792.17,8368.78Zm-0.42-11.95,3.23-3.37a5,5,0,0,0,1.43-3.72,4.91,4.91,0,0,0-9.82.34,5,5,0,0,0,1.69,3.62Zm-0.33-9.62a2.72,2.72,0,0,1,2.9,2.59,2.85,2.85,0,0,1-.88,2.22l-1.79,1.94-1.91-1.8a2.87,2.87,0,0,1-1-2.16A2.69,2.69,0,0,1,4791.42,8347.21Zm8.27,5.58a5,5,0,0,0-3.6,1.69L4793,8358l3.36,3.25a5,5,0,0,0,3.71,1.44A4.93,4.93,0,0,0,4799.68,8352.79Zm0.27,7.74a2.84,2.84,0,0,1-2.21-.88l-1.93-1.8,1.79-1.92a2.86,2.86,0,0,1,2.15-1A2.82,2.82,0,0,1,4800,8360.53Z" transform="translate(-4748.38 -8294.45)" fill="#ea5937"/></g></g></g></g></g><polygon id="_Контур_9" data-name="&lt;Контур&gt;" points="74.91 71.41 72.79 69.72 74.83 67.85 72.66 66.13 74.7 64.27 72.54 62.55 74.58 60.68 72.41 58.96 74.45 57.09 72.29 55.37 74.33 53.51 74.33 53.51 24.14 55.25 24.76 73.15 74.91 71.41" fill="#873935" opacity="0.15"/><g id="_Группа_9" data-name="&lt;Группа&gt;"><polygon id="_Контур_10" data-name="&lt;Контур&gt;" points="67.4 57.22 65.04 55.68 66.97 53.55 64.56 51.98 66.5 49.85 64.08 48.28 66.02 46.14 63.61 44.57 65.55 42.44 63.13 40.87 65.07 38.74 65.07 38.74 13.24 45.4 15.61 63.88 67.4 57.22" fill="#424242" opacity="0.15"/><polygon id="_Контур_11" data-name="&lt;Контур&gt;" points="66.78 56.35 64.5 54.87 66.37 52.82 64.05 51.31 65.91 49.26 63.59 47.75 65.45 45.7 63.13 44.19 64.99 42.14 62.67 40.63 64.54 38.58 64.54 38.58 14.72 44.98 17 62.75 66.78 56.35" fill="#e32213"/><g id="_Группа_обтравки_4" data-name="&lt;Группа обтравки&gt;"><g clip-path="url(#clip-path-4)"><g id="_Группа_10" data-name="&lt;Группа&gt;"><g id="_Группа_11" data-name="&lt;Группа&gt;"><path id="_Составной_контур_6" data-name="&lt;Составной контур&gt;" d="M4778.26,8343.13a5,5,0,0,0-3.83-1.09,4.93,4.93,0,0,0,1.26,9.78,5,5,0,0,0,3.43-2l2.79-3.75Zm-0.79,5.36a2.85,2.85,0,0,1-2,1.24,2.82,2.82,0,0,1-.72-5.59,2.84,2.84,0,0,1,2.28.67l2.09,1.61Zm9.48,1.37-3.74-2.81a36.59,36.59,0,0,0-2.91,3.66,5,5,0,0,0-1.08,3.84,4.91,4.91,0,0,0,9.74-1.25A5,5,0,0,0,4786.95,8349.86Zm-2.51,6.74a2.69,2.69,0,0,1-3.13-2.31,2.86,2.86,0,0,1,.66-2.29l1.6-2.1,2.07,1.61a2.87,2.87,0,0,1,1.24,2.06A2.69,2.69,0,0,1,4784.44,8356.6Zm-5.26-14.66,3.74,2.81,2.91-3.66a5,5,0,0,0,1.08-3.84,4.91,4.91,0,0,0-9.74,1.25A5,5,0,0,0,4779.18,8341.94Zm2.51-6.74a2.72,2.72,0,0,1,3.13,2.31,2.86,2.86,0,0,1-.67,2.29l-1.6,2.1-2.07-1.61a2.87,2.87,0,0,1-1.23-2.06A2.69,2.69,0,0,1,4781.69,8335.2Zm14.12,9.06a4.81,4.81,0,0,0-5.37-4.28,5,5,0,0,0-3.43,2l-2.79,3.75,3.65,2.92a5,5,0,0,0,3.83,1.09A4.81,4.81,0,0,0,4795.81,8344.26Zm-4.38,3.41a2.84,2.84,0,0,1-2.28-.67l-2.09-1.61,1.61-2.08a2.86,2.86,0,0,1,2-1.23A2.82,2.82,0,0,1,4791.43,8347.67Z" transform="translate(-4748.38 -8294.45)" fill="#ea5937"/></g></g></g></g></g></g></g></g></g></g></g></svg>