<svg data-name="layer 1" xmlns="http://www.w3.org/2000/svg" viewBox="0 0 150 169"><defs><clipPath id="a" transform="translate(-4247.5 -8290.53)"><path data-name="composite_path" d="M4369.83 8287.58v88.68h17.67a65 65 0 0 1-124.89 25.3H4276v-114h93.83z" fill="none" clip-rule="evenodd"/></clipPath></defs><title>q2</title><g data-name="group"><path data-name="composite_path" d="M75 15.69a70 70 0 1 1-70 70 70 70 0 0 1 70-70z" fill="#0e6724" fill-rule="evenodd"/><path data-name="composite_path" d="M75 20.69a65 65 0 1 1-65 65 65.07 65.07 0 0 1 65-65m0-10a75 75 0 1 0 75 75 75 75 0 0 0-75-75z" fill="#e8e8e8"/></g><g data-name="group" clip-path="url(#a)"><g data-name="group"><rect data-name="rect" x="34.33" width="81.33" height="169" rx="13.94" ry="13.94" fill="#fff"/><path data-name="composite_path" d="M101.73.3a13.65 13.65 0 0 1 13.64 13.64v141.13a13.65 13.65 0 0 1-13.64 13.64H48.27a13.65 13.65 0 0 1-13.64-13.64V13.94A13.65 13.65 0 0 1 48.27.3h53.46m0-.3H48.27a13.94 13.94 0 0 0-13.94 13.94v141.13a13.94 13.94 0 0 0 13.94 13.94h53.46a13.94 13.94 0 0 0 13.94-13.94V13.94A13.94 13.94 0 0 0 101.73 0z" fill="#e8e8e8"/></g><g data-name="rect"><path data-name="path" fill="#e5d7c8" d="M37.76 19.01h74.49v114.96H37.76z"/></g><rect data-name="rect" x="62.87" y="8.75" width="24.25" height="2.5" rx="1.25" ry="1.25" fill="#323232"/><rect data-name="rect" x="70" y="138.5" width="10" height="10" rx="5" ry="5" fill="#323232"/><g data-name="group"><g data-name="rect"><rect data-name="path" x="50.67" y="47.22" width="48.66" height="48.66" rx="9.91" ry="9.91" fill="#fff"/></g><g data-name="group"><path data-name="composite_path" d="M70.93 76.89a6 6 0 0 0-1.9 4.43 6 6 0 0 0 11.94 0 6 6 0 0 0-1.9-4.43L75 72.96zm6.32 1.78a3.45 3.45 0 0 1 1.17 2.65 3.42 3.42 0 0 1-6.83 0 3.44 3.44 0 0 1 1.15-2.64L75 76.41z" fill="#00a54d"/><path data-name="composite_path" d="M80.36 67.47l-3.95 4.06c0 .35 3.95 4.06 3.95 4.06a6 6 0 0 0 4.45 1.89 5.95 5.95 0 0 0 0-11.89 6 6 0 0 0-4.45 1.88zm7.7 4.06a3.26 3.26 0 0 1-3.26 3.4 3.46 3.46 0 0 1-2.65-1.15l-2.27-2.25 2.26-2.24a3.48 3.48 0 0 1 2.66-1.17 3.26 3.26 0 0 1 3.26 3.43z" fill="#015924"/><path data-name="composite_path" d="M59.38 71.55a5.82 5.82 0 0 0 5.81 5.95 6 6 0 0 0 4.45-1.89l3.95-4.06-3.95-4.06a6 6 0 0 0-4.45-1.89 5.82 5.82 0 0 0-5.81 5.95zm8.46-2.25l2.27 2.25-2.26 2.24a3.48 3.48 0 0 1-2.66 1.16 3.26 3.26 0 0 1-3.26-3.4 3.3 3.3 0 0 1 3.26-3.4 3.46 3.46 0 0 1 2.65 1.15z" fill="#70c03c"/><path data-name="composite_path" d="M69.03 61.78a6 6 0 0 0 1.9 4.43L75 70.14l4.07-3.93a6 6 0 0 0 1.9-4.43 6 6 0 0 0-11.94 0zm9.38 0a3.44 3.44 0 0 1-1.15 2.64L75 66.68l-2.25-2.25a3.46 3.46 0 0 1-1.17-2.65 3.42 3.42 0 0 1 6.83 0z" fill="#b1d31d"/></g></g></g></svg>