<svg xmlns="http://www.w3.org/2000/svg" width="32.938" height="27.312" viewBox="0 0 32.938 27.312"><defs><style>.cls-1{fill:#b1d235;fill-rule:evenodd}</style></defs><path id="favorites" class="cls-1" d="M759.5 104.657a1.44 1.44 0 0 1-.644-.151c-.647-.324-15.833-8.031-15.833-17.891a9.272 9.272 0 0 1 16.475-5.84 9.275 9.275 0 0 1 16.479 5.84c0 9.861-15.187 17.567-15.833 17.891a1.446 1.446 0 0 1-.644.151zm-7.206-24.435a6.4 6.4 0 0 0-6.391 6.392c0 7.081 10.816 13.452 13.6 14.973 2.781-1.521 13.6-7.892 13.6-14.973a6.392 6.392 0 0 0-12.138-2.814 1.6 1.6 0 0 1-1.455.894 1.626 1.626 0 0 1-1.475-.9 5.404 5.404 0 0 0-.278-.5 6.353 6.353 0 0 0-5.463-3.072zm6.088 2.306a.054.054 0 0 0 0 .01.054.054 0 0 1 0-.009zm2.227-.022v.001z" transform="translate(-743.031 -77.344)"/></svg>