<svg xmlns="http://www.w3.org/2000/svg" width="32.938" height="27.312" viewBox="0 0 32.938 27.312">
  <metadata><?xpacket begin="﻿" id="W5M0MpCehiHzreSzNTczkc9d"?>
<x:xmpmeta xmlns:x="adobe:ns:meta/" x:xmptk="Adobe XMP Core 5.6-c138 79.159824, 2016/09/14-01:09:01        ">
   <rdf:RDF xmlns:rdf="http://www.w3.org/1999/02/22-rdf-syntax-ns#">
      <rdf:Description rdf:about=""/>
   </rdf:RDF>
</x:xmpmeta>
                                                                                                    
                                                                                                    
                                                                                                    
                                                                                                    
                                                                                                    
                                                                                                    
                                                                                                    
                                                                                                    
                                                                                                    
                                                                                                    
                                                                                                    
                                                                                                    
                                                                                                    
                                                                                                    
                                                                                                    
                                                                                                    
                                                                                                    
                                                                                                    
                                                                                                    
                                                                                                    
                           
<?xpacket end="w"?></metadata>
<defs>
    <style>
      .cls-1 {
        fill: #b1d235;
        fill-rule: evenodd;
      }
    </style>
  </defs>
  <path id="favorites" class="cls-1" d="M759.5,104.657a1.44,1.44,0,0,1-.644-0.151c-0.647-.324-15.833-8.031-15.833-17.891a9.272,9.272,0,0,1,16.475-5.84,9.275,9.275,0,0,1,16.479,5.84c0,9.861-15.187,17.567-15.833,17.891A1.446,1.446,0,0,1,759.5,104.657Zm-7.206-24.435a6.4,6.4,0,0,0-6.391,6.392c0,7.081,10.816,13.452,13.6,14.973,2.781-1.521,13.6-7.892,13.6-14.973A6.392,6.392,0,0,0,760.965,83.8a1.6,1.6,0,0,1-1.455.894h0a1.626,1.626,0,0,1-1.475-.9c-0.084-.17-0.177-0.341-0.278-0.5A6.353,6.353,0,0,0,752.294,80.222Zm6.088,2.306a0.054,0.054,0,0,0,0,.01A0.054,0.054,0,0,1,758.382,82.529Zm2.227-.022s0,0.007,0,.01S760.61,82.511,760.609,82.507Z" transform="translate(-743.031 -77.344)"/>
</svg>
