<svg xmlns="http://www.w3.org/2000/svg" viewBox="0 0 238.78 47.25"><defs><style>.cls-1{fill:#7ac143}.cls-2{fill:#008c44}.cls-3{fill:#b2d235}.cls-4{fill:#005826}</style></defs><title>logo.svg</title><g id="layer_2" data-name="layer 2"><g id="left_bar" data-name="left bar"><path class="cls-1" d="M8.27 17.36A4.92 4.92 0 0 1 12 19l3.23 3.22-3.21 3.2a4.93 4.93 0 0 1-3.79 1.66 4.7 4.7 0 0 1-4.63-4.86 4.7 4.7 0 0 1 4.63-4.86m0-3.63A8.3 8.3 0 0 0 0 22.22a8.3 8.3 0 0 0 8.27 8.49A8.58 8.58 0 0 0 14.59 28l5.62-5.79-5.62-5.79a8.58 8.58 0 0 0-6.33-2.7"/><path class="cls-2" d="M22.22 29.18l3.19 3.21a4.94 4.94 0 0 1 1.67 3.79 4.65 4.65 0 0 1-4.86 4.63 4.65 4.65 0 0 1-4.86-4.63A4.91 4.91 0 0 1 19 32.41zm0-4.95c-.49 0-5.79 5.62-5.79 5.62a8.58 8.58 0 0 0-2.7 6.33 8.3 8.3 0 0 0 8.49 8.27 8.3 8.3 0 0 0 8.49-8.27A8.58 8.58 0 0 0 28 29.85z"/><path class="cls-3" d="M22.22 3.63a4.7 4.7 0 0 1 4.86 4.63A4.91 4.91 0 0 1 25.44 12l-3.21 3.23L19 12.05a4.94 4.94 0 0 1-1.66-3.79 4.64 4.64 0 0 1 4.86-4.63m0-3.63a8.3 8.3 0 0 0-8.49 8.27 8.58 8.58 0 0 0 2.7 6.33l5.79 5.62 5.8-5.63a8.59 8.59 0 0 0 2.7-6.33A8.3 8.3 0 0 0 22.22 0"/><path class="cls-1" d="M161.86 44.07a3 3 0 0 1-.69 1.41 1.66 1.66 0 0 1-1.35.6 2 2 0 0 1-1.9-1.31 5.37 5.37 0 0 1-.39-2.18 4.6 4.6 0 0 1 .46-2.23 1.93 1.93 0 0 1 1.83-1.09 1.71 1.71 0 0 1 1.57.84 3.06 3.06 0 0 1 .44 1.08v.11h.11l1.13-.22V41a3.44 3.44 0 0 0-1-2.06 3.06 3.06 0 0 0-2.21-.8 3.43 3.43 0 0 0-2.7 1.18 4.79 4.79 0 0 0-1 3.25 6 6 0 0 0 .84 3.17 3.2 3.2 0 0 0 2.87 1.54 2.81 2.81 0 0 0 2.2-.93 4 4 0 0 0 1-2v-.11l-1.19-.24zm5.17-.78l-2.39-5.05h-1.39l3.1 6.53a2.46 2.46 0 0 1-.54 1 1.28 1.28 0 0 1-.9.32 1 1 0 0 1-.44-.08l-.16-.06v1.17h.08a1.74 1.74 0 0 0 .61.1 2.28 2.28 0 0 0 1.48-.56 4.56 4.56 0 0 0 1.08-1.87l2.64-6.56H169zm4 3.84h1.32V39.4h3.68v7.72h1.32v-8.88h-6.31zm9.65-4.13h3.48v-1.08h-3.48V39.4h4.39v-1.16h-5.71v8.89h5.84V46h-4.52zm11.05-4.22a3.6 3.6 0 0 0-2.24-.58h-3v8.89h1.32v-3.47h1.76a3.09 3.09 0 0 0 2.26-.71 2.68 2.68 0 0 0 .85-2 2.47 2.47 0 0 0-1-2.07m-.89 3.24a2.06 2.06 0 0 1-1.44.4h-1.57v-3h1.67a2.12 2.12 0 0 1 1.35.37 1.34 1.34 0 0 1 .46 1.08 1.62 1.62 0 0 1-.47 1.2m7.42 2.87l-2.53-6.75h-1.79v8.89H195v-7.08l2.65 7.07h.9l2.6-7.09v7.09h1.32v-8.89h-1.79zm9.58-6.75h-1.42l-2.88 8.89h1.23l.78-2.51h2.93l.8 2.51h1.44l-.05-.15zm-2 5.26L207 39.9l1.13 3.6zm11-4.69a3.63 3.63 0 0 0-2.24-.58h-3v8.89h1.32v-3.51h1.76a3.1 3.1 0 0 0 2.26-.71 2.67 2.67 0 0 0 .85-2 2.47 2.47 0 0 0-1-2.07m-.9 3.24a2 2 0 0 1-1.43.4h-1.57v-3h1.67a2.09 2.09 0 0 1 1.34.37 1.32 1.32 0 0 1 .46 1.08 1.61 1.61 0 0 1-.47 1.2m8.89 4c-.27 0-.35-.16-.46-.46-.4-1.1-.37-1.6-.66-2.25a1.82 1.82 0 0 0-1-1 1.66 1.66 0 0 0 .81-1 12.32 12.32 0 0 1 .54-1.94.62.62 0 0 1 .39-.23h.39v-1.06h-.09a2.05 2.05 0 0 0-.44 0 1.48 1.48 0 0 0-1.43.92c-.3.67-.36 1.75-.7 2.32a1.32 1.32 0 0 1-1.26.59h-1.09v-3.7h-1.31v8.89h1.31V43h1.07c.58 0 1.18 0 1.51.62a5.53 5.53 0 0 1 .37 1.2 6.17 6.17 0 0 0 .52 1.63 1.35 1.35 0 0 0 1.23.76 1.12 1.12 0 0 0 .6-.14h.06V46l-.16.05a.69.69 0 0 1-.2 0m2.92-3h3.49v-1.13h-3.44V39.4h4.39v-1.16h-5.71v8.89h5.84V46h-4.52zm4.87-4.8v1.15H235v7.72h1.32V39.4h2.45v-1.16z"/><path class="cls-4" d="M36.18 17.36a4.7 4.7 0 0 1 4.63 4.86 4.7 4.7 0 0 1-4.63 4.86 4.91 4.91 0 0 1-3.77-1.64l-3.23-3.22L32.39 19a5 5 0 0 1 3.79-1.66m0-3.63a8.59 8.59 0 0 0-6.33 2.7l-5.62 5.79 5.62 5.8a8.59 8.59 0 0 0 6.33 2.7 8.3 8.3 0 0 0 8.27-8.49 8.3 8.3 0 0 0-8.27-8.49m59.73 1.17a4.3 4.3 0 0 0-.86-.06 9.84 9.84 0 0 0-4.51 1.38v-.54c0-.21.09-.61-.42-.61h-2.86a1.52 1.52 0 0 0-1.47 1.38v17.93a4 4 0 0 0 4.1 4.2h.19c.22 0 .47-.1.47-.52v-6.47a7.36 7.36 0 0 0 3.87 1.08 8.38 8.38 0 0 0 1.66-.14c3-.45 5.7-3.14 5.7-9 0-4.83-2.05-8.37-5.89-8.67m-2.42 14.4c-1.81 0-2.91-1.44-2.91-3.81v-3.68c0-2 1.13-3.55 2.91-3.55s3.11 1.57 3.11 5.45c0 2.88-.63 5.59-3.11 5.59m118.46-14.4a8.18 8.18 0 0 0-5.93 2.34 9 9 0 0 0-2.54 6.49 9.38 9.38 0 0 0 2.67 6.72 8.8 8.8 0 0 0 11.57 0 9.33 9.33 0 0 0 2.68-6.72 9 9 0 0 0-2.54-6.49 8.19 8.19 0 0 0-5.92-2.34m2.47 12.94a2.85 2.85 0 0 1-4.95 0 8.06 8.06 0 0 1-.77-4.11 7.7 7.7 0 0 1 .87-4.15 2.78 2.78 0 0 1 4.74 0 7.71 7.71 0 0 1 .87 4.15 8 8 0 0 1-.77 4.11m-31.86-9.6a2.66 2.66 0 0 1 2.14 1.1 3.86 3.86 0 0 1 .45 1 .85.85 0 0 0 .81.69h3.5a.3.3 0 0 0 .3-.35 7.65 7.65 0 0 0-2.15-4.06 7.63 7.63 0 0 0-5.11-1.77 8.16 8.16 0 0 0-5.41 2 8.94 8.94 0 0 0-2.71 6.88 9.3 9.3 0 0 0 2.51 6.76 7.77 7.77 0 0 0 5.51 2.07 7.65 7.65 0 0 0 5.15-1.77 7.33 7.33 0 0 0 2.18-3.8c0-.11 0-.32-.29-.32h-3.62c-.42 0-.61.25-.75.64v.19a3.5 3.5 0 0 1-.31.59 2.15 2.15 0 0 1-2.07 1.11 2.39 2.39 0 0 1-2.28-1.34 8.21 8.21 0 0 1-.73-4.18c0-2.64.39-3.67.7-4.18a2.71 2.71 0 0 1 2.28-1.33M75.86 14.85a8.33 8.33 0 0 0-5.62 1.9 8.68 8.68 0 0 0-3 7 8.86 8.86 0 0 0 2.44 6.45 8.57 8.57 0 0 0 6.15 2.37A9.39 9.39 0 0 0 81.28 31 7 7 0 0 0 84 27.45c0-.14.12-.45-.26-.45h-4a.77.77 0 0 0-.55.4 2.77 2.77 0 0 1-.57.85 3.43 3.43 0 0 1-2.51 1 3.23 3.23 0 0 1-3-1.81 5.52 5.52 0 0 1-.57-2.71h11.08c.45-.07.6-.32.63-.93v-.13a9.38 9.38 0 0 0-2-6 8 8 0 0 0-6.42-2.84m-3.41 7a3.89 3.89 0 0 1 .93-2.61 3.52 3.52 0 0 1 2.54-1.07 3 3 0 0 1 2.54 1.27 4.08 4.08 0 0 1 .67 2.41zm62.82 4.84c-1.07-2.21-2-3.54-2.93-3.67 0 0 1.22-.07 2-2.3.28-.78 1.07-2.62 1.6-3.73a6.82 6.82 0 0 1 .85-1.3.34.34 0 0 0 .07-.21.37.37 0 0 0-.34-.37H133c-1 0-1.41.78-1.73 1.51-.52 1.2-.73 1.94-1.47 3.59a2.49 2.49 0 0 1-2.43 1.64h-1V15.7c0-.21.09-.62-.41-.62h-3.1a1.54 1.54 0 0 0-1.48 1.4v13.1a4.14 4.14 0 0 0 .2 1.37 2.17 2.17 0 0 0 1.9 1.39h2.18c.57 0 .71-.29.71-.72v-6.9h.88c1.91 0 2.76 2.18 3.56 3.72s2.05 3.94 4.37 3.83h2.75a.36.36 0 0 0 .33-.36.37.37 0 0 0 0-.17c-.65-1.05-2.1-3.42-3-5.08M64.2 10.3H50.5a1.7 1.7 0 0 0-1.67 1.7v15.83a5.57 5.57 0 0 0 .37 2.07 4.37 4.37 0 0 0 3.5 2.51h.63c.43 0 .51-.21.51-.7V15.59a.71.71 0 0 1 .67-.56h5.63a.71.71 0 0 1 .68.56v12.24a5.54 5.54 0 0 0 .36 2.07 4.37 4.37 0 0 0 3.5 2.51h.62c.43 0 .51-.21.51-.7V12a1.73 1.73 0 0 0-1.61-1.7m140.98 5.14c.05-.16 0-.38-.31-.38h-16c-.34 0-.37.22-.32.38.5 1.64 1.71 3.18 3.43 3.26h1.75a.76.76 0 0 1 .67.74v8.82a3.73 3.73 0 0 0 .34 1.64 4.35 4.35 0 0 0 3.48 2.5h.63c.43 0 .52-.21.52-.7V19.44a.77.77 0 0 1 .68-.74h1.75c1.73-.08 2.93-1.62 3.43-3.26m33.33 16.31c-.65-1.05-2.1-3.42-3-5.08-1.07-2.21-2-3.54-2.94-3.67 0 0 1.22-.07 2-2.3.28-.79 1.07-2.62 1.6-3.73a7.09 7.09 0 0 1 .85-1.3.36.36 0 0 0 .07-.21.38.38 0 0 0-.34-.37h-3.49c-1 0-1.42.78-1.73 1.51-.52 1.2-.73 1.94-1.47 3.59a2.49 2.49 0 0 1-2.43 1.64h-1V15.7c0-.21.09-.62-.42-.62h-3.1a1.54 1.54 0 0 0-1.47 1.4v13.1a4.2 4.2 0 0 0 .2 1.37 2.17 2.17 0 0 0 1.9 1.39H226c.57 0 .71-.29.71-.72v-6.9h.88c1.91 0 2.76 2.18 3.57 3.72s2 3.94 4.36 3.83h2.75a.36.36 0 0 0 .34-.36.38.38 0 0 0 0-.17M149 14.89a4.31 4.31 0 0 0-.86-.06 9.89 9.89 0 0 0-4.51 1.38v-.54c0-.21.09-.61-.41-.61h-2.87a1.52 1.52 0 0 0-1.47 1.38v17.93a4 4 0 0 0 4.1 4.2h.18c.23 0 .48-.1.48-.52v-6.47a7.37 7.37 0 0 0 3.87 1.08 8.26 8.26 0 0 0 1.66-.14c3-.45 5.71-3.14 5.71-9 0-4.83-2-8.37-5.89-8.67m-2.44 14.35c-1.81 0-2.91-1.44-2.91-3.81v-3.63c0-2 1.13-3.55 2.91-3.55s3.11 1.57 3.11 5.45c0 2.88-.63 5.59-3.11 5.59m18.22-14.4a8.33 8.33 0 0 0-5.62 1.9 8.7 8.7 0 0 0-3 7 8.87 8.87 0 0 0 2.44 6.45 8.59 8.59 0 0 0 6.16 2.37 9.4 9.4 0 0 0 5.43-1.57 7 7 0 0 0 2.67-3.58c.05-.14.12-.45-.26-.45h-4a.77.77 0 0 0-.55.4 2.78 2.78 0 0 1-.57.85 3.43 3.43 0 0 1-2.51 1 3.22 3.22 0 0 1-3-1.81 5.55 5.55 0 0 1-.57-2.71h11.17c.45-.07.6-.32.62-.93v-.13a9.4 9.4 0 0 0-2-6 8 8 0 0 0-6.42-2.84m-3.41 7a3.86 3.86 0 0 1 .94-2.61 3.48 3.48 0 0 1 2.54-1.07 3 3 0 0 1 2.54 1.27 4.12 4.12 0 0 1 .67 2.41zm-47.13-6.68h-10.6c0 3.09 3 4.15 5.27 4.16h10.6c0-3.09-3-4.15-5.27-4.16m0 6.58h-10.6c0 3.09 3 4.15 5.27 4.16h10.6c0-3.09-3-4.15-5.27-4.16m0 6.58h-10.6c0 3.09 3 4.15 5.27 4.16h10.6c0-3.09-3-4.15-5.27-4.16"/></g></g></svg>