<svg xmlns="http://www.w3.org/2000/svg" viewBox="0 0 44.44 44.44"><defs><style>.cls-1{fill:#7ac143;}.cls-2{fill:#008c44;}.cls-3{fill:#b2d235;}.cls-4{fill:#005826;}</style></defs><title>logo_small</title><g id="Слой_2" data-name="Слой 2"><g id="left_bar" data-name="left bar"><path class="cls-1" d="M8.27,17.36A4.92,4.92,0,0,1,12,19l3.23,3.22-3.21,3.2a4.93,4.93,0,0,1-3.79,1.66,4.7,4.7,0,0,1-4.63-4.86,4.7,4.7,0,0,1,4.63-4.86m0-3.63A8.3,8.3,0,0,0,0,22.22a8.3,8.3,0,0,0,8.27,8.49A8.58,8.58,0,0,0,14.59,28l5.62-5.79-5.62-5.79a8.58,8.58,0,0,0-6.33-2.7"/><path class="cls-2" d="M22.22,29.18l3.19,3.21a4.94,4.94,0,0,1,1.67,3.79,4.65,4.65,0,0,1-4.86,4.63,4.65,4.65,0,0,1-4.86-4.63A4.91,4.91,0,0,1,19,32.41Zm0-4.95c-.49,0-5.79,5.62-5.79,5.62a8.58,8.58,0,0,0-2.7,6.33,8.3,8.3,0,0,0,8.49,8.27,8.3,8.3,0,0,0,8.49-8.27A8.58,8.58,0,0,0,28,29.85Z"/><path class="cls-3" d="M22.22,3.63a4.7,4.7,0,0,1,4.86,4.63A4.91,4.91,0,0,1,25.44,12l-3.21,3.23L19,12.05a4.94,4.94,0,0,1-1.66-3.79,4.64,4.64,0,0,1,4.86-4.63m0-3.63a8.3,8.3,0,0,0-8.49,8.27,8.58,8.58,0,0,0,2.7,6.33l5.79,5.62L28,14.59a8.59,8.59,0,0,0,2.7-6.33A8.3,8.3,0,0,0,22.22,0"/><path class="cls-4" d="M36.18,17.36a4.7,4.7,0,0,1,4.63,4.86,4.7,4.7,0,0,1-4.63,4.86,4.91,4.91,0,0,1-3.77-1.64l-3.23-3.22L32.39,19a5,5,0,0,1,3.79-1.66m0-3.63a8.59,8.59,0,0,0-6.33,2.7l-5.62,5.79L29.85,28a8.59,8.59,0,0,0,6.33,2.7,8.3,8.3,0,0,0,8.27-8.49,8.3,8.3,0,0,0-8.27-8.49"/></g></g></svg>