<svg id="Слой_1" data-name="Слой 1" xmlns="http://www.w3.org/2000/svg" viewBox="0 0 1435.43 1435.44"><title>logo_perekrestok</title><g opacity="0.29"><path d="M3239.71,3655.17c-91.82,0-153.89,37.82-204.36,87.21l-181.44,187.07,181.44,187c50.47,49.45,112.54,87.26,204.36,87.26,151.5,0,267-122.78,267-274.28s-115.54-274.28-267-274.28m0,117.35c83.94,0,149.69,68.93,149.69,156.94s-65.76,156.94-149.69,156.94c-48.5,0-82.76-15.06-121.61-53.11l-104.4-103.83,103.74-103.25c39.51-38.61,73.77-53.69,122.27-53.69" transform="translate(-2071.32 -3211.73)" fill="#fff"/><path d="M2338.29,3655.17c-151.45,0-267,122.79-267,274.28s115.53,274.28,267,274.28c91.88,0,153.92-37.81,204.38-87.26l181.45-187-181.45-187.07c-50.46-49.39-112.5-87.21-204.38-87.21m0,117.35c48.53,0,82.8,15.08,121.63,53.05l104.43,103.89-103.82,103.2c-39.44,38.68-73.71,53.74-122.25,53.74-83.92,0-149.64-68.93-149.64-156.94s65.72-156.94,149.64-156.94" transform="translate(-2071.32 -3211.73)" fill="#d2e3b0"/><path d="M2789,3994.27c-15.92,0-187.05,181.51-187.05,181.51-49.39,50.48-87.21,112.48-87.21,204.38,0,151.49,122.71,267,274.26,267s274.28-115.52,274.28-267c0-91.9-37.84-153.9-87.26-204.38Zm0,159.79,103.14,103.82c38.71,39.54,53.77,73.81,53.77,122.28,0,85.32-67.47,149.66-156.94,149.66s-156.91-64.35-156.91-149.66c0-48.47,15.06-82.8,53.08-121.65Z" transform="translate(-2071.32 -3211.73)" fill="#fff"/><path d="M2789,3211.73c-151.55,0-274.25,115.52-274.25,267,0,92,37.8,154,87.2,204.44L2789,3864.57l187-181.44c49.41-50.42,87.26-112.48,87.26-204.44,0-151.44-122.78-267-274.28-267m0,117.34c88,0,156.94,65.74,156.94,149.62,0,48.58-15.06,82.85-53.13,121.7L2789,3704.78,2685.8,3601c-38.65-39.41-53.69-73.74-53.69-122.33,0-85.32,67.47-149.62,156.92-149.62" transform="translate(-2071.32 -3211.73)" fill="#fff"/></g></svg>