<svg xmlns="http://www.w3.org/2000/svg" viewBox="0 0 959.95 30.82"><defs><style>.cls-1{fill:#005725;}.cls-1,.cls-2{fill-rule:evenodd;}.cls-2{fill:#2ebf33;}</style></defs><title>pattern</title><g id="Слой_2" data-name="Слой 2"><g id="Слой_1-2" data-name="Слой 1"><g id="_Группа_" data-name="&lt;Группа&gt;"><g id="_Группа_2" data-name="&lt;Группа&gt;"><path id="_Составной_контур_" data-name="&lt;Составной контур&gt;" class="cls-1" d="M111.26,3.83A9.56,9.56,0,0,1,115.92,0l.36.9c-3.82,1.5-6,5.19-4.9,8.31a3.51,3.51,0,0,1,.86,1,3.33,3.33,0,0,1,3.67,4.93,3.24,3.24,0,0,1,2.16,2,3.36,3.36,0,0,1-1.88,4.34,3.47,3.47,0,0,1-2.11.1,3.35,3.35,0,0,1-2.06,3.6,3.4,3.4,0,0,1-2.87-.2,3.36,3.36,0,0,1-2.1,3.19,3.48,3.48,0,0,1-1.66.2,3.33,3.33,0,0,1-6.32.37,3.34,3.34,0,0,1,.42-3.21,3.35,3.35,0,0,1-1.28-1.57,3.3,3.3,0,0,1,.68-3.51A3.46,3.46,0,0,1,97.78,19a3.36,3.36,0,0,1,1-3.82,3.26,3.26,0,0,1-1-1.32,3.32,3.32,0,0,1,3.9-4.46,3.33,3.33,0,0,1,6.39-.64h0a3.24,3.24,0,0,1,2.15-.1,6.55,6.55,0,0,1,.37-3.5,6.19,6.19,0,0,1-7.45-3.68L103,1l.44-.17a6.2,6.2,0,0,1,7.82,3Zm-3.21,6v0l-.1.07a1.07,1.07,0,0,0-.2.15l-.15.15c0,.05-.08.08-.12.13l-.12.17-.1.15-.1.2-.05.15c0,.07-.05.14-.08.2s-.05.24-.07.35V12s0,.07,0,.12a2.53,2.53,0,0,0,.07.35s0,0,0,0a2.87,2.87,0,0,1,.56.56.34.34,0,0,1,.07.1,1,1,0,0,1,.17.25l.05.08a2.49,2.49,0,0,1,.17.37h0a3,3,0,0,0,.76.3h.05a2.36,2.36,0,0,0,1,0l.05,0,.24-.08a2.38,2.38,0,1,0-1.76-4.43,4,4,0,0,0-.39.19Zm-4.92,3.77-.15.22-.05.07-.1.2-.05.1a1,1,0,0,0-.07.2.32.32,0,0,0,0,.14l-.05.19s0,.08,0,.14v.05a0,0,0,0,1,0,0,3.15,3.15,0,0,1,.78.64s0,0,0,.05a2.08,2.08,0,0,1,.29.39l.05.08a3.71,3.71,0,0,1,.22.44,2.89,2.89,0,0,1,.15.51l0,0,.42-.22.37-.12.14,0a1,1,0,0,1,.24,0,.47.47,0,0,1,.15,0,1.28,1.28,0,0,1,.25,0l.12,0,.37,0h0a.13.13,0,0,1,0-.08,2.33,2.33,0,0,1,.12-.37.38.38,0,0,1,.05-.08,2.63,2.63,0,0,1,.19-.37s0,0,0-.05a3,3,0,0,1,.27-.37s0,0,0,0a2.26,2.26,0,0,1,.36-.34h0a2,2,0,0,0-.15-.64,1.68,1.68,0,0,0-.2-.39.34.34,0,0,0-.07-.1,1.24,1.24,0,0,0-.19-.24l-.08-.1a2.35,2.35,0,0,0-.32-.25v0L106,13a2.85,2.85,0,0,0-.34-.14l-.12,0a3.37,3.37,0,0,0-.41-.07h-.07a2.08,2.08,0,0,0-.46,0h0a2.27,2.27,0,0,0-.46.12l-.15.07a2.56,2.56,0,0,0-.79.61,0,0,0,0,1,0,0Zm.66,6.89a3.05,3.05,0,0,1,.2.24l.05.08.17.25a.13.13,0,0,0,0,.07,3.22,3.22,0,0,1,.17.35,2.26,2.26,0,0,1,.12.41l.07,0,.3-.1.2-.05.1,0a1.32,1.32,0,0,1,.27,0s0,0,.05,0h.27l0,0,.29,0h0l.27.05h0l.25.07.07,0a1.29,1.29,0,0,1,.24.08.06.06,0,0,1,.05,0,2.4,2.4,0,0,0,.41-.32,4.16,4.16,0,0,1,.08-.44l0,0a3.33,3.33,0,0,1,.36-.83s0,0,0,0a1.81,1.81,0,0,1,.25-.37v0a3.4,3.4,0,0,0,0-.41s0,0,0-.05A1.84,1.84,0,0,0,108,19a1.73,1.73,0,0,0-.2-.39s0,0,0-.05a2.52,2.52,0,0,0-.27-.32l-.05-.05a2.29,2.29,0,0,0-.3-.27s0,0-.05,0a3,3,0,0,0-.32-.17l-.07,0a1.13,1.13,0,0,0-.34-.1l-.19-.05a1.29,1.29,0,0,0-.25,0,.57.57,0,0,0-.17,0,1.67,1.67,0,0,0-.29,0,.33.33,0,0,0-.13,0,1.41,1.41,0,0,0-.44.12,2.13,2.13,0,0,0-.39.2.94.94,0,0,0-.15.12,2,2,0,0,0-.22.17,3.31,3.31,0,0,1-.73,1.69,1.83,1.83,0,0,0,0,.3c.1.08.19.17.29.27s0,0,0,.05Zm5.76-1.55.42-.14.1,0a3.39,3.39,0,0,1,.41-.07h0a2.06,2.06,0,0,1,.46,0H111a3.33,3.33,0,0,1,.41.05h0a2,2,0,0,0,.19-.32v-.27a.42.42,0,0,1,0-.13c0-.07,0-.12,0-.19a.4.4,0,0,1,0-.14.5.5,0,0,1,0-.17.49.49,0,0,1,0-.15l.05-.15s0-.07,0-.08a2.45,2.45,0,0,0-.29-.88,1,1,0,0,0-.17-.25l-.07-.1a3.08,3.08,0,0,0-.22-.24l-.05-.05a2.89,2.89,0,0,0-.73-.44l-.05,0L110,15.1l-.12,0a1.66,1.66,0,0,1-.29,0,1,1,0,0,1-.22,0h-.19a.57.57,0,0,1-.17,0,.82.82,0,0,1-.2,0h0a1,1,0,0,0-.2.07,2,2,0,0,0-.42.22l-.08.05a2.33,2.33,0,0,0-.88,1.18s0,0,0,.05a.29.29,0,0,0,0,.12l.27.13.27.17h0a3.31,3.31,0,0,1,.71.66h0a1.2,1.2,0,0,1,.17.24l0,0,.14.24s0,0,0,.05.08.2.14.3.1.3.14.44,0,.05,0,.07,0,0,0,0l.42-.2ZM114.86,15a2.36,2.36,0,0,0,.39-2.42,2.39,2.39,0,0,0-2.67-1.47s0,.05,0,.07a3.61,3.61,0,0,1,.05.44s0,0,0,0a3.29,3.29,0,0,1,0,.42v.1a3.07,3.07,0,0,1-.07.42s0,0,0,.05a2.34,2.34,0,0,1-.12.37.24.24,0,0,1,0,.1,4,4,0,0,1-.19.39s0,0,0,.05a2.09,2.09,0,0,1-.2.32l-.07.07a2.62,2.62,0,0,1-.29.32l-.05.05c-.1.1-.2.17-.3.25l-.05,0a3.49,3.49,0,0,1,.71.59s.05.05.07.07l.25.34a.23.23,0,0,0,.05.07l.05.08a3.49,3.49,0,0,0,.41.08l0,0a2.52,2.52,0,0,1,.41-.3l.07,0a4,4,0,0,1,.47-.24,2.35,2.35,0,0,1,.49-.15l.08,0a2.58,2.58,0,0,1,.51-.05s0,0,0,0Zm2.31,2.47a2.35,2.35,0,0,0-2.15-1.5,1.2,1.2,0,0,0-.42,0h-.05a1.68,1.68,0,0,0-.47.14,1.43,1.43,0,0,0-.42.22,0,0,0,0,0,0,0,1.68,1.68,0,0,0-.34.27,2.24,2.24,0,0,0-.64,1.13.19.19,0,0,1,0,.08l-.05.39v.07a2.42,2.42,0,0,0,.17.9l.08.19,0,0,.15.12s.07.05.08.08a1.29,1.29,0,0,1,.15.15s0,.05.07.07.08.12.14.17a.23.23,0,0,0,.05.07,1.36,1.36,0,0,0,.14.2v0a2.38,2.38,0,0,0,3.53-2.86Zm-5.51,6.79A2.39,2.39,0,0,0,113,21.15a2.59,2.59,0,0,0-.19-.37.34.34,0,0,0-.07-.1,3.4,3.4,0,0,0-.22-.29l-.08-.07a1.11,1.11,0,0,0-.3-.25v0a2.61,2.61,0,0,0-.74-.32l-.19-.05-.27,0h-.15l-.3,0a.37.37,0,0,1-.14,0,2.2,2.2,0,0,0-.44.14,4.2,4.2,0,0,0-.39.19l-.05.05a1.87,1.87,0,0,0-.29.22l-.1.1a1.18,1.18,0,0,0-.14.17,1.15,1.15,0,0,0-.14.17,1,1,0,0,0-.1.19,1.58,1.58,0,0,0-.17.39c0,.07-.05.12-.07.19s0,.15,0,.22a2.52,2.52,0,0,0,.14,1.22,2.38,2.38,0,0,0,3.09,1.33Zm-6.15,3.14A2.39,2.39,0,0,0,108,24.14a2.33,2.33,0,0,0-1.2-1.27,2.86,2.86,0,0,0-.34-.13l-.12,0a1.67,1.67,0,0,0-.41-.05.1.1,0,0,0-.07,0,2.06,2.06,0,0,0-.46,0h0a2.5,2.5,0,0,0-.47.13,1.28,1.28,0,0,0-.3.15,3.07,3.07,0,0,1-.17.78l-.05.15a1.36,1.36,0,0,1-.1.24l-.1.2-.12.2-.1.15,0,0,.34.25.08.1a1.8,1.8,0,0,1,.25.25l.07.07c.08.12.17.24.25.37a.37.37,0,0,1,.05.08,2.36,2.36,0,0,1,.2.42,2.89,2.89,0,0,1,.15.51s0,.05,0,.08.05.34.07.51v0Zm-5.56,1a2.38,2.38,0,0,0,4.59-.74v-.2a.85.85,0,0,0,0-.2,1.38,1.38,0,0,0,0-.24.31.31,0,0,1,0-.14A2.39,2.39,0,0,0,104,26l-.05-.07-.2-.2-.12-.1a1.31,1.31,0,0,0-.19-.14,1.07,1.07,0,0,0-.24-.14l-.14-.07c-.05,0-.12,0-.19-.07l-.27-.07-.19,0-.25,0a1.29,1.29,0,0,0-.25,0,.82.82,0,0,0-.2,0,3.38,3.38,0,0,0-.44.12,3.07,3.07,0,0,0-.41.22,1.32,1.32,0,0,0-.19.14,1.79,1.79,0,0,0-.2.17h0a2.39,2.39,0,0,0-.56,2.58Zm-.86-4.8a2.31,2.31,0,0,0,1.1,1.23,0,0,0,0,0,0,0,2.89,2.89,0,0,1,.3-.19l.07-.05c.12-.05.24-.12.37-.17s.32-.1.47-.15a.15.15,0,0,0,.08,0,2.38,2.38,0,0,1,.47-.05H102a2.88,2.88,0,0,1,1,.12h0c0-.05.08-.08.12-.14a.23.23,0,0,1,.05-.07,1.91,1.91,0,0,0,.22-.41,0,0,0,0,0,0,0,2.46,2.46,0,0,0,.15-.46h0a2.58,2.58,0,0,0,.05-.51v0a1.8,1.8,0,0,0-.05-.42.6.6,0,0,0,0-.17,1,1,0,0,0-.08-.24,2.47,2.47,0,0,0-.19-.37.66.66,0,0,0-.07-.12,2.94,2.94,0,0,0-.2-.24A.34.34,0,0,0,103,21a2.54,2.54,0,0,0-.71-.49,2,2,0,0,0-.34-.12l-.12,0a1.5,1.5,0,0,0-.29,0,2.06,2.06,0,0,0-1.49.34l-.07.05a2.37,2.37,0,0,0-.9,2.84Zm-.42-4.95a2.4,2.4,0,0,0,1,1.17h0a2.76,2.76,0,0,1,.39-.19,1.07,1.07,0,0,1,.3-.1l.08,0,.24-.05h.08a1,1,0,0,1,.24,0l.07,0h.32l.24,0,.08,0a.86.86,0,0,1,.22,0l.1,0,.19.05.14.05.05,0a1,1,0,0,1,.12-.14l.08-.1a2.3,2.3,0,0,0,.61-1.4l0-.14v-.12c0-.08,0-.15,0-.24a.28.28,0,0,1,0-.12l-.05-.2a1.17,1.17,0,0,0-.05-.14.59.59,0,0,0-.07-.19c0-.08-.08-.17-.12-.25a1.94,1.94,0,0,0-.17-.22,1.46,1.46,0,0,0-.12-.17L102.5,16l-.17-.15a.59.59,0,0,0-.13-.08,2.7,2.7,0,0,0-.3-.17,2.86,2.86,0,0,0-.34-.13l-.12,0a2.48,2.48,0,0,0-.32-.05l-.17,0-.29,0a.69.69,0,0,0-.19,0,2.52,2.52,0,0,0-.47.14,2.37,2.37,0,0,0-1.33,3.09Zm0-5.14a2.41,2.41,0,0,0,1,1.15h0l.44-.14.08,0a3.87,3.87,0,0,1,1-.07h0a4.23,4.23,0,0,1,.49.08l0,0a2.57,2.57,0,0,1,.24-.78.82.82,0,0,0,.05-.12,1.49,1.49,0,0,1,.17-.27c0-.05.05-.08.07-.13a3.55,3.55,0,0,1,.24-.3,1.74,1.74,0,0,0,.17-.17.78.78,0,0,0,.12-.12,2.47,2.47,0,0,1,.22-.17s0,0,0,0l.24-.17a3.54,3.54,0,0,0-.1-.52,2.29,2.29,0,0,0-.22-.41,1.44,1.44,0,0,0-.12-.17.89.89,0,0,0-.17-.19.9.9,0,0,0-.19-.17l-.15-.13c-.07-.05-.15-.08-.24-.14a2.35,2.35,0,0,0-2-.13,2.39,2.39,0,0,0-1.34,3.09Zm5.42-5.73a2.37,2.37,0,0,0-1.49,2,0,0,0,0,1,0,0,3.15,3.15,0,0,1,.78.64l.05.05c.1.14.19.25.27.39l.05.08a3.48,3.48,0,0,1,.22.44s0,.05,0,.12.08.24.12.37h0l.37-.07s.05,0,.07,0a4,4,0,0,1,.9,0h0a3.31,3.31,0,0,1,.44.12v-.05a2,2,0,0,1,0-.32V11.5l.05-.35h0a3.34,3.34,0,0,1,1.2-1.93,2.38,2.38,0,0,0-3.14-1.47Zm6.27-3.53a5.24,5.24,0,0,0-6.12-2.67,5.24,5.24,0,0,0,6.12,2.67Z"/></g><g id="_Группа_3" data-name="&lt;Группа&gt;"><path id="_Составной_контур_2" data-name="&lt;Составной контур&gt;" class="cls-1" d="M54,.67l-.4-.42L39.24,14.61l.86,2.88a.85.85,0,0,1-.59.83l-.91.29-.28.85a1.79,1.79,0,0,1-1.13,1.19,3.57,3.57,0,0,1-1-.57,2.62,2.62,0,0,0-1.58-.64l-.19,0-5.89,5.87.42.41A17.75,17.75,0,0,0,54,.67ZM35.54,21.06c.7.45,1.36.89,2,.7a2.92,2.92,0,0,0,1.9-1.93l.1-.29.37-.12a2,2,0,0,0,1.35-2.12l-.7-2.34,10-10a10.87,10.87,0,0,1,3.31,7.6A12.8,12.8,0,0,1,50,21.7a12.82,12.82,0,0,1-9.21,3.92,10.87,10.87,0,0,1-7.6-3.31l1.68-1.68c.19.1.5.29.69.42ZM52.8,24.54a16.52,16.52,0,0,1-22.64.78l2.21-2.21a12.08,12.08,0,0,0,8.36,3.66H41a14.06,14.06,0,0,0,9.78-4.25,13.93,13.93,0,0,0,4.25-10A12.16,12.16,0,0,0,51.38,4.1l2.2-2.21a16.52,16.52,0,0,1-.78,22.65Z"/><path id="_Контур_" data-name="&lt;Контур&gt;" class="cls-1" d="M32.77,10.79a.87.87,0,0,1-.86.86.86.86,0,0,1,0-1.73.87.87,0,0,1,.86.86Z"/><path id="_Контур_2" data-name="&lt;Контур&gt;" class="cls-1" d="M39.64,23.38a.86.86,0,1,1-.86-.85.86.86,0,0,1,.86.85Z"/><path id="_Контур_3" data-name="&lt;Контур&gt;" class="cls-1" d="M45.06,15.72a.86.86,0,1,1-.85-.85.85.85,0,0,1,.85.85Z"/><path id="_Контур_4" data-name="&lt;Контур&gt;" class="cls-1" d="M47.9,12.9a.86.86,0,0,1-.86.86A.86.86,0,1,1,47,12a.87.87,0,0,1,.86.86Z"/><path id="_Контур_5" data-name="&lt;Контур&gt;" class="cls-1" d="M46.27,22.62a.86.86,0,1,1-.85-.86.85.85,0,0,1,.85.86Z"/><path id="_Контур_6" data-name="&lt;Контур&gt;" class="cls-1" d="M49.11,19.78a.87.87,0,0,1-.86.86.86.86,0,0,1,0-1.73.87.87,0,0,1,.86.86Z"/><path id="_Контур_7" data-name="&lt;Контур&gt;" class="cls-1" d="M51.94,16.94a.86.86,0,1,1-.85-.85.85.85,0,0,1,.85.85Z"/><path id="_Контур_8" data-name="&lt;Контур&gt;" class="cls-1" d="M50.72,10.06a.86.86,0,1,1-.85-.85.85.85,0,0,1,.85.85Z"/><path id="_Контур_9" data-name="&lt;Контур&gt;" class="cls-1" d="M43,21.8a.86.86,0,1,1-.86-.85.86.86,0,0,1,.86.85Z"/><path id="_Контур_10" data-name="&lt;Контур&gt;" class="cls-1" d="M45.94,18.8a.86.86,0,1,1-.85-.85.85.85,0,0,1,.85.85Z"/><path id="_Контур_11" data-name="&lt;Контур&gt;" class="cls-1" d="M48.81,15.94a.86.86,0,0,1-1.73,0,.86.86,0,0,1,1.73,0Z"/><path id="_Контур_12" data-name="&lt;Контур&gt;" class="cls-1" d="M34.48,16.52a.86.86,0,1,1-.85-.86.86.86,0,0,1,.85.86Z"/><path id="_Контур_13" data-name="&lt;Контур&gt;" class="cls-1" d="M37.92,11.93a.86.86,0,1,1-.86-.85.87.87,0,0,1,.86.85Z"/><path id="_Контур_14" data-name="&lt;Контур&gt;" class="cls-1" d="M51.54,13.29a.86.86,0,0,1-.86.86.86.86,0,1,1,0-1.71.85.85,0,0,1,.86.85Z"/></g><g id="_Группа_4" data-name="&lt;Группа&gt;"><path id="_Составной_контур_3" data-name="&lt;Составной контур&gt;" class="cls-1" d="M240,3.83A9.56,9.56,0,0,1,244.65,0l.36.9c-3.82,1.5-6,5.19-4.9,8.31a3.51,3.51,0,0,1,.86,1,3.33,3.33,0,0,1,3.67,4.93,3.24,3.24,0,0,1,2.16,2,3.36,3.36,0,0,1-1.88,4.34,3.47,3.47,0,0,1-2.11.1,3.35,3.35,0,0,1-2.06,3.6,3.4,3.4,0,0,1-2.87-.2,3.36,3.36,0,0,1-2.1,3.19,3.48,3.48,0,0,1-1.66.2,3.33,3.33,0,0,1-6.32.37,3.34,3.34,0,0,1,.42-3.21,3.35,3.35,0,0,1-1.28-1.57,3.3,3.3,0,0,1,.68-3.51A3.46,3.46,0,0,1,226.5,19a3.36,3.36,0,0,1,1-3.82,3.26,3.26,0,0,1-1-1.32,3.32,3.32,0,0,1,3.9-4.46,3.33,3.33,0,0,1,6.39-.64h0a3.24,3.24,0,0,1,2.15-.1,6.55,6.55,0,0,1,.37-3.5,6.19,6.19,0,0,1-7.45-3.68L231.72,1l.44-.17a6.2,6.2,0,0,1,7.82,3Zm-3.21,6v0l-.1.07a1.07,1.07,0,0,0-.2.15l-.15.15c0,.05-.08.08-.12.13l-.12.17-.1.15-.1.2-.05.15c0,.07-.05.14-.08.2s-.05.24-.07.35V12s0,.07,0,.12a2.53,2.53,0,0,0,.07.35s0,0,0,0a2.87,2.87,0,0,1,.56.56.34.34,0,0,1,.07.1,1,1,0,0,1,.17.25l.05.08a2.49,2.49,0,0,1,.17.37h0a3,3,0,0,0,.76.3h.05a2.36,2.36,0,0,0,1,0l.05,0,.24-.08a2.38,2.38,0,1,0-1.76-4.43,4,4,0,0,0-.39.19Zm-4.92,3.77-.15.22-.05.07-.1.2-.05.1a1,1,0,0,0-.07.2.32.32,0,0,0,0,.14l-.05.19s0,.08,0,.14v.05a0,0,0,0,1,0,0,3.15,3.15,0,0,1,.78.64s0,0,0,.05a2.08,2.08,0,0,1,.29.39l.05.08a3.71,3.71,0,0,1,.22.44,2.89,2.89,0,0,1,.15.51l0,0,.42-.22.37-.12.14,0a1,1,0,0,1,.24,0,.47.47,0,0,1,.15,0,1.28,1.28,0,0,1,.25,0l.12,0,.37,0h0a.13.13,0,0,1,0-.08,2.33,2.33,0,0,1,.12-.37.38.38,0,0,1,.05-.08,2.63,2.63,0,0,1,.19-.37s0,0,0-.05a3,3,0,0,1,.27-.37s0,0,0,0a2.26,2.26,0,0,1,.36-.34h0a2,2,0,0,0-.15-.64,1.68,1.68,0,0,0-.2-.39.34.34,0,0,0-.07-.1,1.24,1.24,0,0,0-.19-.24l-.08-.1a2.35,2.35,0,0,0-.32-.25v0l-.34-.17a2.85,2.85,0,0,0-.34-.14l-.12,0a3.37,3.37,0,0,0-.41-.07h-.07a2.08,2.08,0,0,0-.46,0h0a2.27,2.27,0,0,0-.46.12l-.15.07a2.56,2.56,0,0,0-.79.61,0,0,0,0,1,0,0Zm.66,6.89a3.05,3.05,0,0,1,.2.24l.05.08.17.25a.13.13,0,0,0,0,.07,3.22,3.22,0,0,1,.17.35,2.26,2.26,0,0,1,.12.41l.07,0,.3-.1.2-.05.1,0a1.32,1.32,0,0,1,.27,0s0,0,.05,0h.27l0,0,.29,0h0l.27.05h0l.25.07.07,0a1.29,1.29,0,0,1,.24.08.06.06,0,0,1,.05,0,2.4,2.4,0,0,0,.41-.32,4.16,4.16,0,0,1,.08-.44l0,0a3.33,3.33,0,0,1,.36-.83s0,0,0,0a1.81,1.81,0,0,1,.25-.37v0a3.4,3.4,0,0,0,0-.41s0,0,0-.05a1.84,1.84,0,0,0-.12-.41,1.73,1.73,0,0,0-.2-.39s0,0,0-.05a2.52,2.52,0,0,0-.27-.32l-.05-.05a2.29,2.29,0,0,0-.3-.27s0,0-.05,0a3,3,0,0,0-.32-.17l-.07,0a1.13,1.13,0,0,0-.34-.1l-.19-.05a1.29,1.29,0,0,0-.25,0,.57.57,0,0,0-.17,0,1.67,1.67,0,0,0-.29,0,.33.33,0,0,0-.13,0,1.41,1.41,0,0,0-.44.12,2.13,2.13,0,0,0-.39.2.94.94,0,0,0-.15.12,2,2,0,0,0-.22.17,3.31,3.31,0,0,1-.73,1.69,1.83,1.83,0,0,0,0,.3c.1.08.19.17.29.27s0,0,0,.05Zm5.76-1.55.42-.14.1,0a3.39,3.39,0,0,1,.41-.07h0a2.06,2.06,0,0,1,.46,0h.05a3.33,3.33,0,0,1,.41.05h0a2,2,0,0,0,.19-.32v-.27a.42.42,0,0,1,0-.13c0-.07,0-.12,0-.19a.4.4,0,0,1,0-.14.5.5,0,0,1,0-.17.49.49,0,0,1,0-.15l.05-.15s0-.07,0-.08a2.45,2.45,0,0,0-.29-.88,1,1,0,0,0-.17-.25l-.07-.1a3.08,3.08,0,0,0-.22-.24l-.05-.05a2.89,2.89,0,0,0-.73-.44l-.05,0-.25-.07-.12,0a1.66,1.66,0,0,1-.29,0,1,1,0,0,1-.22,0h-.19a.57.57,0,0,1-.17,0,.82.82,0,0,1-.2,0h0a1,1,0,0,0-.2.07,2,2,0,0,0-.42.22l-.08.05a2.33,2.33,0,0,0-.88,1.18s0,0,0,.05a.29.29,0,0,0,0,.12l.27.13.27.17h0a3.31,3.31,0,0,1,.71.66h0a1.2,1.2,0,0,1,.17.24l0,0,.14.24s0,0,0,.05.08.2.14.3.1.3.14.44,0,.05,0,.07,0,0,0,0l.42-.2ZM243.58,15a2.36,2.36,0,0,0,.39-2.42,2.39,2.39,0,0,0-2.67-1.47s0,.05,0,.07a3.61,3.61,0,0,1,.05.44s0,0,0,0a3.29,3.29,0,0,1,0,.42v.1a3.07,3.07,0,0,1-.07.42s0,0,0,.05a2.34,2.34,0,0,1-.12.37.24.24,0,0,1,0,.1,4,4,0,0,1-.19.39s0,0,0,.05a2.09,2.09,0,0,1-.2.32l-.07.07a2.62,2.62,0,0,1-.29.32l-.05.05c-.1.1-.2.17-.3.25l-.05,0a3.49,3.49,0,0,1,.71.59s.05.05.07.07l.25.34a.23.23,0,0,0,.05.07l.05.08a3.49,3.49,0,0,0,.41.08l0,0a2.52,2.52,0,0,1,.41-.3l.07,0a4,4,0,0,1,.47-.24,2.35,2.35,0,0,1,.49-.15l.08,0a2.58,2.58,0,0,1,.51-.05s0,0,0,0Zm2.31,2.47a2.35,2.35,0,0,0-2.15-1.5,1.2,1.2,0,0,0-.42,0h-.05a1.68,1.68,0,0,0-.47.14,1.43,1.43,0,0,0-.42.22,0,0,0,0,0,0,0,1.68,1.68,0,0,0-.34.27,2.24,2.24,0,0,0-.64,1.13.19.19,0,0,1,0,.08l-.05.39v.07a2.42,2.42,0,0,0,.17.9l.08.19,0,0,.15.12s.07.05.08.08a1.29,1.29,0,0,1,.15.15s0,.05.07.07.08.12.14.17a.23.23,0,0,0,.05.07,1.36,1.36,0,0,0,.14.2v0a2.38,2.38,0,0,0,3.53-2.86Zm-5.51,6.79a2.39,2.39,0,0,0,1.33-3.09,2.59,2.59,0,0,0-.19-.37.34.34,0,0,0-.07-.1,3.4,3.4,0,0,0-.22-.29l-.08-.07a1.11,1.11,0,0,0-.3-.25v0a2.61,2.61,0,0,0-.74-.32l-.19-.05-.27,0h-.15l-.3,0a.37.37,0,0,1-.14,0,2.2,2.2,0,0,0-.44.14,4.2,4.2,0,0,0-.39.19l-.05.05a1.87,1.87,0,0,0-.29.22l-.1.1a1.18,1.18,0,0,0-.14.17,1.15,1.15,0,0,0-.14.17,1,1,0,0,0-.1.19,1.58,1.58,0,0,0-.17.39c0,.07-.05.12-.07.19s0,.15,0,.22a2.52,2.52,0,0,0,.14,1.22,2.38,2.38,0,0,0,3.09,1.33Zm-6.15,3.14a2.39,2.39,0,0,0,2.52-3.24,2.33,2.33,0,0,0-1.2-1.27,2.86,2.86,0,0,0-.34-.13l-.12,0a1.67,1.67,0,0,0-.41-.05.1.1,0,0,0-.07,0,2.06,2.06,0,0,0-.46,0h0a2.5,2.5,0,0,0-.47.13,1.28,1.28,0,0,0-.3.15,3.07,3.07,0,0,1-.17.78l-.05.15a1.36,1.36,0,0,1-.1.24l-.1.2-.12.2-.1.15,0,0,.34.25.08.1a1.8,1.8,0,0,1,.25.25l.07.07c.08.12.17.24.25.37a.37.37,0,0,1,.05.08,2.36,2.36,0,0,1,.2.42,2.89,2.89,0,0,1,.15.51s0,.05,0,.08.05.34.07.51v0Zm-5.56,1a2.38,2.38,0,0,0,4.59-.74v-.2a.85.85,0,0,0,0-.2,1.38,1.38,0,0,0,0-.24.31.31,0,0,1,0-.14,2.39,2.39,0,0,0-.44-.84l-.05-.07-.2-.2-.12-.1a1.31,1.31,0,0,0-.19-.14,1.07,1.07,0,0,0-.24-.14l-.14-.07c-.05,0-.12,0-.19-.07l-.27-.07-.19,0-.25,0a1.29,1.29,0,0,0-.25,0,.82.82,0,0,0-.2,0,3.38,3.38,0,0,0-.44.12,3.07,3.07,0,0,0-.41.22,1.32,1.32,0,0,0-.19.14,1.79,1.79,0,0,0-.2.17h0a2.39,2.39,0,0,0-.56,2.58Zm-.86-4.8a2.31,2.31,0,0,0,1.1,1.23,0,0,0,0,0,0,0,2.89,2.89,0,0,1,.3-.19l.07-.05c.12-.05.24-.12.37-.17s.32-.1.47-.15a.15.15,0,0,0,.08,0,2.38,2.38,0,0,1,.47-.05h.07a2.88,2.88,0,0,1,1,.12h0c0-.05.08-.08.12-.14a.23.23,0,0,1,.05-.07,1.91,1.91,0,0,0,.22-.41,0,0,0,0,0,0,0,2.46,2.46,0,0,0,.15-.46h0a2.58,2.58,0,0,0,.05-.51v0a1.8,1.8,0,0,0-.05-.42.6.6,0,0,0,0-.17,1,1,0,0,0-.08-.24,2.47,2.47,0,0,0-.19-.37.66.66,0,0,0-.07-.12,2.94,2.94,0,0,0-.2-.24.34.34,0,0,0-.07-.08,2.54,2.54,0,0,0-.71-.49,2,2,0,0,0-.34-.12l-.12,0a1.5,1.5,0,0,0-.29,0,2.06,2.06,0,0,0-1.49.34l-.07.05a2.37,2.37,0,0,0-.9,2.84Zm-.42-4.95a2.4,2.4,0,0,0,1,1.17h0a2.76,2.76,0,0,1,.39-.19,1.07,1.07,0,0,1,.3-.1l.08,0,.24-.05h.08a1,1,0,0,1,.24,0l.07,0h.32l.24,0,.08,0a.86.86,0,0,1,.22,0l.1,0,.19.05.14.05.05,0a1,1,0,0,1,.12-.14l.08-.1a2.3,2.3,0,0,0,.61-1.4l0-.14v-.12c0-.08,0-.15,0-.24a.28.28,0,0,1,0-.12l-.05-.2a1.17,1.17,0,0,0-.05-.14.59.59,0,0,0-.07-.19c0-.08-.08-.17-.12-.25a1.94,1.94,0,0,0-.17-.22,1.46,1.46,0,0,0-.12-.17l-.15-.15-.17-.15a.59.59,0,0,0-.13-.08,2.7,2.7,0,0,0-.3-.17,2.86,2.86,0,0,0-.34-.13l-.12,0a2.48,2.48,0,0,0-.32-.05l-.17,0-.29,0a.69.69,0,0,0-.19,0,2.52,2.52,0,0,0-.47.14,2.37,2.37,0,0,0-1.33,3.09Zm0-5.14a2.41,2.41,0,0,0,1,1.15h0l.44-.14.08,0a3.87,3.87,0,0,1,1-.07h0a4.23,4.23,0,0,1,.49.08l0,0a2.57,2.57,0,0,1,.24-.78.82.82,0,0,0,.05-.12,1.49,1.49,0,0,1,.17-.27c0-.05.05-.08.07-.13a3.55,3.55,0,0,1,.24-.3,1.74,1.74,0,0,0,.17-.17.78.78,0,0,0,.12-.12,2.47,2.47,0,0,1,.22-.17s0,0,0,0l.24-.17a3.54,3.54,0,0,0-.1-.52,2.29,2.29,0,0,0-.22-.41,1.44,1.44,0,0,0-.12-.17.89.89,0,0,0-.17-.19.9.9,0,0,0-.19-.17l-.15-.13c-.07-.05-.15-.08-.24-.14a2.35,2.35,0,0,0-2-.13,2.39,2.39,0,0,0-1.34,3.09Zm5.42-5.73a2.37,2.37,0,0,0-1.49,2,0,0,0,0,1,0,0,3.15,3.15,0,0,1,.78.64l.05.05c.1.14.19.25.27.39l.05.08a3.48,3.48,0,0,1,.22.44s0,.05,0,.12.08.24.12.37h0l.37-.07s.05,0,.07,0a4,4,0,0,1,.9,0h0a3.31,3.31,0,0,1,.44.12v-.05a2,2,0,0,1,0-.32V11.5l.05-.35h0A3.34,3.34,0,0,1,236,9.22a2.38,2.38,0,0,0-3.14-1.47Zm6.27-3.53A5.24,5.24,0,0,0,233,1.55a5.24,5.24,0,0,0,6.12,2.67Z"/></g><g id="_Группа_5" data-name="&lt;Группа&gt;"><path id="_Составной_контур_4" data-name="&lt;Составной контур&gt;" class="cls-1" d="M182.75.67l-.4-.42L168,14.61l.86,2.88a.85.85,0,0,1-.59.83l-.91.29-.28.85a1.79,1.79,0,0,1-1.13,1.19,3.57,3.57,0,0,1-1-.57,2.62,2.62,0,0,0-1.58-.64l-.19,0-5.89,5.87.42.41A17.75,17.75,0,0,0,182.75.67ZM164.27,21.06c.7.45,1.36.89,2,.7a2.92,2.92,0,0,0,1.9-1.93l.1-.29.37-.12A2,2,0,0,0,170,17.29l-.7-2.34,10-10a10.87,10.87,0,0,1,3.31,7.6,12.8,12.8,0,0,1-3.91,9.2,12.82,12.82,0,0,1-9.21,3.92,10.87,10.87,0,0,1-7.6-3.31l1.68-1.68c.19.1.5.29.69.42Zm17.26,3.49a16.52,16.52,0,0,1-22.64.78l2.21-2.21a12.08,12.08,0,0,0,8.36,3.66h.26a14.06,14.06,0,0,0,9.78-4.25,13.93,13.93,0,0,0,4.25-10,12.16,12.16,0,0,0-3.65-8.38l2.2-2.21a16.52,16.52,0,0,1-.78,22.65Z"/><path id="_Контур_15" data-name="&lt;Контур&gt;" class="cls-1" d="M161.5,10.79a.87.87,0,0,1-.86.86.86.86,0,0,1,0-1.73.87.87,0,0,1,.86.86Z"/><path id="_Контур_16" data-name="&lt;Контур&gt;" class="cls-1" d="M168.37,23.38a.86.86,0,1,1-.86-.85.86.86,0,0,1,.86.85Z"/><path id="_Контур_17" data-name="&lt;Контур&gt;" class="cls-1" d="M173.79,15.72a.86.86,0,1,1-.85-.85.85.85,0,0,1,.85.85Z"/><path id="_Контур_18" data-name="&lt;Контур&gt;" class="cls-1" d="M176.63,12.9a.86.86,0,0,1-.86.86.86.86,0,1,1,0-1.73.87.87,0,0,1,.86.86Z"/><path id="_Контур_19" data-name="&lt;Контур&gt;" class="cls-1" d="M175,22.62a.86.86,0,1,1-.85-.86.85.85,0,0,1,.85.86Z"/><path id="_Контур_20" data-name="&lt;Контур&gt;" class="cls-1" d="M177.84,19.78a.87.87,0,0,1-.86.86.86.86,0,0,1,0-1.73.87.87,0,0,1,.86.86Z"/><path id="_Контур_21" data-name="&lt;Контур&gt;" class="cls-1" d="M180.67,16.94a.86.86,0,1,1-.85-.85.85.85,0,0,1,.85.85Z"/><path id="_Контур_22" data-name="&lt;Контур&gt;" class="cls-1" d="M179.45,10.06a.86.86,0,1,1-.85-.85.85.85,0,0,1,.85.85Z"/><path id="_Контур_23" data-name="&lt;Контур&gt;" class="cls-1" d="M171.77,21.8a.86.86,0,1,1-.86-.85.86.86,0,0,1,.86.85Z"/><path id="_Контур_24" data-name="&lt;Контур&gt;" class="cls-1" d="M174.66,18.8a.86.86,0,1,1-.85-.85.85.85,0,0,1,.85.85Z"/><path id="_Контур_25" data-name="&lt;Контур&gt;" class="cls-1" d="M177.53,15.94a.86.86,0,0,1-1.73,0,.86.86,0,0,1,1.73,0Z"/><path id="_Контур_26" data-name="&lt;Контур&gt;" class="cls-1" d="M163.21,16.52a.86.86,0,1,1-.85-.86.86.86,0,0,1,.85.86Z"/><path id="_Контур_27" data-name="&lt;Контур&gt;" class="cls-1" d="M166.65,11.93a.86.86,0,1,1-.86-.85.87.87,0,0,1,.86.85Z"/><path id="_Контур_28" data-name="&lt;Контур&gt;" class="cls-1" d="M180.27,13.29a.86.86,0,0,1-.86.86.86.86,0,1,1,0-1.71.85.85,0,0,1,.86.85Z"/></g><g id="_Группа_6" data-name="&lt;Группа&gt;"><path id="_Составной_контур_5" data-name="&lt;Составной контур&gt;" class="cls-1" d="M368.71,3.83A9.56,9.56,0,0,1,373.38,0l.36.9c-3.82,1.5-6,5.19-4.9,8.31a3.51,3.51,0,0,1,.86,1,3.33,3.33,0,0,1,3.67,4.93,3.24,3.24,0,0,1,2.16,2,3.36,3.36,0,0,1-1.88,4.34,3.47,3.47,0,0,1-2.11.1,3.35,3.35,0,0,1-2.06,3.6,3.4,3.4,0,0,1-2.87-.2,3.36,3.36,0,0,1-2.1,3.19,3.48,3.48,0,0,1-1.66.2,3.33,3.33,0,0,1-6.32.37,3.34,3.34,0,0,1,.42-3.21,3.35,3.35,0,0,1-1.28-1.57,3.3,3.3,0,0,1,.68-3.51A3.46,3.46,0,0,1,355.23,19a3.36,3.36,0,0,1,1-3.82,3.26,3.26,0,0,1-1-1.32,3.32,3.32,0,0,1,3.9-4.46,3.33,3.33,0,0,1,6.39-.64h0a3.24,3.24,0,0,1,2.15-.1,6.55,6.55,0,0,1,.37-3.5,6.19,6.19,0,0,1-7.45-3.68L360.45,1l.44-.17a6.2,6.2,0,0,1,7.82,3Zm-3.21,6v0l-.1.07a1.07,1.07,0,0,0-.2.15l-.15.15c0,.05-.08.08-.12.13l-.12.17-.1.15-.1.2-.05.15c0,.07-.05.14-.08.2s-.05.24-.07.35V12s0,.07,0,.12a2.53,2.53,0,0,0,.07.35s0,0,0,0a2.87,2.87,0,0,1,.56.56.34.34,0,0,1,.07.1,1,1,0,0,1,.17.25l.05.08a2.49,2.49,0,0,1,.17.37h0a3,3,0,0,0,.76.3h.05a2.36,2.36,0,0,0,1,0l.05,0,.24-.08a2.38,2.38,0,1,0-1.76-4.43,4,4,0,0,0-.39.19Zm-4.92,3.77-.15.22-.05.07-.1.2-.05.1a1,1,0,0,0-.07.2.32.32,0,0,0,0,.14l-.05.19s0,.08,0,.14v.05a0,0,0,0,1,0,0,3.15,3.15,0,0,1,.78.64s0,0,0,.05a2.08,2.08,0,0,1,.29.39l.05.08a3.71,3.71,0,0,1,.22.44,2.89,2.89,0,0,1,.15.51l0,0,.42-.22.37-.12.14,0a1,1,0,0,1,.24,0,.47.47,0,0,1,.15,0,1.28,1.28,0,0,1,.25,0l.12,0,.37,0h0a.13.13,0,0,1,0-.08,2.33,2.33,0,0,1,.12-.37.38.38,0,0,1,.05-.08,2.63,2.63,0,0,1,.19-.37s0,0,0-.05a3,3,0,0,1,.27-.37s0,0,0,0a2.26,2.26,0,0,1,.36-.34h0a2,2,0,0,0-.15-.64,1.68,1.68,0,0,0-.2-.39.34.34,0,0,0-.07-.1,1.24,1.24,0,0,0-.19-.24l-.08-.1a2.35,2.35,0,0,0-.32-.25v0l-.34-.17a2.85,2.85,0,0,0-.34-.14l-.12,0a3.37,3.37,0,0,0-.41-.07h-.07a2.08,2.08,0,0,0-.46,0h0a2.27,2.27,0,0,0-.46.12l-.15.07a2.56,2.56,0,0,0-.79.61,0,0,0,0,1,0,0Zm.66,6.89a3.05,3.05,0,0,1,.2.24l.05.08.17.25a.13.13,0,0,0,0,.07,3.22,3.22,0,0,1,.17.35,2.26,2.26,0,0,1,.12.41l.07,0,.3-.1.2-.05.1,0a1.32,1.32,0,0,1,.27,0s0,0,.05,0h.27l0,0,.29,0h0l.27.05h0l.25.07.07,0a1.29,1.29,0,0,1,.24.08.06.06,0,0,1,.05,0,2.4,2.4,0,0,0,.41-.32,4.16,4.16,0,0,1,.08-.44l0,0a3.33,3.33,0,0,1,.36-.83s0,0,0,0a1.81,1.81,0,0,1,.25-.37v0a3.4,3.4,0,0,0,0-.41s0,0,0-.05a1.84,1.84,0,0,0-.12-.41,1.73,1.73,0,0,0-.2-.39s0,0,0-.05a2.52,2.52,0,0,0-.27-.32l-.05-.05a2.29,2.29,0,0,0-.3-.27s0,0-.05,0a3,3,0,0,0-.32-.17l-.07,0a1.13,1.13,0,0,0-.34-.1l-.19-.05a1.29,1.29,0,0,0-.25,0,.57.57,0,0,0-.17,0,1.67,1.67,0,0,0-.29,0,.33.33,0,0,0-.13,0,1.41,1.41,0,0,0-.44.12,2.13,2.13,0,0,0-.39.2.94.94,0,0,0-.15.12,2,2,0,0,0-.22.17,3.31,3.31,0,0,1-.73,1.69,1.83,1.83,0,0,0,0,.3c.1.08.19.17.29.27s0,0,0,.05ZM367,18.92l.42-.14.1,0a3.39,3.39,0,0,1,.41-.07h0a2.06,2.06,0,0,1,.46,0h.05a3.33,3.33,0,0,1,.41.05h0a2,2,0,0,0,.19-.32v-.27a.42.42,0,0,1,0-.13c0-.07,0-.12,0-.19a.4.4,0,0,1,0-.14.5.5,0,0,1,0-.17.49.49,0,0,1,0-.15l.05-.15s0-.07,0-.08a2.45,2.45,0,0,0-.29-.88,1,1,0,0,0-.17-.25l-.07-.1a3.08,3.08,0,0,0-.22-.24l-.05-.05a2.89,2.89,0,0,0-.73-.44l-.05,0-.25-.07-.12,0a1.66,1.66,0,0,1-.29,0,1,1,0,0,1-.22,0h-.19a.57.57,0,0,1-.17,0,.82.82,0,0,1-.2,0h0a1,1,0,0,0-.2.07,2,2,0,0,0-.42.22l-.08.05a2.33,2.33,0,0,0-.88,1.18s0,0,0,.05a.29.29,0,0,0,0,.12l.27.13.27.17h0a3.31,3.31,0,0,1,.71.66h0a1.2,1.2,0,0,1,.17.24l0,0,.14.24s0,0,0,.05.08.2.14.3.1.3.14.44,0,.05,0,.07,0,0,0,0l.42-.2ZM372.31,15a2.36,2.36,0,0,0,.39-2.42A2.39,2.39,0,0,0,370,11.1s0,.05,0,.07a3.61,3.61,0,0,1,.05.44s0,0,0,0a3.29,3.29,0,0,1,0,.42v.1a3.07,3.07,0,0,1-.07.42s0,0,0,.05a2.34,2.34,0,0,1-.12.37.24.24,0,0,1,0,.1,4,4,0,0,1-.19.39s0,0,0,.05a2.09,2.09,0,0,1-.2.32l-.07.07a2.62,2.62,0,0,1-.29.32l-.05.05c-.1.1-.2.17-.3.25l-.05,0a3.49,3.49,0,0,1,.71.59s.05.05.07.07l.25.34a.23.23,0,0,0,.05.07l.05.08a3.49,3.49,0,0,0,.41.08l0,0a2.52,2.52,0,0,1,.41-.3l.07,0a4,4,0,0,1,.47-.24,2.35,2.35,0,0,1,.49-.15l.08,0a2.58,2.58,0,0,1,.51-.05s0,0,0,0Zm2.31,2.47a2.35,2.35,0,0,0-2.15-1.5,1.2,1.2,0,0,0-.42,0H372a1.68,1.68,0,0,0-.47.14,1.43,1.43,0,0,0-.42.22,0,0,0,0,0,0,0,1.68,1.68,0,0,0-.34.27,2.24,2.24,0,0,0-.64,1.13.19.19,0,0,1,0,.08l-.05.39v.07a2.42,2.42,0,0,0,.17.9l.08.19,0,0,.15.12s.07.05.08.08a1.29,1.29,0,0,1,.15.15s0,.05.07.07.08.12.14.17a.23.23,0,0,0,.05.07,1.36,1.36,0,0,0,.14.2v0a2.38,2.38,0,0,0,3.53-2.86Zm-5.51,6.79a2.39,2.39,0,0,0,1.33-3.09,2.59,2.59,0,0,0-.19-.37.34.34,0,0,0-.07-.1,3.4,3.4,0,0,0-.22-.29l-.08-.07a1.11,1.11,0,0,0-.3-.25v0a2.61,2.61,0,0,0-.74-.32l-.19-.05-.27,0h-.15l-.3,0a.37.37,0,0,1-.14,0,2.2,2.2,0,0,0-.44.14A4.2,4.2,0,0,0,367,20l-.05.05a1.87,1.87,0,0,0-.29.22l-.1.1a1.18,1.18,0,0,0-.14.17,1.15,1.15,0,0,0-.14.17,1,1,0,0,0-.1.19,1.58,1.58,0,0,0-.17.39c0,.07-.05.12-.07.19s0,.15,0,.22a2.52,2.52,0,0,0,.14,1.22,2.38,2.38,0,0,0,3.09,1.33ZM363,27.38a2.39,2.39,0,0,0,2.52-3.24,2.33,2.33,0,0,0-1.2-1.27,2.86,2.86,0,0,0-.34-.13l-.12,0a1.67,1.67,0,0,0-.41-.05.1.1,0,0,0-.07,0,2.06,2.06,0,0,0-.46,0h0a2.5,2.5,0,0,0-.47.13,1.28,1.28,0,0,0-.3.15,3.07,3.07,0,0,1-.17.78l-.05.15a1.36,1.36,0,0,1-.1.24l-.1.2-.12.2-.1.15,0,0,.34.25.08.1a1.8,1.8,0,0,1,.25.25l.07.07c.08.12.17.24.25.37a.37.37,0,0,1,.05.08,2.36,2.36,0,0,1,.2.42,2.89,2.89,0,0,1,.15.51s0,.05,0,.08.05.34.07.51v0Zm-5.56,1a2.38,2.38,0,0,0,4.59-.74v-.2a.85.85,0,0,0,0-.2,1.38,1.38,0,0,0,0-.24.31.31,0,0,1,0-.14,2.39,2.39,0,0,0-.44-.84l-.05-.07-.2-.2-.12-.1a1.31,1.31,0,0,0-.19-.14,1.07,1.07,0,0,0-.24-.14l-.14-.07c-.05,0-.12,0-.19-.07l-.27-.07-.19,0-.25,0a1.29,1.29,0,0,0-.25,0,.82.82,0,0,0-.2,0,3.38,3.38,0,0,0-.44.12,3.07,3.07,0,0,0-.41.22,1.32,1.32,0,0,0-.19.14,1.79,1.79,0,0,0-.2.17h0a2.39,2.39,0,0,0-.56,2.58Zm-.86-4.8a2.31,2.31,0,0,0,1.1,1.23,0,0,0,0,0,0,0,2.89,2.89,0,0,1,.3-.19l.07-.05c.12-.05.24-.12.37-.17s.32-.1.47-.15a.15.15,0,0,0,.08,0,2.38,2.38,0,0,1,.47-.05h.07a2.88,2.88,0,0,1,1,.12h0c0-.05.08-.08.12-.14a.23.23,0,0,1,.05-.07,1.91,1.91,0,0,0,.22-.41,0,0,0,0,0,0,0,2.46,2.46,0,0,0,.15-.46h0a2.58,2.58,0,0,0,.05-.51v0a1.8,1.8,0,0,0-.05-.42.6.6,0,0,0,0-.17,1,1,0,0,0-.08-.24,2.47,2.47,0,0,0-.19-.37.66.66,0,0,0-.07-.12,2.94,2.94,0,0,0-.2-.24.34.34,0,0,0-.07-.08,2.54,2.54,0,0,0-.71-.49,2,2,0,0,0-.34-.12l-.12,0a1.5,1.5,0,0,0-.29,0,2.06,2.06,0,0,0-1.49.34l-.07.05a2.37,2.37,0,0,0-.9,2.84Zm-.42-4.95a2.4,2.4,0,0,0,1,1.17h0a2.76,2.76,0,0,1,.39-.19,1.07,1.07,0,0,1,.3-.1l.08,0,.24-.05h.08a1,1,0,0,1,.24,0l.07,0h.32l.24,0,.08,0a.86.86,0,0,1,.22,0l.1,0,.19.05.14.05.05,0a1,1,0,0,1,.12-.14l.08-.1a2.3,2.3,0,0,0,.61-1.4l0-.14v-.12c0-.08,0-.15,0-.24a.28.28,0,0,1,0-.12l-.05-.2a1.17,1.17,0,0,0-.05-.14.59.59,0,0,0-.07-.19c0-.08-.08-.17-.12-.25a1.94,1.94,0,0,0-.17-.22,1.46,1.46,0,0,0-.12-.17L360,16l-.17-.15a.59.59,0,0,0-.13-.08,2.7,2.7,0,0,0-.3-.17,2.86,2.86,0,0,0-.34-.13l-.12,0a2.48,2.48,0,0,0-.32-.05l-.17,0-.29,0a.69.69,0,0,0-.19,0,2.52,2.52,0,0,0-.47.14,2.37,2.37,0,0,0-1.33,3.09Zm0-5.14a2.41,2.41,0,0,0,1,1.15h0l.44-.14.08,0a3.87,3.87,0,0,1,1-.07h0a4.23,4.23,0,0,1,.49.08l0,0a2.57,2.57,0,0,1,.24-.78.82.82,0,0,0,.05-.12,1.49,1.49,0,0,1,.17-.27c0-.05.05-.08.07-.13a3.55,3.55,0,0,1,.24-.3,1.74,1.74,0,0,0,.17-.17.78.78,0,0,0,.12-.12,2.47,2.47,0,0,1,.22-.17s0,0,0,0l.24-.17a3.54,3.54,0,0,0-.1-.52,2.29,2.29,0,0,0-.22-.41,1.44,1.44,0,0,0-.12-.17.89.89,0,0,0-.17-.19.9.9,0,0,0-.19-.17l-.15-.13c-.07-.05-.15-.08-.24-.14a2.35,2.35,0,0,0-2-.13,2.39,2.39,0,0,0-1.34,3.09Zm5.42-5.73a2.37,2.37,0,0,0-1.49,2,0,0,0,0,1,0,0,3.15,3.15,0,0,1,.78.64l.05.05c.1.14.19.25.27.39l.05.08a3.48,3.48,0,0,1,.22.44s0,.05,0,.12.08.24.12.37h0l.37-.07s.05,0,.07,0a4,4,0,0,1,.9,0h0a3.31,3.31,0,0,1,.44.12v-.05a2,2,0,0,1,0-.32V11.5l.05-.35h0a3.34,3.34,0,0,1,1.2-1.93,2.38,2.38,0,0,0-3.14-1.47Zm6.27-3.53a5.24,5.24,0,0,0-6.12-2.67,5.24,5.24,0,0,0,6.12,2.67Z"/></g><g id="_Группа_7" data-name="&lt;Группа&gt;"><path id="_Составной_контур_6" data-name="&lt;Составной контур&gt;" class="cls-1" d="M311.48.67l-.4-.42L296.7,14.61l.86,2.88a.85.85,0,0,1-.59.83l-.91.29-.28.85a1.79,1.79,0,0,1-1.13,1.19,3.57,3.57,0,0,1-1-.57,2.62,2.62,0,0,0-1.58-.64l-.19,0L286,25.35l.42.41A17.75,17.75,0,0,0,311.48.67ZM293,21.06c.7.45,1.36.89,2,.7a2.92,2.92,0,0,0,1.9-1.93l.1-.29.37-.12a2,2,0,0,0,1.35-2.12l-.7-2.34,10-10a10.87,10.87,0,0,1,3.31,7.6,12.8,12.8,0,0,1-3.91,9.2,12.82,12.82,0,0,1-9.21,3.92,10.87,10.87,0,0,1-7.6-3.31l1.68-1.68c.19.1.5.29.69.42Zm17.26,3.49a16.52,16.52,0,0,1-22.64.78l2.21-2.21a12.08,12.08,0,0,0,8.36,3.66h.26a14.06,14.06,0,0,0,9.78-4.25,13.93,13.93,0,0,0,4.25-10,12.16,12.16,0,0,0-3.65-8.38L311,1.89a16.52,16.52,0,0,1-.78,22.65Z"/><path id="_Контур_29" data-name="&lt;Контур&gt;" class="cls-1" d="M290.23,10.79a.87.87,0,0,1-.86.86.86.86,0,0,1,0-1.73.87.87,0,0,1,.86.86Z"/><path id="_Контур_30" data-name="&lt;Контур&gt;" class="cls-1" d="M297.1,23.38a.86.86,0,1,1-.86-.85.86.86,0,0,1,.86.85Z"/><path id="_Контур_31" data-name="&lt;Контур&gt;" class="cls-1" d="M302.51,15.72a.86.86,0,1,1-.85-.85.85.85,0,0,1,.85.85Z"/><path id="_Контур_32" data-name="&lt;Контур&gt;" class="cls-1" d="M305.36,12.9a.86.86,0,0,1-.86.86.86.86,0,1,1,0-1.73.87.87,0,0,1,.86.86Z"/><path id="_Контур_33" data-name="&lt;Контур&gt;" class="cls-1" d="M303.73,22.62a.86.86,0,1,1-.85-.86.85.85,0,0,1,.85.86Z"/><path id="_Контур_34" data-name="&lt;Контур&gt;" class="cls-1" d="M306.57,19.78a.87.87,0,0,1-.86.86.86.86,0,0,1,0-1.73.87.87,0,0,1,.86.86Z"/><path id="_Контур_35" data-name="&lt;Контур&gt;" class="cls-1" d="M309.4,16.94a.86.86,0,1,1-.85-.85.85.85,0,0,1,.85.85Z"/><path id="_Контур_36" data-name="&lt;Контур&gt;" class="cls-1" d="M308.18,10.06a.86.86,0,1,1-.85-.85.85.85,0,0,1,.85.85Z"/><path id="_Контур_37" data-name="&lt;Контур&gt;" class="cls-1" d="M300.49,21.8a.86.86,0,1,1-.86-.85.86.86,0,0,1,.86.85Z"/><path id="_Контур_38" data-name="&lt;Контур&gt;" class="cls-1" d="M303.39,18.8a.86.86,0,1,1-.85-.85.85.85,0,0,1,.85.85Z"/><path id="_Контур_39" data-name="&lt;Контур&gt;" class="cls-1" d="M306.26,15.94a.86.86,0,0,1-1.73,0,.86.86,0,0,1,1.73,0Z"/><path id="_Контур_40" data-name="&lt;Контур&gt;" class="cls-1" d="M291.94,16.52a.86.86,0,1,1-.85-.86.86.86,0,0,1,.85.86Z"/><path id="_Контур_41" data-name="&lt;Контур&gt;" class="cls-1" d="M295.38,11.93a.86.86,0,1,1-.86-.85.87.87,0,0,1,.86.85Z"/><path id="_Контур_42" data-name="&lt;Контур&gt;" class="cls-1" d="M309,13.29a.86.86,0,0,1-.86.86.86.86,0,1,1,0-1.71.85.85,0,0,1,.86.85Z"/></g><g id="_Группа_8" data-name="&lt;Группа&gt;"><path id="_Составной_контур_7" data-name="&lt;Составной контур&gt;" class="cls-1" d="M497.44,3.83A9.56,9.56,0,0,1,502.11,0l.36.9c-3.82,1.5-6,5.19-4.9,8.31a3.51,3.51,0,0,1,.86,1,3.33,3.33,0,0,1,3.67,4.93,3.24,3.24,0,0,1,2.16,2,3.36,3.36,0,0,1-1.88,4.34,3.47,3.47,0,0,1-2.11.1,3.35,3.35,0,0,1-2.06,3.6,3.4,3.4,0,0,1-2.87-.2,3.36,3.36,0,0,1-2.1,3.19,3.48,3.48,0,0,1-1.66.2,3.33,3.33,0,0,1-6.32.37,3.34,3.34,0,0,1,.42-3.21,3.35,3.35,0,0,1-1.28-1.57,3.3,3.3,0,0,1,.68-3.51A3.46,3.46,0,0,1,484,19a3.36,3.36,0,0,1,1-3.82,3.26,3.26,0,0,1-1-1.32,3.32,3.32,0,0,1,3.9-4.46,3.33,3.33,0,0,1,6.39-.64h0a3.24,3.24,0,0,1,2.15-.1,6.55,6.55,0,0,1,.37-3.5,6.19,6.19,0,0,1-7.45-3.68L489.18,1l.44-.17a6.2,6.2,0,0,1,7.82,3Zm-3.21,6v0l-.1.07a1.07,1.07,0,0,0-.2.15l-.15.15c0,.05-.08.08-.12.13l-.12.17-.1.15-.1.2-.05.15c0,.07-.05.14-.08.2s-.05.24-.07.35V12s0,.07,0,.12a2.53,2.53,0,0,0,.07.35s0,0,0,0a2.87,2.87,0,0,1,.56.56.34.34,0,0,1,.07.1,1,1,0,0,1,.17.25l.05.08a2.49,2.49,0,0,1,.17.37h0a3,3,0,0,0,.76.3h.05a2.36,2.36,0,0,0,1,0l.05,0,.24-.08a2.38,2.38,0,1,0-1.76-4.43,4,4,0,0,0-.39.19Zm-4.92,3.77-.15.22-.05.07-.1.2-.05.1a1,1,0,0,0-.07.2.32.32,0,0,0,0,.14l-.05.19s0,.08,0,.14v.05a0,0,0,0,1,0,0,3.15,3.15,0,0,1,.78.64s0,0,0,.05a2.08,2.08,0,0,1,.29.39l.05.08a3.71,3.71,0,0,1,.22.44,2.89,2.89,0,0,1,.15.51l0,0,.42-.22.37-.12.14,0a1,1,0,0,1,.24,0,.47.47,0,0,1,.15,0,1.28,1.28,0,0,1,.25,0l.12,0,.37,0h0a.13.13,0,0,1,0-.08,2.33,2.33,0,0,1,.12-.37.38.38,0,0,1,.05-.08,2.63,2.63,0,0,1,.19-.37s0,0,0-.05a3,3,0,0,1,.27-.37s0,0,0,0a2.26,2.26,0,0,1,.36-.34h0a2,2,0,0,0-.15-.64,1.68,1.68,0,0,0-.2-.39.34.34,0,0,0-.07-.1,1.24,1.24,0,0,0-.19-.24l-.08-.1a2.35,2.35,0,0,0-.32-.25v0l-.34-.17a2.85,2.85,0,0,0-.34-.14l-.12,0a3.37,3.37,0,0,0-.41-.07h-.07a2.08,2.08,0,0,0-.46,0h0a2.27,2.27,0,0,0-.46.12l-.15.07a2.56,2.56,0,0,0-.79.61,0,0,0,0,1,0,0Zm.66,6.89a3.05,3.05,0,0,1,.2.24l.05.08.17.25a.13.13,0,0,0,0,.07,3.22,3.22,0,0,1,.17.35,2.26,2.26,0,0,1,.12.41l.07,0,.3-.1.2-.05.1,0a1.32,1.32,0,0,1,.27,0s0,0,.05,0H492l0,0,.29,0h0l.27.05h0l.25.07.07,0a1.29,1.29,0,0,1,.24.08.06.06,0,0,1,.05,0,2.4,2.4,0,0,0,.41-.32,4.16,4.16,0,0,1,.08-.44l0,0a3.33,3.33,0,0,1,.36-.83s0,0,0,0a1.81,1.81,0,0,1,.25-.37v0a3.4,3.4,0,0,0,0-.41s0,0,0-.05a1.84,1.84,0,0,0-.12-.41,1.73,1.73,0,0,0-.2-.39s0,0,0-.05a2.52,2.52,0,0,0-.27-.32l-.05-.05a2.29,2.29,0,0,0-.3-.27s0,0-.05,0a3,3,0,0,0-.32-.17l-.07,0a1.13,1.13,0,0,0-.34-.1l-.19-.05a1.29,1.29,0,0,0-.25,0,.57.57,0,0,0-.17,0,1.67,1.67,0,0,0-.29,0,.33.33,0,0,0-.13,0,1.41,1.41,0,0,0-.44.12,2.13,2.13,0,0,0-.39.2.94.94,0,0,0-.15.12,2,2,0,0,0-.22.17,3.31,3.31,0,0,1-.73,1.69,1.83,1.83,0,0,0,0,.3c.1.08.19.17.29.27s0,0,0,.05Zm5.76-1.55.42-.14.1,0a3.39,3.39,0,0,1,.41-.07h0a2.06,2.06,0,0,1,.46,0h.05a3.33,3.33,0,0,1,.41.05h0a2,2,0,0,0,.19-.32v-.27a.42.42,0,0,1,0-.13c0-.07,0-.12,0-.19a.4.4,0,0,1,0-.14.5.5,0,0,1,0-.17.49.49,0,0,1,0-.15l.05-.15s0-.07,0-.08a2.45,2.45,0,0,0-.29-.88,1,1,0,0,0-.17-.25l-.07-.1a3.08,3.08,0,0,0-.22-.24l-.05-.05a2.89,2.89,0,0,0-.73-.44l-.05,0-.25-.07-.12,0a1.66,1.66,0,0,1-.29,0,1,1,0,0,1-.22,0h-.19a.57.57,0,0,1-.17,0,.82.82,0,0,1-.2,0h0a1,1,0,0,0-.2.07,2,2,0,0,0-.42.22l-.08.05a2.33,2.33,0,0,0-.88,1.18s0,0,0,.05a.29.29,0,0,0,0,.12l.27.13.27.17h0a3.31,3.31,0,0,1,.71.66h0a1.2,1.2,0,0,1,.17.24l0,0,.14.24s0,0,0,.05.08.2.14.3.1.3.14.44,0,.05,0,.07,0,0,0,0l.42-.2ZM501,15a2.36,2.36,0,0,0,.39-2.42,2.39,2.39,0,0,0-2.67-1.47s0,.05,0,.07a3.61,3.61,0,0,1,.05.44s0,0,0,0a3.29,3.29,0,0,1,0,.42v.1a3.07,3.07,0,0,1-.07.42s0,0,0,.05a2.34,2.34,0,0,1-.12.37.24.24,0,0,1,0,.1,4,4,0,0,1-.19.39s0,0,0,.05a2.09,2.09,0,0,1-.2.32l-.07.07a2.62,2.62,0,0,1-.29.32l-.05.05c-.1.1-.2.17-.3.25l-.05,0a3.49,3.49,0,0,1,.71.59s.05.05.07.07l.25.34a.23.23,0,0,0,.05.07l.05.08a3.49,3.49,0,0,0,.41.08l0,0a2.52,2.52,0,0,1,.41-.3l.07,0a4,4,0,0,1,.47-.24,2.35,2.35,0,0,1,.49-.15l.08,0A2.58,2.58,0,0,1,501,15s0,0,0,0Zm2.31,2.47a2.35,2.35,0,0,0-2.15-1.5,1.2,1.2,0,0,0-.42,0h-.05a1.68,1.68,0,0,0-.47.14,1.43,1.43,0,0,0-.42.22,0,0,0,0,0,0,0,1.68,1.68,0,0,0-.34.27,2.24,2.24,0,0,0-.64,1.13.19.19,0,0,1,0,.08l-.05.39v.07a2.42,2.42,0,0,0,.17.9l.08.19,0,0,.15.12s.07.05.08.08a1.29,1.29,0,0,1,.15.15s0,.05.07.07.08.12.14.17a.23.23,0,0,0,.05.07,1.36,1.36,0,0,0,.14.2v0a2.38,2.38,0,0,0,3.53-2.86Zm-5.51,6.79a2.39,2.39,0,0,0,1.33-3.09,2.59,2.59,0,0,0-.19-.37.34.34,0,0,0-.07-.1,3.4,3.4,0,0,0-.22-.29l-.08-.07a1.11,1.11,0,0,0-.3-.25v0a2.61,2.61,0,0,0-.74-.32l-.19-.05-.27,0H497l-.3,0a.37.37,0,0,1-.14,0,2.2,2.2,0,0,0-.44.14,4.2,4.2,0,0,0-.39.19l-.05.05a1.87,1.87,0,0,0-.29.22l-.1.1a1.18,1.18,0,0,0-.14.17,1.15,1.15,0,0,0-.14.17,1,1,0,0,0-.1.19,1.58,1.58,0,0,0-.17.39c0,.07-.05.12-.07.19s0,.15,0,.22a2.52,2.52,0,0,0,.14,1.22,2.38,2.38,0,0,0,3.09,1.33Zm-6.15,3.14a2.39,2.39,0,0,0,2.52-3.24,2.33,2.33,0,0,0-1.2-1.27,2.86,2.86,0,0,0-.34-.13l-.12,0a1.67,1.67,0,0,0-.41-.05.1.1,0,0,0-.07,0,2.06,2.06,0,0,0-.46,0h0a2.5,2.5,0,0,0-.47.13,1.28,1.28,0,0,0-.3.15,3.07,3.07,0,0,1-.17.78l-.05.15a1.36,1.36,0,0,1-.1.24l-.1.2-.12.2-.1.15,0,0,.34.25.08.1a1.8,1.8,0,0,1,.25.25l.07.07c.08.12.17.24.25.37a.37.37,0,0,1,.05.08,2.36,2.36,0,0,1,.2.42,2.89,2.89,0,0,1,.15.51s0,.05,0,.08.05.34.07.51v0Zm-5.56,1a2.38,2.38,0,0,0,4.59-.74v-.2a.85.85,0,0,0,0-.2,1.38,1.38,0,0,0,0-.24.31.31,0,0,1,0-.14,2.39,2.39,0,0,0-.44-.84l-.05-.07-.2-.2-.12-.1a1.31,1.31,0,0,0-.19-.14,1.07,1.07,0,0,0-.24-.14l-.14-.07c-.05,0-.12,0-.19-.07l-.27-.07-.19,0-.25,0a1.29,1.29,0,0,0-.25,0,.82.82,0,0,0-.2,0,3.38,3.38,0,0,0-.44.12,3.07,3.07,0,0,0-.41.22,1.32,1.32,0,0,0-.19.14,1.79,1.79,0,0,0-.2.17h0a2.39,2.39,0,0,0-.56,2.58Zm-.86-4.8a2.31,2.31,0,0,0,1.1,1.23,0,0,0,0,0,0,0,2.89,2.89,0,0,1,.3-.19l.07-.05c.12-.05.24-.12.37-.17s.32-.1.47-.15a.15.15,0,0,0,.08,0,2.38,2.38,0,0,1,.47-.05h.07a2.88,2.88,0,0,1,1,.12h0c0-.05.08-.08.12-.14a.23.23,0,0,1,.05-.07,1.91,1.91,0,0,0,.22-.41,0,0,0,0,0,0,0,2.46,2.46,0,0,0,.15-.46h0a2.58,2.58,0,0,0,.05-.51v0a1.8,1.8,0,0,0-.05-.42.6.6,0,0,0,0-.17,1,1,0,0,0-.08-.24,2.47,2.47,0,0,0-.19-.37.66.66,0,0,0-.07-.12,2.94,2.94,0,0,0-.2-.24.34.34,0,0,0-.07-.08,2.54,2.54,0,0,0-.71-.49,2,2,0,0,0-.34-.12l-.12,0a1.5,1.5,0,0,0-.29,0,2.06,2.06,0,0,0-1.49.34l-.07.05a2.37,2.37,0,0,0-.9,2.84Zm-.42-4.95a2.4,2.4,0,0,0,1,1.17h0a2.76,2.76,0,0,1,.39-.19,1.07,1.07,0,0,1,.3-.1l.08,0,.24-.05H487a1,1,0,0,1,.24,0l.07,0h.32l.24,0,.08,0a.86.86,0,0,1,.22,0l.1,0,.19.05.14.05.05,0a1,1,0,0,1,.12-.14l.08-.1a2.3,2.3,0,0,0,.61-1.4l0-.14v-.12c0-.08,0-.15,0-.24a.28.28,0,0,1,0-.12l-.05-.2a1.17,1.17,0,0,0-.05-.14.59.59,0,0,0-.07-.19c0-.08-.08-.17-.12-.25a1.94,1.94,0,0,0-.17-.22,1.46,1.46,0,0,0-.12-.17l-.15-.15-.17-.15a.59.59,0,0,0-.13-.08,2.7,2.7,0,0,0-.3-.17,2.86,2.86,0,0,0-.34-.13l-.12,0a2.48,2.48,0,0,0-.32-.05l-.17,0-.29,0a.69.69,0,0,0-.19,0,2.52,2.52,0,0,0-.47.14,2.37,2.37,0,0,0-1.33,3.09Zm0-5.14a2.41,2.41,0,0,0,1,1.15h0l.44-.14.08,0a3.87,3.87,0,0,1,1-.07h0a4.23,4.23,0,0,1,.49.08l0,0a2.57,2.57,0,0,1,.24-.78.82.82,0,0,0,.05-.12,1.49,1.49,0,0,1,.17-.27c0-.05.05-.08.07-.13a3.55,3.55,0,0,1,.24-.3,1.74,1.74,0,0,0,.17-.17.78.78,0,0,0,.12-.12,2.47,2.47,0,0,1,.22-.17s0,0,0,0l.24-.17a3.54,3.54,0,0,0-.1-.52,2.29,2.29,0,0,0-.22-.41,1.44,1.44,0,0,0-.12-.17.89.89,0,0,0-.17-.19.9.9,0,0,0-.19-.17l-.15-.13c-.07-.05-.15-.08-.24-.14a2.35,2.35,0,0,0-2-.13,2.39,2.39,0,0,0-1.34,3.09Zm5.42-5.73a2.37,2.37,0,0,0-1.49,2,0,0,0,0,1,0,0,3.15,3.15,0,0,1,.78.64l.05.05c.1.14.19.25.27.39l.05.08a3.48,3.48,0,0,1,.22.44s0,.05,0,.12.08.24.12.37h0l.37-.07s.05,0,.07,0a4,4,0,0,1,.9,0h0a3.31,3.31,0,0,1,.44.12v-.05a2,2,0,0,1,0-.32V11.5l.05-.35h0a3.34,3.34,0,0,1,1.2-1.93,2.38,2.38,0,0,0-3.14-1.47Zm6.27-3.53a5.24,5.24,0,0,0-6.12-2.67,5.24,5.24,0,0,0,6.12,2.67Z"/></g><g id="_Группа_9" data-name="&lt;Группа&gt;"><path id="_Составной_контур_8" data-name="&lt;Составной контур&gt;" class="cls-1" d="M440.21.67l-.4-.42L425.43,14.61l.86,2.88a.85.85,0,0,1-.59.83l-.91.29-.28.85a1.79,1.79,0,0,1-1.13,1.19,3.57,3.57,0,0,1-1-.57,2.62,2.62,0,0,0-1.58-.64l-.19,0-5.89,5.87.42.41A17.75,17.75,0,0,0,440.21.67ZM421.73,21.06c.7.45,1.36.89,2,.7a2.92,2.92,0,0,0,1.9-1.93l.1-.29.37-.12a2,2,0,0,0,1.35-2.12l-.7-2.34,10-10a10.87,10.87,0,0,1,3.31,7.6,12.8,12.8,0,0,1-3.91,9.2A12.82,12.82,0,0,1,427,25.62a10.87,10.87,0,0,1-7.6-3.31L421,20.63c.19.1.5.29.69.42ZM439,24.54a16.52,16.52,0,0,1-22.64.78l2.21-2.21a12.08,12.08,0,0,0,8.36,3.66h.26A14.06,14.06,0,0,0,437,22.52a13.93,13.93,0,0,0,4.25-10,12.16,12.16,0,0,0-3.65-8.38l2.2-2.21A16.52,16.52,0,0,1,439,24.54Z"/><path id="_Контур_43" data-name="&lt;Контур&gt;" class="cls-1" d="M419,10.79a.87.87,0,0,1-.86.86.86.86,0,0,1,0-1.73.87.87,0,0,1,.86.86Z"/><path id="_Контур_44" data-name="&lt;Контур&gt;" class="cls-1" d="M425.82,23.38a.86.86,0,1,1-.86-.85.86.86,0,0,1,.86.85Z"/><path id="_Контур_45" data-name="&lt;Контур&gt;" class="cls-1" d="M431.24,15.72a.86.86,0,1,1-.85-.85.85.85,0,0,1,.85.85Z"/><path id="_Контур_46" data-name="&lt;Контур&gt;" class="cls-1" d="M434.08,12.9a.86.86,0,0,1-.86.86.86.86,0,1,1,0-1.73.87.87,0,0,1,.86.86Z"/><path id="_Контур_47" data-name="&lt;Контур&gt;" class="cls-1" d="M432.46,22.62a.86.86,0,1,1-.85-.86.85.85,0,0,1,.85.86Z"/><path id="_Контур_48" data-name="&lt;Контур&gt;" class="cls-1" d="M435.3,19.78a.87.87,0,0,1-.86.86.86.86,0,0,1,0-1.73.87.87,0,0,1,.86.86Z"/><path id="_Контур_49" data-name="&lt;Контур&gt;" class="cls-1" d="M438.13,16.94a.86.86,0,1,1-.85-.85.85.85,0,0,1,.85.85Z"/><path id="_Контур_50" data-name="&lt;Контур&gt;" class="cls-1" d="M436.91,10.06a.86.86,0,1,1-.85-.85.85.85,0,0,1,.85.85Z"/><path id="_Контур_51" data-name="&lt;Контур&gt;" class="cls-1" d="M429.22,21.8a.86.86,0,1,1-.86-.85.86.86,0,0,1,.86.85Z"/><path id="_Контур_52" data-name="&lt;Контур&gt;" class="cls-1" d="M432.12,18.8a.86.86,0,1,1-.85-.85.85.85,0,0,1,.85.85Z"/><path id="_Контур_53" data-name="&lt;Контур&gt;" class="cls-1" d="M435,15.94a.86.86,0,0,1-1.73,0,.86.86,0,0,1,1.73,0Z"/><path id="_Контур_54" data-name="&lt;Контур&gt;" class="cls-1" d="M420.67,16.52a.86.86,0,1,1-.85-.86.86.86,0,0,1,.85.86Z"/><path id="_Контур_55" data-name="&lt;Контур&gt;" class="cls-1" d="M424.11,11.93a.86.86,0,1,1-.86-.85.87.87,0,0,1,.86.85Z"/><path id="_Контур_56" data-name="&lt;Контур&gt;" class="cls-1" d="M437.73,13.29a.86.86,0,0,1-.86.86.86.86,0,1,1,0-1.71.85.85,0,0,1,.86.85Z"/></g><g id="_Группа_10" data-name="&lt;Группа&gt;"><path id="_Составной_контур_9" data-name="&lt;Составной контур&gt;" class="cls-1" d="M626.17,3.83A9.56,9.56,0,0,1,630.83,0l.36.9c-3.82,1.5-6,5.19-4.9,8.31a3.51,3.51,0,0,1,.86,1,3.33,3.33,0,0,1,3.67,4.93,3.24,3.24,0,0,1,2.16,2,3.36,3.36,0,0,1-1.88,4.34,3.47,3.47,0,0,1-2.11.1,3.35,3.35,0,0,1-2.06,3.6,3.4,3.4,0,0,1-2.87-.2,3.36,3.36,0,0,1-2.1,3.19,3.48,3.48,0,0,1-1.66.2,3.33,3.33,0,0,1-6.32.37,3.34,3.34,0,0,1,.42-3.21,3.35,3.35,0,0,1-1.28-1.57,3.3,3.3,0,0,1,.68-3.51A3.46,3.46,0,0,1,612.69,19a3.36,3.36,0,0,1,1-3.82,3.26,3.26,0,0,1-1-1.32,3.32,3.32,0,0,1,3.9-4.46A3.33,3.33,0,0,1,623,8.73h0a3.24,3.24,0,0,1,2.15-.1,6.55,6.55,0,0,1,.37-3.5,6.19,6.19,0,0,1-7.45-3.68L617.91,1l.44-.17a6.2,6.2,0,0,1,7.82,3Zm-3.21,6v0l-.1.07a1.07,1.07,0,0,0-.2.15l-.15.15c0,.05-.08.08-.12.13l-.12.17-.1.15-.1.2L622,11c0,.07-.05.14-.08.2s-.05.24-.07.35V12s0,.07,0,.12a2.53,2.53,0,0,0,.07.35s0,0,0,0a2.87,2.87,0,0,1,.56.56.34.34,0,0,1,.07.1,1,1,0,0,1,.17.25l.05.08a2.49,2.49,0,0,1,.17.37h0a3,3,0,0,0,.76.3h.05a2.36,2.36,0,0,0,1,0l.05,0,.24-.08a2.38,2.38,0,1,0-1.76-4.43,4,4,0,0,0-.39.19ZM618,13.58l-.15.22-.05.07-.1.2-.05.1a1,1,0,0,0-.07.2.32.32,0,0,0,0,.14l-.05.19s0,.08,0,.14v.05a0,0,0,0,1,0,0,3.15,3.15,0,0,1,.78.64s0,0,0,.05a2.08,2.08,0,0,1,.29.39l.05.08a3.71,3.71,0,0,1,.22.44,2.89,2.89,0,0,1,.15.51l0,0,.42-.22.37-.12.14,0a1,1,0,0,1,.24,0,.47.47,0,0,1,.15,0,1.28,1.28,0,0,1,.25,0l.12,0,.37,0h0a.13.13,0,0,1,0-.08,2.33,2.33,0,0,1,.12-.37.38.38,0,0,1,.05-.08,2.63,2.63,0,0,1,.19-.37s0,0,0-.05a3,3,0,0,1,.27-.37s0,0,0,0a2.26,2.26,0,0,1,.36-.34h0a2,2,0,0,0-.15-.64,1.68,1.68,0,0,0-.2-.39.34.34,0,0,0-.07-.1,1.24,1.24,0,0,0-.19-.24l-.08-.1a2.35,2.35,0,0,0-.32-.25v0L620.9,13a2.85,2.85,0,0,0-.34-.14l-.12,0a3.37,3.37,0,0,0-.41-.07H620a2.08,2.08,0,0,0-.46,0h0a2.27,2.27,0,0,0-.46.12l-.15.07a2.56,2.56,0,0,0-.79.61,0,0,0,0,1,0,0Zm.66,6.89a3.05,3.05,0,0,1,.2.24l.05.08.17.25a.13.13,0,0,0,0,.07,3.22,3.22,0,0,1,.17.35,2.26,2.26,0,0,1,.12.41l.07,0,.3-.1.2-.05.1,0a1.32,1.32,0,0,1,.27,0s0,0,.05,0h.27l0,0,.29,0h0l.27.05h0l.25.07.07,0a1.29,1.29,0,0,1,.24.08.06.06,0,0,1,.05,0,2.4,2.4,0,0,0,.41-.32,4.16,4.16,0,0,1,.08-.44l0,0a3.33,3.33,0,0,1,.36-.83s0,0,0,0a1.81,1.81,0,0,1,.25-.37v0a3.4,3.4,0,0,0,0-.41s0,0,0-.05A1.84,1.84,0,0,0,623,19a1.73,1.73,0,0,0-.2-.39s0,0,0-.05a2.52,2.52,0,0,0-.27-.32l-.05-.05a2.29,2.29,0,0,0-.3-.27s0,0-.05,0a3,3,0,0,0-.32-.17l-.07,0a1.13,1.13,0,0,0-.34-.1l-.19-.05a1.29,1.29,0,0,0-.25,0,.57.57,0,0,0-.17,0,1.67,1.67,0,0,0-.29,0,.33.33,0,0,0-.13,0,1.41,1.41,0,0,0-.44.12,2.13,2.13,0,0,0-.39.2.94.94,0,0,0-.15.12,2,2,0,0,0-.22.17,3.31,3.31,0,0,1-.73,1.69,1.83,1.83,0,0,0,0,.3c.1.08.19.17.29.27s0,0,0,.05Zm5.76-1.55.42-.14.1,0a3.39,3.39,0,0,1,.41-.07h0a2.06,2.06,0,0,1,.46,0h.05a3.33,3.33,0,0,1,.41.05h0a2,2,0,0,0,.19-.32v-.27a.42.42,0,0,1,0-.13c0-.07,0-.12,0-.19a.4.4,0,0,1,0-.14.5.5,0,0,1,0-.17.49.49,0,0,1,0-.15l.05-.15s0-.07,0-.08a2.45,2.45,0,0,0-.29-.88,1,1,0,0,0-.17-.25l-.07-.1a3.08,3.08,0,0,0-.22-.24l-.05-.05a2.89,2.89,0,0,0-.73-.44l-.05,0-.25-.07-.12,0a1.66,1.66,0,0,1-.29,0,1,1,0,0,1-.22,0h-.19a.57.57,0,0,1-.17,0,.82.82,0,0,1-.2,0h0a1,1,0,0,0-.2.07,2,2,0,0,0-.42.22l-.08.05a2.33,2.33,0,0,0-.88,1.18s0,0,0,.05a.29.29,0,0,0,0,.12l.27.13.27.17h0a3.31,3.31,0,0,1,.71.66h0a1.2,1.2,0,0,1,.17.24l0,0,.14.24s0,0,0,.05.08.2.14.3.1.3.14.44,0,.05,0,.07,0,0,0,0l.42-.2ZM629.77,15a2.36,2.36,0,0,0,.39-2.42,2.39,2.39,0,0,0-2.67-1.47s0,.05,0,.07a3.61,3.61,0,0,1,.05.44s0,0,0,0a3.29,3.29,0,0,1,0,.42v.1a3.07,3.07,0,0,1-.07.42s0,0,0,.05a2.34,2.34,0,0,1-.12.37.24.24,0,0,1,0,.1,4,4,0,0,1-.19.39s0,0,0,.05a2.09,2.09,0,0,1-.2.32l-.07.07a2.62,2.62,0,0,1-.29.32l-.05.05c-.1.1-.2.17-.3.25l-.05,0a3.49,3.49,0,0,1,.71.59s.05.05.07.07l.25.34a.23.23,0,0,0,.05.07l.05.08a3.49,3.49,0,0,0,.41.08l0,0a2.52,2.52,0,0,1,.41-.3l.07,0a4,4,0,0,1,.47-.24,2.35,2.35,0,0,1,.49-.15l.08,0a2.58,2.58,0,0,1,.51-.05s0,0,0,0Zm2.31,2.47a2.35,2.35,0,0,0-2.15-1.5,1.2,1.2,0,0,0-.42,0h-.05a1.68,1.68,0,0,0-.47.14,1.43,1.43,0,0,0-.42.22,0,0,0,0,0,0,0,1.68,1.68,0,0,0-.34.27,2.24,2.24,0,0,0-.64,1.13.19.19,0,0,1,0,.08l-.05.39v.07a2.42,2.42,0,0,0,.17.9l.08.19,0,0,.15.12s.07.05.08.08a1.29,1.29,0,0,1,.15.15s0,.05.07.07.08.12.14.17a.23.23,0,0,0,.05.07,1.36,1.36,0,0,0,.14.2v0a2.38,2.38,0,0,0,3.53-2.86Zm-5.51,6.79a2.39,2.39,0,0,0,1.33-3.09,2.59,2.59,0,0,0-.19-.37.34.34,0,0,0-.07-.1,3.4,3.4,0,0,0-.22-.29l-.08-.07a1.11,1.11,0,0,0-.3-.25v0a2.61,2.61,0,0,0-.74-.32l-.19-.05-.27,0h-.15l-.3,0a.37.37,0,0,1-.14,0,2.2,2.2,0,0,0-.44.14,4.2,4.2,0,0,0-.39.19l-.05.05a1.87,1.87,0,0,0-.29.22l-.1.1a1.18,1.18,0,0,0-.14.17,1.15,1.15,0,0,0-.14.17,1,1,0,0,0-.1.19,1.58,1.58,0,0,0-.17.39c0,.07-.05.12-.07.19s0,.15,0,.22a2.52,2.52,0,0,0,.14,1.22,2.38,2.38,0,0,0,3.09,1.33Zm-6.15,3.14a2.39,2.39,0,0,0,2.52-3.24,2.33,2.33,0,0,0-1.2-1.27,2.86,2.86,0,0,0-.34-.13l-.12,0a1.67,1.67,0,0,0-.41-.05.1.1,0,0,0-.07,0,2.06,2.06,0,0,0-.46,0h0a2.5,2.5,0,0,0-.47.13,1.28,1.28,0,0,0-.3.15,3.07,3.07,0,0,1-.17.78l-.05.15a1.36,1.36,0,0,1-.1.24l-.1.2-.12.2-.1.15,0,0,.34.25.08.1a1.8,1.8,0,0,1,.25.25l.07.07c.08.12.17.24.25.37a.37.37,0,0,1,.05.08,2.36,2.36,0,0,1,.2.42,2.89,2.89,0,0,1,.15.51s0,.05,0,.08.05.34.07.51v0Zm-5.56,1a2.38,2.38,0,0,0,4.59-.74v-.2a.85.85,0,0,0,0-.2,1.38,1.38,0,0,0,0-.24.31.31,0,0,1,0-.14,2.39,2.39,0,0,0-.44-.84l-.05-.07-.2-.2-.12-.1a1.31,1.31,0,0,0-.19-.14,1.07,1.07,0,0,0-.24-.14l-.14-.07c-.05,0-.12,0-.19-.07l-.27-.07-.19,0-.25,0a1.29,1.29,0,0,0-.25,0,.82.82,0,0,0-.2,0,3.38,3.38,0,0,0-.44.12,3.07,3.07,0,0,0-.41.22,1.32,1.32,0,0,0-.19.14,1.79,1.79,0,0,0-.2.17h0a2.39,2.39,0,0,0-.56,2.58Zm-.86-4.8a2.31,2.31,0,0,0,1.1,1.23,0,0,0,0,0,0,0,2.89,2.89,0,0,1,.3-.19l.07-.05c.12-.05.24-.12.37-.17s.32-.1.47-.15a.15.15,0,0,0,.08,0,2.38,2.38,0,0,1,.47-.05H617a2.88,2.88,0,0,1,1,.12h0c0-.05.08-.08.12-.14a.23.23,0,0,1,.05-.07,1.91,1.91,0,0,0,.22-.41,0,0,0,0,0,0,0,2.46,2.46,0,0,0,.15-.46h0a2.58,2.58,0,0,0,.05-.51v0a1.8,1.8,0,0,0-.05-.42.6.6,0,0,0,0-.17,1,1,0,0,0-.08-.24,2.47,2.47,0,0,0-.19-.37.66.66,0,0,0-.07-.12,2.94,2.94,0,0,0-.2-.24.34.34,0,0,0-.07-.08,2.54,2.54,0,0,0-.71-.49,2,2,0,0,0-.34-.12l-.12,0a1.5,1.5,0,0,0-.29,0,2.06,2.06,0,0,0-1.49.34l-.07.05a2.37,2.37,0,0,0-.9,2.84Zm-.42-4.95a2.4,2.4,0,0,0,1,1.17h0a2.76,2.76,0,0,1,.39-.19,1.07,1.07,0,0,1,.3-.1l.08,0,.24-.05h.08a1,1,0,0,1,.24,0l.07,0h.32l.24,0,.08,0a.86.86,0,0,1,.22,0l.1,0,.19.05.14.05.05,0a1,1,0,0,1,.12-.14l.08-.1a2.3,2.3,0,0,0,.61-1.4l0-.14v-.12c0-.08,0-.15,0-.24a.28.28,0,0,1,0-.12l-.05-.2A1.17,1.17,0,0,0,618,17a.59.59,0,0,0-.07-.19c0-.08-.08-.17-.12-.25a1.94,1.94,0,0,0-.17-.22,1.46,1.46,0,0,0-.12-.17l-.15-.15-.17-.15a.59.59,0,0,0-.13-.08,2.7,2.7,0,0,0-.3-.17,2.86,2.86,0,0,0-.34-.13l-.12,0a2.48,2.48,0,0,0-.32-.05l-.17,0-.29,0a.69.69,0,0,0-.19,0,2.52,2.52,0,0,0-.47.14,2.37,2.37,0,0,0-1.33,3.09Zm0-5.14a2.41,2.41,0,0,0,1,1.15h0l.44-.14.08,0a3.87,3.87,0,0,1,1-.07h0a4.23,4.23,0,0,1,.49.08l0,0a2.57,2.57,0,0,1,.24-.78.82.82,0,0,0,.05-.12,1.49,1.49,0,0,1,.17-.27c0-.05.05-.08.07-.13a3.55,3.55,0,0,1,.24-.3,1.74,1.74,0,0,0,.17-.17.78.78,0,0,0,.12-.12,2.47,2.47,0,0,1,.22-.17s0,0,0,0l.24-.17a3.54,3.54,0,0,0-.1-.52,2.29,2.29,0,0,0-.22-.41,1.44,1.44,0,0,0-.12-.17.89.89,0,0,0-.17-.19.9.9,0,0,0-.19-.17l-.15-.13c-.07-.05-.15-.08-.24-.14a2.35,2.35,0,0,0-2-.13,2.39,2.39,0,0,0-1.34,3.09ZM619,7.75a2.37,2.37,0,0,0-1.49,2,0,0,0,0,1,0,0,3.15,3.15,0,0,1,.78.64l.05.05c.1.14.19.25.27.39l.05.08a3.48,3.48,0,0,1,.22.44s0,.05,0,.12.08.24.12.37h0l.37-.07s.05,0,.07,0a4,4,0,0,1,.9,0h0a3.31,3.31,0,0,1,.44.12v-.05a2,2,0,0,1,0-.32V11.5l.05-.35h0a3.34,3.34,0,0,1,1.2-1.93A2.38,2.38,0,0,0,619,7.75Zm6.27-3.53a5.24,5.24,0,0,0-6.12-2.67,5.24,5.24,0,0,0,6.12,2.67Z"/></g><g id="_Группа_11" data-name="&lt;Группа&gt;"><path id="_Составной_контур_10" data-name="&lt;Составной контур&gt;" class="cls-1" d="M568.94.67l-.4-.42L554.16,14.61,555,17.5a.85.85,0,0,1-.59.83l-.91.29-.28.85a1.79,1.79,0,0,1-1.13,1.19,3.57,3.57,0,0,1-1-.57,2.62,2.62,0,0,0-1.58-.64l-.19,0-5.89,5.87.42.41A17.75,17.75,0,0,0,568.94.67ZM550.45,21.06c.7.45,1.36.89,2,.7a2.92,2.92,0,0,0,1.9-1.93l.1-.29.37-.12a2,2,0,0,0,1.35-2.12l-.7-2.34,10-10a10.87,10.87,0,0,1,3.31,7.6,12.8,12.8,0,0,1-3.91,9.2,12.82,12.82,0,0,1-9.21,3.92,10.87,10.87,0,0,1-7.6-3.31l1.68-1.68c.19.1.5.29.69.42Zm17.26,3.49a16.52,16.52,0,0,1-22.64.78l2.21-2.21a12.08,12.08,0,0,0,8.36,3.66h.26a14.06,14.06,0,0,0,9.78-4.25,13.93,13.93,0,0,0,4.25-10A12.16,12.16,0,0,0,566.3,4.1l2.2-2.21a16.52,16.52,0,0,1-.78,22.65Z"/><path id="_Контур_57" data-name="&lt;Контур&gt;" class="cls-1" d="M547.69,10.79a.87.87,0,0,1-.86.86.86.86,0,0,1,0-1.73.87.87,0,0,1,.86.86Z"/><path id="_Контур_58" data-name="&lt;Контур&gt;" class="cls-1" d="M554.55,23.38a.86.86,0,1,1-.86-.85.86.86,0,0,1,.86.85Z"/><path id="_Контур_59" data-name="&lt;Контур&gt;" class="cls-1" d="M560,15.72a.86.86,0,1,1-.85-.85.85.85,0,0,1,.85.85Z"/><path id="_Контур_60" data-name="&lt;Контур&gt;" class="cls-1" d="M562.81,12.9a.86.86,0,0,1-.86.86.86.86,0,1,1,0-1.73.87.87,0,0,1,.86.86Z"/><path id="_Контур_61" data-name="&lt;Контур&gt;" class="cls-1" d="M561.19,22.62a.86.86,0,1,1-.85-.86.85.85,0,0,1,.85.86Z"/><path id="_Контур_62" data-name="&lt;Контур&gt;" class="cls-1" d="M564,19.78a.87.87,0,0,1-.86.86.86.86,0,0,1,0-1.73.87.87,0,0,1,.86.86Z"/><path id="_Контур_63" data-name="&lt;Контур&gt;" class="cls-1" d="M566.86,16.94a.86.86,0,1,1-.85-.85.85.85,0,0,1,.85.85Z"/><path id="_Контур_64" data-name="&lt;Контур&gt;" class="cls-1" d="M565.64,10.06a.86.86,0,1,1-.85-.85.85.85,0,0,1,.85.85Z"/><path id="_Контур_65" data-name="&lt;Контур&gt;" class="cls-1" d="M558,21.8a.86.86,0,1,1-.86-.85.86.86,0,0,1,.86.85Z"/><path id="_Контур_66" data-name="&lt;Контур&gt;" class="cls-1" d="M560.85,18.8A.86.86,0,1,1,560,18a.85.85,0,0,1,.85.85Z"/><path id="_Контур_67" data-name="&lt;Контур&gt;" class="cls-1" d="M563.72,15.94a.86.86,0,0,1-1.73,0,.86.86,0,0,1,1.73,0Z"/><path id="_Контур_68" data-name="&lt;Контур&gt;" class="cls-1" d="M549.4,16.52a.86.86,0,1,1-.85-.86.86.86,0,0,1,.85.86Z"/><path id="_Контур_69" data-name="&lt;Контур&gt;" class="cls-1" d="M552.84,11.93a.86.86,0,1,1-.86-.85.87.87,0,0,1,.86.85Z"/><path id="_Контур_70" data-name="&lt;Контур&gt;" class="cls-1" d="M566.46,13.29a.86.86,0,0,1-.86.86.86.86,0,1,1,0-1.71.85.85,0,0,1,.86.85Z"/></g><g id="_Группа_12" data-name="&lt;Группа&gt;"><path id="_Составной_контур_11" data-name="&lt;Составной контур&gt;" class="cls-1" d="M754.9,3.83A9.56,9.56,0,0,1,759.56,0l.36.9c-3.82,1.5-6,5.19-4.9,8.31a3.51,3.51,0,0,1,.86,1,3.33,3.33,0,0,1,3.67,4.93,3.24,3.24,0,0,1,2.16,2,3.36,3.36,0,0,1-1.88,4.34,3.47,3.47,0,0,1-2.11.1,3.35,3.35,0,0,1-2.06,3.6,3.4,3.4,0,0,1-2.87-.2,3.36,3.36,0,0,1-2.1,3.19,3.48,3.48,0,0,1-1.66.2,3.33,3.33,0,0,1-6.32.37,3.34,3.34,0,0,1,.42-3.21,3.35,3.35,0,0,1-1.28-1.57,3.3,3.3,0,0,1,.68-3.51A3.46,3.46,0,0,1,741.42,19a3.36,3.36,0,0,1,1-3.82,3.26,3.26,0,0,1-1-1.32,3.32,3.32,0,0,1,3.9-4.46,3.33,3.33,0,0,1,6.39-.64h0a3.24,3.24,0,0,1,2.15-.1,6.55,6.55,0,0,1,.37-3.5,6.19,6.19,0,0,1-7.45-3.68L746.64,1l.44-.17a6.2,6.2,0,0,1,7.82,3Zm-3.21,6v0l-.1.07a1.07,1.07,0,0,0-.2.15l-.15.15c0,.05-.08.08-.12.13l-.12.17-.1.15-.1.2-.05.15c0,.07-.05.14-.08.2s-.05.24-.07.35V12s0,.07,0,.12a2.53,2.53,0,0,0,.07.35s0,0,0,0a2.87,2.87,0,0,1,.56.56.34.34,0,0,1,.07.1,1,1,0,0,1,.17.25l.05.08a2.49,2.49,0,0,1,.17.37h0a3,3,0,0,0,.76.3h.05a2.36,2.36,0,0,0,1,0l.05,0,.24-.08a2.38,2.38,0,1,0-1.76-4.43,4,4,0,0,0-.39.19Zm-4.92,3.77-.15.22-.05.07-.1.2-.05.1a1,1,0,0,0-.07.2.32.32,0,0,0,0,.14l-.05.19s0,.08,0,.14v.05a0,0,0,0,1,0,0,3.15,3.15,0,0,1,.78.64s0,0,0,.05a2.08,2.08,0,0,1,.29.39l.05.08a3.71,3.71,0,0,1,.22.44,2.89,2.89,0,0,1,.15.51l0,0,.42-.22.37-.12.14,0a1,1,0,0,1,.24,0,.47.47,0,0,1,.15,0,1.28,1.28,0,0,1,.25,0l.12,0,.37,0h0a.13.13,0,0,1,0-.08,2.33,2.33,0,0,1,.12-.37.38.38,0,0,1,.05-.08,2.63,2.63,0,0,1,.19-.37s0,0,0-.05a3,3,0,0,1,.27-.37s0,0,0,0a2.26,2.26,0,0,1,.36-.34h0a2,2,0,0,0-.15-.64,1.68,1.68,0,0,0-.2-.39.34.34,0,0,0-.07-.1,1.24,1.24,0,0,0-.19-.24l-.08-.1a2.35,2.35,0,0,0-.32-.25v0l-.34-.17a2.85,2.85,0,0,0-.34-.14l-.12,0a3.37,3.37,0,0,0-.41-.07h-.07a2.08,2.08,0,0,0-.46,0h0a2.27,2.27,0,0,0-.46.12l-.15.07a2.56,2.56,0,0,0-.79.61,0,0,0,0,1,0,0Zm.66,6.89a3.05,3.05,0,0,1,.2.24l.05.08.17.25a.13.13,0,0,0,0,.07,3.22,3.22,0,0,1,.17.35,2.26,2.26,0,0,1,.12.41l.07,0,.3-.1.2-.05.1,0a1.32,1.32,0,0,1,.27,0s0,0,.05,0h.27l0,0,.29,0h0l.27.05h0l.25.07.07,0a1.29,1.29,0,0,1,.24.08.06.06,0,0,1,.05,0,2.4,2.4,0,0,0,.41-.32,4.16,4.16,0,0,1,.08-.44l0,0a3.33,3.33,0,0,1,.36-.83s0,0,0,0a1.81,1.81,0,0,1,.25-.37v0a3.4,3.4,0,0,0,0-.41s0,0,0-.05a1.84,1.84,0,0,0-.12-.41,1.73,1.73,0,0,0-.2-.39s0,0,0-.05a2.52,2.52,0,0,0-.27-.32l-.05-.05a2.29,2.29,0,0,0-.3-.27s0,0-.05,0a3,3,0,0,0-.32-.17l-.07,0a1.13,1.13,0,0,0-.34-.1l-.19-.05a1.29,1.29,0,0,0-.25,0,.57.57,0,0,0-.17,0,1.67,1.67,0,0,0-.29,0,.33.33,0,0,0-.13,0,1.41,1.41,0,0,0-.44.12,2.13,2.13,0,0,0-.39.2.94.94,0,0,0-.15.12,2,2,0,0,0-.22.17,3.31,3.31,0,0,1-.73,1.69,1.83,1.83,0,0,0,0,.3c.1.08.19.17.29.27s0,0,0,.05Zm5.76-1.55.42-.14.1,0a3.39,3.39,0,0,1,.41-.07h0a2.06,2.06,0,0,1,.46,0h.05a3.33,3.33,0,0,1,.41.05h0a2,2,0,0,0,.19-.32v-.27a.42.42,0,0,1,0-.13c0-.07,0-.12,0-.19a.4.4,0,0,1,0-.14.5.5,0,0,1,0-.17.49.49,0,0,1,0-.15l.05-.15s0-.07,0-.08a2.45,2.45,0,0,0-.29-.88A1,1,0,0,0,755,16l-.07-.1a3.08,3.08,0,0,0-.22-.24l-.05-.05a2.89,2.89,0,0,0-.73-.44l-.05,0-.25-.07-.12,0a1.66,1.66,0,0,1-.29,0,1,1,0,0,1-.22,0h-.19a.57.57,0,0,1-.17,0,.82.82,0,0,1-.2,0h0a1,1,0,0,0-.2.07,2,2,0,0,0-.42.22l-.08.05a2.33,2.33,0,0,0-.88,1.18s0,0,0,.05a.29.29,0,0,0,0,.12l.27.13.27.17h0a3.31,3.31,0,0,1,.71.66h0a1.2,1.2,0,0,1,.17.24l0,0,.14.24s0,0,0,.05.08.2.14.3.1.3.14.44,0,.05,0,.07,0,0,0,0l.42-.2ZM758.5,15a2.36,2.36,0,0,0,.39-2.42,2.39,2.39,0,0,0-2.67-1.47s0,.05,0,.07a3.61,3.61,0,0,1,.05.44s0,0,0,0a3.29,3.29,0,0,1,0,.42v.1a3.07,3.07,0,0,1-.07.42s0,0,0,.05a2.34,2.34,0,0,1-.12.37.24.24,0,0,1,0,.1,4,4,0,0,1-.19.39s0,0,0,.05a2.09,2.09,0,0,1-.2.32l-.07.07a2.62,2.62,0,0,1-.29.32l-.05.05c-.1.1-.2.17-.3.25l-.05,0a3.49,3.49,0,0,1,.71.59s.05.05.07.07l.25.34a.23.23,0,0,0,.05.07l.05.08a3.49,3.49,0,0,0,.41.08l0,0a2.52,2.52,0,0,1,.41-.3l.07,0a4,4,0,0,1,.47-.24,2.35,2.35,0,0,1,.49-.15l.08,0a2.58,2.58,0,0,1,.51-.05s0,0,0,0Zm2.31,2.47a2.35,2.35,0,0,0-2.15-1.5,1.2,1.2,0,0,0-.42,0h-.05a1.68,1.68,0,0,0-.47.14,1.43,1.43,0,0,0-.42.22,0,0,0,0,0,0,0,1.68,1.68,0,0,0-.34.27,2.24,2.24,0,0,0-.64,1.13.19.19,0,0,1,0,.08l-.05.39v.07a2.42,2.42,0,0,0,.17.9l.08.19,0,0,.15.12s.07.05.08.08a1.29,1.29,0,0,1,.15.15s0,.05.07.07.08.12.14.17a.23.23,0,0,0,.05.07,1.36,1.36,0,0,0,.14.2v0a2.38,2.38,0,0,0,3.53-2.86Zm-5.51,6.79a2.39,2.39,0,0,0,1.33-3.09,2.59,2.59,0,0,0-.19-.37.34.34,0,0,0-.07-.1,3.4,3.4,0,0,0-.22-.29l-.08-.07a1.11,1.11,0,0,0-.3-.25v0a2.61,2.61,0,0,0-.74-.32l-.19-.05-.27,0h-.15l-.3,0a.37.37,0,0,1-.14,0,2.2,2.2,0,0,0-.44.14,4.2,4.2,0,0,0-.39.19l-.05.05a1.87,1.87,0,0,0-.29.22l-.1.1a1.18,1.18,0,0,0-.14.17,1.15,1.15,0,0,0-.14.17,1,1,0,0,0-.1.19,1.58,1.58,0,0,0-.17.39c0,.07-.05.12-.07.19s0,.15,0,.22a2.52,2.52,0,0,0,.14,1.22,2.38,2.38,0,0,0,3.09,1.33Zm-6.15,3.14a2.39,2.39,0,0,0,2.52-3.24,2.33,2.33,0,0,0-1.2-1.27,2.86,2.86,0,0,0-.34-.13l-.12,0a1.67,1.67,0,0,0-.41-.05.1.1,0,0,0-.07,0,2.06,2.06,0,0,0-.46,0h0a2.5,2.5,0,0,0-.47.13,1.28,1.28,0,0,0-.3.15,3.07,3.07,0,0,1-.17.78l-.05.15a1.36,1.36,0,0,1-.1.24l-.1.2-.12.2-.1.15,0,0L748,25l.08.1a1.8,1.8,0,0,1,.25.25l.07.07c.08.12.17.24.25.37a.37.37,0,0,1,.05.08,2.36,2.36,0,0,1,.2.42,2.89,2.89,0,0,1,.15.51s0,.05,0,.08.05.34.07.51v0Zm-5.56,1a2.38,2.38,0,0,0,4.59-.74v-.2a.85.85,0,0,0,0-.2,1.38,1.38,0,0,0,0-.24.31.31,0,0,1,0-.14,2.39,2.39,0,0,0-.44-.84l-.05-.07-.2-.2-.12-.1a1.31,1.31,0,0,0-.19-.14,1.07,1.07,0,0,0-.24-.14l-.14-.07c-.05,0-.12,0-.19-.07l-.27-.07-.19,0-.25,0a1.29,1.29,0,0,0-.25,0,.82.82,0,0,0-.2,0,3.38,3.38,0,0,0-.44.12,3.07,3.07,0,0,0-.41.22,1.32,1.32,0,0,0-.19.14,1.79,1.79,0,0,0-.2.17h0a2.39,2.39,0,0,0-.56,2.58Zm-.86-4.8a2.31,2.31,0,0,0,1.1,1.23,0,0,0,0,0,0,0,2.89,2.89,0,0,1,.3-.19l.07-.05c.12-.05.24-.12.37-.17s.32-.1.47-.15a.15.15,0,0,0,.08,0,2.38,2.38,0,0,1,.47-.05h.07a2.88,2.88,0,0,1,1,.12h0c0-.05.08-.08.12-.14a.23.23,0,0,1,.05-.07,1.91,1.91,0,0,0,.22-.41,0,0,0,0,0,0,0,2.46,2.46,0,0,0,.15-.46h0a2.58,2.58,0,0,0,.05-.51v0a1.8,1.8,0,0,0-.05-.42.6.6,0,0,0,0-.17,1,1,0,0,0-.08-.24,2.47,2.47,0,0,0-.19-.37.66.66,0,0,0-.07-.12,2.94,2.94,0,0,0-.2-.24.34.34,0,0,0-.07-.08,2.54,2.54,0,0,0-.71-.49,2,2,0,0,0-.34-.12l-.12,0a1.5,1.5,0,0,0-.29,0,2.06,2.06,0,0,0-1.49.34l-.07.05a2.37,2.37,0,0,0-.9,2.84Zm-.42-4.95a2.4,2.4,0,0,0,1,1.17h0a2.76,2.76,0,0,1,.39-.19,1.07,1.07,0,0,1,.3-.1l.08,0,.24-.05h.08a1,1,0,0,1,.24,0l.07,0h.32l.24,0,.08,0a.86.86,0,0,1,.22,0l.1,0,.19.05.14.05.05,0a1,1,0,0,1,.12-.14l.08-.1a2.3,2.3,0,0,0,.61-1.4l0-.14v-.12c0-.08,0-.15,0-.24a.28.28,0,0,1,0-.12l-.05-.2a1.17,1.17,0,0,0-.05-.14.59.59,0,0,0-.07-.19c0-.08-.08-.17-.12-.25a1.94,1.94,0,0,0-.17-.22,1.46,1.46,0,0,0-.12-.17l-.15-.15-.17-.15a.59.59,0,0,0-.13-.08,2.7,2.7,0,0,0-.3-.17,2.86,2.86,0,0,0-.34-.13l-.12,0a2.48,2.48,0,0,0-.32-.05l-.17,0-.29,0a.69.69,0,0,0-.19,0,2.52,2.52,0,0,0-.47.14,2.37,2.37,0,0,0-1.33,3.09Zm0-5.14a2.41,2.41,0,0,0,1,1.15h0l.44-.14.08,0a3.87,3.87,0,0,1,1-.07h0a4.23,4.23,0,0,1,.49.08l0,0a2.57,2.57,0,0,1,.24-.78.82.82,0,0,0,.05-.12,1.49,1.49,0,0,1,.17-.27c0-.05.05-.08.07-.13a3.55,3.55,0,0,1,.24-.3,1.74,1.74,0,0,0,.17-.17.78.78,0,0,0,.12-.12,2.47,2.47,0,0,1,.22-.17s0,0,0,0l.24-.17a3.54,3.54,0,0,0-.1-.52,2.29,2.29,0,0,0-.22-.41,1.44,1.44,0,0,0-.12-.17.89.89,0,0,0-.17-.19.9.9,0,0,0-.19-.17l-.15-.13c-.07-.05-.15-.08-.24-.14a2.35,2.35,0,0,0-2-.13,2.39,2.39,0,0,0-1.34,3.09Zm5.42-5.73a2.37,2.37,0,0,0-1.49,2,0,0,0,0,1,0,0,3.15,3.15,0,0,1,.78.64l.05.05c.1.14.19.25.27.39l.05.08a3.48,3.48,0,0,1,.22.44s0,.05,0,.12.08.24.12.37h0l.37-.07s.05,0,.07,0a4,4,0,0,1,.9,0h0a3.31,3.31,0,0,1,.44.12v-.05a2,2,0,0,1,0-.32V11.5l.05-.35h0a3.34,3.34,0,0,1,1.2-1.93,2.38,2.38,0,0,0-3.14-1.47ZM754,4.22a5.24,5.24,0,0,0-6.12-2.67A5.24,5.24,0,0,0,754,4.22Z"/></g><g id="_Группа_13" data-name="&lt;Группа&gt;"><path id="_Составной_контур_12" data-name="&lt;Составной контур&gt;" class="cls-1" d="M697.66.67l-.4-.42L682.89,14.61l.86,2.88a.85.85,0,0,1-.59.83l-.91.29-.28.85a1.79,1.79,0,0,1-1.13,1.19,3.57,3.57,0,0,1-1-.57,2.62,2.62,0,0,0-1.58-.64l-.19,0-5.89,5.87.42.41A17.75,17.75,0,0,0,697.66.67ZM679.18,21.06c.7.45,1.36.89,2,.7a2.92,2.92,0,0,0,1.9-1.93l.1-.29.37-.12a2,2,0,0,0,1.35-2.12l-.7-2.34,10-10a10.87,10.87,0,0,1,3.31,7.6,12.8,12.8,0,0,1-3.91,9.2,12.82,12.82,0,0,1-9.21,3.92,10.87,10.87,0,0,1-7.6-3.31l1.68-1.68c.19.1.5.29.69.42Zm17.26,3.49a16.52,16.52,0,0,1-22.64.78L676,23.1a12.08,12.08,0,0,0,8.36,3.66h.26a14.06,14.06,0,0,0,9.78-4.25,13.93,13.93,0,0,0,4.25-10A12.16,12.16,0,0,0,695,4.1l2.2-2.21a16.52,16.52,0,0,1-.78,22.65Z"/><path id="_Контур_71" data-name="&lt;Контур&gt;" class="cls-1" d="M676.42,10.79a.87.87,0,0,1-.86.86.86.86,0,0,1,0-1.73.87.87,0,0,1,.86.86Z"/><path id="_Контур_72" data-name="&lt;Контур&gt;" class="cls-1" d="M683.28,23.38a.86.86,0,1,1-.86-.85.86.86,0,0,1,.86.85Z"/><path id="_Контур_73" data-name="&lt;Контур&gt;" class="cls-1" d="M688.7,15.72a.86.86,0,1,1-.85-.85.85.85,0,0,1,.85.85Z"/><path id="_Контур_74" data-name="&lt;Контур&gt;" class="cls-1" d="M691.54,12.9a.86.86,0,0,1-.86.86.86.86,0,1,1,0-1.73.87.87,0,0,1,.86.86Z"/><path id="_Контур_75" data-name="&lt;Контур&gt;" class="cls-1" d="M689.92,22.62a.86.86,0,1,1-.85-.86.85.85,0,0,1,.85.86Z"/><path id="_Контур_76" data-name="&lt;Контур&gt;" class="cls-1" d="M692.76,19.78a.87.87,0,0,1-.86.86.86.86,0,0,1,0-1.73.87.87,0,0,1,.86.86Z"/><path id="_Контур_77" data-name="&lt;Контур&gt;" class="cls-1" d="M695.58,16.94a.86.86,0,1,1-.85-.85.85.85,0,0,1,.85.85Z"/><path id="_Контур_78" data-name="&lt;Контур&gt;" class="cls-1" d="M694.37,10.06a.86.86,0,1,1-.85-.85.85.85,0,0,1,.85.85Z"/><path id="_Контур_79" data-name="&lt;Контур&gt;" class="cls-1" d="M686.68,21.8a.86.86,0,1,1-.86-.85.86.86,0,0,1,.86.85Z"/><path id="_Контур_80" data-name="&lt;Контур&gt;" class="cls-1" d="M689.58,18.8a.86.86,0,1,1-.85-.85.85.85,0,0,1,.85.85Z"/><path id="_Контур_81" data-name="&lt;Контур&gt;" class="cls-1" d="M692.45,15.94a.86.86,0,0,1-1.73,0,.86.86,0,0,1,1.73,0Z"/><path id="_Контур_82" data-name="&lt;Контур&gt;" class="cls-1" d="M678.13,16.52a.86.86,0,1,1-.85-.86.86.86,0,0,1,.85.86Z"/><path id="_Контур_83" data-name="&lt;Контур&gt;" class="cls-1" d="M681.57,11.93a.86.86,0,1,1-.86-.85.87.87,0,0,1,.86.85Z"/><path id="_Контур_84" data-name="&lt;Контур&gt;" class="cls-1" d="M695.19,13.29a.86.86,0,0,1-.86.86.86.86,0,1,1,0-1.71.85.85,0,0,1,.86.85Z"/></g><g id="_Группа_14" data-name="&lt;Группа&gt;"><path id="_Составной_контур_13" data-name="&lt;Составной контур&gt;" class="cls-1" d="M883.63,3.83A9.56,9.56,0,0,1,888.29,0l.36.9c-3.82,1.5-6,5.19-4.9,8.31a3.51,3.51,0,0,1,.86,1,3.33,3.33,0,0,1,3.67,4.93,3.24,3.24,0,0,1,2.16,2,3.36,3.36,0,0,1-1.88,4.34,3.47,3.47,0,0,1-2.11.1,3.35,3.35,0,0,1-2.06,3.6,3.4,3.4,0,0,1-2.87-.2,3.36,3.36,0,0,1-2.1,3.19,3.48,3.48,0,0,1-1.66.2,3.33,3.33,0,0,1-6.32.37,3.34,3.34,0,0,1,.42-3.21,3.35,3.35,0,0,1-1.28-1.57,3.3,3.3,0,0,1,.68-3.51A3.46,3.46,0,0,1,870.15,19a3.36,3.36,0,0,1,1-3.82,3.26,3.26,0,0,1-1-1.32,3.32,3.32,0,0,1,3.9-4.46,3.33,3.33,0,0,1,6.39-.64h0a3.24,3.24,0,0,1,2.15-.1,6.55,6.55,0,0,1,.37-3.5,6.19,6.19,0,0,1-7.45-3.68L875.37,1l.44-.17a6.2,6.2,0,0,1,7.82,3Zm-3.21,6v0l-.1.07a1.07,1.07,0,0,0-.2.15l-.15.15c0,.05-.08.08-.12.13l-.12.17-.1.15-.1.2-.05.15c0,.07-.05.14-.08.2s-.05.24-.07.35V12s0,.07,0,.12a2.53,2.53,0,0,0,.07.35s0,0,0,0a2.87,2.87,0,0,1,.56.56.34.34,0,0,1,.07.1,1,1,0,0,1,.17.25l.05.08a2.49,2.49,0,0,1,.17.37h0a3,3,0,0,0,.76.3h.05a2.36,2.36,0,0,0,1,0l.05,0,.24-.08a2.38,2.38,0,1,0-1.76-4.43,4,4,0,0,0-.39.19Zm-4.92,3.77-.15.22-.05.07-.1.2-.05.1a1,1,0,0,0-.07.2.32.32,0,0,0,0,.14l-.05.19s0,.08,0,.14v.05a0,0,0,0,1,0,0,3.15,3.15,0,0,1,.78.64s0,0,0,.05a2.08,2.08,0,0,1,.29.39l.05.08a3.71,3.71,0,0,1,.22.44,2.89,2.89,0,0,1,.15.51l0,0,.42-.22.37-.12.14,0a1,1,0,0,1,.24,0,.47.47,0,0,1,.15,0,1.28,1.28,0,0,1,.25,0l.12,0,.37,0h0a.13.13,0,0,1,0-.08,2.33,2.33,0,0,1,.12-.37.38.38,0,0,1,.05-.08,2.63,2.63,0,0,1,.19-.37s0,0,0-.05a3,3,0,0,1,.27-.37s0,0,0,0a2.26,2.26,0,0,1,.36-.34h0a2,2,0,0,0-.15-.64,1.68,1.68,0,0,0-.2-.39.34.34,0,0,0-.07-.1,1.24,1.24,0,0,0-.19-.24l-.08-.1a2.35,2.35,0,0,0-.32-.25v0l-.34-.17a2.85,2.85,0,0,0-.34-.14l-.12,0a3.37,3.37,0,0,0-.41-.07h-.07a2.08,2.08,0,0,0-.46,0h0a2.27,2.27,0,0,0-.46.12l-.15.07a2.56,2.56,0,0,0-.79.61,0,0,0,0,1,0,0Zm.66,6.89a3.05,3.05,0,0,1,.2.24l.05.08.17.25a.13.13,0,0,0,0,.07,3.22,3.22,0,0,1,.17.35,2.26,2.26,0,0,1,.12.41l.07,0,.3-.1.2-.05.1,0a1.32,1.32,0,0,1,.27,0s0,0,.05,0h.27l0,0,.29,0h0l.27.05h0l.25.07.07,0a1.29,1.29,0,0,1,.24.08.06.06,0,0,1,.05,0,2.4,2.4,0,0,0,.41-.32,4.16,4.16,0,0,1,.08-.44l0,0a3.33,3.33,0,0,1,.36-.83s0,0,0,0a1.81,1.81,0,0,1,.25-.37v0a3.4,3.4,0,0,0,0-.41s0,0,0-.05a1.84,1.84,0,0,0-.12-.41,1.73,1.73,0,0,0-.2-.39s0,0,0-.05a2.52,2.52,0,0,0-.27-.32l-.05-.05a2.29,2.29,0,0,0-.3-.27s0,0-.05,0a3,3,0,0,0-.32-.17l-.07,0a1.13,1.13,0,0,0-.34-.1l-.19-.05a1.29,1.29,0,0,0-.25,0,.57.57,0,0,0-.17,0,1.67,1.67,0,0,0-.29,0,.33.33,0,0,0-.13,0,1.41,1.41,0,0,0-.44.12,2.13,2.13,0,0,0-.39.2.94.94,0,0,0-.15.12,2,2,0,0,0-.22.17,3.31,3.31,0,0,1-.73,1.69,1.83,1.83,0,0,0,0,.3c.1.08.19.17.29.27s0,0,0,.05Zm5.76-1.55.42-.14.1,0a3.39,3.39,0,0,1,.41-.07h0a2.06,2.06,0,0,1,.46,0h.05a3.33,3.33,0,0,1,.41.05h0a2,2,0,0,0,.19-.32v-.27a.42.42,0,0,1,0-.13c0-.07,0-.12,0-.19a.4.4,0,0,1,0-.14.5.5,0,0,1,0-.17.49.49,0,0,1,0-.15l.05-.15s0-.07,0-.08a2.45,2.45,0,0,0-.29-.88,1,1,0,0,0-.17-.25l-.07-.1a3.08,3.08,0,0,0-.22-.24l-.05-.05a2.89,2.89,0,0,0-.73-.44l-.05,0-.25-.07-.12,0a1.66,1.66,0,0,1-.29,0,1,1,0,0,1-.22,0h-.19a.57.57,0,0,1-.17,0,.82.82,0,0,1-.2,0h0a1,1,0,0,0-.2.07,2,2,0,0,0-.42.22l-.08.05a2.33,2.33,0,0,0-.88,1.18s0,0,0,.05a.29.29,0,0,0,0,.12l.27.13.27.17h0a3.31,3.31,0,0,1,.71.66h0A1.2,1.2,0,0,1,881,18l0,0,.14.24s0,0,0,.05.08.2.14.3.1.3.14.44,0,.05,0,.07,0,0,0,0l.42-.2ZM887.23,15a2.36,2.36,0,0,0,.39-2.42,2.39,2.39,0,0,0-2.67-1.47s0,.05,0,.07a3.61,3.61,0,0,1,.05.44s0,0,0,0a3.29,3.29,0,0,1,0,.42v.1a3.07,3.07,0,0,1-.07.42s0,0,0,.05a2.34,2.34,0,0,1-.12.37.24.24,0,0,1,0,.1,4,4,0,0,1-.19.39s0,0,0,.05a2.09,2.09,0,0,1-.2.32l-.07.07a2.62,2.62,0,0,1-.29.32l-.05.05c-.1.1-.2.17-.3.25l-.05,0a3.49,3.49,0,0,1,.71.59s.05.05.07.07l.25.34a.23.23,0,0,0,.05.07l.05.08a3.49,3.49,0,0,0,.41.08l0,0a2.52,2.52,0,0,1,.41-.3l.07,0a4,4,0,0,1,.47-.24,2.35,2.35,0,0,1,.49-.15l.08,0a2.58,2.58,0,0,1,.51-.05s0,0,0,0Zm2.31,2.47a2.35,2.35,0,0,0-2.15-1.5,1.2,1.2,0,0,0-.42,0h-.05a1.68,1.68,0,0,0-.47.14,1.43,1.43,0,0,0-.42.22,0,0,0,0,0,0,0,1.68,1.68,0,0,0-.34.27,2.24,2.24,0,0,0-.64,1.13.19.19,0,0,1,0,.08l-.05.39v.07a2.42,2.42,0,0,0,.17.9l.08.19,0,0,.15.12s.07.05.08.08a1.29,1.29,0,0,1,.15.15s0,.05.07.07.08.12.14.17a.23.23,0,0,0,.05.07,1.36,1.36,0,0,0,.14.2v0a2.38,2.38,0,0,0,3.53-2.86ZM884,24.24a2.39,2.39,0,0,0,1.33-3.09,2.59,2.59,0,0,0-.19-.37.34.34,0,0,0-.07-.1,3.4,3.4,0,0,0-.22-.29l-.08-.07a1.11,1.11,0,0,0-.3-.25v0a2.61,2.61,0,0,0-.74-.32l-.19-.05-.27,0h-.15l-.3,0a.37.37,0,0,1-.14,0,2.2,2.2,0,0,0-.44.14,4.2,4.2,0,0,0-.39.19l-.05.05a1.87,1.87,0,0,0-.29.22l-.1.1a1.18,1.18,0,0,0-.14.17,1.15,1.15,0,0,0-.14.17,1,1,0,0,0-.1.19,1.58,1.58,0,0,0-.17.39c0,.07-.05.12-.07.19s0,.15,0,.22a2.52,2.52,0,0,0,.14,1.22A2.38,2.38,0,0,0,884,24.24Zm-6.15,3.14a2.39,2.39,0,0,0,2.52-3.24,2.33,2.33,0,0,0-1.2-1.27,2.86,2.86,0,0,0-.34-.13l-.12,0a1.67,1.67,0,0,0-.41-.05.1.1,0,0,0-.07,0,2.06,2.06,0,0,0-.46,0h0a2.5,2.5,0,0,0-.47.13,1.28,1.28,0,0,0-.3.15,3.07,3.07,0,0,1-.17.78l-.05.15a1.36,1.36,0,0,1-.1.24l-.1.2-.12.2-.1.15,0,0,.34.25.08.1a1.8,1.8,0,0,1,.25.25l.07.07c.08.12.17.24.25.37a.37.37,0,0,1,.05.08,2.36,2.36,0,0,1,.2.42,2.89,2.89,0,0,1,.15.51s0,.05,0,.08.05.34.07.51v0Zm-5.56,1a2.38,2.38,0,0,0,4.59-.74v-.2a.85.85,0,0,0,0-.2,1.38,1.38,0,0,0,0-.24.31.31,0,0,1,0-.14,2.39,2.39,0,0,0-.44-.84l-.05-.07-.2-.2-.12-.1a1.31,1.31,0,0,0-.19-.14,1.07,1.07,0,0,0-.24-.14l-.14-.07c-.05,0-.12,0-.19-.07l-.27-.07-.19,0-.25,0a1.29,1.29,0,0,0-.25,0,.82.82,0,0,0-.2,0,3.38,3.38,0,0,0-.44.12,3.07,3.07,0,0,0-.41.22,1.32,1.32,0,0,0-.19.14,1.79,1.79,0,0,0-.2.17h0a2.39,2.39,0,0,0-.56,2.58Zm-.86-4.8a2.31,2.31,0,0,0,1.1,1.23,0,0,0,0,0,0,0,2.89,2.89,0,0,1,.3-.19l.07-.05c.12-.05.24-.12.37-.17s.32-.1.47-.15a.15.15,0,0,0,.08,0,2.38,2.38,0,0,1,.47-.05h.07a2.88,2.88,0,0,1,1,.12h0c0-.05.08-.08.12-.14a.23.23,0,0,1,.05-.07,1.91,1.91,0,0,0,.22-.41,0,0,0,0,0,0,0,2.46,2.46,0,0,0,.15-.46h0a2.58,2.58,0,0,0,.05-.51v0a1.8,1.8,0,0,0-.05-.42.6.6,0,0,0,0-.17,1,1,0,0,0-.08-.24,2.47,2.47,0,0,0-.19-.37.66.66,0,0,0-.07-.12,2.94,2.94,0,0,0-.2-.24.34.34,0,0,0-.07-.08,2.54,2.54,0,0,0-.71-.49,2,2,0,0,0-.34-.12l-.12,0a1.5,1.5,0,0,0-.29,0,2.06,2.06,0,0,0-1.49.34l-.07.05a2.37,2.37,0,0,0-.9,2.84ZM871,18.62a2.4,2.4,0,0,0,1,1.17h0a2.76,2.76,0,0,1,.39-.19,1.07,1.07,0,0,1,.3-.1l.08,0,.24-.05h.08a1,1,0,0,1,.24,0l.07,0h.32l.24,0,.08,0a.86.86,0,0,1,.22,0l.1,0,.19.05.14.05.05,0a1,1,0,0,1,.12-.14l.08-.1a2.3,2.3,0,0,0,.61-1.4l0-.14v-.12c0-.08,0-.15,0-.24a.28.28,0,0,1,0-.12l-.05-.2a1.17,1.17,0,0,0-.05-.14.59.59,0,0,0-.07-.19c0-.08-.08-.17-.12-.25a1.94,1.94,0,0,0-.17-.22,1.46,1.46,0,0,0-.12-.17l-.15-.15-.17-.15a.59.59,0,0,0-.13-.08,2.7,2.7,0,0,0-.3-.17,2.86,2.86,0,0,0-.34-.13l-.12,0a2.48,2.48,0,0,0-.32-.05l-.17,0-.29,0a.69.69,0,0,0-.19,0,2.52,2.52,0,0,0-.47.14A2.37,2.37,0,0,0,871,18.62Zm0-5.14a2.41,2.41,0,0,0,1,1.15h0l.44-.14.08,0a3.87,3.87,0,0,1,1-.07h0a4.23,4.23,0,0,1,.49.08l0,0a2.57,2.57,0,0,1,.24-.78.82.82,0,0,0,.05-.12,1.49,1.49,0,0,1,.17-.27c0-.05.05-.08.07-.13a3.55,3.55,0,0,1,.24-.3,1.74,1.74,0,0,0,.17-.17.78.78,0,0,0,.12-.12,2.47,2.47,0,0,1,.22-.17s0,0,0,0l.24-.17a3.54,3.54,0,0,0-.1-.52,2.29,2.29,0,0,0-.22-.41,1.44,1.44,0,0,0-.12-.17A.89.89,0,0,0,875,11a.9.9,0,0,0-.19-.17l-.15-.13c-.07-.05-.15-.08-.24-.14a2.35,2.35,0,0,0-2-.13,2.39,2.39,0,0,0-1.34,3.09Zm5.42-5.73a2.37,2.37,0,0,0-1.49,2,0,0,0,0,1,0,0,3.15,3.15,0,0,1,.78.64l.05.05c.1.14.19.25.27.39l.05.08a3.48,3.48,0,0,1,.22.44s0,.05,0,.12.08.24.12.37h0l.37-.07s.05,0,.07,0a4,4,0,0,1,.9,0h0a3.31,3.31,0,0,1,.44.12v-.05a2,2,0,0,1,0-.32V11.5l.05-.35h0a3.34,3.34,0,0,1,1.2-1.93,2.38,2.38,0,0,0-3.14-1.47Zm6.27-3.53a5.24,5.24,0,0,0-6.12-2.67,5.24,5.24,0,0,0,6.12,2.67Z"/></g><g id="_Группа_15" data-name="&lt;Группа&gt;"><path id="_Составной_контур_14" data-name="&lt;Составной контур&gt;" class="cls-1" d="M826.39.67,826,.25,811.62,14.61l.86,2.88a.85.85,0,0,1-.59.83l-.91.29-.28.85a1.79,1.79,0,0,1-1.13,1.19,3.57,3.57,0,0,1-1-.57,2.62,2.62,0,0,0-1.58-.64l-.19,0-5.89,5.87.42.41A17.75,17.75,0,0,0,826.39.67ZM807.91,21.06c.7.45,1.36.89,2,.7a2.92,2.92,0,0,0,1.9-1.93l.1-.29.37-.12a2,2,0,0,0,1.35-2.12l-.7-2.34,10-10a10.87,10.87,0,0,1,3.31,7.6,12.8,12.8,0,0,1-3.91,9.2,12.82,12.82,0,0,1-9.21,3.92,10.87,10.87,0,0,1-7.6-3.31l1.68-1.68c.19.1.5.29.69.42Zm17.26,3.49a16.52,16.52,0,0,1-22.64.78l2.21-2.21a12.08,12.08,0,0,0,8.36,3.66h.26a14.06,14.06,0,0,0,9.78-4.25,13.93,13.93,0,0,0,4.25-10,12.16,12.16,0,0,0-3.65-8.38L826,1.89a16.52,16.52,0,0,1-.78,22.65Z"/><path id="_Контур_85" data-name="&lt;Контур&gt;" class="cls-1" d="M805.14,10.79a.87.87,0,0,1-.86.86.86.86,0,0,1,0-1.73.87.87,0,0,1,.86.86Z"/><path id="_Контур_86" data-name="&lt;Контур&gt;" class="cls-1" d="M812,23.38a.86.86,0,1,1-.86-.85.86.86,0,0,1,.86.85Z"/><path id="_Контур_87" data-name="&lt;Контур&gt;" class="cls-1" d="M817.43,15.72a.86.86,0,1,1-.85-.85.85.85,0,0,1,.85.85Z"/><path id="_Контур_88" data-name="&lt;Контур&gt;" class="cls-1" d="M820.27,12.9a.86.86,0,0,1-.86.86.86.86,0,1,1,0-1.73.87.87,0,0,1,.86.86Z"/><path id="_Контур_89" data-name="&lt;Контур&gt;" class="cls-1" d="M818.65,22.62a.86.86,0,1,1-.85-.86.85.85,0,0,1,.85.86Z"/><path id="_Контур_90" data-name="&lt;Контур&gt;" class="cls-1" d="M821.49,19.78a.87.87,0,0,1-.86.86.86.86,0,0,1,0-1.73.87.87,0,0,1,.86.86Z"/><path id="_Контур_91" data-name="&lt;Контур&gt;" class="cls-1" d="M824.31,16.94a.86.86,0,1,1-.85-.85.85.85,0,0,1,.85.85Z"/><path id="_Контур_92" data-name="&lt;Контур&gt;" class="cls-1" d="M823.1,10.06a.86.86,0,1,1-.85-.85.85.85,0,0,1,.85.85Z"/><path id="_Контур_93" data-name="&lt;Контур&gt;" class="cls-1" d="M815.41,21.8a.86.86,0,1,1-.86-.85.86.86,0,0,1,.86.85Z"/><path id="_Контур_94" data-name="&lt;Контур&gt;" class="cls-1" d="M818.31,18.8a.86.86,0,1,1-.85-.85.85.85,0,0,1,.85.85Z"/><path id="_Контур_95" data-name="&lt;Контур&gt;" class="cls-1" d="M821.18,15.94a.86.86,0,0,1-1.73,0,.86.86,0,0,1,1.73,0Z"/><path id="_Контур_96" data-name="&lt;Контур&gt;" class="cls-1" d="M806.86,16.52a.86.86,0,1,1-.85-.86.86.86,0,0,1,.85.86Z"/><path id="_Контур_97" data-name="&lt;Контур&gt;" class="cls-1" d="M810.3,11.93a.86.86,0,1,1-.86-.85.87.87,0,0,1,.86.85Z"/><path id="_Контур_98" data-name="&lt;Контур&gt;" class="cls-1" d="M823.92,13.29a.86.86,0,0,1-.86.86.86.86,0,1,1,0-1.71.85.85,0,0,1,.86.85Z"/></g><g id="_Группа_16" data-name="&lt;Группа&gt;"><path id="_Составной_контур_15" data-name="&lt;Составной контур&gt;" class="cls-1" d="M955.12.67l-.4-.42L940.35,14.61l.86,2.88a.85.85,0,0,1-.59.83l-.91.29-.28.85a1.79,1.79,0,0,1-1.13,1.19,3.57,3.57,0,0,1-1-.57,2.62,2.62,0,0,0-1.58-.64l-.19,0-5.89,5.87.42.41A17.75,17.75,0,0,0,955.12.67ZM936.64,21.06c.7.45,1.36.89,2,.7a2.92,2.92,0,0,0,1.9-1.93l.1-.29.37-.12a2,2,0,0,0,1.35-2.12l-.7-2.34,10-10A10.87,10.87,0,0,1,955,12.5a12.8,12.8,0,0,1-3.91,9.2,12.82,12.82,0,0,1-9.21,3.92,10.87,10.87,0,0,1-7.6-3.31L936,20.63c.19.1.5.29.69.42Zm17.26,3.49a16.52,16.52,0,0,1-22.64.78l2.21-2.21a12.08,12.08,0,0,0,8.36,3.66h.26a14.06,14.06,0,0,0,9.78-4.25,13.93,13.93,0,0,0,4.25-10,12.16,12.16,0,0,0-3.65-8.38l2.2-2.21a16.52,16.52,0,0,1-.78,22.65Z"/><path id="_Контур_99" data-name="&lt;Контур&gt;" class="cls-1" d="M933.87,10.79a.87.87,0,0,1-.86.86.86.86,0,0,1,0-1.73.87.87,0,0,1,.86.86Z"/><path id="_Контур_100" data-name="&lt;Контур&gt;" class="cls-1" d="M940.74,23.38a.86.86,0,1,1-.86-.85.86.86,0,0,1,.86.85Z"/><path id="_Контур_101" data-name="&lt;Контур&gt;" class="cls-1" d="M946.16,15.72a.86.86,0,1,1-.85-.85.85.85,0,0,1,.85.85Z"/><path id="_Контур_102" data-name="&lt;Контур&gt;" class="cls-1" d="M949,12.9a.86.86,0,0,1-.86.86.86.86,0,1,1,0-1.73.87.87,0,0,1,.86.86Z"/><path id="_Контур_103" data-name="&lt;Контур&gt;" class="cls-1" d="M947.37,22.62a.86.86,0,1,1-.85-.86.85.85,0,0,1,.85.86Z"/><path id="_Контур_104" data-name="&lt;Контур&gt;" class="cls-1" d="M950.22,19.78a.87.87,0,0,1-.86.86.86.86,0,0,1,0-1.73.87.87,0,0,1,.86.86Z"/><path id="_Контур_105" data-name="&lt;Контур&gt;" class="cls-1" d="M953,16.94a.86.86,0,1,1-.85-.85.85.85,0,0,1,.85.85Z"/><path id="_Контур_106" data-name="&lt;Контур&gt;" class="cls-1" d="M951.83,10.06a.86.86,0,1,1-.85-.85.85.85,0,0,1,.85.85Z"/><path id="_Контур_107" data-name="&lt;Контур&gt;" class="cls-1" d="M944.14,21.8a.86.86,0,1,1-.86-.85.86.86,0,0,1,.86.85Z"/><path id="_Контур_108" data-name="&lt;Контур&gt;" class="cls-1" d="M947,18.8a.86.86,0,1,1-.85-.85.85.85,0,0,1,.85.85Z"/><path id="_Контур_109" data-name="&lt;Контур&gt;" class="cls-1" d="M949.91,15.94a.86.86,0,0,1-1.73,0,.86.86,0,0,1,1.73,0Z"/><path id="_Контур_110" data-name="&lt;Контур&gt;" class="cls-1" d="M935.59,16.52a.86.86,0,1,1-.85-.86.86.86,0,0,1,.85.86Z"/><path id="_Контур_111" data-name="&lt;Контур&gt;" class="cls-1" d="M939,11.93a.86.86,0,1,1-.86-.85.87.87,0,0,1,.86.85Z"/><path id="_Контур_112" data-name="&lt;Контур&gt;" class="cls-1" d="M952.65,13.29a.86.86,0,0,1-.86.86.86.86,0,1,1,0-1.71.85.85,0,0,1,.86.85Z"/></g></g><g id="_Группа_17" data-name="&lt;Группа&gt;"><g id="_Группа_18" data-name="&lt;Группа&gt;"><path id="_Составной_контур_16" data-name="&lt;Составной контур&gt;" class="cls-2" d="M75.55,8.72a5.89,5.89,0,0,1,2.18.4,5.67,5.67,0,0,0-1.58-3.29.41.41,0,0,1,0-.56.4.4,0,0,1,.58,0,6.35,6.35,0,0,1,1.83,3.87,6.44,6.44,0,0,1,2.27-.42A6.27,6.27,0,0,1,87.11,15a16.57,16.57,0,0,1-1.77,6.53c-1.31,2.68-2.91,4.16-4.51,4.16a6.43,6.43,0,0,1-2.64-.58,6.35,6.35,0,0,1-2.64.58c-1.6,0-3.2-1.48-4.51-4.16A16.55,16.55,0,0,1,69.27,15a6.29,6.29,0,0,1,6.28-6.28Zm0,16.13A5.27,5.27,0,0,0,78,24.27a.6.6,0,0,1,.19,0,.61.61,0,0,1,.19,0,5.26,5.26,0,0,0,2.45.58c2.87,0,5.47-6.69,5.47-9.85a5.47,5.47,0,0,0-5.47-5.47,5.53,5.53,0,0,0-2.45.58.4.4,0,0,1-.37,0,5.53,5.53,0,0,0-2.45-.58A5.48,5.48,0,0,0,70.09,15c0,3.16,2.6,9.85,5.47,9.85Z"/><path id="_Контур_113" data-name="&lt;Контур&gt;" class="cls-2" d="M83.93,16.41a.42.42,0,0,1,.52-.27.41.41,0,0,1,.27.5c-.23.79-.46,1.54-.71,2.22a.4.4,0,0,1-.37.27l-.15,0a.43.43,0,0,1-.25-.52q.37-1,.69-2.18Z"/><path id="_Контур_114" data-name="&lt;Контур&gt;" class="cls-2" d="M81.58,10.88a3.68,3.68,0,0,1,3.49,3.85.42.42,0,1,1-.83,0,2.87,2.87,0,0,0-2.66-3,.41.41,0,0,1-.4-.42.41.41,0,0,1,.4-.4Z"/></g><g id="_Группа_19" data-name="&lt;Группа&gt;"><path id="_Составной_контур_17" data-name="&lt;Составной контур&gt;" class="cls-2" d="M9.25,5.92l-1-2.1-1.7,1.6A4.71,4.71,0,0,0,5.09,9.83a8.82,8.82,0,0,0-2.74,2.06A9.1,9.1,0,1,0,9.66,9a4.85,4.85,0,0,0-.42-3Zm5.38,5.88a8.32,8.32,0,1,1-11.75.56,8.5,8.5,0,0,1,2.39-1.83v0c.06.15.12.31.21.48l.71,1.43a4.86,4.86,0,0,0-.94.52.36.36,0,0,0-.06.5.37.37,0,0,0,.52.06l.35-.23v.54a.37.37,0,0,0,.4.33.35.35,0,0,0,.25-.1.48.48,0,0,0,.08-.29,3.38,3.38,0,0,1,0-.79,1.53,1.53,0,0,1,.81,0A.34.34,0,0,0,8,12.94a.42.42,0,0,0,.08-.12.35.35,0,0,0-.21-.46,1.22,1.22,0,0,0-.46-.1l.79-.73c.08-.1.19-.19.27-.29s.06-.06.08-.08l.06-.06a5.22,5.22,0,0,0,.81-1.43,8.21,8.21,0,0,1,5.18,2.14ZM8.89,9l0,.19a3.93,3.93,0,0,1-.75,1.39s0,0,0,.06a2.68,2.68,0,0,1-.33.35l-.67.64A9.23,9.23,0,0,1,8,7.29.39.39,0,0,0,8.1,7a.36.36,0,0,0-.19-.31.35.35,0,0,0-.37,0,8.48,8.48,0,0,0-1.21,4.41l-.21-.42a3.65,3.65,0,0,1-.27-.77l-.06-.19A4,4,0,0,1,7,5.94L8,5l.6,1.23A4,4,0,0,1,8.89,9Z"/><path id="_Контур_115" data-name="&lt;Контур&gt;" class="cls-2" d="M10.45,11.55a.72.72,0,0,1,.06,1,.75.75,0,0,1-1,0,.72.72,0,0,1,1-1.06Z"/><path id="_Контур_116" data-name="&lt;Контур&gt;" class="cls-2" d="M14.74,12.84a.72.72,0,1,1-1,0,.72.72,0,0,1,1,0Z"/><path id="_Контур_117" data-name="&lt;Контур&gt;" class="cls-2" d="M13,11.43a.72.72,0,1,1-1,1.06.72.72,0,0,1,1-1.06Z"/><path id="_Контур_118" data-name="&lt;Контур&gt;" class="cls-2" d="M12.62,14a.71.71,0,0,1,.06,1,.72.72,0,0,1-1,0,.71.71,0,0,1-.06-1,.72.72,0,0,1,1,0Z"/><path id="_Контур_119" data-name="&lt;Контур&gt;" class="cls-2" d="M14.74,15.44a.71.71,0,0,1,.06,1,.75.75,0,0,1-1,0,.72.72,0,0,1,1-1.06Z"/><path id="_Контур_120" data-name="&lt;Контур&gt;" class="cls-2" d="M3.94,14.42a.72.72,0,0,1-1,1.06.71.71,0,0,1-.06-1,.75.75,0,0,1,1,0Z"/><path id="_Контур_121" data-name="&lt;Контур&gt;" class="cls-2" d="M3,17a.72.72,0,0,1,.06,1,.75.75,0,0,1-1,0A.72.72,0,0,1,3,17Z"/></g><g id="_Группа_20" data-name="&lt;Группа&gt;"><path id="_Составной_контур_18" data-name="&lt;Составной контур&gt;" class="cls-2" d="M204.28,8.72a5.89,5.89,0,0,1,2.18.4,5.67,5.67,0,0,0-1.58-3.29.41.41,0,0,1,0-.56.4.4,0,0,1,.58,0,6.35,6.35,0,0,1,1.83,3.87,6.44,6.44,0,0,1,2.27-.42A6.27,6.27,0,0,1,215.84,15a16.57,16.57,0,0,1-1.77,6.53c-1.31,2.68-2.91,4.16-4.51,4.16a6.43,6.43,0,0,1-2.64-.58,6.35,6.35,0,0,1-2.64.58c-1.6,0-3.2-1.48-4.51-4.16A16.55,16.55,0,0,1,198,15a6.29,6.29,0,0,1,6.28-6.28Zm0,16.13a5.27,5.27,0,0,0,2.45-.58.6.6,0,0,1,.19,0,.61.61,0,0,1,.19,0,5.26,5.26,0,0,0,2.45.58c2.87,0,5.47-6.69,5.47-9.85a5.47,5.47,0,0,0-5.47-5.47,5.53,5.53,0,0,0-2.45.58.4.4,0,0,1-.37,0,5.53,5.53,0,0,0-2.45-.58A5.48,5.48,0,0,0,198.81,15c0,3.16,2.6,9.85,5.47,9.85Z"/><path id="_Контур_122" data-name="&lt;Контур&gt;" class="cls-2" d="M212.66,16.41a.42.42,0,0,1,.52-.27.41.41,0,0,1,.27.5c-.23.79-.46,1.54-.71,2.22a.4.4,0,0,1-.37.27l-.15,0a.43.43,0,0,1-.25-.52q.37-1,.69-2.18Z"/><path id="_Контур_123" data-name="&lt;Контур&gt;" class="cls-2" d="M210.31,10.88a3.68,3.68,0,0,1,3.49,3.85.42.42,0,1,1-.83,0,2.87,2.87,0,0,0-2.66-3,.41.41,0,0,1-.4-.42.41.41,0,0,1,.4-.4Z"/></g><g id="_Группа_21" data-name="&lt;Группа&gt;"><path id="_Составной_контур_19" data-name="&lt;Составной контур&gt;" class="cls-2" d="M138,5.92l-1-2.1-1.7,1.6a4.71,4.71,0,0,0-1.43,4.41,8.82,8.82,0,0,0-2.74,2.06A9.1,9.1,0,1,0,138.39,9a4.85,4.85,0,0,0-.42-3Zm5.38,5.88a8.32,8.32,0,1,1-11.75.56A8.5,8.5,0,0,1,134,10.53v0c.06.15.12.31.21.48l.71,1.43A4.86,4.86,0,0,0,134,13a.36.36,0,0,0-.06.5.37.37,0,0,0,.52.06l.35-.23v.54a.37.37,0,0,0,.4.33.35.35,0,0,0,.25-.1.48.48,0,0,0,.08-.29,3.38,3.38,0,0,1,0-.79,1.53,1.53,0,0,1,.81,0,.34.34,0,0,0,.39-.08.42.42,0,0,0,.08-.12.35.35,0,0,0-.21-.46,1.22,1.22,0,0,0-.46-.1l.79-.73c.08-.1.19-.19.27-.29s.06-.06.08-.08l.06-.06a5.22,5.22,0,0,0,.81-1.43,8.21,8.21,0,0,1,5.18,2.14ZM137.62,9l0,.19a3.93,3.93,0,0,1-.75,1.39s0,0,0,.06a2.68,2.68,0,0,1-.33.35l-.67.64a9.23,9.23,0,0,1,.94-4.34.39.39,0,0,0,.1-.29.36.36,0,0,0-.19-.31.35.35,0,0,0-.37,0,8.48,8.48,0,0,0-1.21,4.41l-.21-.42a3.65,3.65,0,0,1-.27-.77l-.06-.19a4,4,0,0,1,1.23-3.8l1-.94.6,1.23A4,4,0,0,1,137.62,9Z"/><path id="_Контур_124" data-name="&lt;Контур&gt;" class="cls-2" d="M139.18,11.55a.72.72,0,0,1,.06,1,.75.75,0,0,1-1,0,.72.72,0,0,1,1-1.06Z"/><path id="_Контур_125" data-name="&lt;Контур&gt;" class="cls-2" d="M143.46,12.84a.72.72,0,1,1-1,0,.72.72,0,0,1,1,0Z"/><path id="_Контур_126" data-name="&lt;Контур&gt;" class="cls-2" d="M141.74,11.43a.72.72,0,1,1-1,1.06.72.72,0,0,1,1-1.06Z"/><path id="_Контур_127" data-name="&lt;Контур&gt;" class="cls-2" d="M141.34,14a.71.71,0,0,1,.06,1,.72.72,0,0,1-1,0,.71.71,0,0,1-.06-1,.72.72,0,0,1,1,0Z"/><path id="_Контур_128" data-name="&lt;Контур&gt;" class="cls-2" d="M143.46,15.44a.71.71,0,0,1,.06,1,.75.75,0,0,1-1,0,.72.72,0,0,1,1-1.06Z"/><path id="_Контур_129" data-name="&lt;Контур&gt;" class="cls-2" d="M132.67,14.42a.72.72,0,0,1-1,1.06.71.71,0,0,1-.06-1,.75.75,0,0,1,1,0Z"/><path id="_Контур_130" data-name="&lt;Контур&gt;" class="cls-2" d="M131.76,17a.72.72,0,0,1,.06,1,.75.75,0,0,1-1,0,.72.72,0,0,1,1-1.06Z"/></g><g id="_Группа_22" data-name="&lt;Группа&gt;"><path id="_Составной_контур_20" data-name="&lt;Составной контур&gt;" class="cls-2" d="M333,8.72a5.89,5.89,0,0,1,2.18.4,5.67,5.67,0,0,0-1.58-3.29.41.41,0,0,1,0-.56.4.4,0,0,1,.58,0A6.35,6.35,0,0,1,336,9.13a6.44,6.44,0,0,1,2.27-.42A6.27,6.27,0,0,1,344.57,15a16.57,16.57,0,0,1-1.77,6.53c-1.31,2.68-2.91,4.16-4.51,4.16a6.43,6.43,0,0,1-2.64-.58,6.35,6.35,0,0,1-2.64.58c-1.6,0-3.2-1.48-4.51-4.16A16.55,16.55,0,0,1,326.73,15,6.29,6.29,0,0,1,333,8.72Zm0,16.13a5.27,5.27,0,0,0,2.45-.58.6.6,0,0,1,.19,0,.61.61,0,0,1,.19,0,5.26,5.26,0,0,0,2.45.58c2.87,0,5.47-6.69,5.47-9.85a5.47,5.47,0,0,0-5.47-5.47,5.53,5.53,0,0,0-2.45.58.4.4,0,0,1-.37,0A5.53,5.53,0,0,0,333,9.53,5.48,5.48,0,0,0,327.54,15c0,3.16,2.6,9.85,5.47,9.85Z"/><path id="_Контур_131" data-name="&lt;Контур&gt;" class="cls-2" d="M341.39,16.41a.42.42,0,0,1,.52-.27.41.41,0,0,1,.27.5c-.23.79-.46,1.54-.71,2.22a.4.4,0,0,1-.37.27l-.15,0a.43.43,0,0,1-.25-.52q.37-1,.69-2.18Z"/><path id="_Контур_132" data-name="&lt;Контур&gt;" class="cls-2" d="M339,10.88a3.68,3.68,0,0,1,3.49,3.85.42.42,0,1,1-.83,0,2.87,2.87,0,0,0-2.66-3,.41.41,0,0,1-.4-.42.41.41,0,0,1,.4-.4Z"/></g><g id="_Группа_23" data-name="&lt;Группа&gt;"><path id="_Составной_контур_21" data-name="&lt;Составной контур&gt;" class="cls-2" d="M266.7,5.92l-1-2.1L264,5.42a4.71,4.71,0,0,0-1.43,4.41,8.82,8.82,0,0,0-2.74,2.06A9.1,9.1,0,1,0,267.12,9a4.85,4.85,0,0,0-.42-3Zm5.38,5.88a8.32,8.32,0,1,1-11.75.56,8.5,8.5,0,0,1,2.39-1.83v0c.06.15.12.31.21.48l.71,1.43a4.86,4.86,0,0,0-.94.52.36.36,0,0,0-.06.5.37.37,0,0,0,.52.06l.35-.23v.54a.37.37,0,0,0,.4.33.35.35,0,0,0,.25-.1.48.48,0,0,0,.08-.29,3.38,3.38,0,0,1,0-.79,1.53,1.53,0,0,1,.81,0,.34.34,0,0,0,.39-.08.42.42,0,0,0,.08-.12.35.35,0,0,0-.21-.46,1.22,1.22,0,0,0-.46-.1l.79-.73c.08-.1.19-.19.27-.29s.06-.06.08-.08l.06-.06a5.22,5.22,0,0,0,.81-1.43,8.21,8.21,0,0,1,5.18,2.14ZM266.35,9l0,.19a3.93,3.93,0,0,1-.75,1.39s0,0,0,.06a2.68,2.68,0,0,1-.33.35l-.67.64a9.23,9.23,0,0,1,.94-4.34.39.39,0,0,0,.1-.29.36.36,0,0,0-.19-.31.35.35,0,0,0-.37,0,8.48,8.48,0,0,0-1.21,4.41l-.21-.42a3.65,3.65,0,0,1-.27-.77l-.06-.19a4,4,0,0,1,1.23-3.8l1-.94.6,1.23A4,4,0,0,1,266.35,9Z"/><path id="_Контур_133" data-name="&lt;Контур&gt;" class="cls-2" d="M267.91,11.55a.72.72,0,0,1,.06,1,.75.75,0,0,1-1,0,.72.72,0,0,1,1-1.06Z"/><path id="_Контур_134" data-name="&lt;Контур&gt;" class="cls-2" d="M272.19,12.84a.72.72,0,1,1-1,0,.72.72,0,0,1,1,0Z"/><path id="_Контур_135" data-name="&lt;Контур&gt;" class="cls-2" d="M270.47,11.43a.72.72,0,1,1-1,1.06.72.72,0,0,1,1-1.06Z"/><path id="_Контур_136" data-name="&lt;Контур&gt;" class="cls-2" d="M270.07,14a.71.71,0,0,1,.06,1,.72.72,0,0,1-1,0,.71.71,0,0,1-.06-1,.72.72,0,0,1,1,0Z"/><path id="_Контур_137" data-name="&lt;Контур&gt;" class="cls-2" d="M272.19,15.44a.71.71,0,0,1,.06,1,.75.75,0,0,1-1,0,.72.72,0,0,1,1-1.06Z"/><path id="_Контур_138" data-name="&lt;Контур&gt;" class="cls-2" d="M261.4,14.42a.72.72,0,0,1-1,1.06.71.71,0,0,1-.06-1,.75.75,0,0,1,1,0Z"/><path id="_Контур_139" data-name="&lt;Контур&gt;" class="cls-2" d="M260.49,17a.72.72,0,0,1,.06,1,.75.75,0,0,1-1,0,.72.72,0,0,1,1-1.06Z"/></g><g id="_Группа_24" data-name="&lt;Группа&gt;"><path id="_Составной_контур_22" data-name="&lt;Составной контур&gt;" class="cls-2" d="M461.74,8.72a5.89,5.89,0,0,1,2.18.4,5.67,5.67,0,0,0-1.58-3.29.41.41,0,0,1,0-.56.4.4,0,0,1,.58,0,6.35,6.35,0,0,1,1.83,3.87A6.44,6.44,0,0,1,467,8.72,6.27,6.27,0,0,1,473.3,15a16.57,16.57,0,0,1-1.77,6.53c-1.31,2.68-2.91,4.16-4.51,4.16a6.43,6.43,0,0,1-2.64-.58,6.35,6.35,0,0,1-2.64.58c-1.6,0-3.2-1.48-4.51-4.16A16.55,16.55,0,0,1,455.46,15a6.29,6.29,0,0,1,6.28-6.28Zm0,16.13a5.27,5.27,0,0,0,2.45-.58.6.6,0,0,1,.19,0,.61.61,0,0,1,.19,0,5.26,5.26,0,0,0,2.45.58c2.87,0,5.47-6.69,5.47-9.85A5.47,5.47,0,0,0,467,9.53a5.53,5.53,0,0,0-2.45.58.4.4,0,0,1-.37,0,5.53,5.53,0,0,0-2.45-.58A5.48,5.48,0,0,0,456.27,15c0,3.16,2.6,9.85,5.47,9.85Z"/><path id="_Контур_140" data-name="&lt;Контур&gt;" class="cls-2" d="M470.12,16.41a.42.42,0,0,1,.52-.27.41.41,0,0,1,.27.5c-.23.79-.46,1.54-.71,2.22a.4.4,0,0,1-.37.27l-.15,0a.43.43,0,0,1-.25-.52q.37-1,.69-2.18Z"/><path id="_Контур_141" data-name="&lt;Контур&gt;" class="cls-2" d="M467.77,10.88a3.68,3.68,0,0,1,3.49,3.85.42.42,0,1,1-.83,0,2.87,2.87,0,0,0-2.66-3,.41.41,0,0,1-.4-.42.41.41,0,0,1,.4-.4Z"/></g><g id="_Группа_25" data-name="&lt;Группа&gt;"><path id="_Составной_контур_23" data-name="&lt;Составной контур&gt;" class="cls-2" d="M395.43,5.92l-1-2.1-1.7,1.6a4.71,4.71,0,0,0-1.43,4.41,8.82,8.82,0,0,0-2.74,2.06A9.1,9.1,0,1,0,395.85,9a4.85,4.85,0,0,0-.42-3Zm5.38,5.88a8.32,8.32,0,1,1-11.75.56,8.5,8.5,0,0,1,2.39-1.83v0c.06.15.12.31.21.48l.71,1.43a4.86,4.86,0,0,0-.94.52.36.36,0,0,0-.06.5.37.37,0,0,0,.52.06l.35-.23v.54a.37.37,0,0,0,.4.33.35.35,0,0,0,.25-.1.48.48,0,0,0,.08-.29,3.38,3.38,0,0,1,0-.79,1.53,1.53,0,0,1,.81,0,.34.34,0,0,0,.39-.08.42.42,0,0,0,.08-.12.35.35,0,0,0-.21-.46,1.22,1.22,0,0,0-.46-.1l.79-.73c.08-.1.19-.19.27-.29s.06-.06.08-.08l.06-.06a5.22,5.22,0,0,0,.81-1.43,8.21,8.21,0,0,1,5.18,2.14ZM395.08,9l0,.19a3.93,3.93,0,0,1-.75,1.39s0,0,0,.06a2.68,2.68,0,0,1-.33.35l-.67.64a9.23,9.23,0,0,1,.94-4.34.39.39,0,0,0,.1-.29.36.36,0,0,0-.19-.31.35.35,0,0,0-.37,0,8.48,8.48,0,0,0-1.21,4.41l-.21-.42a3.65,3.65,0,0,1-.27-.77L392,9.74a4,4,0,0,1,1.23-3.8l1-.94.6,1.23A4,4,0,0,1,395.08,9Z"/><path id="_Контур_142" data-name="&lt;Контур&gt;" class="cls-2" d="M396.64,11.55a.72.72,0,0,1,.06,1,.75.75,0,0,1-1,0,.72.72,0,0,1,1-1.06Z"/><path id="_Контур_143" data-name="&lt;Контур&gt;" class="cls-2" d="M400.92,12.84a.72.72,0,1,1-1,0,.72.72,0,0,1,1,0Z"/><path id="_Контур_144" data-name="&lt;Контур&gt;" class="cls-2" d="M399.2,11.43a.72.72,0,1,1-1,1.06.72.72,0,0,1,1-1.06Z"/><path id="_Контур_145" data-name="&lt;Контур&gt;" class="cls-2" d="M398.8,14a.71.71,0,0,1,.06,1,.72.72,0,0,1-1,0,.71.71,0,0,1-.06-1,.72.72,0,0,1,1,0Z"/><path id="_Контур_146" data-name="&lt;Контур&gt;" class="cls-2" d="M400.92,15.44a.71.71,0,0,1,.06,1,.75.75,0,0,1-1,0,.72.72,0,0,1,1-1.06Z"/><path id="_Контур_147" data-name="&lt;Контур&gt;" class="cls-2" d="M390.13,14.42a.72.72,0,0,1-1,1.06.71.71,0,0,1-.06-1,.75.75,0,0,1,1,0Z"/><path id="_Контур_148" data-name="&lt;Контур&gt;" class="cls-2" d="M389.22,17a.72.72,0,0,1,.06,1,.75.75,0,0,1-1,0,.72.72,0,0,1,1-1.06Z"/></g><g id="_Группа_26" data-name="&lt;Группа&gt;"><path id="_Составной_контур_24" data-name="&lt;Составной контур&gt;" class="cls-2" d="M590.47,8.72a5.89,5.89,0,0,1,2.18.4,5.67,5.67,0,0,0-1.58-3.29.41.41,0,0,1,0-.56.4.4,0,0,1,.58,0,6.35,6.35,0,0,1,1.83,3.87,6.44,6.44,0,0,1,2.27-.42A6.27,6.27,0,0,1,602,15a16.57,16.57,0,0,1-1.77,6.53c-1.31,2.68-2.91,4.16-4.51,4.16a6.43,6.43,0,0,1-2.64-.58,6.35,6.35,0,0,1-2.64.58c-1.6,0-3.2-1.48-4.51-4.16A16.55,16.55,0,0,1,584.19,15a6.29,6.29,0,0,1,6.28-6.28Zm0,16.13a5.27,5.27,0,0,0,2.45-.58.6.6,0,0,1,.19,0,.61.61,0,0,1,.19,0,5.26,5.26,0,0,0,2.45.58c2.87,0,5.47-6.69,5.47-9.85a5.47,5.47,0,0,0-5.47-5.47,5.53,5.53,0,0,0-2.45.58.4.4,0,0,1-.37,0,5.53,5.53,0,0,0-2.45-.58A5.48,5.48,0,0,0,585,15c0,3.16,2.6,9.85,5.47,9.85Z"/><path id="_Контур_149" data-name="&lt;Контур&gt;" class="cls-2" d="M598.85,16.41a.42.42,0,0,1,.52-.27.41.41,0,0,1,.27.5c-.23.79-.46,1.54-.71,2.22a.4.4,0,0,1-.37.27l-.15,0a.43.43,0,0,1-.25-.52q.37-1,.69-2.18Z"/><path id="_Контур_150" data-name="&lt;Контур&gt;" class="cls-2" d="M596.5,10.88A3.68,3.68,0,0,1,600,14.72a.42.42,0,1,1-.83,0,2.87,2.87,0,0,0-2.66-3,.41.41,0,0,1-.4-.42.41.41,0,0,1,.4-.4Z"/></g><g id="_Группа_27" data-name="&lt;Группа&gt;"><path id="_Составной_контур_25" data-name="&lt;Составной контур&gt;" class="cls-2" d="M524.16,5.92l-1-2.1-1.7,1.6A4.71,4.71,0,0,0,520,9.83a8.82,8.82,0,0,0-2.74,2.06A9.1,9.1,0,1,0,524.58,9a4.85,4.85,0,0,0-.42-3Zm5.38,5.88a8.32,8.32,0,1,1-11.75.56,8.5,8.5,0,0,1,2.39-1.83v0c.06.15.12.31.21.48l.71,1.43a4.86,4.86,0,0,0-.94.52.36.36,0,0,0-.06.5.37.37,0,0,0,.52.06l.35-.23v.54a.37.37,0,0,0,.4.33.35.35,0,0,0,.25-.1.48.48,0,0,0,.08-.29,3.38,3.38,0,0,1,0-.79,1.53,1.53,0,0,1,.81,0,.34.34,0,0,0,.39-.08.42.42,0,0,0,.08-.12.35.35,0,0,0-.21-.46,1.22,1.22,0,0,0-.46-.1l.79-.73c.08-.1.19-.19.27-.29s.06-.06.08-.08l.06-.06a5.22,5.22,0,0,0,.81-1.43,8.21,8.21,0,0,1,5.18,2.14ZM523.81,9l0,.19a3.93,3.93,0,0,1-.75,1.39s0,0,0,.06a2.68,2.68,0,0,1-.33.35l-.67.64a9.23,9.23,0,0,1,.94-4.34A.39.39,0,0,0,523,7a.36.36,0,0,0-.19-.31.35.35,0,0,0-.37,0,8.48,8.48,0,0,0-1.21,4.41L521,10.7a3.65,3.65,0,0,1-.27-.77l-.06-.19a4,4,0,0,1,1.23-3.8l1-.94.6,1.23A4,4,0,0,1,523.81,9Z"/><path id="_Контур_151" data-name="&lt;Контур&gt;" class="cls-2" d="M525.37,11.55a.72.72,0,0,1,.06,1,.75.75,0,0,1-1,0,.72.72,0,0,1,1-1.06Z"/><path id="_Контур_152" data-name="&lt;Контур&gt;" class="cls-2" d="M529.65,12.84a.72.72,0,1,1-1,0,.72.72,0,0,1,1,0Z"/><path id="_Контур_153" data-name="&lt;Контур&gt;" class="cls-2" d="M527.93,11.43a.72.72,0,1,1-1,1.06.72.72,0,0,1,1-1.06Z"/><path id="_Контур_154" data-name="&lt;Контур&gt;" class="cls-2" d="M527.53,14a.71.71,0,0,1,.06,1,.72.72,0,0,1-1,0,.71.71,0,0,1-.06-1,.72.72,0,0,1,1,0Z"/><path id="_Контур_155" data-name="&lt;Контур&gt;" class="cls-2" d="M529.65,15.44a.71.71,0,0,1,.06,1,.75.75,0,0,1-1,0,.72.72,0,0,1,1-1.06Z"/><path id="_Контур_156" data-name="&lt;Контур&gt;" class="cls-2" d="M518.86,14.42a.72.72,0,0,1-1,1.06.71.71,0,0,1-.06-1,.75.75,0,0,1,1,0Z"/><path id="_Контур_157" data-name="&lt;Контур&gt;" class="cls-2" d="M517.95,17a.72.72,0,0,1,.06,1,.75.75,0,0,1-1,0,.72.72,0,0,1,1-1.06Z"/></g><g id="_Группа_28" data-name="&lt;Группа&gt;"><path id="_Составной_контур_26" data-name="&lt;Составной контур&gt;" class="cls-2" d="M719.2,8.72a5.89,5.89,0,0,1,2.18.4,5.67,5.67,0,0,0-1.58-3.29.41.41,0,0,1,0-.56.4.4,0,0,1,.58,0,6.35,6.35,0,0,1,1.83,3.87,6.44,6.44,0,0,1,2.27-.42A6.27,6.27,0,0,1,730.76,15,16.57,16.57,0,0,1,729,21.52c-1.31,2.68-2.91,4.16-4.51,4.16a6.43,6.43,0,0,1-2.64-.58,6.35,6.35,0,0,1-2.64.58c-1.6,0-3.2-1.48-4.51-4.16A16.55,16.55,0,0,1,712.92,15a6.29,6.29,0,0,1,6.28-6.28Zm0,16.13a5.27,5.27,0,0,0,2.45-.58.6.6,0,0,1,.19,0,.61.61,0,0,1,.19,0,5.26,5.26,0,0,0,2.45.58c2.87,0,5.47-6.69,5.47-9.85a5.47,5.47,0,0,0-5.47-5.47,5.53,5.53,0,0,0-2.45.58.4.4,0,0,1-.37,0,5.53,5.53,0,0,0-2.45-.58A5.48,5.48,0,0,0,713.73,15c0,3.16,2.6,9.85,5.47,9.85Z"/><path id="_Контур_158" data-name="&lt;Контур&gt;" class="cls-2" d="M727.58,16.41a.42.42,0,0,1,.52-.27.41.41,0,0,1,.27.5c-.23.79-.46,1.54-.71,2.22a.4.4,0,0,1-.37.27l-.15,0a.43.43,0,0,1-.25-.52q.37-1,.69-2.18Z"/><path id="_Контур_159" data-name="&lt;Контур&gt;" class="cls-2" d="M725.23,10.88a3.68,3.68,0,0,1,3.49,3.85.42.42,0,1,1-.83,0,2.87,2.87,0,0,0-2.66-3,.41.41,0,0,1-.4-.42.41.41,0,0,1,.4-.4Z"/></g><g id="_Группа_29" data-name="&lt;Группа&gt;"><path id="_Составной_контур_27" data-name="&lt;Составной контур&gt;" class="cls-2" d="M652.89,5.92l-1-2.1-1.7,1.6a4.71,4.71,0,0,0-1.43,4.41A8.82,8.82,0,0,0,646,11.88,9.1,9.1,0,1,0,653.31,9a4.85,4.85,0,0,0-.42-3Zm5.38,5.88a8.32,8.32,0,1,1-11.75.56,8.5,8.5,0,0,1,2.39-1.83v0c.06.15.12.31.21.48l.71,1.43a4.86,4.86,0,0,0-.94.52.36.36,0,0,0-.06.5.37.37,0,0,0,.52.06l.35-.23v.54a.37.37,0,0,0,.4.33.35.35,0,0,0,.25-.1.48.48,0,0,0,.08-.29,3.38,3.38,0,0,1,0-.79,1.53,1.53,0,0,1,.81,0,.34.34,0,0,0,.39-.08.42.42,0,0,0,.08-.12.35.35,0,0,0-.21-.46,1.22,1.22,0,0,0-.46-.1l.79-.73c.08-.1.19-.19.27-.29s.06-.06.08-.08l.06-.06a5.22,5.22,0,0,0,.81-1.43,8.21,8.21,0,0,1,5.18,2.14ZM652.54,9l0,.19a3.93,3.93,0,0,1-.75,1.39s0,0,0,.06a2.68,2.68,0,0,1-.33.35l-.67.64a9.23,9.23,0,0,1,.94-4.34.39.39,0,0,0,.1-.29.36.36,0,0,0-.19-.31.35.35,0,0,0-.37,0A8.48,8.48,0,0,0,650,11.12l-.21-.42a3.65,3.65,0,0,1-.27-.77l-.06-.19a4,4,0,0,1,1.23-3.8l1-.94.6,1.23A4,4,0,0,1,652.54,9Z"/><path id="_Контур_160" data-name="&lt;Контур&gt;" class="cls-2" d="M654.1,11.55a.72.72,0,0,1,.06,1,.75.75,0,0,1-1,0,.72.72,0,0,1,1-1.06Z"/><path id="_Контур_161" data-name="&lt;Контур&gt;" class="cls-2" d="M658.38,12.84a.72.72,0,1,1-1,0,.72.72,0,0,1,1,0Z"/><path id="_Контур_162" data-name="&lt;Контур&gt;" class="cls-2" d="M656.65,11.43a.72.72,0,1,1-1,1.06.72.72,0,0,1,1-1.06Z"/><path id="_Контур_163" data-name="&lt;Контур&gt;" class="cls-2" d="M656.26,14a.71.71,0,0,1,.06,1,.72.72,0,0,1-1,0,.71.71,0,0,1-.06-1,.72.72,0,0,1,1,0Z"/><path id="_Контур_164" data-name="&lt;Контур&gt;" class="cls-2" d="M658.38,15.44a.71.71,0,0,1,.06,1,.75.75,0,0,1-1,0,.72.72,0,0,1,1-1.06Z"/><path id="_Контур_165" data-name="&lt;Контур&gt;" class="cls-2" d="M647.59,14.42a.72.72,0,0,1-1,1.06.71.71,0,0,1-.06-1,.75.75,0,0,1,1,0Z"/><path id="_Контур_166" data-name="&lt;Контур&gt;" class="cls-2" d="M646.67,17a.72.72,0,0,1,.06,1,.75.75,0,0,1-1,0,.72.72,0,0,1,1-1.06Z"/></g><g id="_Группа_30" data-name="&lt;Группа&gt;"><path id="_Составной_контур_28" data-name="&lt;Составной контур&gt;" class="cls-2" d="M847.93,8.72a5.89,5.89,0,0,1,2.18.4,5.67,5.67,0,0,0-1.58-3.29.41.41,0,0,1,0-.56.4.4,0,0,1,.58,0,6.35,6.35,0,0,1,1.83,3.87,6.44,6.44,0,0,1,2.27-.42A6.27,6.27,0,0,1,859.49,15a16.57,16.57,0,0,1-1.77,6.53c-1.31,2.68-2.91,4.16-4.51,4.16a6.43,6.43,0,0,1-2.64-.58,6.35,6.35,0,0,1-2.64.58c-1.6,0-3.2-1.48-4.51-4.16A16.55,16.55,0,0,1,841.65,15a6.29,6.29,0,0,1,6.28-6.28Zm0,16.13a5.27,5.27,0,0,0,2.45-.58.6.6,0,0,1,.19,0,.61.61,0,0,1,.19,0,5.26,5.26,0,0,0,2.45.58c2.87,0,5.47-6.69,5.47-9.85a5.47,5.47,0,0,0-5.47-5.47,5.53,5.53,0,0,0-2.45.58.4.4,0,0,1-.37,0,5.53,5.53,0,0,0-2.45-.58A5.48,5.48,0,0,0,842.46,15c0,3.16,2.6,9.85,5.47,9.85Z"/><path id="_Контур_167" data-name="&lt;Контур&gt;" class="cls-2" d="M856.31,16.41a.42.42,0,0,1,.52-.27.41.41,0,0,1,.27.5c-.23.79-.46,1.54-.71,2.22a.4.4,0,0,1-.37.27l-.15,0a.43.43,0,0,1-.25-.52q.37-1,.69-2.18Z"/><path id="_Контур_168" data-name="&lt;Контур&gt;" class="cls-2" d="M854,10.88a3.68,3.68,0,0,1,3.49,3.85.42.42,0,1,1-.83,0,2.87,2.87,0,0,0-2.66-3,.41.41,0,0,1-.4-.42.41.41,0,0,1,.4-.4Z"/></g><g id="_Группа_31" data-name="&lt;Группа&gt;"><path id="_Составной_контур_29" data-name="&lt;Составной контур&gt;" class="cls-2" d="M781.62,5.92l-1-2.1-1.7,1.6a4.71,4.71,0,0,0-1.43,4.41,8.82,8.82,0,0,0-2.74,2.06A9.1,9.1,0,1,0,782,9a4.85,4.85,0,0,0-.42-3ZM787,11.8a8.32,8.32,0,1,1-11.75.56,8.5,8.5,0,0,1,2.39-1.83v0c.06.15.12.31.21.48l.71,1.43a4.86,4.86,0,0,0-.94.52.36.36,0,0,0-.06.5.37.37,0,0,0,.52.06l.35-.23v.54a.37.37,0,0,0,.4.33.35.35,0,0,0,.25-.1.48.48,0,0,0,.08-.29,3.38,3.38,0,0,1,0-.79,1.53,1.53,0,0,1,.81,0,.34.34,0,0,0,.39-.08.42.42,0,0,0,.08-.12.35.35,0,0,0-.21-.46,1.22,1.22,0,0,0-.46-.1l.79-.73c.08-.1.19-.19.27-.29s.06-.06.08-.08l.06-.06a5.22,5.22,0,0,0,.81-1.43A8.21,8.21,0,0,1,787,11.8ZM781.27,9l0,.19a3.93,3.93,0,0,1-.75,1.39s0,0,0,.06a2.68,2.68,0,0,1-.33.35l-.67.64a9.23,9.23,0,0,1,.94-4.34.39.39,0,0,0,.1-.29.36.36,0,0,0-.19-.31.35.35,0,0,0-.37,0,8.48,8.48,0,0,0-1.21,4.41l-.21-.42a3.65,3.65,0,0,1-.27-.77l-.06-.19a4,4,0,0,1,1.23-3.8l1-.94.6,1.23A4,4,0,0,1,781.27,9Z"/><path id="_Контур_169" data-name="&lt;Контур&gt;" class="cls-2" d="M782.83,11.55a.72.72,0,0,1,.06,1,.75.75,0,0,1-1,0,.72.72,0,0,1,1-1.06Z"/><path id="_Контур_170" data-name="&lt;Контур&gt;" class="cls-2" d="M787.11,12.84a.72.72,0,1,1-1,0,.72.72,0,0,1,1,0Z"/><path id="_Контур_171" data-name="&lt;Контур&gt;" class="cls-2" d="M785.38,11.43a.72.72,0,1,1-1,1.06.72.72,0,0,1,1-1.06Z"/><path id="_Контур_172" data-name="&lt;Контур&gt;" class="cls-2" d="M785,14a.71.71,0,0,1,.06,1,.72.72,0,0,1-1,0,.71.71,0,0,1-.06-1,.72.72,0,0,1,1,0Z"/><path id="_Контур_173" data-name="&lt;Контур&gt;" class="cls-2" d="M787.11,15.44a.71.71,0,0,1,.06,1,.75.75,0,0,1-1,0,.72.72,0,0,1,1-1.06Z"/><path id="_Контур_174" data-name="&lt;Контур&gt;" class="cls-2" d="M776.32,14.42a.72.72,0,0,1-1,1.06.71.71,0,0,1-.06-1,.75.75,0,0,1,1,0Z"/><path id="_Контур_175" data-name="&lt;Контур&gt;" class="cls-2" d="M775.4,17a.72.72,0,0,1,.06,1,.75.75,0,0,1-1,0,.72.72,0,0,1,1-1.06Z"/></g><g id="_Группа_32" data-name="&lt;Группа&gt;"><path id="_Составной_контур_30" data-name="&lt;Составной контур&gt;" class="cls-2" d="M910.35,5.92l-1-2.1-1.7,1.6a4.71,4.71,0,0,0-1.43,4.41,8.82,8.82,0,0,0-2.74,2.06A9.1,9.1,0,1,0,910.77,9a4.85,4.85,0,0,0-.42-3Zm5.38,5.88a8.32,8.32,0,1,1-11.75.56,8.5,8.5,0,0,1,2.39-1.83v0c.06.15.12.31.21.48l.71,1.43a4.86,4.86,0,0,0-.94.52.36.36,0,0,0-.06.5.37.37,0,0,0,.52.06l.35-.23v.54a.37.37,0,0,0,.4.33.35.35,0,0,0,.25-.1.48.48,0,0,0,.08-.29,3.38,3.38,0,0,1,0-.79,1.53,1.53,0,0,1,.81,0,.34.34,0,0,0,.39-.08.42.42,0,0,0,.08-.12.35.35,0,0,0-.21-.46,1.22,1.22,0,0,0-.46-.1l.79-.73c.08-.1.19-.19.27-.29s.06-.06.08-.08l.06-.06a5.22,5.22,0,0,0,.81-1.43,8.21,8.21,0,0,1,5.18,2.14ZM910,9l0,.19a3.93,3.93,0,0,1-.75,1.39s0,0,0,.06a2.68,2.68,0,0,1-.33.35l-.67.64a9.23,9.23,0,0,1,.94-4.34.39.39,0,0,0,.1-.29.36.36,0,0,0-.19-.31.35.35,0,0,0-.37,0,8.48,8.48,0,0,0-1.21,4.41l-.21-.42a3.65,3.65,0,0,1-.27-.77l-.06-.19a4,4,0,0,1,1.23-3.8l1-.94.6,1.23A4,4,0,0,1,910,9Z"/><path id="_Контур_176" data-name="&lt;Контур&gt;" class="cls-2" d="M911.55,11.55a.72.72,0,0,1,.06,1,.75.75,0,0,1-1,0,.72.72,0,0,1,1-1.06Z"/><path id="_Контур_177" data-name="&lt;Контур&gt;" class="cls-2" d="M915.84,12.84a.72.72,0,1,1-1,0,.72.72,0,0,1,1,0Z"/><path id="_Контур_178" data-name="&lt;Контур&gt;" class="cls-2" d="M914.11,11.43a.72.72,0,1,1-1,1.06.72.72,0,0,1,1-1.06Z"/><path id="_Контур_179" data-name="&lt;Контур&gt;" class="cls-2" d="M913.72,14a.71.71,0,0,1,.06,1,.72.72,0,0,1-1,0,.71.71,0,0,1-.06-1,.72.72,0,0,1,1,0Z"/><path id="_Контур_180" data-name="&lt;Контур&gt;" class="cls-2" d="M915.84,15.44a.71.71,0,0,1,.06,1,.75.75,0,0,1-1,0,.72.72,0,0,1,1-1.06Z"/><path id="_Контур_181" data-name="&lt;Контур&gt;" class="cls-2" d="M905,14.42a.72.72,0,0,1-1,1.06.71.71,0,0,1-.06-1,.75.75,0,0,1,1,0Z"/><path id="_Контур_182" data-name="&lt;Контур&gt;" class="cls-2" d="M904.13,17a.72.72,0,0,1,.06,1,.75.75,0,0,1-1,0,.72.72,0,0,1,1-1.06Z"/></g></g></g></g></svg>