<svg xmlns="http://www.w3.org/2000/svg" viewBox="0 0 959.95 30.82"><defs><style>.cls-1,.cls-2{fill:#005725;fill-rule:evenodd}.cls-2{fill:#2ebf33}</style></defs><title>pattern</title><g id="layer_2" data-name="layer 2"><g id="layer_1-2" data-name="layer 1"><g id="group" data-name="group"><g id="group2" data-name="group"><path id="composite_path" data-name="composite_path" class="cls-1" d="M111.26 3.83A9.56 9.56 0 0 1 115.92 0l.36.9c-3.82 1.5-6 5.19-4.9 8.31a3.51 3.51 0 0 1 .86 1 3.33 3.33 0 0 1 3.67 4.93 3.24 3.24 0 0 1 2.16 2 3.36 3.36 0 0 1-1.88 4.34 3.47 3.47 0 0 1-2.11.1 3.35 3.35 0 0 1-2.06 3.6 3.4 3.4 0 0 1-2.87-.2 3.36 3.36 0 0 1-2.1 3.19 3.48 3.48 0 0 1-1.66.2 3.33 3.33 0 0 1-6.32.37 3.34 3.34 0 0 1 .42-3.21 3.35 3.35 0 0 1-1.28-1.57 3.3 3.3 0 0 1 .68-3.51A3.46 3.46 0 0 1 97.78 19a3.36 3.36 0 0 1 1-3.82 3.26 3.26 0 0 1-1-1.32 3.32 3.32 0 0 1 3.9-4.46 3.33 3.33 0 0 1 6.39-.64 3.24 3.24 0 0 1 2.15-.1 6.55 6.55 0 0 1 .37-3.5 6.19 6.19 0 0 1-7.45-3.68L103 1l.44-.17a6.2 6.2 0 0 1 7.82 3zm-3.21 6l-.1.07a1.07 1.07 0 0 0-.2.15l-.15.15c0 .05-.08.08-.12.13l-.12.17-.1.15-.1.2-.05.15c0 .07-.05.14-.08.2s-.05.24-.07.35v.57a2.53 2.53 0 0 0 .07.35 2.87 2.87 0 0 1 .56.56.34.34 0 0 1 .07.1 1 1 0 0 1 .17.25l.05.08a2.49 2.49 0 0 1 .17.37 3 3 0 0 0 .76.3h.05a2.36 2.36 0 0 0 1 0h.05l.24-.08a2.38 2.38 0 1 0-1.76-4.43 4 4 0 0 0-.39.19zm-4.92 3.77l-.15.22-.05.07-.1.2-.05.1a1 1 0 0 0-.07.2.32.32 0 0 0 0 .14l-.05.19v.19a3.15 3.15 0 0 1 .78.64v.05a2.08 2.08 0 0 1 .29.39l.05.08a3.71 3.71 0 0 1 .22.44 2.89 2.89 0 0 1 .15.51l.42-.22.37-.12h.14a1 1 0 0 1 .24 0 .47.47 0 0 1 .15 0 1.28 1.28 0 0 1 .25 0h.49a.13.13 0 0 1 0-.08 2.33 2.33 0 0 1 .12-.37.38.38 0 0 1 .05-.08 2.63 2.63 0 0 1 .19-.37v-.05a3 3 0 0 1 .27-.37 2.26 2.26 0 0 1 .36-.34 2 2 0 0 0-.15-.64 1.68 1.68 0 0 0-.2-.39.34.34 0 0 0-.07-.1 1.24 1.24 0 0 0-.19-.24l-.08-.1a2.35 2.35 0 0 0-.32-.25L106 13a2.85 2.85 0 0 0-.34-.14h-.12a3.37 3.37 0 0 0-.41-.07h-.07a2.08 2.08 0 0 0-.46 0 2.27 2.27 0 0 0-.46.12l-.15.07a2.56 2.56 0 0 0-.79.61zm.66 6.89a3.05 3.05 0 0 1 .2.24l.05.08.17.25a.13.13 0 0 0 0 .07 3.22 3.22 0 0 1 .17.35 2.26 2.26 0 0 1 .12.41h.07l.3-.1.2-.05h.1a1.32 1.32 0 0 1 .27 0h.61l.27.05.25.07h.07a1.29 1.29 0 0 1 .24.08.06.06 0 0 1 .05 0 2.4 2.4 0 0 0 .41-.32 4.16 4.16 0 0 1 .08-.44 3.33 3.33 0 0 1 .36-.83 1.81 1.81 0 0 1 .25-.37 3.4 3.4 0 0 0 0-.41v-.05A1.84 1.84 0 0 0 108 19a1.73 1.73 0 0 0-.2-.39v-.05a2.52 2.52 0 0 0-.27-.32l-.05-.05a2.29 2.29 0 0 0-.3-.27h-.05a3 3 0 0 0-.32-.17h-.07a1.13 1.13 0 0 0-.34-.1l-.19-.05a1.29 1.29 0 0 0-.25 0 .57.57 0 0 0-.17 0 1.67 1.67 0 0 0-.29 0 .33.33 0 0 0-.13 0 1.41 1.41 0 0 0-.44.12 2.13 2.13 0 0 0-.39.2.94.94 0 0 0-.15.12 2 2 0 0 0-.22.17 3.31 3.31 0 0 1-.73 1.69 1.83 1.83 0 0 0 0 .3c.1.08.19.17.29.27s0 0 0 .05zm5.76-1.55l.42-.14h.1a3.39 3.39 0 0 1 .41-.07 2.06 2.06 0 0 1 .46 0h.06a3.33 3.33 0 0 1 .41.05 2 2 0 0 0 .19-.32v-.27a.42.42 0 0 1 0-.13v-.19a.4.4 0 0 1 0-.14.5.5 0 0 1 0-.17.49.49 0 0 1 0-.15l.05-.15v-.08a2.45 2.45 0 0 0-.29-.88 1 1 0 0 0-.17-.25l-.07-.1a3.08 3.08 0 0 0-.22-.24l-.05-.05a2.89 2.89 0 0 0-.73-.44h-.05l-.07-.12h-.12a1.66 1.66 0 0 1-.29 0 1 1 0 0 1-.22 0h-.19a.57.57 0 0 1-.17 0 .82.82 0 0 1-.2 0 1 1 0 0 0-.2.07 2 2 0 0 0-.42.22l-.08.05a2.33 2.33 0 0 0-.88 1.18v.05a.29.29 0 0 0 0 .12l.27.13.27.17a3.31 3.31 0 0 1 .71.66 1.2 1.2 0 0 1 .17.24l.14.24v.05c0 .05.08.2.14.3s.1.3.14.44 0 .05 0 .07l.42-.2zm5.31-3.94a2.36 2.36 0 0 0 .39-2.42 2.39 2.39 0 0 0-2.67-1.47v.07a3.61 3.61 0 0 1 .05.44 3.29 3.29 0 0 1 0 .42v.1a3.07 3.07 0 0 1-.07.42v.05a2.34 2.34 0 0 1-.12.37.24.24 0 0 1 0 .1 4 4 0 0 1-.19.39v.05a2.09 2.09 0 0 1-.2.32l-.07.07a2.62 2.62 0 0 1-.29.32l-.05.05c-.1.1-.2.17-.3.25h-.05a3.49 3.49 0 0 1 .71.59l.07.07.25.34a.23.23 0 0 0 .05.07l.05.08a3.49 3.49 0 0 0 .41.08 2.52 2.52 0 0 1 .41-.3h.07a4 4 0 0 1 .47-.24 2.35 2.35 0 0 1 .49-.15h.08a2.58 2.58 0 0 1 .51-.05zm2.31 2.47a2.35 2.35 0 0 0-2.15-1.5 1.2 1.2 0 0 0-.42 0h-.05a1.68 1.68 0 0 0-.47.14 1.43 1.43 0 0 0-.42.22 1.68 1.68 0 0 0-.34.27 2.24 2.24 0 0 0-.64 1.13.19.19 0 0 1 0 .08l-.05.39v.07a2.42 2.42 0 0 0 .17.9l.08.19.15.12s.07.05.08.08a1.29 1.29 0 0 1 .15.15s0 .05.07.07.08.12.14.17a.23.23 0 0 0 .05.07 1.36 1.36 0 0 0 .14.2 2.38 2.38 0 0 0 3.53-2.86zm-5.51 6.79a2.39 2.39 0 0 0 1.34-3.11 2.59 2.59 0 0 0-.19-.37.34.34 0 0 0-.07-.1 3.4 3.4 0 0 0-.22-.29l-.08-.07a1.11 1.11 0 0 0-.3-.25 2.61 2.61 0 0 0-.74-.32l-.19-.05h-.72a.37.37 0 0 1-.14 0 2.2 2.2 0 0 0-.44.14 4.2 4.2 0 0 0-.39.19l-.05.05a1.87 1.87 0 0 0-.29.22l-.1.1a1.18 1.18 0 0 0-.14.17 1.15 1.15 0 0 0-.14.17 1 1 0 0 0-.1.19 1.58 1.58 0 0 0-.17.39c0 .07-.05.12-.07.19s0 .15 0 .22a2.52 2.52 0 0 0 .14 1.22 2.38 2.38 0 0 0 3.09 1.33zm-6.15 3.14a2.39 2.39 0 0 0 2.49-3.26 2.33 2.33 0 0 0-1.2-1.27 2.86 2.86 0 0 0-.34-.13h-.12a1.67 1.67 0 0 0-.41-.05.1.1 0 0 0-.07 0 2.06 2.06 0 0 0-.46 0 2.5 2.5 0 0 0-.47.13 1.28 1.28 0 0 0-.3.15 3.07 3.07 0 0 1-.17.78l-.05.15a1.36 1.36 0 0 1-.1.24l-.1.2-.12.2-.1.15.34.25.08.1a1.8 1.8 0 0 1 .25.25l.07.07c.08.12.17.24.25.37a.37.37 0 0 1 .05.08 2.36 2.36 0 0 1 .2.42 2.89 2.89 0 0 1 .15.51v.08c0 .03.05.34.07.51zm-5.56 1a2.38 2.38 0 0 0 4.59-.74v-.2a.85.85 0 0 0 0-.2 1.38 1.38 0 0 0 0-.24.31.31 0 0 1 0-.14A2.39 2.39 0 0 0 104 26l-.05-.07-.2-.2-.12-.1a1.31 1.31 0 0 0-.19-.14 1.07 1.07 0 0 0-.24-.14l-.14-.07c-.05 0-.12 0-.19-.07l-.27-.07h-.44a1.29 1.29 0 0 0-.25 0 .82.82 0 0 0-.2 0 3.38 3.38 0 0 0-.44.12 3.07 3.07 0 0 0-.41.22 1.32 1.32 0 0 0-.19.14 1.79 1.79 0 0 0-.2.17 2.39 2.39 0 0 0-.56 2.58zm-.86-4.8a2.31 2.31 0 0 0 1.1 1.23 2.89 2.89 0 0 1 .3-.19l.07-.05c.12-.05.24-.12.37-.17s.32-.1.47-.15a.15.15 0 0 0 .08 0 2.38 2.38 0 0 1 .47-.05h.05a2.88 2.88 0 0 1 1 .12c0-.05.08-.08.12-.14a.23.23 0 0 1 .05-.07 1.91 1.91 0 0 0 .22-.41 2.46 2.46 0 0 0 .15-.46 2.58 2.58 0 0 0 .05-.51 1.8 1.8 0 0 0-.05-.42.6.6 0 0 0 0-.17 1 1 0 0 0-.08-.24 2.47 2.47 0 0 0-.19-.37.66.66 0 0 0-.07-.12 2.94 2.94 0 0 0-.2-.24.34.34 0 0 0 0-.19 2.54 2.54 0 0 0-.71-.49 2 2 0 0 0-.34-.12h-.12a1.5 1.5 0 0 0-.29 0 2.06 2.06 0 0 0-1.49.34l-.07.05a2.37 2.37 0 0 0-.9 2.84zm-.42-4.95a2.4 2.4 0 0 0 1 1.17 2.76 2.76 0 0 1 .39-.19 1.07 1.07 0 0 1 .3-.1h.08l.24-.05h.08a1 1 0 0 1 .24 0h.71a.86.86 0 0 1 .22 0h.1l.19.05.14.05h.05a1 1 0 0 1 .12-.14l.08-.1a2.3 2.3 0 0 0 .61-1.4v-.5a.28.28 0 0 1 0-.12l-.05-.2a1.17 1.17 0 0 0-.05-.14.59.59 0 0 0-.07-.19c0-.08-.08-.17-.12-.25a1.94 1.94 0 0 0-.17-.22 1.46 1.46 0 0 0-.12-.17l-.14-.15-.17-.15a.59.59 0 0 0-.13-.08 2.7 2.7 0 0 0-.3-.17 2.86 2.86 0 0 0-.34-.13h-.12a2.48 2.48 0 0 0-.32-.05h-.46a.69.69 0 0 0-.19 0 2.52 2.52 0 0 0-.47.14 2.37 2.37 0 0 0-1.33 3.09zm0-5.14a2.41 2.41 0 0 0 1 1.15l.44-.14h.08a3.87 3.87 0 0 1 1-.07 4.23 4.23 0 0 1 .49.08 2.57 2.57 0 0 1 .24-.78.82.82 0 0 0 .05-.12 1.49 1.49 0 0 1 .17-.27c0-.05.05-.08.07-.13a3.55 3.55 0 0 1 .24-.3 1.74 1.74 0 0 0 .17-.17.78.78 0 0 0 .12-.12 2.47 2.47 0 0 1 .22-.17l.24-.17a3.54 3.54 0 0 0-.1-.52 2.29 2.29 0 0 0-.22-.41 1.44 1.44 0 0 0-.12-.17.89.89 0 0 0-.17-.19.9.9 0 0 0-.19-.17l-.15-.13c-.07-.05-.15-.08-.24-.14a2.35 2.35 0 0 0-2-.13 2.39 2.39 0 0 0-1.34 3.09zm5.42-5.73a2.37 2.37 0 0 0-1.49 2 3.15 3.15 0 0 1 .78.64l.05.05c.1.14.19.25.27.39l.05.08a3.48 3.48 0 0 1 .22.44v.12c0 .07.08.24.12.37l.37-.07h.07a4 4 0 0 1 .9 0 3.31 3.31 0 0 1 .44.12v-.05a2 2 0 0 1 0-.32v-.05l.05-.35a3.34 3.34 0 0 1 1.2-1.93 2.38 2.38 0 0 0-3.14-1.47zm6.27-3.53a5.24 5.24 0 0 0-6.12-2.67 5.24 5.24 0 0 0 6.12 2.67z"/></g><g id="group3" data-name="group"><path id="composite_path2" data-name="composite_path" class="cls-1" d="M54 .67l-.4-.42-14.36 14.36.86 2.88a.85.85 0 0 1-.59.83l-.91.29-.28.85a1.79 1.79 0 0 1-1.13 1.19 3.57 3.57 0 0 1-1-.57 2.62 2.62 0 0 0-1.58-.64h-.19l-5.89 5.87.42.41A17.75 17.75 0 0 0 54 .67zM35.54 21.06c.7.45 1.36.89 2 .7a2.92 2.92 0 0 0 1.9-1.93l.1-.29.37-.12a2 2 0 0 0 1.35-2.12l-.7-2.34 10-10a10.87 10.87 0 0 1 3.31 7.6A12.8 12.8 0 0 1 50 21.7a12.82 12.82 0 0 1-9.21 3.92 10.87 10.87 0 0 1-7.6-3.31l1.68-1.68c.19.1.5.29.69.42zm17.26 3.48a16.52 16.52 0 0 1-22.64.78l2.21-2.21a12.08 12.08 0 0 0 8.36 3.66H41a14.06 14.06 0 0 0 9.78-4.25 13.93 13.93 0 0 0 4.25-10 12.16 12.16 0 0 0-3.65-8.42l2.2-2.21a16.52 16.52 0 0 1-.78 22.65z"/><path id="path" data-name="path" class="cls-1" d="M32.77 10.79a.87.87 0 0 1-.86.86.86.86 0 0 1 0-1.73.87.87 0 0 1 .86.86z"/><path id="path2" data-name="path" class="cls-1" d="M39.64 23.38a.86.86 0 1 1-.86-.85.86.86 0 0 1 .86.85z"/><path id="path3" data-name="path" class="cls-1" d="M45.06 15.72a.86.86 0 1 1-.85-.85.85.85 0 0 1 .85.85z"/><path id="path4" data-name="path" class="cls-1" d="M47.9 12.9a.86.86 0 0 1-.86.86A.86.86 0 1 1 47 12a.87.87 0 0 1 .86.86z"/><path id="path5" data-name="path" class="cls-1" d="M46.27 22.62a.86.86 0 1 1-.85-.86.85.85 0 0 1 .85.86z"/><path id="path6" data-name="path" class="cls-1" d="M49.11 19.78a.87.87 0 0 1-.86.86.86.86 0 0 1 0-1.73.87.87 0 0 1 .86.86z"/><path id="path7" data-name="path" class="cls-1" d="M51.94 16.94a.86.86 0 1 1-.85-.85.85.85 0 0 1 .85.85z"/><path id="path8" data-name="path" class="cls-1" d="M50.72 10.06a.86.86 0 1 1-.85-.85.85.85 0 0 1 .85.85z"/><path id="path9" data-name="path" class="cls-1" d="M43 21.8a.86.86 0 1 1-.86-.85.86.86 0 0 1 .86.85z"/><path id="path10" data-name="path" class="cls-1" d="M45.94 18.8a.86.86 0 1 1-.85-.85.85.85 0 0 1 .85.85z"/><path id="path11" data-name="path" class="cls-1" d="M48.81 15.94a.86.86 0 0 1-1.73 0 .86.86 0 0 1 1.73 0z"/><path id="path12" data-name="path" class="cls-1" d="M34.48 16.52a.86.86 0 1 1-.85-.86.86.86 0 0 1 .85.86z"/><path id="path13" data-name="path" class="cls-1" d="M37.92 11.93a.86.86 0 1 1-.86-.85.87.87 0 0 1 .86.85z"/><path id="path14" data-name="path" class="cls-1" d="M51.54 13.29a.86.86 0 0 1-.86.86.86.86 0 1 1 0-1.71.85.85 0 0 1 .86.85z"/></g><g id="group4" data-name="group"><path id="composite_path3" data-name="composite_path" class="cls-1" d="M240 3.83A9.56 9.56 0 0 1 244.65 0l.36.9c-3.82 1.5-6 5.19-4.9 8.31a3.51 3.51 0 0 1 .86 1 3.33 3.33 0 0 1 3.67 4.93 3.24 3.24 0 0 1 2.16 2 3.36 3.36 0 0 1-1.88 4.34 3.47 3.47 0 0 1-2.11.1 3.35 3.35 0 0 1-2.06 3.6 3.4 3.4 0 0 1-2.87-.2 3.36 3.36 0 0 1-2.1 3.19 3.48 3.48 0 0 1-1.66.2 3.33 3.33 0 0 1-6.32.37 3.34 3.34 0 0 1 .42-3.21 3.35 3.35 0 0 1-1.28-1.57 3.3 3.3 0 0 1 .68-3.51A3.46 3.46 0 0 1 226.5 19a3.36 3.36 0 0 1 1-3.82 3.26 3.26 0 0 1-1-1.32 3.32 3.32 0 0 1 3.9-4.46 3.33 3.33 0 0 1 6.39-.64 3.24 3.24 0 0 1 2.15-.1 6.55 6.55 0 0 1 .37-3.5 6.19 6.19 0 0 1-7.45-3.68l-.14-.48.44-.17a6.2 6.2 0 0 1 7.82 3zm-3.21 6l-.1.07a1.07 1.07 0 0 0-.2.15l-.15.15c0 .05-.08.08-.12.13l-.12.17-.1.15-.1.2-.05.15c0 .07-.05.14-.08.2s-.05.24-.07.35v.57a2.53 2.53 0 0 0 .07.35 2.87 2.87 0 0 1 .56.56.34.34 0 0 1 .07.1 1 1 0 0 1 .17.25l.05.08a2.49 2.49 0 0 1 .17.37 3 3 0 0 0 .76.3h.05a2.36 2.36 0 0 0 1 0h.05l.24-.08a2.38 2.38 0 1 0-1.76-4.43 4 4 0 0 0-.39.19zm-4.92 3.77l-.15.22-.05.07-.1.2-.05.1a1 1 0 0 0-.07.2.32.32 0 0 0 0 .14l-.05.19v.19a3.15 3.15 0 0 1 .78.64v.05a2.08 2.08 0 0 1 .29.39l.05.08a3.71 3.71 0 0 1 .22.44 2.89 2.89 0 0 1 .15.51l.42-.22.37-.12h.14a1 1 0 0 1 .24 0 .47.47 0 0 1 .15 0 1.28 1.28 0 0 1 .25 0h.49a.13.13 0 0 1 0-.08 2.33 2.33 0 0 1 .12-.37.38.38 0 0 1 .05-.08 2.63 2.63 0 0 1 .19-.37v-.05a3 3 0 0 1 .27-.37 2.26 2.26 0 0 1 .36-.34 2 2 0 0 0-.15-.64 1.68 1.68 0 0 0-.2-.39.34.34 0 0 0-.07-.1 1.24 1.24 0 0 0-.19-.24l-.08-.1a2.35 2.35 0 0 0-.32-.25l-.34-.17a2.85 2.85 0 0 0-.34-.14h-.12a3.37 3.37 0 0 0-.41-.07h-.07a2.08 2.08 0 0 0-.46 0 2.27 2.27 0 0 0-.46.12l-.15.07a2.56 2.56 0 0 0-.79.61zm.66 6.89a3.05 3.05 0 0 1 .2.24l.05.08.17.25a.13.13 0 0 0 0 .07 3.22 3.22 0 0 1 .17.35 2.26 2.26 0 0 1 .12.41h.07l.3-.1.2-.05h.1a1.32 1.32 0 0 1 .27 0h.61l.27.05.25.07h.07a1.29 1.29 0 0 1 .24.08.06.06 0 0 1 .05 0 2.4 2.4 0 0 0 .41-.32 4.16 4.16 0 0 1 .08-.44 3.33 3.33 0 0 1 .36-.83 1.81 1.81 0 0 1 .25-.37 3.4 3.4 0 0 0 0-.41v-.05a1.84 1.84 0 0 0-.12-.41 1.73 1.73 0 0 0-.2-.39v-.05a2.52 2.52 0 0 0-.27-.32l-.05-.05a2.29 2.29 0 0 0-.3-.27h-.05a3 3 0 0 0-.32-.17h-.07a1.13 1.13 0 0 0-.34-.1l-.19-.05a1.29 1.29 0 0 0-.25 0 .57.57 0 0 0-.17 0 1.67 1.67 0 0 0-.29 0 .33.33 0 0 0-.13 0 1.41 1.41 0 0 0-.44.12 2.13 2.13 0 0 0-.39.2.94.94 0 0 0-.15.12 2 2 0 0 0-.22.17 3.31 3.31 0 0 1-.73 1.69 1.83 1.83 0 0 0 0 .3c.1.08.19.17.29.27s0 0 0 .05zm5.76-1.55l.42-.14h.1a3.39 3.39 0 0 1 .41-.07 2.06 2.06 0 0 1 .46 0h.05a3.33 3.33 0 0 1 .41.05 2 2 0 0 0 .19-.32v-.27a.42.42 0 0 1 0-.13v-.19a.4.4 0 0 1 0-.14.5.5 0 0 1 0-.17.49.49 0 0 1 0-.15l.05-.15v-.08a2.45 2.45 0 0 0-.29-.88 1 1 0 0 0-.17-.25l-.07-.1a3.08 3.08 0 0 0-.22-.24l-.05-.05a2.89 2.89 0 0 0-.73-.44h-.05l-.25-.07h-.12a1.66 1.66 0 0 1-.29 0 1 1 0 0 1-.22 0h-.19a.57.57 0 0 1-.17 0 .82.82 0 0 1-.2 0 1 1 0 0 0-.2.07 2 2 0 0 0-.42.22l-.08.05a2.33 2.33 0 0 0-.88 1.18v.05a.29.29 0 0 0 0 .12l.27.13.27.17a3.31 3.31 0 0 1 .71.66 1.2 1.2 0 0 1 .17.24l.14.24v.05c0 .05.08.2.14.3s.1.3.14.44 0 .05 0 .07l.42-.2zm5.29-3.94a2.36 2.36 0 0 0 .39-2.42 2.39 2.39 0 0 0-2.67-1.47v.07a3.61 3.61 0 0 1 .05.44 3.29 3.29 0 0 1 0 .42v.1a3.07 3.07 0 0 1-.07.42v.05a2.34 2.34 0 0 1-.12.37.24.24 0 0 1 0 .1 4 4 0 0 1-.19.39v.05a2.09 2.09 0 0 1-.2.32l-.07.07a2.62 2.62 0 0 1-.29.32l-.05.05c-.1.1-.2.17-.3.25h-.05a3.49 3.49 0 0 1 .71.59l.07.07.25.34a.23.23 0 0 0 .05.07l.05.08a3.49 3.49 0 0 0 .41.08 2.52 2.52 0 0 1 .41-.3h.07a4 4 0 0 1 .47-.24 2.35 2.35 0 0 1 .49-.15h.08a2.58 2.58 0 0 1 .51-.05zm2.31 2.47a2.35 2.35 0 0 0-2.15-1.5 1.2 1.2 0 0 0-.42 0h-.05a1.68 1.68 0 0 0-.47.14 1.43 1.43 0 0 0-.42.22 1.68 1.68 0 0 0-.34.27 2.24 2.24 0 0 0-.64 1.13.19.19 0 0 1 0 .08l-.05.39v.07a2.42 2.42 0 0 0 .17.9l.08.19.15.12s.07.05.08.08a1.29 1.29 0 0 1 .15.15s0 .05.07.07.08.12.14.17a.23.23 0 0 0 .05.07 1.36 1.36 0 0 0 .14.2 2.38 2.38 0 0 0 3.53-2.86zm-5.51 6.79a2.39 2.39 0 0 0 1.33-3.09 2.59 2.59 0 0 0-.19-.37.34.34 0 0 0-.07-.1 3.4 3.4 0 0 0-.22-.29l-.08-.07a1.11 1.11 0 0 0-.3-.25 2.61 2.61 0 0 0-.74-.32l-.19-.05h-.72a.37.37 0 0 1-.14 0 2.2 2.2 0 0 0-.44.14 4.2 4.2 0 0 0-.39.19l-.05.05a1.87 1.87 0 0 0-.29.22l-.1.1a1.18 1.18 0 0 0-.14.17 1.15 1.15 0 0 0-.14.17 1 1 0 0 0-.1.19 1.58 1.58 0 0 0-.17.39c0 .07-.05.12-.07.19s0 .15 0 .22a2.52 2.52 0 0 0 .14 1.22 2.38 2.38 0 0 0 3.09 1.33zm-6.15 3.14a2.39 2.39 0 0 0 2.52-3.24 2.33 2.33 0 0 0-1.2-1.27 2.86 2.86 0 0 0-.34-.13h-.12a1.67 1.67 0 0 0-.41-.05.1.1 0 0 0-.07 0 2.06 2.06 0 0 0-.46 0 2.5 2.5 0 0 0-.47.13 1.28 1.28 0 0 0-.3.15 3.07 3.07 0 0 1-.17.78l-.05.15a1.36 1.36 0 0 1-.1.24l-.1.2-.12.2-.1.15.34.25.08.1a1.8 1.8 0 0 1 .25.25l.07.07c.08.12.17.24.25.37a.37.37 0 0 1 .05.08 2.36 2.36 0 0 1 .2.42 2.89 2.89 0 0 1 .15.51v.08c0 .03.05.34.07.51zm-5.56 1a2.38 2.38 0 0 0 4.59-.74v-.2a.85.85 0 0 0 0-.2 1.38 1.38 0 0 0 0-.24.31.31 0 0 1 0-.14 2.39 2.39 0 0 0-.44-.84l-.05-.07-.2-.2-.12-.1a1.31 1.31 0 0 0-.19-.14 1.07 1.07 0 0 0-.24-.14l-.14-.07c-.05 0-.12 0-.19-.07l-.27-.07h-.44a1.29 1.29 0 0 0-.25 0 .82.82 0 0 0-.2 0 3.38 3.38 0 0 0-.44.12 3.07 3.07 0 0 0-.41.22 1.32 1.32 0 0 0-.19.14 1.79 1.79 0 0 0-.2.17 2.39 2.39 0 0 0-.56 2.58zm-.86-4.8a2.31 2.31 0 0 0 1.1 1.23 2.89 2.89 0 0 1 .3-.19l.07-.05c.12-.05.24-.12.37-.17s.32-.1.47-.15a.15.15 0 0 0 .08 0 2.38 2.38 0 0 1 .47-.05h.07a2.88 2.88 0 0 1 1 .12c0-.05.08-.08.12-.14a.23.23 0 0 1 .05-.07 1.91 1.91 0 0 0 .22-.41 2.46 2.46 0 0 0 .15-.46 2.58 2.58 0 0 0 .05-.51 1.8 1.8 0 0 0-.05-.42.6.6 0 0 0 0-.17 1 1 0 0 0-.08-.24 2.47 2.47 0 0 0-.19-.37.66.66 0 0 0-.07-.12 2.94 2.94 0 0 0-.2-.24.34.34 0 0 0-.07-.08 2.54 2.54 0 0 0-.71-.49 2 2 0 0 0-.34-.12h-.12a1.5 1.5 0 0 0-.29 0 2.06 2.06 0 0 0-1.49.34l-.07.05a2.37 2.37 0 0 0-.9 2.84zm-.42-4.95a2.4 2.4 0 0 0 1 1.17 2.76 2.76 0 0 1 .39-.19 1.07 1.07 0 0 1 .3-.1h.08l.24-.05h.08a1 1 0 0 1 .24 0h.71a.86.86 0 0 1 .22 0h.1l.19.05.14.05h.05a1 1 0 0 1 .12-.14l.08-.1a2.3 2.3 0 0 0 .61-1.4v-.5a.28.28 0 0 1 0-.12l-.05-.2a1.17 1.17 0 0 0-.05-.14.59.59 0 0 0-.07-.19c0-.08-.08-.17-.12-.25a1.94 1.94 0 0 0-.17-.22 1.46 1.46 0 0 0-.12-.17l-.15-.15-.17-.15a.59.59 0 0 0-.13-.08 2.7 2.7 0 0 0-.3-.17 2.86 2.86 0 0 0-.34-.13h-.12a2.48 2.48 0 0 0-.32-.05h-.46a.69.69 0 0 0-.19 0 2.52 2.52 0 0 0-.47.14 2.37 2.37 0 0 0-1.33 3.09zm0-5.14a2.41 2.41 0 0 0 1 1.15l.44-.14h.08a3.87 3.87 0 0 1 1-.07 4.23 4.23 0 0 1 .49.08 2.57 2.57 0 0 1 .24-.78.82.82 0 0 0 .05-.12 1.49 1.49 0 0 1 .17-.27c0-.05.05-.08.07-.13a3.55 3.55 0 0 1 .24-.3 1.74 1.74 0 0 0 .17-.17.78.78 0 0 0 .12-.12 2.47 2.47 0 0 1 .22-.17l.24-.17a3.54 3.54 0 0 0-.1-.52 2.29 2.29 0 0 0-.22-.41 1.44 1.44 0 0 0-.12-.17.89.89 0 0 0-.17-.19.9.9 0 0 0-.19-.17l-.15-.13c-.07-.05-.15-.08-.24-.14a2.35 2.35 0 0 0-2-.13 2.39 2.39 0 0 0-1.34 3.09zm5.42-5.73a2.37 2.37 0 0 0-1.49 2 3.15 3.15 0 0 1 .78.64l.05.05c.1.14.19.25.27.39l.05.08a3.48 3.48 0 0 1 .22.44v.12c0 .07.08.24.12.37l.37-.07h.07a4 4 0 0 1 .9 0 3.31 3.31 0 0 1 .44.12v-.05a2 2 0 0 1 0-.32v-.05l.05-.35A3.34 3.34 0 0 1 236 9.22a2.38 2.38 0 0 0-3.14-1.47zm6.27-3.53a5.24 5.24 0 0 0-6.08-2.7 5.24 5.24 0 0 0 6.12 2.67z"/></g><g id="group5" data-name="group"><path id="composite_path4" data-name="composite_path" class="cls-1" d="M182.75.67l-.4-.42L168 14.61l.86 2.88a.85.85 0 0 1-.59.83l-.91.29-.28.85a1.79 1.79 0 0 1-1.13 1.19 3.57 3.57 0 0 1-1-.57 2.62 2.62 0 0 0-1.58-.64h-.19l-5.89 5.87.42.41A17.75 17.75 0 0 0 182.75.67zm-18.48 20.39c.7.45 1.36.89 2 .7a2.92 2.92 0 0 0 1.9-1.93l.1-.29.37-.12a2 2 0 0 0 1.36-2.13l-.7-2.34 10-10a10.87 10.87 0 0 1 3.31 7.6 12.8 12.8 0 0 1-3.91 9.2 12.82 12.82 0 0 1-9.21 3.92 10.87 10.87 0 0 1-7.6-3.31l1.68-1.68c.19.1.5.29.69.42zm17.26 3.49a16.52 16.52 0 0 1-22.64.78l2.21-2.21a12.08 12.08 0 0 0 8.36 3.66h.26a14.06 14.06 0 0 0 9.78-4.25 13.93 13.93 0 0 0 4.25-10 12.16 12.16 0 0 0-3.65-8.38l2.2-2.21a16.52 16.52 0 0 1-.78 22.65z"/><path id="path15" data-name="path" class="cls-1" d="M161.5 10.79a.87.87 0 0 1-.86.86.86.86 0 0 1 0-1.73.87.87 0 0 1 .86.86z"/><path id="path16" data-name="path" class="cls-1" d="M168.37 23.38a.86.86 0 1 1-.86-.85.86.86 0 0 1 .86.85z"/><path id="path17" data-name="path" class="cls-1" d="M173.79 15.72a.86.86 0 1 1-.85-.85.85.85 0 0 1 .85.85z"/><path id="path18" data-name="path" class="cls-1" d="M176.63 12.9a.86.86 0 0 1-.86.86.86.86 0 1 1 0-1.73.87.87 0 0 1 .86.86z"/><path id="path19" data-name="path" class="cls-1" d="M175 22.62a.86.86 0 1 1-.85-.86.85.85 0 0 1 .85.86z"/><path id="path20" data-name="path" class="cls-1" d="M177.84 19.78a.87.87 0 0 1-.86.86.86.86 0 0 1 0-1.73.87.87 0 0 1 .86.86z"/><path id="path21" data-name="path" class="cls-1" d="M180.67 16.94a.86.86 0 1 1-.85-.85.85.85 0 0 1 .85.85z"/><path id="path22" data-name="path" class="cls-1" d="M179.45 10.06a.86.86 0 1 1-.85-.85.85.85 0 0 1 .85.85z"/><path id="path23" data-name="path" class="cls-1" d="M171.77 21.8a.86.86 0 1 1-.86-.85.86.86 0 0 1 .86.85z"/><path id="path24" data-name="path" class="cls-1" d="M174.66 18.8a.86.86 0 1 1-.85-.85.85.85 0 0 1 .85.85z"/><path id="path25" data-name="path" class="cls-1" d="M177.53 15.94a.86.86 0 0 1-1.73 0 .86.86 0 0 1 1.73 0z"/><path id="path26" data-name="path" class="cls-1" d="M163.21 16.52a.86.86 0 1 1-.85-.86.86.86 0 0 1 .85.86z"/><path id="path27" data-name="path" class="cls-1" d="M166.65 11.93a.86.86 0 1 1-.86-.85.87.87 0 0 1 .86.85z"/><path id="path28" data-name="path" class="cls-1" d="M180.27 13.29a.86.86 0 0 1-.86.86.86.86 0 1 1 0-1.71.85.85 0 0 1 .86.85z"/></g><g id="group6" data-name="group"><path id="composite_path5" data-name="composite_path" class="cls-1" d="M368.71 3.83A9.56 9.56 0 0 1 373.38 0l.36.9c-3.82 1.5-6 5.19-4.9 8.31a3.51 3.51 0 0 1 .86 1 3.33 3.33 0 0 1 3.67 4.93 3.24 3.24 0 0 1 2.16 2 3.36 3.36 0 0 1-1.88 4.34 3.47 3.47 0 0 1-2.11.1 3.35 3.35 0 0 1-2.06 3.6 3.4 3.4 0 0 1-2.87-.2 3.36 3.36 0 0 1-2.1 3.19 3.48 3.48 0 0 1-1.66.2 3.33 3.33 0 0 1-6.32.37 3.34 3.34 0 0 1 .42-3.21 3.35 3.35 0 0 1-1.28-1.57 3.3 3.3 0 0 1 .68-3.51 3.46 3.46 0 0 1-1.12-1.45 3.36 3.36 0 0 1 1-3.82 3.26 3.26 0 0 1-1-1.32 3.32 3.32 0 0 1 3.9-4.46 3.33 3.33 0 0 1 6.39-.64 3.24 3.24 0 0 1 2.15-.1 6.55 6.55 0 0 1 .37-3.5 6.19 6.19 0 0 1-7.45-3.68l-.14-.48.44-.17a6.2 6.2 0 0 1 7.82 3zm-3.21 6l-.1.07a1.07 1.07 0 0 0-.2.15l-.15.15c0 .05-.08.08-.12.13l-.12.17-.1.15-.1.2-.05.15c0 .07-.05.14-.08.2s-.05.24-.07.35v.57a2.53 2.53 0 0 0 .07.35 2.87 2.87 0 0 1 .56.56.34.34 0 0 1 .07.1 1 1 0 0 1 .17.25l.05.08a2.49 2.49 0 0 1 .17.37 3 3 0 0 0 .76.3h.05a2.36 2.36 0 0 0 1 0h.05l.24-.08a2.38 2.38 0 1 0-1.76-4.43 4 4 0 0 0-.39.19zm-4.92 3.77l-.15.22-.05.07-.1.2-.05.1a1 1 0 0 0-.07.2.32.32 0 0 0 0 .14l-.05.19v.19a3.15 3.15 0 0 1 .78.64v.05a2.08 2.08 0 0 1 .29.39l.05.08a3.71 3.71 0 0 1 .22.44 2.89 2.89 0 0 1 .15.51l.42-.22.37-.12h.14a1 1 0 0 1 .24 0 .47.47 0 0 1 .15 0 1.28 1.28 0 0 1 .25 0h.49a.13.13 0 0 1 0-.08 2.33 2.33 0 0 1 .12-.37.38.38 0 0 1 .05-.08 2.63 2.63 0 0 1 .19-.37v-.05a3 3 0 0 1 .27-.37 2.26 2.26 0 0 1 .36-.34 2 2 0 0 0-.15-.64 1.68 1.68 0 0 0-.2-.39.34.34 0 0 0-.07-.1 1.24 1.24 0 0 0-.19-.24l-.08-.1a2.35 2.35 0 0 0-.32-.25l-.34-.17a2.85 2.85 0 0 0-.34-.14h-.12a3.37 3.37 0 0 0-.41-.07h-.07a2.08 2.08 0 0 0-.46 0 2.27 2.27 0 0 0-.46.12l-.15.07a2.56 2.56 0 0 0-.79.61zm.66 6.89a3.05 3.05 0 0 1 .2.24l.05.08.17.25a.13.13 0 0 0 0 .07 3.22 3.22 0 0 1 .17.35 2.26 2.26 0 0 1 .12.41h.07l.3-.1.2-.05h.1a1.32 1.32 0 0 1 .27 0h.61l.27.05.25.07h.07a1.29 1.29 0 0 1 .24.08.06.06 0 0 1 .05 0 2.4 2.4 0 0 0 .41-.32 4.16 4.16 0 0 1 .08-.44 3.33 3.33 0 0 1 .36-.83 1.81 1.81 0 0 1 .25-.37 3.4 3.4 0 0 0 0-.41v-.05a1.84 1.84 0 0 0-.12-.41 1.73 1.73 0 0 0-.2-.39v-.05a2.52 2.52 0 0 0-.27-.32l-.05-.05a2.29 2.29 0 0 0-.3-.27h-.05a3 3 0 0 0-.32-.17h-.07a1.13 1.13 0 0 0-.34-.1l-.19-.05a1.29 1.29 0 0 0-.25 0 .57.57 0 0 0-.17 0 1.67 1.67 0 0 0-.29 0 .33.33 0 0 0-.13 0 1.41 1.41 0 0 0-.44.12 2.13 2.13 0 0 0-.39.2.94.94 0 0 0-.15.12 2 2 0 0 0-.22.17 3.31 3.31 0 0 1-.73 1.69 1.83 1.83 0 0 0 0 .3c.1.08.19.17.29.27s0 0 0 .05zm5.76-1.57l.42-.14h.1a3.39 3.39 0 0 1 .41-.07 2.06 2.06 0 0 1 .46 0h.05a3.33 3.33 0 0 1 .41.05 2 2 0 0 0 .19-.32v-.27a.42.42 0 0 1 0-.13v-.19a.4.4 0 0 1 0-.14.5.5 0 0 1 0-.17.49.49 0 0 1 0-.15l.05-.15v-.08a2.45 2.45 0 0 0-.29-.88 1 1 0 0 0-.17-.25l-.07-.1a3.08 3.08 0 0 0-.22-.24l-.05-.05a2.89 2.89 0 0 0-.73-.44h-.05l-.25-.07h-.12a1.66 1.66 0 0 1-.29 0 1 1 0 0 1-.22 0h-.19a.57.57 0 0 1-.17 0 .82.82 0 0 1-.2 0 1 1 0 0 0-.2.07 2 2 0 0 0-.42.22l-.08.05a2.33 2.33 0 0 0-.88 1.18v.05a.29.29 0 0 0 0 .12l.27.13.27.17a3.31 3.31 0 0 1 .71.66 1.2 1.2 0 0 1 .17.24l.14.24v.05c0 .05.08.2.14.3s.1.3.14.44 0 .05 0 .07l.42-.2zm5.31-3.92a2.36 2.36 0 0 0 .39-2.42 2.39 2.39 0 0 0-2.7-1.48v.07a3.61 3.61 0 0 1 .05.44 3.29 3.29 0 0 1 0 .42v.1a3.07 3.07 0 0 1-.07.42v.05a2.34 2.34 0 0 1-.12.37.24.24 0 0 1 0 .1 4 4 0 0 1-.19.39v.05a2.09 2.09 0 0 1-.2.32l-.07.07a2.62 2.62 0 0 1-.29.32l-.05.05c-.1.1-.2.17-.3.25h-.05a3.49 3.49 0 0 1 .71.59l.07.07.25.34a.23.23 0 0 0 .05.07l.05.08a3.49 3.49 0 0 0 .41.08 2.52 2.52 0 0 1 .41-.3h.07a4 4 0 0 1 .47-.24 2.35 2.35 0 0 1 .49-.15h.08a2.58 2.58 0 0 1 .51-.05zm2.31 2.47a2.35 2.35 0 0 0-2.15-1.5 1.2 1.2 0 0 0-.42 0H372a1.68 1.68 0 0 0-.47.14 1.43 1.43 0 0 0-.42.22 1.68 1.68 0 0 0-.34.27 2.24 2.24 0 0 0-.64 1.13.19.19 0 0 1 0 .08l-.05.39v.07a2.42 2.42 0 0 0 .17.9l.08.19.15.12s.07.05.08.08a1.29 1.29 0 0 1 .15.15s0 .05.07.07.08.12.14.17a.23.23 0 0 0 .05.07 1.36 1.36 0 0 0 .14.2 2.38 2.38 0 0 0 3.53-2.86zm-5.51 6.79a2.39 2.39 0 0 0 1.33-3.09 2.59 2.59 0 0 0-.19-.37.34.34 0 0 0-.07-.1 3.4 3.4 0 0 0-.22-.29l-.08-.07a1.11 1.11 0 0 0-.3-.25 2.61 2.61 0 0 0-.74-.32l-.19-.05h-.72a.37.37 0 0 1-.14 0 2.2 2.2 0 0 0-.44.14 4.2 4.2 0 0 0-.35.14l-.05.05a1.87 1.87 0 0 0-.29.22l-.1.1a1.18 1.18 0 0 0-.14.17 1.15 1.15 0 0 0-.14.17 1 1 0 0 0-.1.19 1.58 1.58 0 0 0-.17.39c0 .07-.05.12-.07.19s0 .15 0 .22a2.52 2.52 0 0 0 .14 1.22 2.38 2.38 0 0 0 3.09 1.33zM363 27.38a2.39 2.39 0 0 0 2.52-3.24 2.33 2.33 0 0 0-1.2-1.27 2.86 2.86 0 0 0-.34-.13h-.12a1.67 1.67 0 0 0-.41-.05.1.1 0 0 0-.07 0 2.06 2.06 0 0 0-.46 0 2.5 2.5 0 0 0-.47.13 1.28 1.28 0 0 0-.3.15 3.07 3.07 0 0 1-.17.78l-.05.15a1.36 1.36 0 0 1-.1.24l-.1.2-.12.2-.1.15.34.25.08.1a1.8 1.8 0 0 1 .25.25l.07.07c.08.12.17.24.25.37a.37.37 0 0 1 .05.08 2.36 2.36 0 0 1 .2.42 2.89 2.89 0 0 1 .15.51v.08c0 .03.05.34.07.51zm-5.56 1a2.38 2.38 0 0 0 4.59-.74v-.2a.85.85 0 0 0 0-.2 1.38 1.38 0 0 0 0-.24.31.31 0 0 1 0-.14 2.39 2.39 0 0 0-.44-.84l-.05-.07-.2-.2-.12-.1a1.31 1.31 0 0 0-.19-.14 1.07 1.07 0 0 0-.24-.14l-.14-.07c-.05 0-.12 0-.19-.07l-.27-.07h-.44a1.29 1.29 0 0 0-.25 0 .82.82 0 0 0-.2 0 3.38 3.38 0 0 0-.44.12 3.07 3.07 0 0 0-.41.22 1.32 1.32 0 0 0-.19.14 1.79 1.79 0 0 0-.2.17 2.39 2.39 0 0 0-.56 2.58zm-.86-4.8a2.31 2.31 0 0 0 1.1 1.23 2.89 2.89 0 0 1 .3-.19l.07-.05c.12-.05.24-.12.37-.17s.32-.1.47-.15a.15.15 0 0 0 .08 0 2.38 2.38 0 0 1 .47-.05h.07a2.88 2.88 0 0 1 1 .12c0-.05.08-.08.12-.14a.23.23 0 0 1 .05-.07 1.91 1.91 0 0 0 .22-.41 2.46 2.46 0 0 0 .15-.46 2.58 2.58 0 0 0 .05-.51 1.8 1.8 0 0 0-.05-.42.6.6 0 0 0 0-.17 1 1 0 0 0-.08-.24 2.47 2.47 0 0 0-.19-.37.66.66 0 0 0-.07-.12 2.94 2.94 0 0 0-.2-.24.34.34 0 0 0-.07-.08 2.54 2.54 0 0 0-.71-.49 2 2 0 0 0-.34-.12h-.12a1.5 1.5 0 0 0-.29 0 2.06 2.06 0 0 0-1.49.34l-.07.05a2.37 2.37 0 0 0-.9 2.84zm-.42-4.95a2.4 2.4 0 0 0 1 1.17 2.76 2.76 0 0 1 .39-.19 1.07 1.07 0 0 1 .3-.1h.08l.24-.05h.08a1 1 0 0 1 .24 0h.71a.86.86 0 0 1 .22 0h.1l.19.05.14.05h.05a1 1 0 0 1 .12-.14l.08-.1a2.3 2.3 0 0 0 .61-1.4v-.5a.28.28 0 0 1 0-.12l-.05-.2a1.17 1.17 0 0 0-.05-.14.59.59 0 0 0-.07-.19c0-.08-.08-.17-.12-.25a1.94 1.94 0 0 0-.17-.22 1.46 1.46 0 0 0-.12-.17L360 16l-.17-.15a.59.59 0 0 0-.13-.08 2.7 2.7 0 0 0-.3-.17 2.86 2.86 0 0 0-.34-.13h-.12a2.48 2.48 0 0 0-.32-.05h-.46a.69.69 0 0 0-.19 0 2.52 2.52 0 0 0-.47.14 2.37 2.37 0 0 0-1.33 3.09zm0-5.14a2.41 2.41 0 0 0 1 1.15l.44-.14h.08a3.87 3.87 0 0 1 1-.07 4.23 4.23 0 0 1 .49.08 2.57 2.57 0 0 1 .24-.78.82.82 0 0 0 .05-.12 1.49 1.49 0 0 1 .17-.27c0-.05.05-.08.07-.13a3.55 3.55 0 0 1 .24-.3 1.74 1.74 0 0 0 .17-.17.78.78 0 0 0 .12-.12 2.47 2.47 0 0 1 .22-.17l.24-.17a3.54 3.54 0 0 0-.1-.52 2.29 2.29 0 0 0-.22-.41 1.44 1.44 0 0 0-.12-.17.89.89 0 0 0-.17-.19.9.9 0 0 0-.19-.17l-.15-.13c-.07-.05-.15-.08-.24-.14a2.35 2.35 0 0 0-2-.13 2.39 2.39 0 0 0-1.34 3.09zm5.42-5.73a2.37 2.37 0 0 0-1.49 2 3.15 3.15 0 0 1 .78.64l.05.05c.1.14.19.25.27.39l.05.08a3.48 3.48 0 0 1 .22.44v.12c0 .07.08.24.12.37l.37-.07h.07a4 4 0 0 1 .9 0 3.31 3.31 0 0 1 .44.12v-.05a2 2 0 0 1 0-.32v-.03l.05-.35a3.34 3.34 0 0 1 1.2-1.93 2.38 2.38 0 0 0-3.14-1.47zm6.27-3.53a5.24 5.24 0 0 0-6.12-2.67 5.24 5.24 0 0 0 6.12 2.67z"/></g><g id="group7" data-name="group"><path id="composite_path6" data-name="composite_path" class="cls-1" d="M311.48.67l-.4-.42-14.38 14.36.86 2.88a.85.85 0 0 1-.59.83l-.91.29-.28.85a1.79 1.79 0 0 1-1.13 1.19 3.57 3.57 0 0 1-1-.57 2.62 2.62 0 0 0-1.58-.64h-.19L286 25.35l.42.41A17.75 17.75 0 0 0 311.48.67zM293 21.06c.7.45 1.36.89 2 .7a2.92 2.92 0 0 0 1.9-1.93l.1-.29.37-.12a2 2 0 0 0 1.35-2.12l-.7-2.34 10-10a10.87 10.87 0 0 1 3.31 7.6 12.8 12.8 0 0 1-3.91 9.2 12.82 12.82 0 0 1-9.21 3.92 10.87 10.87 0 0 1-7.6-3.31l1.68-1.68c.19.1.5.29.69.42zm17.26 3.49a16.52 16.52 0 0 1-22.64.78l2.21-2.21a12.08 12.08 0 0 0 8.36 3.66h.26a14.06 14.06 0 0 0 9.78-4.25 13.93 13.93 0 0 0 4.25-10 12.16 12.16 0 0 0-3.65-8.38L311 1.89a16.52 16.52 0 0 1-.78 22.65z"/><path id="path29" data-name="path" class="cls-1" d="M290.23 10.79a.87.87 0 0 1-.86.86.86.86 0 0 1 0-1.73.87.87 0 0 1 .86.86z"/><path id="path30" data-name="path" class="cls-1" d="M297.1 23.38a.86.86 0 1 1-.86-.85.86.86 0 0 1 .86.85z"/><path id="path31" data-name="path" class="cls-1" d="M302.51 15.72a.86.86 0 1 1-.85-.85.85.85 0 0 1 .85.85z"/><path id="path32" data-name="path" class="cls-1" d="M305.36 12.9a.86.86 0 0 1-.86.86.86.86 0 1 1 0-1.73.87.87 0 0 1 .86.86z"/><path id="path33" data-name="path" class="cls-1" d="M303.73 22.62a.86.86 0 1 1-.85-.86.85.85 0 0 1 .85.86z"/><path id="path34" data-name="path" class="cls-1" d="M306.57 19.78a.87.87 0 0 1-.86.86.86.86 0 0 1 0-1.73.87.87 0 0 1 .86.86z"/><path id="path35" data-name="path" class="cls-1" d="M309.4 16.94a.86.86 0 1 1-.85-.85.85.85 0 0 1 .85.85z"/><path id="path36" data-name="path" class="cls-1" d="M308.18 10.06a.86.86 0 1 1-.85-.85.85.85 0 0 1 .85.85z"/><path id="path37" data-name="path" class="cls-1" d="M300.49 21.8a.86.86 0 1 1-.86-.85.86.86 0 0 1 .86.85z"/><path id="path38" data-name="path" class="cls-1" d="M303.39 18.8a.86.86 0 1 1-.85-.85.85.85 0 0 1 .85.85z"/><path id="path39" data-name="path" class="cls-1" d="M306.26 15.94a.86.86 0 0 1-1.73 0 .86.86 0 0 1 1.73 0z"/><path id="path40" data-name="path" class="cls-1" d="M291.94 16.52a.86.86 0 1 1-.85-.86.86.86 0 0 1 .85.86z"/><path id="path41" data-name="path" class="cls-1" d="M295.38 11.93a.86.86 0 1 1-.86-.85.87.87 0 0 1 .86.85z"/><path id="path42" data-name="path" class="cls-1" d="M309 13.29a.86.86 0 0 1-.86.86.86.86 0 1 1 0-1.71.85.85 0 0 1 .86.85z"/></g><g id="group8" data-name="group"><path id="composite_path7" data-name="composite_path" class="cls-1" d="M497.44 3.83A9.56 9.56 0 0 1 502.11 0l.36.9c-3.82 1.5-6 5.19-4.9 8.31a3.51 3.51 0 0 1 .86 1 3.33 3.33 0 0 1 3.67 4.93 3.24 3.24 0 0 1 2.16 2 3.36 3.36 0 0 1-1.88 4.34 3.47 3.47 0 0 1-2.11.1 3.35 3.35 0 0 1-2.06 3.6 3.4 3.4 0 0 1-2.87-.2 3.36 3.36 0 0 1-2.1 3.19 3.48 3.48 0 0 1-1.66.2 3.33 3.33 0 0 1-6.32.37 3.34 3.34 0 0 1 .42-3.21 3.35 3.35 0 0 1-1.28-1.57 3.3 3.3 0 0 1 .68-3.51A3.46 3.46 0 0 1 484 19a3.36 3.36 0 0 1 1-3.82 3.26 3.26 0 0 1-1-1.32 3.32 3.32 0 0 1 3.9-4.46 3.33 3.33 0 0 1 6.39-.64 3.24 3.24 0 0 1 2.15-.1 6.55 6.55 0 0 1 .37-3.5 6.19 6.19 0 0 1-7.45-3.68l-.18-.48.44-.17a6.2 6.2 0 0 1 7.82 3zm-3.21 6l-.1.07a1.07 1.07 0 0 0-.2.15l-.15.15c0 .05-.08.08-.12.13l-.12.17-.1.15-.1.2-.05.15c0 .07-.05.14-.08.2s-.05.24-.07.35v.57a2.53 2.53 0 0 0 .07.35 2.87 2.87 0 0 1 .56.56.34.34 0 0 1 .07.1 1 1 0 0 1 .17.25l.05.08a2.49 2.49 0 0 1 .17.37 3 3 0 0 0 .76.3h.05a2.36 2.36 0 0 0 1 0h.05l.24-.08a2.38 2.38 0 1 0-1.76-4.43 4 4 0 0 0-.39.19zm-4.92 3.77l-.15.22-.05.07-.1.2-.05.1a1 1 0 0 0-.07.2.32.32 0 0 0 0 .14l-.05.19v.19a3.15 3.15 0 0 1 .78.64v.05a2.08 2.08 0 0 1 .29.39l.05.08a3.71 3.71 0 0 1 .22.44 2.89 2.89 0 0 1 .15.51l.42-.22.37-.12h.14a1 1 0 0 1 .24 0 .47.47 0 0 1 .15 0 1.28 1.28 0 0 1 .25 0h.49a.13.13 0 0 1 0-.08 2.33 2.33 0 0 1 .12-.37.38.38 0 0 1 .05-.08 2.63 2.63 0 0 1 .19-.37v-.05a3 3 0 0 1 .27-.37 2.26 2.26 0 0 1 .36-.34 2 2 0 0 0-.15-.64 1.68 1.68 0 0 0-.2-.39.34.34 0 0 0-.07-.1 1.24 1.24 0 0 0-.19-.24l-.08-.1a2.35 2.35 0 0 0-.32-.25l-.34-.17a2.85 2.85 0 0 0-.34-.14h-.12a3.37 3.37 0 0 0-.41-.07h-.07a2.08 2.08 0 0 0-.46 0 2.27 2.27 0 0 0-.46.12l-.15.07a2.56 2.56 0 0 0-.79.61zm.66 6.89a3.05 3.05 0 0 1 .2.24l.05.08.17.25a.13.13 0 0 0 0 .07 3.22 3.22 0 0 1 .17.35 2.26 2.26 0 0 1 .12.41h.07l.3-.1.2-.05h.1a1.32 1.32 0 0 1 .27 0h.67l.27.05.25.07h.07a1.29 1.29 0 0 1 .24.08.06.06 0 0 1 .05 0 2.4 2.4 0 0 0 .41-.32 4.16 4.16 0 0 1 .08-.44 3.33 3.33 0 0 1 .36-.83 1.81 1.81 0 0 1 .25-.37 3.4 3.4 0 0 0 0-.41v-.05a1.84 1.84 0 0 0-.12-.41 1.73 1.73 0 0 0-.2-.39v-.05a2.52 2.52 0 0 0-.27-.32l-.05-.05a2.29 2.29 0 0 0-.3-.27h-.05a3 3 0 0 0-.32-.17h-.07a1.13 1.13 0 0 0-.34-.1l-.19-.05a1.29 1.29 0 0 0-.25 0 .57.57 0 0 0-.17 0 1.67 1.67 0 0 0-.29 0 .33.33 0 0 0-.13 0 1.41 1.41 0 0 0-.44.12 2.13 2.13 0 0 0-.39.2.94.94 0 0 0-.15.12 2 2 0 0 0-.22.17 3.31 3.31 0 0 1-.73 1.69 1.83 1.83 0 0 0 0 .3c.1.08.19.17.29.27s0 0 0 .05zm5.76-1.55l.42-.14h.1a3.39 3.39 0 0 1 .41-.07 2.06 2.06 0 0 1 .46 0h.05a3.33 3.33 0 0 1 .41.05 2 2 0 0 0 .19-.32v-.27a.42.42 0 0 1 0-.13v-.19a.4.4 0 0 1 0-.14.5.5 0 0 1 0-.17.49.49 0 0 1 0-.15l.05-.15v-.08a2.45 2.45 0 0 0-.29-.88 1 1 0 0 0-.17-.25l-.07-.1a3.08 3.08 0 0 0-.22-.24l-.05-.05a2.89 2.89 0 0 0-.73-.44h-.05l-.25-.07h-.12a1.66 1.66 0 0 1-.29 0 1 1 0 0 1-.22 0h-.19a.57.57 0 0 1-.17 0 .82.82 0 0 1-.2 0 1 1 0 0 0-.2.07 2 2 0 0 0-.42.22l-.08.05a2.33 2.33 0 0 0-.88 1.18v.05a.29.29 0 0 0 0 .12l.27.13.27.17a3.31 3.31 0 0 1 .71.66 1.2 1.2 0 0 1 .17.24l.14.24v.05c0 .05.08.2.14.3s.1.3.14.44 0 .05 0 .07l.42-.2zM501 15a2.36 2.36 0 0 0 .39-2.42 2.39 2.39 0 0 0-2.67-1.47v.07a3.61 3.61 0 0 1 .05.44 3.29 3.29 0 0 1 0 .42v.1a3.07 3.07 0 0 1-.07.42v.05a2.34 2.34 0 0 1-.12.37.24.24 0 0 1 0 .1 4 4 0 0 1-.19.39v.05a2.09 2.09 0 0 1-.2.32l-.07.07a2.62 2.62 0 0 1-.29.32l-.05.05c-.1.1-.2.17-.3.25h-.05a3.49 3.49 0 0 1 .71.59l.07.07.25.34a.23.23 0 0 0 .05.07l.05.08a3.49 3.49 0 0 0 .41.08 2.52 2.52 0 0 1 .41-.3h.07a4 4 0 0 1 .47-.24 2.35 2.35 0 0 1 .49-.15h.08A2.58 2.58 0 0 1 501 15zm2.31 2.47a2.35 2.35 0 0 0-2.15-1.5 1.2 1.2 0 0 0-.42 0h-.05a1.68 1.68 0 0 0-.47.14 1.43 1.43 0 0 0-.42.22 1.68 1.68 0 0 0-.34.27 2.24 2.24 0 0 0-.64 1.13.19.19 0 0 1 0 .08l-.05.39v.07a2.42 2.42 0 0 0 .17.9l.08.19.15.12s.07.05.08.08a1.29 1.29 0 0 1 .15.15s0 .05.07.07.08.12.14.17a.23.23 0 0 0 .05.07 1.36 1.36 0 0 0 .14.2 2.38 2.38 0 0 0 3.53-2.86zm-5.51 6.79a2.39 2.39 0 0 0 1.33-3.09 2.59 2.59 0 0 0-.19-.37.34.34 0 0 0-.07-.1 3.4 3.4 0 0 0-.22-.29l-.08-.07a1.11 1.11 0 0 0-.3-.25 2.61 2.61 0 0 0-.74-.32l-.19-.05h-.64a.37.37 0 0 1-.14 0 2.2 2.2 0 0 0-.44.14 4.2 4.2 0 0 0-.39.19l-.05.05a1.87 1.87 0 0 0-.29.22l-.1.1a1.18 1.18 0 0 0-.14.17 1.15 1.15 0 0 0-.14.17 1 1 0 0 0-.1.19 1.58 1.58 0 0 0-.17.39c0 .07-.05.12-.07.19s0 .15 0 .22a2.52 2.52 0 0 0 .14 1.22 2.38 2.38 0 0 0 3.09 1.33zm-6.15 3.14a2.39 2.39 0 0 0 2.52-3.24 2.33 2.33 0 0 0-1.2-1.27 2.86 2.86 0 0 0-.34-.13h-.12a1.67 1.67 0 0 0-.41-.05.1.1 0 0 0-.07 0 2.06 2.06 0 0 0-.46 0 2.5 2.5 0 0 0-.47.13 1.28 1.28 0 0 0-.3.15 3.07 3.07 0 0 1-.17.78l-.05.15a1.36 1.36 0 0 1-.1.24l-.1.2-.12.2-.1.15.34.25.08.1a1.8 1.8 0 0 1 .25.25l.07.07c.08.12.17.24.25.37a.37.37 0 0 1 .05.08 2.36 2.36 0 0 1 .2.42 2.89 2.89 0 0 1 .15.51v.08c0 .03.05.34.07.51zm-5.56 1a2.38 2.38 0 0 0 4.59-.74v-.2a.85.85 0 0 0 0-.2 1.38 1.38 0 0 0 0-.24.31.31 0 0 1 0-.14 2.39 2.39 0 0 0-.44-.84l-.05-.07-.2-.2-.12-.1a1.31 1.31 0 0 0-.19-.14 1.07 1.07 0 0 0-.24-.14l-.14-.07c-.05 0-.12 0-.19-.07l-.27-.07h-.44a1.29 1.29 0 0 0-.25 0 .82.82 0 0 0-.2 0 3.38 3.38 0 0 0-.44.12 3.07 3.07 0 0 0-.41.22 1.32 1.32 0 0 0-.19.14 1.79 1.79 0 0 0-.2.17 2.39 2.39 0 0 0-.56 2.58zm-.86-4.8a2.31 2.31 0 0 0 1.1 1.23 2.89 2.89 0 0 1 .3-.19l.07-.05c.12-.05.24-.12.37-.17s.32-.1.47-.15a.15.15 0 0 0 .08 0 2.38 2.38 0 0 1 .47-.05h.07a2.88 2.88 0 0 1 1 .12c0-.05.08-.08.12-.14a.23.23 0 0 1 .05-.07 1.91 1.91 0 0 0 .22-.41 2.46 2.46 0 0 0 .15-.46 2.58 2.58 0 0 0 .05-.51 1.8 1.8 0 0 0-.05-.42.6.6 0 0 0 0-.17 1 1 0 0 0-.08-.24 2.47 2.47 0 0 0-.19-.37.66.66 0 0 0-.07-.12 2.94 2.94 0 0 0-.2-.24.34.34 0 0 0-.07-.08 2.54 2.54 0 0 0-.71-.49 2 2 0 0 0-.34-.12h-.12a1.5 1.5 0 0 0-.29 0 2.06 2.06 0 0 0-1.49.34l-.07.05a2.37 2.37 0 0 0-.9 2.84zm-.42-4.95a2.4 2.4 0 0 0 1 1.17 2.76 2.76 0 0 1 .39-.19 1.07 1.07 0 0 1 .3-.1h.08l.24-.05h.18a1 1 0 0 1 .24 0h.71a.86.86 0 0 1 .22 0h.1l.19.05.14.05h.05a1 1 0 0 1 .12-.14l.08-.1a2.3 2.3 0 0 0 .61-1.4v-.5a.28.28 0 0 1 0-.12l-.05-.2a1.17 1.17 0 0 0-.05-.14.59.59 0 0 0-.07-.19c0-.08-.08-.17-.12-.25a1.94 1.94 0 0 0-.17-.22 1.46 1.46 0 0 0-.12-.17l-.15-.15-.17-.15a.59.59 0 0 0-.13-.08 2.7 2.7 0 0 0-.3-.17 2.86 2.86 0 0 0-.34-.13h-.12a2.48 2.48 0 0 0-.32-.05h-.46a.69.69 0 0 0-.19 0 2.52 2.52 0 0 0-.47.14 2.37 2.37 0 0 0-1.33 3.09zm0-5.14a2.41 2.41 0 0 0 1 1.15l.44-.14h.08a3.87 3.87 0 0 1 1-.07 4.23 4.23 0 0 1 .49.08 2.57 2.57 0 0 1 .24-.78.82.82 0 0 0 .05-.12 1.49 1.49 0 0 1 .17-.27c0-.05.05-.08.07-.13a3.55 3.55 0 0 1 .24-.3 1.74 1.74 0 0 0 .17-.17.78.78 0 0 0 .12-.12 2.47 2.47 0 0 1 .22-.17l.24-.17a3.54 3.54 0 0 0-.1-.52 2.29 2.29 0 0 0-.22-.41 1.44 1.44 0 0 0-.12-.17.89.89 0 0 0-.17-.19.9.9 0 0 0-.19-.17l-.15-.13c-.07-.05-.15-.08-.24-.14a2.35 2.35 0 0 0-2-.13 2.39 2.39 0 0 0-1.34 3.09zm5.42-5.73a2.37 2.37 0 0 0-1.49 2 3.15 3.15 0 0 1 .78.64l.05.05c.1.14.19.25.27.39l.05.08a3.48 3.48 0 0 1 .22.44v.12c0 .07.08.24.12.37l.37-.07h.07a4 4 0 0 1 .9 0 3.31 3.31 0 0 1 .44.12v-.05a2 2 0 0 1 0-.32v-.05l.05-.35a3.34 3.34 0 0 1 1.2-1.93 2.38 2.38 0 0 0-3.14-1.47zm6.27-3.53a5.24 5.24 0 0 0-6.12-2.67 5.24 5.24 0 0 0 6.12 2.67z"/></g><g id="group9" data-name="group"><path id="composite_path8" data-name="composite_path" class="cls-1" d="M440.21.67l-.4-.42-14.38 14.36.86 2.88a.85.85 0 0 1-.59.83l-.91.29-.28.85a1.79 1.79 0 0 1-1.13 1.19 3.57 3.57 0 0 1-1-.57 2.62 2.62 0 0 0-1.58-.64h-.19l-5.89 5.87.42.41A17.75 17.75 0 0 0 440.21.67zm-18.48 20.39c.7.45 1.36.89 2 .7a2.92 2.92 0 0 0 1.9-1.93l.1-.29.37-.12a2 2 0 0 0 1.35-2.12l-.7-2.34 10-10a10.87 10.87 0 0 1 3.31 7.6 12.8 12.8 0 0 1-3.91 9.2 12.82 12.82 0 0 1-9.15 3.86 10.87 10.87 0 0 1-7.6-3.31l1.6-1.68c.19.1.5.29.69.42zM439 24.54a16.52 16.52 0 0 1-22.64.78l2.21-2.21a12.08 12.08 0 0 0 8.36 3.66h.26a14.06 14.06 0 0 0 9.81-4.25 13.93 13.93 0 0 0 4.25-10 12.16 12.16 0 0 0-3.65-8.38l2.2-2.21a16.52 16.52 0 0 1-.8 22.61z"/><path id="path43" data-name="path" class="cls-1" d="M419 10.79a.87.87 0 0 1-.86.86.86.86 0 0 1 0-1.73.87.87 0 0 1 .86.86z"/><path id="path44" data-name="path" class="cls-1" d="M425.82 23.38a.86.86 0 1 1-.86-.85.86.86 0 0 1 .86.85z"/><path id="path45" data-name="path" class="cls-1" d="M431.24 15.72a.86.86 0 1 1-.85-.85.85.85 0 0 1 .85.85z"/><path id="path46" data-name="path" class="cls-1" d="M434.08 12.9a.86.86 0 0 1-.86.86.86.86 0 1 1 0-1.73.87.87 0 0 1 .86.86z"/><path id="path47" data-name="path" class="cls-1" d="M432.46 22.62a.86.86 0 1 1-.85-.86.85.85 0 0 1 .85.86z"/><path id="path48" data-name="path" class="cls-1" d="M435.3 19.78a.87.87 0 0 1-.86.86.86.86 0 0 1 0-1.73.87.87 0 0 1 .86.86z"/><path id="path49" data-name="path" class="cls-1" d="M438.13 16.94a.86.86 0 1 1-.85-.85.85.85 0 0 1 .85.85z"/><path id="path50" data-name="path" class="cls-1" d="M436.91 10.06a.86.86 0 1 1-.85-.85.85.85 0 0 1 .85.85z"/><path id="path51" data-name="path" class="cls-1" d="M429.22 21.8a.86.86 0 1 1-.86-.85.86.86 0 0 1 .86.85z"/><path id="path52" data-name="path" class="cls-1" d="M432.12 18.8a.86.86 0 1 1-.85-.85.85.85 0 0 1 .85.85z"/><path id="path53" data-name="path" class="cls-1" d="M435 15.94a.86.86 0 0 1-1.73 0 .86.86 0 0 1 1.73 0z"/><path id="path54" data-name="path" class="cls-1" d="M420.67 16.52a.86.86 0 1 1-.85-.86.86.86 0 0 1 .85.86z"/><path id="path55" data-name="path" class="cls-1" d="M424.11 11.93a.86.86 0 1 1-.86-.85.87.87 0 0 1 .86.85z"/><path id="path56" data-name="path" class="cls-1" d="M437.73 13.29a.86.86 0 0 1-.86.86.86.86 0 1 1 0-1.71.85.85 0 0 1 .86.85z"/></g><g id="group10" data-name="group"><path id="composite_path9" data-name="composite_path" class="cls-1" d="M626.17 3.83A9.56 9.56 0 0 1 630.83 0l.36.9c-3.82 1.5-6 5.19-4.9 8.31a3.51 3.51 0 0 1 .86 1 3.33 3.33 0 0 1 3.67 4.93 3.24 3.24 0 0 1 2.16 2 3.36 3.36 0 0 1-1.88 4.34 3.47 3.47 0 0 1-2.11.1 3.35 3.35 0 0 1-2.06 3.6 3.4 3.4 0 0 1-2.87-.2 3.36 3.36 0 0 1-2.1 3.19 3.48 3.48 0 0 1-1.66.2 3.33 3.33 0 0 1-6.32.37 3.34 3.34 0 0 1 .42-3.21 3.35 3.35 0 0 1-1.28-1.57 3.3 3.3 0 0 1 .68-3.51 3.46 3.46 0 0 1-1.11-1.45 3.36 3.36 0 0 1 1-3.82 3.26 3.26 0 0 1-1-1.32 3.32 3.32 0 0 1 3.9-4.46 3.33 3.33 0 0 1 6.41-.67 3.24 3.24 0 0 1 2.15-.1 6.55 6.55 0 0 1 .37-3.5 6.19 6.19 0 0 1-7.45-3.68l-.16-.45.44-.17a6.2 6.2 0 0 1 7.82 3zm-3.21 6l-.1.07a1.07 1.07 0 0 0-.2.15l-.15.15c0 .05-.08.08-.12.13l-.12.17-.1.15-.1.2-.07.15c0 .07-.05.14-.08.2s-.05.24-.07.35v.57a2.53 2.53 0 0 0 .07.35 2.87 2.87 0 0 1 .56.56.34.34 0 0 1 .07.1 1 1 0 0 1 .17.25l.05.08a2.49 2.49 0 0 1 .17.37 3 3 0 0 0 .76.3h.05a2.36 2.36 0 0 0 1 0h.05l.24-.08a2.38 2.38 0 1 0-1.76-4.43 4 4 0 0 0-.39.19zM618 13.58l-.15.22-.05.07-.1.2-.05.1a1 1 0 0 0-.07.2.32.32 0 0 0 0 .14l-.05.19v.19a3.15 3.15 0 0 1 .78.64v.05a2.08 2.08 0 0 1 .29.39l.05.08a3.71 3.71 0 0 1 .22.44 2.89 2.89 0 0 1 .15.51l.42-.22.37-.12h.14a1 1 0 0 1 .24 0 .47.47 0 0 1 .15 0 1.28 1.28 0 0 1 .25 0h.49a.13.13 0 0 1 0-.08 2.33 2.33 0 0 1 .12-.37.38.38 0 0 1 .05-.08 2.63 2.63 0 0 1 .19-.37v-.05a3 3 0 0 1 .27-.37 2.26 2.26 0 0 1 .36-.34 2 2 0 0 0-.15-.64 1.68 1.68 0 0 0-.2-.39.34.34 0 0 0-.07-.1 1.24 1.24 0 0 0-.19-.24l-.08-.1a2.35 2.35 0 0 0-.32-.25l-.16-.28a2.85 2.85 0 0 0-.34-.14h-.12a3.37 3.37 0 0 0-.41-.07H620a2.08 2.08 0 0 0-.46 0 2.27 2.27 0 0 0-.46.12l-.15.07a2.56 2.56 0 0 0-.79.61zm.66 6.89a3.05 3.05 0 0 1 .2.24l.05.08.17.25a.13.13 0 0 0 0 .07 3.22 3.22 0 0 1 .17.35 2.26 2.26 0 0 1 .12.41h.07l.3-.1.2-.05h.1a1.32 1.32 0 0 1 .27 0h.61l.27.05.25.07h.07a1.29 1.29 0 0 1 .24.08.06.06 0 0 1 .05 0 2.4 2.4 0 0 0 .41-.32 4.16 4.16 0 0 1 .08-.44 3.33 3.33 0 0 1 .36-.83 1.81 1.81 0 0 1 .25-.37 3.4 3.4 0 0 0 0-.41v-.05a1.84 1.84 0 0 0 .1-.5 1.73 1.73 0 0 0-.2-.39v-.05a2.52 2.52 0 0 0-.27-.32l-.05-.05a2.29 2.29 0 0 0-.3-.27h-.05a3 3 0 0 0-.32-.17h-.07a1.13 1.13 0 0 0-.34-.1l-.19-.05a1.29 1.29 0 0 0-.25 0 .57.57 0 0 0-.17 0 1.67 1.67 0 0 0-.29 0 .33.33 0 0 0-.13 0 1.41 1.41 0 0 0-.44.12 2.13 2.13 0 0 0-.39.2.94.94 0 0 0-.15.12 2 2 0 0 0-.22.17 3.31 3.31 0 0 1-.73 1.69 1.83 1.83 0 0 0 0 .3c.1.08.19.17.29.27s0 0 0 .05zm5.76-1.55l.42-.14h.1a3.39 3.39 0 0 1 .41-.07 2.06 2.06 0 0 1 .46 0h.05a3.33 3.33 0 0 1 .41.05 2 2 0 0 0 .19-.32v-.27a.42.42 0 0 1 0-.13v-.19a.4.4 0 0 1 0-.14.5.5 0 0 1 0-.17.49.49 0 0 1 0-.15l.05-.15v-.08a2.45 2.45 0 0 0-.29-.88 1 1 0 0 0-.17-.25l-.07-.1a3.08 3.08 0 0 0-.22-.24l-.05-.05a2.89 2.89 0 0 0-.73-.44h-.05l-.25-.07h-.12a1.66 1.66 0 0 1-.29 0 1 1 0 0 1-.22 0h-.19a.57.57 0 0 1-.17 0 .82.82 0 0 1-.2 0 1 1 0 0 0-.2.07 2 2 0 0 0-.42.22l-.08.05a2.33 2.33 0 0 0-.88 1.18v.05a.29.29 0 0 0 0 .12l.27.13.27.17a3.31 3.31 0 0 1 .71.66 1.2 1.2 0 0 1 .17.24l.14.24v.05c0 .05.08.2.14.3s.1.3.14.44 0 .05 0 .07l.42-.2zm5.35-3.92a2.36 2.36 0 0 0 .39-2.42 2.39 2.39 0 0 0-2.67-1.47v.07a3.61 3.61 0 0 1 .05.44 3.29 3.29 0 0 1 0 .42v.1a3.07 3.07 0 0 1-.07.42v.05a2.34 2.34 0 0 1-.12.37.24.24 0 0 1 0 .1 4 4 0 0 1-.19.39v.05a2.09 2.09 0 0 1-.2.32l-.07.07a2.62 2.62 0 0 1-.29.32l-.05.05c-.1.1-.2.17-.3.25h-.05a3.49 3.49 0 0 1 .71.59l.07.07.25.34a.23.23 0 0 0 .05.07l.05.08a3.49 3.49 0 0 0 .41.08 2.52 2.52 0 0 1 .41-.3h.07a4 4 0 0 1 .47-.24 2.35 2.35 0 0 1 .49-.15h.08a2.58 2.58 0 0 1 .51-.05zm2.31 2.47a2.35 2.35 0 0 0-2.15-1.5 1.2 1.2 0 0 0-.42 0h-.05a1.68 1.68 0 0 0-.47.14 1.43 1.43 0 0 0-.42.22 1.68 1.68 0 0 0-.34.27 2.24 2.24 0 0 0-.64 1.13.19.19 0 0 1 0 .08l-.05.39v.07a2.42 2.42 0 0 0 .17.9l.08.19.15.12s.07.05.08.08a1.29 1.29 0 0 1 .15.15s0 .05.07.07.08.12.14.17a.23.23 0 0 0 .05.07 1.36 1.36 0 0 0 .14.2 2.38 2.38 0 0 0 3.53-2.86zm-5.51 6.79a2.39 2.39 0 0 0 1.33-3.09 2.59 2.59 0 0 0-.19-.37.34.34 0 0 0-.07-.1 3.4 3.4 0 0 0-.22-.29l-.08-.07a1.11 1.11 0 0 0-.3-.25 2.61 2.61 0 0 0-.74-.32l-.19-.05h-.72a.37.37 0 0 1-.14 0 2.2 2.2 0 0 0-.44.14 4.2 4.2 0 0 0-.39.19l-.05.05a1.87 1.87 0 0 0-.29.22l-.1.1a1.18 1.18 0 0 0-.14.17 1.15 1.15 0 0 0-.14.17 1 1 0 0 0-.1.19 1.58 1.58 0 0 0-.17.39c0 .07-.05.12-.07.19s0 .15 0 .22a2.52 2.52 0 0 0 .14 1.22 2.38 2.38 0 0 0 3.09 1.33zm-6.15 3.14a2.39 2.39 0 0 0 2.52-3.24 2.33 2.33 0 0 0-1.2-1.27 2.86 2.86 0 0 0-.34-.13h-.12a1.67 1.67 0 0 0-.41-.05.1.1 0 0 0-.07 0 2.06 2.06 0 0 0-.46 0 2.5 2.5 0 0 0-.47.13 1.28 1.28 0 0 0-.3.15 3.07 3.07 0 0 1-.17.78l-.05.15a1.36 1.36 0 0 1-.1.24l-.1.2-.12.2-.1.15.34.25.08.1a1.8 1.8 0 0 1 .25.25l.07.07c.08.12.17.24.25.37a.37.37 0 0 1 .05.08 2.36 2.36 0 0 1 .2.42 2.89 2.89 0 0 1 .15.51v.08c0 .03.05.34.07.51zm-5.56 1a2.38 2.38 0 0 0 4.59-.74v-.2a.85.85 0 0 0 0-.2 1.38 1.38 0 0 0 0-.24.31.31 0 0 1 0-.14 2.39 2.39 0 0 0-.44-.84l-.05-.07-.2-.2-.12-.1a1.31 1.31 0 0 0-.19-.14 1.07 1.07 0 0 0-.24-.14l-.14-.07c-.05 0-.12 0-.19-.07l-.27-.07h-.44a1.29 1.29 0 0 0-.25 0 .82.82 0 0 0-.2 0 3.38 3.38 0 0 0-.44.12 3.07 3.07 0 0 0-.41.22 1.32 1.32 0 0 0-.19.14 1.79 1.79 0 0 0-.2.17 2.39 2.39 0 0 0-.56 2.58zm-.86-4.8a2.31 2.31 0 0 0 1.1 1.23 2.89 2.89 0 0 1 .3-.19l.07-.05c.12-.05.24-.12.37-.17s.32-.1.47-.15a.15.15 0 0 0 .08 0 2.38 2.38 0 0 1 .47-.05h.14a2.88 2.88 0 0 1 1 .12c0-.05.08-.08.12-.14a.23.23 0 0 1 .05-.07 1.91 1.91 0 0 0 .22-.41 2.46 2.46 0 0 0 .15-.46 2.58 2.58 0 0 0 .05-.51 1.8 1.8 0 0 0-.05-.42.6.6 0 0 0 0-.17 1 1 0 0 0-.08-.24 2.47 2.47 0 0 0-.19-.37.66.66 0 0 0-.07-.12 2.94 2.94 0 0 0-.2-.24.34.34 0 0 0-.07-.08 2.54 2.54 0 0 0-.71-.49 2 2 0 0 0-.34-.12h-.12a1.5 1.5 0 0 0-.29 0 2.06 2.06 0 0 0-1.49.34l-.07.05a2.37 2.37 0 0 0-.9 2.84zm-.42-4.95a2.4 2.4 0 0 0 1 1.17 2.76 2.76 0 0 1 .39-.19 1.07 1.07 0 0 1 .3-.1h.08l.24-.05h.08a1 1 0 0 1 .24 0h.71a.86.86 0 0 1 .22 0h.1l.19.05.14.05h.05a1 1 0 0 1 .12-.14l.08-.1a2.3 2.3 0 0 0 .61-1.4v-.5a.28.28 0 0 1 0-.12l-.05-.2A1.17 1.17 0 0 0 618 17a.59.59 0 0 0-.07-.19c0-.08-.08-.17-.12-.25a1.94 1.94 0 0 0-.17-.22 1.46 1.46 0 0 0-.12-.17l-.15-.15-.17-.15a.59.59 0 0 0-.13-.08 2.7 2.7 0 0 0-.3-.17 2.86 2.86 0 0 0-.34-.13h-.12a2.48 2.48 0 0 0-.32-.05h-.46a.69.69 0 0 0-.19 0 2.52 2.52 0 0 0-.47.14 2.37 2.37 0 0 0-1.33 3.09zm0-5.14a2.41 2.41 0 0 0 1 1.15l.44-.14h.08a3.87 3.87 0 0 1 1-.07 4.23 4.23 0 0 1 .49.08 2.57 2.57 0 0 1 .24-.78.82.82 0 0 0 .05-.12 1.49 1.49 0 0 1 .17-.27c0-.05.05-.08.07-.13a3.55 3.55 0 0 1 .24-.3 1.74 1.74 0 0 0 .17-.17.78.78 0 0 0 .12-.12 2.47 2.47 0 0 1 .22-.17l.24-.17a3.54 3.54 0 0 0-.1-.52 2.29 2.29 0 0 0-.22-.41 1.44 1.44 0 0 0-.12-.17.89.89 0 0 0-.17-.19.9.9 0 0 0-.19-.17l-.15-.13c-.07-.05-.15-.08-.24-.14a2.35 2.35 0 0 0-2-.13 2.39 2.39 0 0 0-1.34 3.09zM619 7.75a2.37 2.37 0 0 0-1.49 2 3.15 3.15 0 0 1 .78.64l.05.05c.1.14.19.25.27.39l.05.08a3.48 3.48 0 0 1 .22.44v.12c0 .07.08.24.12.37l.37-.07h.07a4 4 0 0 1 .9 0 3.31 3.31 0 0 1 .44.12v-.05a2 2 0 0 1 0-.32v-.02l.05-.35a3.34 3.34 0 0 1 1.2-1.93A2.38 2.38 0 0 0 619 7.75zm6.27-3.53a5.24 5.24 0 0 0-6.12-2.67 5.24 5.24 0 0 0 6.12 2.67z"/></g><g id="group11" data-name="group"><path id="composite_path10" data-name="composite_path" class="cls-1" d="M568.94.67l-.4-.42-14.38 14.36.84 2.89a.85.85 0 0 1-.59.83l-.91.29-.28.85a1.79 1.79 0 0 1-1.13 1.19 3.57 3.57 0 0 1-1-.57 2.62 2.62 0 0 0-1.58-.64h-.19l-5.89 5.87.42.41A17.75 17.75 0 0 0 568.94.67zm-18.49 20.39c.7.45 1.36.89 2 .7a2.92 2.92 0 0 0 1.9-1.93l.1-.29.37-.12a2 2 0 0 0 1.35-2.12l-.7-2.34 10-10a10.87 10.87 0 0 1 3.31 7.6 12.8 12.8 0 0 1-3.91 9.2 12.82 12.82 0 0 1-9.21 3.92 10.87 10.87 0 0 1-7.6-3.31l1.68-1.68c.19.1.5.29.69.42zm17.26 3.49a16.52 16.52 0 0 1-22.64.78l2.21-2.21a12.08 12.08 0 0 0 8.36 3.66h.26a14.06 14.06 0 0 0 9.78-4.25 13.93 13.93 0 0 0 4.25-10 12.16 12.16 0 0 0-3.63-8.43l2.2-2.21a16.52 16.52 0 0 1-.78 22.65z"/><path id="path57" data-name="path" class="cls-1" d="M547.69 10.79a.87.87 0 0 1-.86.86.86.86 0 0 1 0-1.73.87.87 0 0 1 .86.86z"/><path id="path58" data-name="path" class="cls-1" d="M554.55 23.38a.86.86 0 1 1-.86-.85.86.86 0 0 1 .86.85z"/><path id="path59" data-name="path" class="cls-1" d="M560 15.72a.86.86 0 1 1-.85-.85.85.85 0 0 1 .85.85z"/><path id="path60" data-name="path" class="cls-1" d="M562.81 12.9a.86.86 0 0 1-.86.86.86.86 0 1 1 0-1.73.87.87 0 0 1 .86.86z"/><path id="path61" data-name="path" class="cls-1" d="M561.19 22.62a.86.86 0 1 1-.85-.86.85.85 0 0 1 .85.86z"/><path id="path62" data-name="path" class="cls-1" d="M564 19.78a.87.87 0 0 1-.86.86.86.86 0 0 1 0-1.73.87.87 0 0 1 .86.86z"/><path id="path63" data-name="path" class="cls-1" d="M566.86 16.94a.86.86 0 1 1-.85-.85.85.85 0 0 1 .85.85z"/><path id="path64" data-name="path" class="cls-1" d="M565.64 10.06a.86.86 0 1 1-.85-.85.85.85 0 0 1 .85.85z"/><path id="path65" data-name="path" class="cls-1" d="M558 21.8a.86.86 0 1 1-.86-.85.86.86 0 0 1 .86.85z"/><path id="path66" data-name="path" class="cls-1" d="M560.85 18.8a.86.86 0 1 1-.85-.8.85.85 0 0 1 .85.85z"/><path id="path67" data-name="path" class="cls-1" d="M563.72 15.94a.86.86 0 0 1-1.73 0 .86.86 0 0 1 1.73 0z"/><path id="path68" data-name="path" class="cls-1" d="M549.4 16.52a.86.86 0 1 1-.85-.86.86.86 0 0 1 .85.86z"/><path id="path69" data-name="path" class="cls-1" d="M552.84 11.93a.86.86 0 1 1-.86-.85.87.87 0 0 1 .86.85z"/><path id="path70" data-name="path" class="cls-1" d="M566.46 13.29a.86.86 0 0 1-.86.86.86.86 0 1 1 0-1.71.85.85 0 0 1 .86.85z"/></g><g id="group12" data-name="group"><path id="composite_path11" data-name="composite_path" class="cls-1" d="M754.9 3.83A9.56 9.56 0 0 1 759.56 0l.36.9c-3.82 1.5-6 5.19-4.9 8.31a3.51 3.51 0 0 1 .86 1 3.33 3.33 0 0 1 3.67 4.93 3.24 3.24 0 0 1 2.16 2 3.36 3.36 0 0 1-1.88 4.34 3.47 3.47 0 0 1-2.11.1 3.35 3.35 0 0 1-2.06 3.6 3.4 3.4 0 0 1-2.87-.2 3.36 3.36 0 0 1-2.1 3.19 3.48 3.48 0 0 1-1.66.2 3.33 3.33 0 0 1-6.32.37 3.34 3.34 0 0 1 .42-3.21 3.35 3.35 0 0 1-1.28-1.57 3.3 3.3 0 0 1 .68-3.51 3.46 3.46 0 0 1-1.11-1.45 3.36 3.36 0 0 1 1-3.82 3.26 3.26 0 0 1-1-1.32 3.32 3.32 0 0 1 3.9-4.46 3.33 3.33 0 0 1 6.39-.64 3.24 3.24 0 0 1 2.15-.1 6.55 6.55 0 0 1 .37-3.5 6.19 6.19 0 0 1-7.45-3.68l-.14-.48.44-.17a6.2 6.2 0 0 1 7.82 3zm-3.21 6l-.1.07a1.07 1.07 0 0 0-.2.15l-.15.15c0 .05-.08.08-.12.13l-.12.17-.1.15-.1.2-.05.15c0 .07-.05.14-.08.2s-.05.24-.07.35v.57a2.53 2.53 0 0 0 .07.35 2.87 2.87 0 0 1 .56.56.34.34 0 0 1 .07.1 1 1 0 0 1 .17.25l.05.08a2.49 2.49 0 0 1 .17.37 3 3 0 0 0 .76.3h.05a2.36 2.36 0 0 0 1 0h.05l.24-.08a2.38 2.38 0 1 0-1.76-4.43 4 4 0 0 0-.39.19zm-4.92 3.77l-.15.22-.05.07-.1.2-.05.1a1 1 0 0 0-.07.2.32.32 0 0 0 0 .14l-.05.19v.19a3.15 3.15 0 0 1 .78.64v.05a2.08 2.08 0 0 1 .29.39l.05.08a3.71 3.71 0 0 1 .22.44 2.89 2.89 0 0 1 .15.51l.42-.22.37-.12h.14a1 1 0 0 1 .24 0 .47.47 0 0 1 .15 0 1.28 1.28 0 0 1 .25 0h.49a.13.13 0 0 1 0-.08 2.33 2.33 0 0 1 .12-.37.38.38 0 0 1 .05-.08 2.63 2.63 0 0 1 .19-.37v-.05a3 3 0 0 1 .27-.37 2.26 2.26 0 0 1 .36-.34 2 2 0 0 0-.15-.64 1.68 1.68 0 0 0-.2-.39.34.34 0 0 0-.07-.1 1.24 1.24 0 0 0-.19-.24l-.08-.1a2.35 2.35 0 0 0-.32-.25l-.34-.17a2.85 2.85 0 0 0-.34-.14h-.12a3.37 3.37 0 0 0-.41-.07h-.07a2.08 2.08 0 0 0-.46 0 2.27 2.27 0 0 0-.46.12l-.15.07a2.56 2.56 0 0 0-.79.61zm.66 6.89a3.05 3.05 0 0 1 .2.24l.05.08.17.25a.13.13 0 0 0 0 .07 3.22 3.22 0 0 1 .17.35 2.26 2.26 0 0 1 .12.41h.07l.3-.1.2-.05h.1a1.32 1.32 0 0 1 .27 0h.61l.27.05.25.07h.07a1.29 1.29 0 0 1 .24.08.06.06 0 0 1 .05 0 2.4 2.4 0 0 0 .41-.32 4.16 4.16 0 0 1 .08-.44 3.33 3.33 0 0 1 .36-.83 1.81 1.81 0 0 1 .25-.37 3.4 3.4 0 0 0 0-.41v-.05a1.84 1.84 0 0 0-.12-.41 1.73 1.73 0 0 0-.2-.39v-.05a2.52 2.52 0 0 0-.27-.32l-.05-.05a2.29 2.29 0 0 0-.3-.27h-.05a3 3 0 0 0-.32-.17h-.07a1.13 1.13 0 0 0-.34-.1l-.19-.05a1.29 1.29 0 0 0-.25 0 .57.57 0 0 0-.17 0 1.67 1.67 0 0 0-.29 0 .33.33 0 0 0-.13 0 1.41 1.41 0 0 0-.44.12 2.13 2.13 0 0 0-.39.2.94.94 0 0 0-.15.12 2 2 0 0 0-.22.17 3.31 3.31 0 0 1-.73 1.69 1.83 1.83 0 0 0 0 .3c.1.08.19.17.29.27s0 0 0 .05zm5.76-1.55l.42-.14h.1a3.39 3.39 0 0 1 .41-.07 2.06 2.06 0 0 1 .46 0h.05a3.33 3.33 0 0 1 .41.05 2 2 0 0 0 .19-.32v-.27a.42.42 0 0 1 0-.13v-.19a.4.4 0 0 1 0-.14.5.5 0 0 1 0-.17.49.49 0 0 1 0-.15l.05-.15v-.08a2.45 2.45 0 0 0-.29-.88 1 1 0 0 0 .01-.3l-.07-.1a3.08 3.08 0 0 0-.22-.24l-.05-.05a2.89 2.89 0 0 0-.73-.44h-.05l-.25-.07h-.12a1.66 1.66 0 0 1-.29 0 1 1 0 0 1-.22 0h-.19a.57.57 0 0 1-.17 0 .82.82 0 0 1-.2 0 1 1 0 0 0-.2.07 2 2 0 0 0-.42.22l-.08.05a2.33 2.33 0 0 0-.88 1.18v.05a.29.29 0 0 0 0 .12l.27.13.27.17a3.31 3.31 0 0 1 .71.66 1.2 1.2 0 0 1 .17.24l.14.24v.05c0 .05.08.2.14.3s.1.3.14.44 0 .05 0 .07l.42-.2zM758.5 15a2.36 2.36 0 0 0 .39-2.42 2.39 2.39 0 0 0-2.67-1.47v.07a3.61 3.61 0 0 1 .05.44 3.29 3.29 0 0 1 0 .42v.1a3.07 3.07 0 0 1-.07.42v.05a2.34 2.34 0 0 1-.12.37.24.24 0 0 1 0 .1 4 4 0 0 1-.19.39v.05a2.09 2.09 0 0 1-.2.32l-.07.07a2.62 2.62 0 0 1-.29.32l-.05.05c-.1.1-.2.17-.3.25h-.05a3.49 3.49 0 0 1 .71.59l.07.07.25.34a.23.23 0 0 0 .05.07l.05.08a3.49 3.49 0 0 0 .41.08 2.52 2.52 0 0 1 .41-.3h.07a4 4 0 0 1 .47-.24 2.35 2.35 0 0 1 .49-.15h.08a2.58 2.58 0 0 1 .51-.05zm2.31 2.47a2.35 2.35 0 0 0-2.15-1.5 1.2 1.2 0 0 0-.42 0h-.05a1.68 1.68 0 0 0-.47.14 1.43 1.43 0 0 0-.42.22 1.68 1.68 0 0 0-.34.27 2.24 2.24 0 0 0-.64 1.13.19.19 0 0 1 0 .08l-.05.39v.07a2.42 2.42 0 0 0 .17.9l.08.19.15.12s.07.05.08.08a1.29 1.29 0 0 1 .15.15s0 .05.07.07.08.12.14.17a.23.23 0 0 0 .05.07 1.36 1.36 0 0 0 .14.2 2.38 2.38 0 0 0 3.53-2.86zm-5.51 6.79a2.39 2.39 0 0 0 1.33-3.09 2.59 2.59 0 0 0-.19-.37.34.34 0 0 0-.07-.1 3.4 3.4 0 0 0-.22-.29l-.08-.07a1.11 1.11 0 0 0-.3-.25 2.61 2.61 0 0 0-.74-.32l-.19-.05h-.72a.37.37 0 0 1-.14 0 2.2 2.2 0 0 0-.44.14 4.2 4.2 0 0 0-.39.19l-.05.05a1.87 1.87 0 0 0-.29.22l-.1.1a1.18 1.18 0 0 0-.14.17 1.15 1.15 0 0 0-.14.17 1 1 0 0 0-.1.19 1.58 1.58 0 0 0-.17.39c0 .07-.05.12-.07.19s0 .15 0 .22a2.52 2.52 0 0 0 .14 1.22 2.38 2.38 0 0 0 3.09 1.33zm-6.15 3.14a2.39 2.39 0 0 0 2.52-3.24 2.33 2.33 0 0 0-1.2-1.27 2.86 2.86 0 0 0-.34-.13h-.12a1.67 1.67 0 0 0-.41-.05.1.1 0 0 0-.07 0 2.06 2.06 0 0 0-.46 0 2.5 2.5 0 0 0-.47.13 1.28 1.28 0 0 0-.3.15 3.07 3.07 0 0 1-.17.78l-.05.15a1.36 1.36 0 0 1-.1.24l-.1.2-.12.2-.1.15.34.29.08.1a1.8 1.8 0 0 1 .25.25l.07.07c.08.12.17.24.25.37a.37.37 0 0 1 .05.08 2.36 2.36 0 0 1 .2.42 2.89 2.89 0 0 1 .15.51v.08c0 .03.05.34.07.51zm-5.56 1a2.38 2.38 0 0 0 4.59-.74v-.2a.85.85 0 0 0 0-.2 1.38 1.38 0 0 0 0-.24.31.31 0 0 1 0-.14 2.39 2.39 0 0 0-.44-.84l-.05-.07-.2-.2-.12-.1a1.31 1.31 0 0 0-.19-.14 1.07 1.07 0 0 0-.24-.14l-.14-.07c-.05 0-.12 0-.19-.07l-.27-.07h-.44a1.29 1.29 0 0 0-.25 0 .82.82 0 0 0-.2 0 3.38 3.38 0 0 0-.44.12 3.07 3.07 0 0 0-.41.22 1.32 1.32 0 0 0-.19.14 1.79 1.79 0 0 0-.2.17 2.39 2.39 0 0 0-.56 2.58zm-.86-4.8a2.31 2.31 0 0 0 1.1 1.23 2.89 2.89 0 0 1 .3-.19l.07-.05c.12-.05.24-.12.37-.17s.32-.1.47-.15a.15.15 0 0 0 .08 0 2.38 2.38 0 0 1 .47-.05h.07a2.88 2.88 0 0 1 1 .12c0-.05.08-.08.12-.14a.23.23 0 0 1 .05-.07 1.91 1.91 0 0 0 .22-.41 2.46 2.46 0 0 0 .15-.46 2.58 2.58 0 0 0 .05-.51 1.8 1.8 0 0 0-.05-.42.6.6 0 0 0 0-.17 1 1 0 0 0-.08-.24 2.47 2.47 0 0 0-.19-.37.66.66 0 0 0-.07-.12 2.94 2.94 0 0 0-.2-.24.34.34 0 0 0-.07-.08 2.54 2.54 0 0 0-.71-.49 2 2 0 0 0-.34-.12h-.12a1.5 1.5 0 0 0-.29 0 2.06 2.06 0 0 0-1.49.34l-.07.05a2.37 2.37 0 0 0-.9 2.84zm-.42-4.95a2.4 2.4 0 0 0 1 1.17 2.76 2.76 0 0 1 .39-.19 1.07 1.07 0 0 1 .3-.1h.08l.24-.05h.08a1 1 0 0 1 .24 0h.71a.86.86 0 0 1 .22 0h.1l.19.05.14.05h.05a1 1 0 0 1 .12-.14l.08-.1a2.3 2.3 0 0 0 .61-1.4v-.5a.28.28 0 0 1 0-.12l-.05-.2a1.17 1.17 0 0 0-.05-.14.59.59 0 0 0-.07-.19c0-.08-.08-.17-.12-.25a1.94 1.94 0 0 0-.17-.22 1.46 1.46 0 0 0-.12-.17l-.15-.15-.17-.15a.59.59 0 0 0-.13-.08 2.7 2.7 0 0 0-.3-.17 2.86 2.86 0 0 0-.34-.13h-.12a2.48 2.48 0 0 0-.32-.05h-.46a.69.69 0 0 0-.19 0 2.52 2.52 0 0 0-.47.14 2.37 2.37 0 0 0-1.33 3.09zm0-5.14a2.41 2.41 0 0 0 1 1.15l.44-.14h.08a3.87 3.87 0 0 1 1-.07 4.23 4.23 0 0 1 .49.08 2.57 2.57 0 0 1 .24-.78.82.82 0 0 0 .05-.12 1.49 1.49 0 0 1 .17-.27c0-.05.05-.08.07-.13a3.55 3.55 0 0 1 .24-.3 1.74 1.74 0 0 0 .17-.17.78.78 0 0 0 .12-.12 2.47 2.47 0 0 1 .22-.17l.24-.17a3.54 3.54 0 0 0-.1-.52 2.29 2.29 0 0 0-.22-.41 1.44 1.44 0 0 0-.12-.17.89.89 0 0 0-.17-.19.9.9 0 0 0-.19-.17l-.15-.13c-.07-.05-.15-.08-.24-.14a2.35 2.35 0 0 0-2-.13 2.39 2.39 0 0 0-1.34 3.09zm5.42-5.73a2.37 2.37 0 0 0-1.49 2 3.15 3.15 0 0 1 .78.64l.05.05c.1.14.19.25.27.39l.05.08a3.48 3.48 0 0 1 .22.44v.12c0 .07.08.24.12.37l.37-.07h.07a4 4 0 0 1 .9 0 3.31 3.31 0 0 1 .44.12v-.05a2 2 0 0 1 0-.32v-.05l.05-.35a3.34 3.34 0 0 1 1.2-1.93 2.38 2.38 0 0 0-3.14-1.47zM754 4.22a5.24 5.24 0 0 0-6.12-2.67A5.24 5.24 0 0 0 754 4.22z"/></g><g id="group13" data-name="group"><path id="composite_path12" data-name="composite_path" class="cls-1" d="M697.66.67l-.4-.42-14.37 14.36.86 2.88a.85.85 0 0 1-.59.83l-.91.29-.28.85a1.79 1.79 0 0 1-1.13 1.19 3.57 3.57 0 0 1-1-.57 2.62 2.62 0 0 0-1.58-.64h-.19l-5.89 5.87.42.41A17.75 17.75 0 0 0 697.66.67zm-18.48 20.39c.7.45 1.36.89 2 .7a2.92 2.92 0 0 0 1.9-1.93l.1-.29.37-.12a2 2 0 0 0 1.35-2.12l-.7-2.34 10-10a10.87 10.87 0 0 1 3.31 7.6 12.8 12.8 0 0 1-3.91 9.2 12.82 12.82 0 0 1-9.21 3.92 10.87 10.87 0 0 1-7.6-3.31l1.68-1.68c.19.1.5.29.69.42zm17.26 3.49a16.52 16.52 0 0 1-22.64.78l2.2-2.23a12.08 12.08 0 0 0 8.36 3.66h.26a14.06 14.06 0 0 0 9.78-4.25 13.93 13.93 0 0 0 4.25-10A12.16 12.16 0 0 0 695 4.1l2.2-2.21a16.52 16.52 0 0 1-.78 22.65z"/><path id="path71" data-name="path" class="cls-1" d="M676.42 10.79a.87.87 0 0 1-.86.86.86.86 0 0 1 0-1.73.87.87 0 0 1 .86.86z"/><path id="path72" data-name="path" class="cls-1" d="M683.28 23.38a.86.86 0 1 1-.86-.85.86.86 0 0 1 .86.85z"/><path id="path73" data-name="path" class="cls-1" d="M688.7 15.72a.86.86 0 1 1-.85-.85.85.85 0 0 1 .85.85z"/><path id="path74" data-name="path" class="cls-1" d="M691.54 12.9a.86.86 0 0 1-.86.86.86.86 0 1 1 0-1.73.87.87 0 0 1 .86.86z"/><path id="path75" data-name="path" class="cls-1" d="M689.92 22.62a.86.86 0 1 1-.85-.86.85.85 0 0 1 .85.86z"/><path id="path76" data-name="path" class="cls-1" d="M692.76 19.78a.87.87 0 0 1-.86.86.86.86 0 0 1 0-1.73.87.87 0 0 1 .86.86z"/><path id="path77" data-name="path" class="cls-1" d="M695.58 16.94a.86.86 0 1 1-.85-.85.85.85 0 0 1 .85.85z"/><path id="path78" data-name="path" class="cls-1" d="M694.37 10.06a.86.86 0 1 1-.85-.85.85.85 0 0 1 .85.85z"/><path id="path79" data-name="path" class="cls-1" d="M686.68 21.8a.86.86 0 1 1-.86-.85.86.86 0 0 1 .86.85z"/><path id="path80" data-name="path" class="cls-1" d="M689.58 18.8a.86.86 0 1 1-.85-.85.85.85 0 0 1 .85.85z"/><path id="path81" data-name="path" class="cls-1" d="M692.45 15.94a.86.86 0 0 1-1.73 0 .86.86 0 0 1 1.73 0z"/><path id="path82" data-name="path" class="cls-1" d="M678.13 16.52a.86.86 0 1 1-.85-.86.86.86 0 0 1 .85.86z"/><path id="path83" data-name="path" class="cls-1" d="M681.57 11.93a.86.86 0 1 1-.86-.85.87.87 0 0 1 .86.85z"/><path id="path84" data-name="path" class="cls-1" d="M695.19 13.29a.86.86 0 0 1-.86.86.86.86 0 1 1 0-1.71.85.85 0 0 1 .86.85z"/></g><g id="group14" data-name="group"><path id="composite_path13" data-name="composite_path" class="cls-1" d="M883.63 3.83A9.56 9.56 0 0 1 888.29 0l.36.9c-3.82 1.5-6 5.19-4.9 8.31a3.51 3.51 0 0 1 .86 1 3.33 3.33 0 0 1 3.67 4.93 3.24 3.24 0 0 1 2.16 2 3.36 3.36 0 0 1-1.88 4.34 3.47 3.47 0 0 1-2.11.1 3.35 3.35 0 0 1-2.06 3.6 3.4 3.4 0 0 1-2.87-.2 3.36 3.36 0 0 1-2.1 3.19 3.48 3.48 0 0 1-1.66.2 3.33 3.33 0 0 1-6.32.37 3.34 3.34 0 0 1 .42-3.21 3.35 3.35 0 0 1-1.28-1.57 3.3 3.3 0 0 1 .68-3.51 3.46 3.46 0 0 1-1.11-1.45 3.36 3.36 0 0 1 1-3.82 3.26 3.26 0 0 1-1-1.32 3.32 3.32 0 0 1 3.9-4.46 3.33 3.33 0 0 1 6.39-.64 3.24 3.24 0 0 1 2.15-.1 6.55 6.55 0 0 1 .37-3.5 6.19 6.19 0 0 1-7.45-3.68l-.14-.48.44-.17a6.2 6.2 0 0 1 7.82 3zm-3.21 6l-.1.07a1.07 1.07 0 0 0-.2.15l-.15.15c0 .05-.08.08-.12.13l-.12.17-.1.15-.1.2-.05.15c0 .07-.05.14-.08.2s-.05.24-.07.35v.57a2.53 2.53 0 0 0 .07.35 2.87 2.87 0 0 1 .56.56.34.34 0 0 1 .07.1 1 1 0 0 1 .17.25l.05.08a2.49 2.49 0 0 1 .17.37 3 3 0 0 0 .76.3h.05a2.36 2.36 0 0 0 1 0h.05l.24-.08a2.38 2.38 0 1 0-1.76-4.43 4 4 0 0 0-.39.19zm-4.92 3.77l-.15.22-.05.07-.1.2-.05.1a1 1 0 0 0-.07.2.32.32 0 0 0 0 .14l-.05.19v.19a3.15 3.15 0 0 1 .78.64v.05a2.08 2.08 0 0 1 .29.39l.05.08a3.71 3.71 0 0 1 .22.44 2.89 2.89 0 0 1 .15.51l.42-.22.37-.12h.14a1 1 0 0 1 .24 0 .47.47 0 0 1 .15 0 1.28 1.28 0 0 1 .25 0h.49a.13.13 0 0 1 0-.08 2.33 2.33 0 0 1 .12-.37.38.38 0 0 1 .05-.08 2.63 2.63 0 0 1 .19-.37v-.05a3 3 0 0 1 .27-.37 2.26 2.26 0 0 1 .36-.34 2 2 0 0 0-.15-.64 1.68 1.68 0 0 0-.2-.39.34.34 0 0 0-.07-.1 1.24 1.24 0 0 0-.19-.24l-.08-.1a2.35 2.35 0 0 0-.32-.25l-.34-.17a2.85 2.85 0 0 0-.34-.14h-.12a3.37 3.37 0 0 0-.41-.07h-.07a2.08 2.08 0 0 0-.46 0 2.27 2.27 0 0 0-.46.12l-.15.07a2.56 2.56 0 0 0-.79.61zm.66 6.89a3.05 3.05 0 0 1 .2.24l.05.08.17.25a.13.13 0 0 0 0 .07 3.22 3.22 0 0 1 .17.35 2.26 2.26 0 0 1 .12.41h.07l.3-.1.2-.05h.1a1.32 1.32 0 0 1 .27 0h.61l.27.05.25.07h.07a1.29 1.29 0 0 1 .24.08.06.06 0 0 1 .05 0 2.4 2.4 0 0 0 .41-.32 4.16 4.16 0 0 1 .08-.44 3.33 3.33 0 0 1 .36-.83 1.81 1.81 0 0 1 .25-.37 3.4 3.4 0 0 0 0-.41v-.05a1.84 1.84 0 0 0-.12-.41 1.73 1.73 0 0 0-.2-.39v-.05a2.52 2.52 0 0 0-.27-.32l-.05-.05a2.29 2.29 0 0 0-.3-.27h-.05a3 3 0 0 0-.32-.17h-.07a1.13 1.13 0 0 0-.34-.1l-.19-.05a1.29 1.29 0 0 0-.25 0 .57.57 0 0 0-.17 0 1.67 1.67 0 0 0-.29 0 .33.33 0 0 0-.13 0 1.41 1.41 0 0 0-.44.12 2.13 2.13 0 0 0-.39.2.94.94 0 0 0-.15.12 2 2 0 0 0-.22.17 3.31 3.31 0 0 1-.73 1.69 1.83 1.83 0 0 0 0 .3c.1.08.19.17.29.27s0 0 0 .05zm5.76-1.55l.42-.14h.1a3.39 3.39 0 0 1 .41-.07 2.06 2.06 0 0 1 .46 0h.05a3.33 3.33 0 0 1 .41.05 2 2 0 0 0 .19-.32v-.27a.42.42 0 0 1 0-.13v-.19a.4.4 0 0 1 0-.14.5.5 0 0 1 0-.17.49.49 0 0 1 0-.15l.05-.15v-.08a2.45 2.45 0 0 0-.29-.88 1 1 0 0 0-.17-.25l-.07-.1a3.08 3.08 0 0 0-.22-.24l-.05-.05a2.89 2.89 0 0 0-.73-.44h-.05l-.25-.07h-.12a1.66 1.66 0 0 1-.29 0 1 1 0 0 1-.22 0h-.19a.57.57 0 0 1-.17 0 .82.82 0 0 1-.2 0 1 1 0 0 0-.2.07 2 2 0 0 0-.42.22l-.08.05a2.33 2.33 0 0 0-.88 1.18v.05a.29.29 0 0 0 0 .12l.27.13.27.17a3.31 3.31 0 0 1 .71.66 1.2 1.2 0 0 1 .34.2l.14.24v.05c0 .05.08.2.14.3s.1.3.14.44 0 .05 0 .07l.42-.2zm5.31-3.94a2.36 2.36 0 0 0 .39-2.42 2.39 2.39 0 0 0-2.67-1.47v.07a3.61 3.61 0 0 1 .05.44 3.29 3.29 0 0 1 0 .42v.1a3.07 3.07 0 0 1-.07.42v.05a2.34 2.34 0 0 1-.12.37.24.24 0 0 1 0 .1 4 4 0 0 1-.19.39v.05a2.09 2.09 0 0 1-.2.32l-.07.07a2.62 2.62 0 0 1-.29.32l-.05.05c-.1.1-.2.17-.3.25h-.05a3.49 3.49 0 0 1 .71.59l.07.07.25.34a.23.23 0 0 0 .05.07l.05.08a3.49 3.49 0 0 0 .41.08 2.52 2.52 0 0 1 .41-.3h.07a4 4 0 0 1 .47-.24 2.35 2.35 0 0 1 .49-.15h.08a2.58 2.58 0 0 1 .51-.05zm2.31 2.47a2.35 2.35 0 0 0-2.15-1.5 1.2 1.2 0 0 0-.42 0h-.05a1.68 1.68 0 0 0-.47.14 1.43 1.43 0 0 0-.42.22 1.68 1.68 0 0 0-.34.27 2.24 2.24 0 0 0-.64 1.13.19.19 0 0 1 0 .08l-.05.39v.07a2.42 2.42 0 0 0 .17.9l.08.19.15.12s.07.05.08.08a1.29 1.29 0 0 1 .15.15s0 .05.07.07.08.12.14.17a.23.23 0 0 0 .05.07 1.36 1.36 0 0 0 .14.2 2.38 2.38 0 0 0 3.53-2.86zM884 24.24a2.39 2.39 0 0 0 1.33-3.09 2.59 2.59 0 0 0-.19-.37.34.34 0 0 0-.07-.1 3.4 3.4 0 0 0-.22-.29l-.08-.07a1.11 1.11 0 0 0-.3-.25 2.61 2.61 0 0 0-.74-.32l-.19-.05h-.72a.37.37 0 0 1-.14 0 2.2 2.2 0 0 0-.44.14 4.2 4.2 0 0 0-.39.19l-.05.05a1.87 1.87 0 0 0-.29.22l-.1.1a1.18 1.18 0 0 0-.14.17 1.15 1.15 0 0 0-.14.17 1 1 0 0 0-.1.19 1.58 1.58 0 0 0-.17.39c0 .07-.05.12-.07.19s0 .15 0 .22a2.52 2.52 0 0 0 .14 1.22 2.38 2.38 0 0 0 3.07 1.29zm-6.15 3.14a2.39 2.39 0 0 0 2.52-3.24 2.33 2.33 0 0 0-1.2-1.27 2.86 2.86 0 0 0-.34-.13h-.12a1.67 1.67 0 0 0-.41-.05.1.1 0 0 0-.07 0 2.06 2.06 0 0 0-.46 0 2.5 2.5 0 0 0-.47.13 1.28 1.28 0 0 0-.3.15 3.07 3.07 0 0 1-.17.78l-.05.15a1.36 1.36 0 0 1-.1.24l-.1.2-.12.2-.1.15.34.25.08.1a1.8 1.8 0 0 1 .25.25l.07.07c.08.12.17.24.25.37a.37.37 0 0 1 .05.08 2.36 2.36 0 0 1 .2.42 2.89 2.89 0 0 1 .15.51v.08c0 .03.05.34.07.51zm-5.56 1a2.38 2.38 0 0 0 4.59-.74v-.2a.85.85 0 0 0 0-.2 1.38 1.38 0 0 0 0-.24.31.31 0 0 1 0-.14 2.39 2.39 0 0 0-.44-.84l-.05-.07-.2-.2-.12-.1a1.31 1.31 0 0 0-.19-.14 1.07 1.07 0 0 0-.24-.14l-.14-.07c-.05 0-.12 0-.19-.07l-.27-.07h-.44a1.29 1.29 0 0 0-.25 0 .82.82 0 0 0-.2 0 3.38 3.38 0 0 0-.44.12 3.07 3.07 0 0 0-.41.22 1.32 1.32 0 0 0-.19.14 1.79 1.79 0 0 0-.2.17 2.39 2.39 0 0 0-.56 2.58zm-.86-4.8a2.31 2.31 0 0 0 1.1 1.23 2.89 2.89 0 0 1 .3-.19l.07-.05c.12-.05.24-.12.37-.17s.32-.1.47-.15a.15.15 0 0 0 .08 0 2.38 2.38 0 0 1 .47-.05h.07a2.88 2.88 0 0 1 1 .12c0-.05.08-.08.12-.14a.23.23 0 0 1 .05-.07 1.91 1.91 0 0 0 .22-.41 2.46 2.46 0 0 0 .15-.46 2.58 2.58 0 0 0 .05-.51 1.8 1.8 0 0 0-.05-.42.6.6 0 0 0 0-.17 1 1 0 0 0-.08-.24 2.47 2.47 0 0 0-.19-.37.66.66 0 0 0-.07-.12 2.94 2.94 0 0 0-.2-.24.34.34 0 0 0-.07-.08 2.54 2.54 0 0 0-.71-.49 2 2 0 0 0-.34-.12h-.12a1.5 1.5 0 0 0-.29 0 2.06 2.06 0 0 0-1.49.34l-.07.05a2.37 2.37 0 0 0-.9 2.84zm-.43-4.96a2.4 2.4 0 0 0 1 1.17 2.76 2.76 0 0 1 .39-.19 1.07 1.07 0 0 1 .3-.1h.08l.24-.05h.08a1 1 0 0 1 .24 0h.71a.86.86 0 0 1 .22 0h.1l.19.05.14.05h.05a1 1 0 0 1 .12-.14l.08-.1a2.3 2.3 0 0 0 .61-1.4v-.5a.28.28 0 0 1 0-.12l-.05-.2a1.17 1.17 0 0 0-.05-.14.59.59 0 0 0-.07-.19c0-.08-.08-.17-.12-.25a1.94 1.94 0 0 0-.17-.22 1.46 1.46 0 0 0-.12-.17l-.15-.15-.17-.15a.59.59 0 0 0-.13-.08 2.7 2.7 0 0 0-.3-.17 2.86 2.86 0 0 0-.34-.13h-.12a2.48 2.48 0 0 0-.32-.05h-.46a.69.69 0 0 0-.19 0 2.52 2.52 0 0 0-.47.14 2.37 2.37 0 0 0-1.32 3.09zm0-5.14a2.41 2.41 0 0 0 1 1.15l.44-.14h.08a3.87 3.87 0 0 1 1-.07 4.23 4.23 0 0 1 .49.08 2.57 2.57 0 0 1 .24-.78.82.82 0 0 0 .05-.12 1.49 1.49 0 0 1 .17-.27c0-.05.05-.08.07-.13a3.55 3.55 0 0 1 .24-.3 1.74 1.74 0 0 0 .17-.17.78.78 0 0 0 .12-.12 2.47 2.47 0 0 1 .22-.17l.24-.17a3.54 3.54 0 0 0-.1-.52 2.29 2.29 0 0 0-.22-.41 1.44 1.44 0 0 0-.12-.17.89.89 0 0 0-.09-.17.9.9 0 0 0-.19-.17l-.15-.13c-.07-.05-.15-.08-.24-.14a2.35 2.35 0 0 0-2-.13 2.39 2.39 0 0 0-1.34 3.09zm5.42-5.73a2.37 2.37 0 0 0-1.49 2 3.15 3.15 0 0 1 .78.64l.05.05c.1.14.19.25.27.39l.05.08a3.48 3.48 0 0 1 .22.44v.12c0 .07.08.24.12.37l.37-.07h.07a4 4 0 0 1 .9 0 3.31 3.31 0 0 1 .44.12v-.05a2 2 0 0 1 0-.32v-.02l.05-.35a3.34 3.34 0 0 1 1.2-1.93 2.38 2.38 0 0 0-3.14-1.47zm6.27-3.53a5.24 5.24 0 0 0-6.12-2.67 5.24 5.24 0 0 0 6.12 2.67z"/></g><g id="group15" data-name="group"><path id="composite_path14" data-name="composite_path" class="cls-1" d="M826.39.67L826 .25l-14.38 14.36.86 2.88a.85.85 0 0 1-.59.83l-.91.29-.28.85a1.79 1.79 0 0 1-1.13 1.19 3.57 3.57 0 0 1-1-.57 2.62 2.62 0 0 0-1.58-.64h-.19l-5.89 5.87.42.41A17.75 17.75 0 0 0 826.39.67zm-18.48 20.39c.7.45 1.36.89 2 .7a2.92 2.92 0 0 0 1.9-1.93l.1-.29.37-.12a2 2 0 0 0 1.35-2.12l-.7-2.34 10-10a10.87 10.87 0 0 1 3.31 7.6 12.8 12.8 0 0 1-3.91 9.2 12.82 12.82 0 0 1-9.21 3.92 10.87 10.87 0 0 1-7.6-3.31l1.68-1.68c.19.1.5.29.69.42zm17.26 3.49a16.52 16.52 0 0 1-22.64.78l2.21-2.21a12.08 12.08 0 0 0 8.36 3.66h.26a14.06 14.06 0 0 0 9.78-4.25 13.93 13.93 0 0 0 4.25-10 12.16 12.16 0 0 0-3.65-8.38L826 1.89a16.52 16.52 0 0 1-.78 22.65z"/><path id="path85" data-name="path" class="cls-1" d="M805.14 10.79a.87.87 0 0 1-.86.86.86.86 0 0 1 0-1.73.87.87 0 0 1 .86.86z"/><path id="path86" data-name="path" class="cls-1" d="M812 23.38a.86.86 0 1 1-.86-.85.86.86 0 0 1 .86.85z"/><path id="path87" data-name="path" class="cls-1" d="M817.43 15.72a.86.86 0 1 1-.85-.85.85.85 0 0 1 .85.85z"/><path id="path88" data-name="path" class="cls-1" d="M820.27 12.9a.86.86 0 0 1-.86.86.86.86 0 1 1 0-1.73.87.87 0 0 1 .86.86z"/><path id="path89" data-name="path" class="cls-1" d="M818.65 22.62a.86.86 0 1 1-.85-.86.85.85 0 0 1 .85.86z"/><path id="path90" data-name="path" class="cls-1" d="M821.49 19.78a.87.87 0 0 1-.86.86.86.86 0 0 1 0-1.73.87.87 0 0 1 .86.86z"/><path id="path91" data-name="path" class="cls-1" d="M824.31 16.94a.86.86 0 1 1-.85-.85.85.85 0 0 1 .85.85z"/><path id="path92" data-name="path" class="cls-1" d="M823.1 10.06a.86.86 0 1 1-.85-.85.85.85 0 0 1 .85.85z"/><path id="path93" data-name="path" class="cls-1" d="M815.41 21.8a.86.86 0 1 1-.86-.85.86.86 0 0 1 .86.85z"/><path id="path94" data-name="path" class="cls-1" d="M818.31 18.8a.86.86 0 1 1-.85-.85.85.85 0 0 1 .85.85z"/><path id="path95" data-name="path" class="cls-1" d="M821.18 15.94a.86.86 0 0 1-1.73 0 .86.86 0 0 1 1.73 0z"/><path id="path96" data-name="path" class="cls-1" d="M806.86 16.52a.86.86 0 1 1-.85-.86.86.86 0 0 1 .85.86z"/><path id="path97" data-name="path" class="cls-1" d="M810.3 11.93a.86.86 0 1 1-.86-.85.87.87 0 0 1 .86.85z"/><path id="path98" data-name="path" class="cls-1" d="M823.92 13.29a.86.86 0 0 1-.86.86.86.86 0 1 1 0-1.71.85.85 0 0 1 .86.85z"/></g><g id="group16" data-name="group"><path id="composite_path15" data-name="composite_path" class="cls-1" d="M955.12.67l-.4-.42-14.37 14.36.86 2.88a.85.85 0 0 1-.59.83l-.91.29-.28.85a1.79 1.79 0 0 1-1.13 1.19 3.57 3.57 0 0 1-1-.57 2.62 2.62 0 0 0-1.58-.64h-.19l-5.89 5.87.42.41A17.75 17.75 0 0 0 955.12.67zm-18.48 20.39c.7.45 1.36.89 2 .7a2.92 2.92 0 0 0 1.9-1.93l.1-.29.37-.12a2 2 0 0 0 1.35-2.12l-.7-2.34 10-10A10.87 10.87 0 0 1 955 12.5a12.8 12.8 0 0 1-3.91 9.2 12.82 12.82 0 0 1-9.21 3.92 10.87 10.87 0 0 1-7.6-3.31l1.72-1.68c.19.1.5.29.69.42zm17.26 3.49a16.52 16.52 0 0 1-22.64.78l2.21-2.21a12.08 12.08 0 0 0 8.36 3.66h.26a14.06 14.06 0 0 0 9.78-4.25 13.93 13.93 0 0 0 4.25-10 12.16 12.16 0 0 0-3.65-8.38l2.2-2.21a16.52 16.52 0 0 1-.78 22.65z"/><path id="path99" data-name="path" class="cls-1" d="M933.87 10.79a.87.87 0 0 1-.86.86.86.86 0 0 1 0-1.73.87.87 0 0 1 .86.86z"/><path id="path100" data-name="path" class="cls-1" d="M940.74 23.38a.86.86 0 1 1-.86-.85.86.86 0 0 1 .86.85z"/><path id="path101" data-name="path" class="cls-1" d="M946.16 15.72a.86.86 0 1 1-.85-.85.85.85 0 0 1 .85.85z"/><path id="path102" data-name="path" class="cls-1" d="M949 12.9a.86.86 0 0 1-.86.86.86.86 0 1 1 0-1.73.87.87 0 0 1 .86.86z"/><path id="path103" data-name="path" class="cls-1" d="M947.37 22.62a.86.86 0 1 1-.85-.86.85.85 0 0 1 .85.86z"/><path id="path104" data-name="path" class="cls-1" d="M950.22 19.78a.87.87 0 0 1-.86.86.86.86 0 0 1 0-1.73.87.87 0 0 1 .86.86z"/><path id="path105" data-name="path" class="cls-1" d="M953 16.94a.86.86 0 1 1-.85-.85.85.85 0 0 1 .85.85z"/><path id="path106" data-name="path" class="cls-1" d="M951.83 10.06a.86.86 0 1 1-.85-.85.85.85 0 0 1 .85.85z"/><path id="path107" data-name="path" class="cls-1" d="M944.14 21.8a.86.86 0 1 1-.86-.85.86.86 0 0 1 .86.85z"/><path id="path108" data-name="path" class="cls-1" d="M947 18.8a.86.86 0 1 1-.85-.85.85.85 0 0 1 .85.85z"/><path id="path109" data-name="path" class="cls-1" d="M949.91 15.94a.86.86 0 0 1-1.73 0 .86.86 0 0 1 1.73 0z"/><path id="path110" data-name="path" class="cls-1" d="M935.59 16.52a.86.86 0 1 1-.85-.86.86.86 0 0 1 .85.86z"/><path id="path111" data-name="path" class="cls-1" d="M939 11.93a.86.86 0 1 1-.86-.85.87.87 0 0 1 .86.85z"/><path id="path112" data-name="path" class="cls-1" d="M952.65 13.29a.86.86 0 0 1-.86.86.86.86 0 1 1 0-1.71.85.85 0 0 1 .86.85z"/></g></g><g id="group17" data-name="group"><g id="group18" data-name="group"><path id="composite_path16" data-name="composite_path" class="cls-2" d="M75.55 8.72a5.89 5.89 0 0 1 2.18.4 5.67 5.67 0 0 0-1.58-3.29.41.41 0 0 1 0-.56.4.4 0 0 1 .58 0 6.35 6.35 0 0 1 1.83 3.87 6.44 6.44 0 0 1 2.27-.42A6.27 6.27 0 0 1 87.11 15a16.57 16.57 0 0 1-1.77 6.53c-1.31 2.68-2.91 4.16-4.51 4.16a6.43 6.43 0 0 1-2.64-.58 6.35 6.35 0 0 1-2.64.58c-1.6 0-3.2-1.48-4.51-4.16A16.55 16.55 0 0 1 69.27 15a6.29 6.29 0 0 1 6.28-6.28zm0 16.13a5.27 5.27 0 0 0 2.45-.58.6.6 0 0 1 .19 0 .61.61 0 0 1 .19 0 5.26 5.26 0 0 0 2.45.58c2.87 0 5.47-6.69 5.47-9.85a5.47 5.47 0 0 0-5.47-5.47 5.53 5.53 0 0 0-2.45.58.4.4 0 0 1-.37 0 5.53 5.53 0 0 0-2.45-.58A5.48 5.48 0 0 0 70.09 15c0 3.16 2.6 9.85 5.47 9.85z"/><path id="path113" data-name="path" class="cls-2" d="M83.93 16.41a.42.42 0 0 1 .52-.27.41.41 0 0 1 .27.5c-.23.79-.46 1.54-.71 2.22a.4.4 0 0 1-.37.27h-.15a.43.43 0 0 1-.25-.52q.37-1 .69-2.18z"/><path id="path114" data-name="path" class="cls-2" d="M81.58 10.88a3.68 3.68 0 0 1 3.49 3.85.42.42 0 1 1-.83 0 2.87 2.87 0 0 0-2.66-3 .41.41 0 0 1-.4-.42.41.41 0 0 1 .4-.4z"/></g><g id="group19" data-name="group"><path id="composite_path17" data-name="composite_path" class="cls-2" d="M9.25 5.92l-1-2.1-1.7 1.6a4.71 4.71 0 0 0-1.46 4.41 8.82 8.82 0 0 0-2.74 2.06A9.1 9.1 0 1 0 9.66 9a4.85 4.85 0 0 0-.42-3zm5.38 5.88a8.32 8.32 0 1 1-11.75.56 8.5 8.5 0 0 1 2.39-1.83c.06.15.12.31.21.48l.71 1.43a4.86 4.86 0 0 0-.94.52.36.36 0 0 0-.06.5.37.37 0 0 0 .52.06l.35-.23v.54a.37.37 0 0 0 .4.33.35.35 0 0 0 .25-.1.48.48 0 0 0 .08-.29 3.38 3.38 0 0 1 0-.79 1.53 1.53 0 0 1 .81 0 .34.34 0 0 0 .4-.04.42.42 0 0 0 .08-.12.35.35 0 0 0-.21-.46 1.22 1.22 0 0 0-.46-.1l.79-.73c.08-.1.19-.19.27-.29s.06-.06.08-.08l.06-.06a5.22 5.22 0 0 0 .81-1.43 8.21 8.21 0 0 1 5.18 2.14zM8.89 9v.19a3.93 3.93 0 0 1-.75 1.39v.06a2.68 2.68 0 0 1-.33.35l-.67.64A9.23 9.23 0 0 1 8 7.29.39.39 0 0 0 8.1 7a.36.36 0 0 0-.19-.31.35.35 0 0 0-.37 0 8.48 8.48 0 0 0-1.21 4.41l-.21-.42a3.65 3.65 0 0 1-.27-.77l-.06-.19A4 4 0 0 1 7 5.94L8 5l.6 1.23A4 4 0 0 1 8.89 9z"/><path id="path115" data-name="path" class="cls-2" d="M10.45 11.55a.72.72 0 0 1 .06 1 .75.75 0 0 1-1 0 .72.72 0 0 1 1-1.06z"/><path id="path116" data-name="path" class="cls-2" d="M14.74 12.84a.72.72 0 1 1-1 0 .72.72 0 0 1 1 0z"/><path id="path117" data-name="path" class="cls-2" d="M13 11.43a.72.72 0 1 1-1 1.06.72.72 0 0 1 1-1.06z"/><path id="path118" data-name="path" class="cls-2" d="M12.62 14a.71.71 0 0 1 .06 1 .72.72 0 0 1-1 0 .71.71 0 0 1-.06-1 .72.72 0 0 1 1 0z"/><path id="path119" data-name="path" class="cls-2" d="M14.74 15.44a.71.71 0 0 1 .06 1 .75.75 0 0 1-1 0 .72.72 0 0 1 1-1.06z"/><path id="path120" data-name="path" class="cls-2" d="M3.94 14.42a.72.72 0 0 1-1 1.06.71.71 0 0 1-.06-1 .75.75 0 0 1 1 0z"/><path id="path121" data-name="path" class="cls-2" d="M3 17a.72.72 0 0 1 .06 1 .75.75 0 0 1-1 0A.72.72 0 0 1 3 17z"/></g><g id="group20" data-name="group"><path id="composite_path18" data-name="composite_path" class="cls-2" d="M204.28 8.72a5.89 5.89 0 0 1 2.18.4 5.67 5.67 0 0 0-1.58-3.29.41.41 0 0 1 0-.56.4.4 0 0 1 .58 0 6.35 6.35 0 0 1 1.83 3.87 6.44 6.44 0 0 1 2.27-.42 6.27 6.27 0 0 1 6.28 6.28 16.57 16.57 0 0 1-1.77 6.53c-1.31 2.68-2.91 4.16-4.51 4.16a6.43 6.43 0 0 1-2.64-.58 6.35 6.35 0 0 1-2.64.58c-1.6 0-3.2-1.48-4.51-4.16A16.55 16.55 0 0 1 198 15a6.29 6.29 0 0 1 6.28-6.28zm0 16.13a5.27 5.27 0 0 0 2.45-.58.6.6 0 0 1 .19 0 .61.61 0 0 1 .19 0 5.26 5.26 0 0 0 2.45.58c2.87 0 5.47-6.69 5.47-9.85a5.47 5.47 0 0 0-5.47-5.47 5.53 5.53 0 0 0-2.45.58.4.4 0 0 1-.37 0 5.53 5.53 0 0 0-2.45-.58 5.48 5.48 0 0 0-5.48 5.47c0 3.16 2.6 9.85 5.47 9.85z"/><path id="path122" data-name="path" class="cls-2" d="M212.66 16.41a.42.42 0 0 1 .52-.27.41.41 0 0 1 .27.5c-.23.79-.46 1.54-.71 2.22a.4.4 0 0 1-.37.27h-.15a.43.43 0 0 1-.25-.52q.37-1 .69-2.18z"/><path id="path123" data-name="path" class="cls-2" d="M210.31 10.88a3.68 3.68 0 0 1 3.49 3.85.42.42 0 1 1-.83 0 2.87 2.87 0 0 0-2.66-3 .41.41 0 0 1-.4-.42.41.41 0 0 1 .4-.4z"/></g><g id="group21" data-name="group"><path id="composite_path19" data-name="composite_path" class="cls-2" d="M138 5.92l-1-2.1-1.7 1.6a4.71 4.71 0 0 0-1.43 4.41 8.82 8.82 0 0 0-2.74 2.06A9.1 9.1 0 1 0 138.39 9a4.85 4.85 0 0 0-.42-3zm5.38 5.88a8.32 8.32 0 1 1-11.75.56 8.5 8.5 0 0 1 2.37-1.83c.06.15.12.31.21.48l.71 1.43a4.86 4.86 0 0 0-.92.56.36.36 0 0 0-.06.5.37.37 0 0 0 .52.06l.35-.23v.54a.37.37 0 0 0 .4.33.35.35 0 0 0 .25-.1.48.48 0 0 0 .08-.29 3.38 3.38 0 0 1 0-.79 1.53 1.53 0 0 1 .81 0 .34.34 0 0 0 .39-.08.42.42 0 0 0 .08-.12.35.35 0 0 0-.21-.46 1.22 1.22 0 0 0-.46-.1l.79-.73c.08-.1.19-.19.27-.29s.06-.06.08-.08l.06-.06a5.22 5.22 0 0 0 .81-1.43 8.21 8.21 0 0 1 5.18 2.14zM137.62 9v.19a3.93 3.93 0 0 1-.75 1.39v.06a2.68 2.68 0 0 1-.33.35l-.67.64a9.23 9.23 0 0 1 .94-4.34.39.39 0 0 0 .1-.29.36.36 0 0 0-.19-.31.35.35 0 0 0-.37 0 8.48 8.48 0 0 0-1.21 4.41l-.21-.42a3.65 3.65 0 0 1-.27-.77l-.06-.19a4 4 0 0 1 1.23-3.8l1-.94.6 1.23a4 4 0 0 1 .19 2.79z"/><path id="path124" data-name="path" class="cls-2" d="M139.18 11.55a.72.72 0 0 1 .06 1 .75.75 0 0 1-1 0 .72.72 0 0 1 1-1.06z"/><path id="path125" data-name="path" class="cls-2" d="M143.46 12.84a.72.72 0 1 1-1 0 .72.72 0 0 1 1 0z"/><path id="path126" data-name="path" class="cls-2" d="M141.74 11.43a.72.72 0 1 1-1 1.06.72.72 0 0 1 1-1.06z"/><path id="path127" data-name="path" class="cls-2" d="M141.34 14a.71.71 0 0 1 .06 1 .72.72 0 0 1-1 0 .71.71 0 0 1-.06-1 .72.72 0 0 1 1 0z"/><path id="path128" data-name="path" class="cls-2" d="M143.46 15.44a.71.71 0 0 1 .06 1 .75.75 0 0 1-1 0 .72.72 0 0 1 1-1.06z"/><path id="path129" data-name="path" class="cls-2" d="M132.67 14.42a.72.72 0 0 1-1 1.06.71.71 0 0 1-.06-1 .75.75 0 0 1 1 0z"/><path id="path130" data-name="path" class="cls-2" d="M131.76 17a.72.72 0 0 1 .06 1 .75.75 0 0 1-1 0 .72.72 0 0 1 1-1.06z"/></g><g id="group22" data-name="group"><path id="composite_path20" data-name="composite_path" class="cls-2" d="M333 8.72a5.89 5.89 0 0 1 2.18.4 5.67 5.67 0 0 0-1.58-3.29.41.41 0 0 1 0-.56.4.4 0 0 1 .58 0A6.35 6.35 0 0 1 336 9.13a6.44 6.44 0 0 1 2.27-.42 6.27 6.27 0 0 1 6.3 6.29 16.57 16.57 0 0 1-1.77 6.53c-1.31 2.68-2.91 4.16-4.51 4.16a6.43 6.43 0 0 1-2.64-.58 6.35 6.35 0 0 1-2.64.58c-1.6 0-3.2-1.48-4.51-4.16a16.55 16.55 0 0 1-1.77-6.53A6.29 6.29 0 0 1 333 8.72zm0 16.13a5.27 5.27 0 0 0 2.45-.58.6.6 0 0 1 .19 0 .61.61 0 0 1 .19 0 5.26 5.26 0 0 0 2.45.58c2.87 0 5.47-6.69 5.47-9.85a5.47 5.47 0 0 0-5.47-5.47 5.53 5.53 0 0 0-2.45.58.4.4 0 0 1-.37 0 5.53 5.53 0 0 0-2.46-.58 5.48 5.48 0 0 0-5.46 5.47c0 3.16 2.6 9.85 5.47 9.85z"/><path id="path131" data-name="path" class="cls-2" d="M341.39 16.41a.42.42 0 0 1 .52-.27.41.41 0 0 1 .27.5c-.23.79-.46 1.54-.71 2.22a.4.4 0 0 1-.37.27h-.15a.43.43 0 0 1-.25-.52q.37-1 .69-2.18z"/><path id="path132" data-name="path" class="cls-2" d="M339 10.88a3.68 3.68 0 0 1 3.49 3.85.42.42 0 1 1-.83 0 2.87 2.87 0 0 0-2.66-3 .41.41 0 0 1-.4-.42.41.41 0 0 1 .4-.4z"/></g><g id="group23" data-name="group"><path id="composite_path21" data-name="composite_path" class="cls-2" d="M266.7 5.92l-1-2.1-1.7 1.6a4.71 4.71 0 0 0-1.43 4.41 8.82 8.82 0 0 0-2.74 2.06A9.1 9.1 0 1 0 267.12 9a4.85 4.85 0 0 0-.42-3zm5.38 5.88a8.32 8.32 0 1 1-11.75.56 8.5 8.5 0 0 1 2.39-1.83c.06.15.12.31.21.48l.71 1.43a4.86 4.86 0 0 0-.94.52.36.36 0 0 0-.06.5.37.37 0 0 0 .52.06l.35-.23v.54a.37.37 0 0 0 .4.33.35.35 0 0 0 .25-.1.48.48 0 0 0 .08-.29 3.38 3.38 0 0 1 0-.79 1.53 1.53 0 0 1 .81 0 .34.34 0 0 0 .39-.08.42.42 0 0 0 .08-.12.35.35 0 0 0-.21-.46 1.22 1.22 0 0 0-.46-.1l.79-.73c.08-.1.19-.19.27-.29s.06-.06.08-.08l.06-.06a5.22 5.22 0 0 0 .81-1.43 8.21 8.21 0 0 1 5.18 2.14zM266.35 9v.19a3.93 3.93 0 0 1-.75 1.39v.06a2.68 2.68 0 0 1-.33.35l-.67.64a9.23 9.23 0 0 1 .94-4.34.39.39 0 0 0 .1-.29.36.36 0 0 0-.19-.31.35.35 0 0 0-.37 0 8.48 8.48 0 0 0-1.21 4.41l-.21-.42a3.65 3.65 0 0 1-.27-.77l-.06-.19a4 4 0 0 1 1.23-3.8l1-.94.6 1.23a4 4 0 0 1 .19 2.79z"/><path id="path133" data-name="path" class="cls-2" d="M267.91 11.55a.72.72 0 0 1 .06 1 .75.75 0 0 1-1 0 .72.72 0 0 1 1-1.06z"/><path id="path134" data-name="path" class="cls-2" d="M272.19 12.84a.72.72 0 1 1-1 0 .72.72 0 0 1 1 0z"/><path id="path135" data-name="path" class="cls-2" d="M270.47 11.43a.72.72 0 1 1-1 1.06.72.72 0 0 1 1-1.06z"/><path id="path136" data-name="path" class="cls-2" d="M270.07 14a.71.71 0 0 1 .06 1 .72.72 0 0 1-1 0 .71.71 0 0 1-.06-1 .72.72 0 0 1 1 0z"/><path id="path137" data-name="path" class="cls-2" d="M272.19 15.44a.71.71 0 0 1 .06 1 .75.75 0 0 1-1 0 .72.72 0 0 1 1-1.06z"/><path id="path138" data-name="path" class="cls-2" d="M261.4 14.42a.72.72 0 0 1-1 1.06.71.71 0 0 1-.06-1 .75.75 0 0 1 1 0z"/><path id="path139" data-name="path" class="cls-2" d="M260.49 17a.72.72 0 0 1 .06 1 .75.75 0 0 1-1 0 .72.72 0 0 1 1-1.06z"/></g><g id="group24" data-name="group"><path id="composite_path22" data-name="composite_path" class="cls-2" d="M461.74 8.72a5.89 5.89 0 0 1 2.18.4 5.67 5.67 0 0 0-1.58-3.29.41.41 0 0 1 0-.56.4.4 0 0 1 .58 0 6.35 6.35 0 0 1 1.83 3.87 6.44 6.44 0 0 1 2.25-.42 6.27 6.27 0 0 1 6.3 6.28 16.57 16.57 0 0 1-1.77 6.53c-1.31 2.68-2.91 4.16-4.51 4.16a6.43 6.43 0 0 1-2.64-.58 6.35 6.35 0 0 1-2.64.58c-1.6 0-3.2-1.48-4.51-4.16a16.55 16.55 0 0 1-1.77-6.53 6.29 6.29 0 0 1 6.28-6.28zm0 16.13a5.27 5.27 0 0 0 2.45-.58.6.6 0 0 1 .19 0 .61.61 0 0 1 .19 0 5.26 5.26 0 0 0 2.45.58c2.87 0 5.47-6.69 5.47-9.85A5.47 5.47 0 0 0 467 9.53a5.53 5.53 0 0 0-2.45.58.4.4 0 0 1-.37 0 5.53 5.53 0 0 0-2.45-.58 5.48 5.48 0 0 0-5.46 5.47c0 3.16 2.6 9.85 5.47 9.85z"/><path id="path140" data-name="path" class="cls-2" d="M470.12 16.41a.42.42 0 0 1 .52-.27.41.41 0 0 1 .27.5c-.23.79-.46 1.54-.71 2.22a.4.4 0 0 1-.37.27h-.15a.43.43 0 0 1-.25-.52q.37-1 .69-2.18z"/><path id="path141" data-name="path" class="cls-2" d="M467.77 10.88a3.68 3.68 0 0 1 3.49 3.85.42.42 0 1 1-.83 0 2.87 2.87 0 0 0-2.66-3 .41.41 0 0 1-.4-.42.41.41 0 0 1 .4-.4z"/></g><g id="group25" data-name="group"><path id="composite_path23" data-name="composite_path" class="cls-2" d="M395.43 5.92l-1-2.1-1.7 1.6a4.71 4.71 0 0 0-1.43 4.41 8.82 8.82 0 0 0-2.74 2.06A9.1 9.1 0 1 0 395.85 9a4.85 4.85 0 0 0-.42-3zm5.38 5.88a8.32 8.32 0 1 1-11.75.56 8.5 8.5 0 0 1 2.39-1.83c.06.15.12.31.21.48l.71 1.43a4.86 4.86 0 0 0-.94.52.36.36 0 0 0-.06.5.37.37 0 0 0 .52.06l.35-.23v.54a.37.37 0 0 0 .4.33.35.35 0 0 0 .25-.1.48.48 0 0 0 .08-.29 3.38 3.38 0 0 1 0-.79 1.53 1.53 0 0 1 .81 0 .34.34 0 0 0 .39-.08.42.42 0 0 0 .08-.12.35.35 0 0 0-.21-.46 1.22 1.22 0 0 0-.46-.1l.79-.73c.08-.1.19-.19.27-.29s.06-.06.08-.08l.06-.06a5.22 5.22 0 0 0 .81-1.43 8.21 8.21 0 0 1 5.18 2.14zM395.08 9v.19a3.93 3.93 0 0 1-.75 1.39v.06a2.68 2.68 0 0 1-.33.35l-.67.64a9.23 9.23 0 0 1 .94-4.34.39.39 0 0 0 .1-.29.36.36 0 0 0-.19-.31.35.35 0 0 0-.37 0 8.48 8.48 0 0 0-1.21 4.41l-.21-.42a3.65 3.65 0 0 1-.27-.77l-.12-.17a4 4 0 0 1 1.23-3.8l1-.94.6 1.23a4 4 0 0 1 .25 2.77z"/><path id="path142" data-name="path" class="cls-2" d="M396.64 11.55a.72.72 0 0 1 .06 1 .75.75 0 0 1-1 0 .72.72 0 0 1 1-1.06z"/><path id="path143" data-name="path" class="cls-2" d="M400.92 12.84a.72.72 0 1 1-1 0 .72.72 0 0 1 1 0z"/><path id="path144" data-name="path" class="cls-2" d="M399.2 11.43a.72.72 0 1 1-1 1.06.72.72 0 0 1 1-1.06z"/><path id="path145" data-name="path" class="cls-2" d="M398.8 14a.71.71 0 0 1 .06 1 .72.72 0 0 1-1 0 .71.71 0 0 1-.06-1 .72.72 0 0 1 1 0z"/><path id="path146" data-name="path" class="cls-2" d="M400.92 15.44a.71.71 0 0 1 .06 1 .75.75 0 0 1-1 0 .72.72 0 0 1 1-1.06z"/><path id="path147" data-name="path" class="cls-2" d="M390.13 14.42a.72.72 0 0 1-1 1.06.71.71 0 0 1-.06-1 .75.75 0 0 1 1 0z"/><path id="path148" data-name="path" class="cls-2" d="M389.22 17a.72.72 0 0 1 .06 1 .75.75 0 0 1-1 0 .72.72 0 0 1 1-1.06z"/></g><g id="group26" data-name="group"><path id="composite_path24" data-name="composite_path" class="cls-2" d="M590.47 8.72a5.89 5.89 0 0 1 2.18.4 5.67 5.67 0 0 0-1.58-3.29.41.41 0 0 1 0-.56.4.4 0 0 1 .58 0 6.35 6.35 0 0 1 1.83 3.87 6.44 6.44 0 0 1 2.27-.42A6.27 6.27 0 0 1 602 15a16.57 16.57 0 0 1-1.77 6.53c-1.31 2.68-2.91 4.16-4.51 4.16a6.43 6.43 0 0 1-2.64-.58 6.35 6.35 0 0 1-2.64.58c-1.6 0-3.2-1.48-4.51-4.16a16.55 16.55 0 0 1-1.74-6.53 6.29 6.29 0 0 1 6.28-6.28zm0 16.13a5.27 5.27 0 0 0 2.45-.58.6.6 0 0 1 .19 0 .61.61 0 0 1 .19 0 5.26 5.26 0 0 0 2.45.58c2.87 0 5.47-6.69 5.47-9.85a5.47 5.47 0 0 0-5.47-5.47 5.53 5.53 0 0 0-2.45.58.4.4 0 0 1-.37 0 5.53 5.53 0 0 0-2.45-.58A5.48 5.48 0 0 0 585 15c0 3.16 2.6 9.85 5.47 9.85z"/><path id="path149" data-name="path" class="cls-2" d="M598.85 16.41a.42.42 0 0 1 .52-.27.41.41 0 0 1 .27.5c-.23.79-.46 1.54-.71 2.22a.4.4 0 0 1-.37.27h-.15a.43.43 0 0 1-.25-.52q.37-1 .69-2.18z"/><path id="path150" data-name="path" class="cls-2" d="M596.5 10.88a3.68 3.68 0 0 1 3.5 3.84.42.42 0 1 1-.83 0 2.87 2.87 0 0 0-2.66-3 .41.41 0 0 1-.4-.42.41.41 0 0 1 .4-.4z"/></g><g id="group27" data-name="group"><path id="composite_path25" data-name="composite_path" class="cls-2" d="M524.16 5.92l-1-2.1-1.7 1.6A4.71 4.71 0 0 0 520 9.83a8.82 8.82 0 0 0-2.74 2.06A9.1 9.1 0 1 0 524.58 9a4.85 4.85 0 0 0-.42-3zm5.38 5.88a8.32 8.32 0 1 1-11.75.56 8.5 8.5 0 0 1 2.39-1.83c.06.15.12.31.21.48l.71 1.43a4.86 4.86 0 0 0-.94.52.36.36 0 0 0-.06.5.37.37 0 0 0 .52.06l.35-.23v.54a.37.37 0 0 0 .4.33.35.35 0 0 0 .25-.1.48.48 0 0 0 .08-.29 3.38 3.38 0 0 1 0-.79 1.53 1.53 0 0 1 .81 0 .34.34 0 0 0 .39-.08.42.42 0 0 0 .08-.12.35.35 0 0 0-.21-.46 1.22 1.22 0 0 0-.46-.1l.79-.73c.08-.1.19-.19.27-.29s.06-.06.08-.08l.06-.06a5.22 5.22 0 0 0 .81-1.43 8.21 8.21 0 0 1 5.18 2.14zM523.81 9v.19a3.93 3.93 0 0 1-.75 1.39v.06a2.68 2.68 0 0 1-.33.35l-.67.64a9.23 9.23 0 0 1 .94-4.34.39.39 0 0 0 0-.29.36.36 0 0 0-.19-.31.35.35 0 0 0-.37 0 8.48 8.48 0 0 0-1.21 4.41l-.23-.4a3.65 3.65 0 0 1-.27-.77l-.06-.19a4 4 0 0 1 1.23-3.8l1-.94.6 1.23a4 4 0 0 1 .31 2.77z"/><path id="path151" data-name="path" class="cls-2" d="M525.37 11.55a.72.72 0 0 1 .06 1 .75.75 0 0 1-1 0 .72.72 0 0 1 1-1.06z"/><path id="path152" data-name="path" class="cls-2" d="M529.65 12.84a.72.72 0 1 1-1 0 .72.72 0 0 1 1 0z"/><path id="path153" data-name="path" class="cls-2" d="M527.93 11.43a.72.72 0 1 1-1 1.06.72.72 0 0 1 1-1.06z"/><path id="path154" data-name="path" class="cls-2" d="M527.53 14a.71.71 0 0 1 .06 1 .72.72 0 0 1-1 0 .71.71 0 0 1-.06-1 .72.72 0 0 1 1 0z"/><path id="path155" data-name="path" class="cls-2" d="M529.65 15.44a.71.71 0 0 1 .06 1 .75.75 0 0 1-1 0 .72.72 0 0 1 1-1.06z"/><path id="path156" data-name="path" class="cls-2" d="M518.86 14.42a.72.72 0 0 1-1 1.06.71.71 0 0 1-.06-1 .75.75 0 0 1 1 0z"/><path id="path157" data-name="path" class="cls-2" d="M517.95 17a.72.72 0 0 1 .06 1 .75.75 0 0 1-1 0 .72.72 0 0 1 1-1.06z"/></g><g id="group28" data-name="group"><path id="composite_path26" data-name="composite_path" class="cls-2" d="M719.2 8.72a5.89 5.89 0 0 1 2.18.4 5.67 5.67 0 0 0-1.58-3.29.41.41 0 0 1 0-.56.4.4 0 0 1 .58 0 6.35 6.35 0 0 1 1.83 3.87 6.44 6.44 0 0 1 2.27-.42 6.27 6.27 0 0 1 6.28 6.28 16.57 16.57 0 0 1-1.76 6.52c-1.31 2.68-2.91 4.16-4.51 4.16a6.43 6.43 0 0 1-2.64-.58 6.35 6.35 0 0 1-2.64.58c-1.6 0-3.2-1.48-4.51-4.16a16.55 16.55 0 0 1-1.78-6.52 6.29 6.29 0 0 1 6.28-6.28zm0 16.13a5.27 5.27 0 0 0 2.45-.58.6.6 0 0 1 .19 0 .61.61 0 0 1 .19 0 5.26 5.26 0 0 0 2.45.58c2.87 0 5.47-6.69 5.47-9.85a5.47 5.47 0 0 0-5.47-5.47 5.53 5.53 0 0 0-2.45.58.4.4 0 0 1-.37 0 5.53 5.53 0 0 0-2.45-.58 5.48 5.48 0 0 0-5.48 5.47c0 3.16 2.6 9.85 5.47 9.85z"/><path id="path158" data-name="path" class="cls-2" d="M727.58 16.41a.42.42 0 0 1 .52-.27.41.41 0 0 1 .27.5c-.23.79-.46 1.54-.71 2.22a.4.4 0 0 1-.37.27h-.15a.43.43 0 0 1-.25-.52q.37-1 .69-2.18z"/><path id="path159" data-name="path" class="cls-2" d="M725.23 10.88a3.68 3.68 0 0 1 3.49 3.85.42.42 0 1 1-.83 0 2.87 2.87 0 0 0-2.66-3 .41.41 0 0 1-.4-.42.41.41 0 0 1 .4-.4z"/></g><g id="group29" data-name="group"><path id="composite_path27" data-name="composite_path" class="cls-2" d="M652.89 5.92l-1-2.1-1.7 1.6a4.71 4.71 0 0 0-1.43 4.41 8.82 8.82 0 0 0-2.76 2.05A9.1 9.1 0 1 0 653.31 9a4.85 4.85 0 0 0-.42-3zm5.38 5.88a8.32 8.32 0 1 1-11.75.56 8.5 8.5 0 0 1 2.39-1.83c.06.15.12.31.21.48l.71 1.43a4.86 4.86 0 0 0-.94.52.36.36 0 0 0-.06.5.37.37 0 0 0 .52.06l.35-.23v.54a.37.37 0 0 0 .4.33.35.35 0 0 0 .25-.1.48.48 0 0 0 .08-.29 3.38 3.38 0 0 1 0-.79 1.53 1.53 0 0 1 .81 0 .34.34 0 0 0 .39-.08.42.42 0 0 0 .08-.12.35.35 0 0 0-.21-.46 1.22 1.22 0 0 0-.46-.1l.79-.73c.08-.1.19-.19.27-.29s.06-.06.08-.08l.06-.06a5.22 5.22 0 0 0 .81-1.43 8.21 8.21 0 0 1 5.18 2.14zM652.54 9v.19a3.93 3.93 0 0 1-.75 1.39v.06a2.68 2.68 0 0 1-.33.35l-.67.64a9.23 9.23 0 0 1 .94-4.34.39.39 0 0 0 .1-.29.36.36 0 0 0-.19-.31.35.35 0 0 0-.37 0 8.48 8.48 0 0 0-1.27 4.43l-.21-.42a3.65 3.65 0 0 1-.27-.77l-.06-.19a4 4 0 0 1 1.23-3.8l1-.94.6 1.23a4 4 0 0 1 .25 2.77z"/><path id="path160" data-name="path" class="cls-2" d="M654.1 11.55a.72.72 0 0 1 .06 1 .75.75 0 0 1-1 0 .72.72 0 0 1 1-1.06z"/><path id="path161" data-name="path" class="cls-2" d="M658.38 12.84a.72.72 0 1 1-1 0 .72.72 0 0 1 1 0z"/><path id="path162" data-name="path" class="cls-2" d="M656.65 11.43a.72.72 0 1 1-1 1.06.72.72 0 0 1 1-1.06z"/><path id="path163" data-name="path" class="cls-2" d="M656.26 14a.71.71 0 0 1 .06 1 .72.72 0 0 1-1 0 .71.71 0 0 1-.06-1 .72.72 0 0 1 1 0z"/><path id="path164" data-name="path" class="cls-2" d="M658.38 15.44a.71.71 0 0 1 .06 1 .75.75 0 0 1-1 0 .72.72 0 0 1 1-1.06z"/><path id="path165" data-name="path" class="cls-2" d="M647.59 14.42a.72.72 0 0 1-1 1.06.71.71 0 0 1-.06-1 .75.75 0 0 1 1 0z"/><path id="path166" data-name="path" class="cls-2" d="M646.67 17a.72.72 0 0 1 .06 1 .75.75 0 0 1-1 0 .72.72 0 0 1 1-1.06z"/></g><g id="group30" data-name="group"><path id="composite_path28" data-name="composite_path" class="cls-2" d="M847.93 8.72a5.89 5.89 0 0 1 2.18.4 5.67 5.67 0 0 0-1.58-3.29.41.41 0 0 1 0-.56.4.4 0 0 1 .58 0 6.35 6.35 0 0 1 1.83 3.87 6.44 6.44 0 0 1 2.27-.42 6.27 6.27 0 0 1 6.28 6.28 16.57 16.57 0 0 1-1.77 6.53c-1.31 2.68-2.91 4.16-4.51 4.16a6.43 6.43 0 0 1-2.64-.58 6.35 6.35 0 0 1-2.64.58c-1.6 0-3.2-1.48-4.51-4.16a16.55 16.55 0 0 1-1.77-6.53 6.29 6.29 0 0 1 6.28-6.28zm0 16.13a5.27 5.27 0 0 0 2.45-.58.6.6 0 0 1 .19 0 .61.61 0 0 1 .19 0 5.26 5.26 0 0 0 2.45.58c2.87 0 5.47-6.69 5.47-9.85a5.47 5.47 0 0 0-5.47-5.47 5.53 5.53 0 0 0-2.45.58.4.4 0 0 1-.37 0 5.53 5.53 0 0 0-2.45-.58 5.48 5.48 0 0 0-5.48 5.47c0 3.16 2.6 9.85 5.47 9.85z"/><path id="path167" data-name="path" class="cls-2" d="M856.31 16.41a.42.42 0 0 1 .52-.27.41.41 0 0 1 .27.5c-.23.79-.46 1.54-.71 2.22a.4.4 0 0 1-.37.27h-.15a.43.43 0 0 1-.25-.52q.37-1 .69-2.18z"/><path id="path168" data-name="path" class="cls-2" d="M854 10.88a3.68 3.68 0 0 1 3.49 3.85.42.42 0 1 1-.83 0 2.87 2.87 0 0 0-2.66-3 .41.41 0 0 1-.4-.42.41.41 0 0 1 .4-.4z"/></g><g id="group31" data-name="group"><path id="composite_path29" data-name="composite_path" class="cls-2" d="M781.62 5.92l-1-2.1-1.7 1.6a4.71 4.71 0 0 0-1.43 4.41 8.82 8.82 0 0 0-2.74 2.06A9.1 9.1 0 1 0 782 9a4.85 4.85 0 0 0-.42-3zM787 11.8a8.32 8.32 0 1 1-11.75.56 8.5 8.5 0 0 1 2.39-1.83c.06.15.12.31.21.48l.71 1.43a4.86 4.86 0 0 0-.94.52.36.36 0 0 0-.06.5.37.37 0 0 0 .52.06l.35-.23v.54a.37.37 0 0 0 .4.33.35.35 0 0 0 .25-.1.48.48 0 0 0 .08-.29 3.38 3.38 0 0 1 0-.79 1.53 1.53 0 0 1 .81 0 .34.34 0 0 0 .39-.08.42.42 0 0 0 .08-.12.35.35 0 0 0-.21-.46 1.22 1.22 0 0 0-.46-.1l.79-.73c.08-.1.19-.19.27-.29s.06-.06.08-.08l.06-.06a5.22 5.22 0 0 0 .81-1.43A8.21 8.21 0 0 1 787 11.8zM781.27 9v.19a3.93 3.93 0 0 1-.75 1.39v.06a2.68 2.68 0 0 1-.33.35l-.67.64a9.23 9.23 0 0 1 .94-4.34.39.39 0 0 0 .1-.29.36.36 0 0 0-.19-.31.35.35 0 0 0-.37 0 8.48 8.48 0 0 0-1.21 4.41l-.21-.42a3.65 3.65 0 0 1-.27-.77l-.06-.19a4 4 0 0 1 1.23-3.8l1-.94.6 1.23a4 4 0 0 1 .19 2.79z"/><path id="path169" data-name="path" class="cls-2" d="M782.83 11.55a.72.72 0 0 1 .06 1 .75.75 0 0 1-1 0 .72.72 0 0 1 1-1.06z"/><path id="path170" data-name="path" class="cls-2" d="M787.11 12.84a.72.72 0 1 1-1 0 .72.72 0 0 1 1 0z"/><path id="path171" data-name="path" class="cls-2" d="M785.38 11.43a.72.72 0 1 1-1 1.06.72.72 0 0 1 1-1.06z"/><path id="path172" data-name="path" class="cls-2" d="M785 14a.71.71 0 0 1 .06 1 .72.72 0 0 1-1 0 .71.71 0 0 1-.06-1 .72.72 0 0 1 1 0z"/><path id="path173" data-name="path" class="cls-2" d="M787.11 15.44a.71.71 0 0 1 .06 1 .75.75 0 0 1-1 0 .72.72 0 0 1 1-1.06z"/><path id="path174" data-name="path" class="cls-2" d="M776.32 14.42a.72.72 0 0 1-1 1.06.71.71 0 0 1-.06-1 .75.75 0 0 1 1 0z"/><path id="path175" data-name="path" class="cls-2" d="M775.4 17a.72.72 0 0 1 .06 1 .75.75 0 0 1-1 0 .72.72 0 0 1 1-1.06z"/></g><g id="group32" data-name="group"><path id="composite_path30" data-name="composite_path" class="cls-2" d="M910.35 5.92l-1-2.1-1.7 1.6a4.71 4.71 0 0 0-1.43 4.41 8.82 8.82 0 0 0-2.74 2.06A9.1 9.1 0 1 0 910.77 9a4.85 4.85 0 0 0-.42-3zm5.38 5.88a8.32 8.32 0 1 1-11.75.56 8.5 8.5 0 0 1 2.39-1.83c.06.15.12.31.21.48l.71 1.43a4.86 4.86 0 0 0-.94.52.36.36 0 0 0-.06.5.37.37 0 0 0 .52.06l.35-.23v.54a.37.37 0 0 0 .4.33.35.35 0 0 0 .25-.1.48.48 0 0 0 .08-.29 3.38 3.38 0 0 1 0-.79 1.53 1.53 0 0 1 .81 0 .34.34 0 0 0 .39-.08.42.42 0 0 0 .08-.12.35.35 0 0 0-.21-.46 1.22 1.22 0 0 0-.46-.1l.79-.73c.08-.1.19-.19.27-.29s.06-.06.08-.08l.06-.06a5.22 5.22 0 0 0 .81-1.43 8.21 8.21 0 0 1 5.18 2.14zM910 9v.19a3.93 3.93 0 0 1-.75 1.39v.06a2.68 2.68 0 0 1-.33.35l-.67.64a9.23 9.23 0 0 1 .94-4.34.39.39 0 0 0 .1-.29.36.36 0 0 0-.19-.31.35.35 0 0 0-.37 0 8.48 8.48 0 0 0-1.21 4.41l-.21-.42a3.65 3.65 0 0 1-.27-.77l-.06-.19a4 4 0 0 1 1.23-3.8l1-.94.6 1.23A4 4 0 0 1 910 9z"/><path id="path176" data-name="path" class="cls-2" d="M911.55 11.55a.72.72 0 0 1 .06 1 .75.75 0 0 1-1 0 .72.72 0 0 1 1-1.06z"/><path id="path177" data-name="path" class="cls-2" d="M915.84 12.84a.72.72 0 1 1-1 0 .72.72 0 0 1 1 0z"/><path id="path178" data-name="path" class="cls-2" d="M914.11 11.43a.72.72 0 1 1-1 1.06.72.72 0 0 1 1-1.06z"/><path id="path179" data-name="path" class="cls-2" d="M913.72 14a.71.71 0 0 1 .06 1 .72.72 0 0 1-1 0 .71.71 0 0 1-.06-1 .72.72 0 0 1 1 0z"/><path id="path180" data-name="path" class="cls-2" d="M915.84 15.44a.71.71 0 0 1 .06 1 .75.75 0 0 1-1 0 .72.72 0 0 1 1-1.06z"/><path id="path181" data-name="path" class="cls-2" d="M905 14.42a.72.72 0 0 1-1 1.06.71.71 0 0 1-.06-1 .75.75 0 0 1 1 0z"/><path id="path182" data-name="path" class="cls-2" d="M904.13 17a.72.72 0 0 1 .06 1 .75.75 0 0 1-1 0 .72.72 0 0 1 1-1.06z"/></g></g></g></g></svg>