<svg xmlns="http://www.w3.org/2000/svg" viewBox="0 0 475.32 509"><defs><style>.cls-1{fill:#fff;}</style></defs><title>personal-area-buttons-user</title><g id="Слой_2" data-name="Слой 2"><g id="Capa_1" data-name="Capa 1"><path class="cls-1" d="M475.25,454.35c0-7.63,0-15.52-.05-23.32a85.06,85.06,0,0,0-1.45-16.08c-4.43-21.7-18.52-36.09-43.07-44-21.4-6.88-43.73-11.92-65.39-16.81l-4.61-1c-13.69-3.09-23.58-8.6-32.1-17.86l-1.95-2.11c-11-11.91-11.31-12.75-11.11-30a11,11,0,0,1,3.3-8.14,115.14,115.14,0,0,0,12.93-16.15c17.34-25.41,26.69-55.32,28.56-91.43.94-18.17,2.91-36.54,4.81-54.31,1.29-12,2.61-24.41,3.61-36.64,2.86-35-10.22-62.81-38.88-82.75C318.25,5.63,305,2.17,294.78.05L294.53,0H180.87l-.3.08c-1.34.34-2.68.66-4,1l-.11,0c-3.23.78-6.58,1.59-9.77,2.6a87,87,0,0,0-60.49,88.87c.52,7.11,1.32,14.32,2.09,21.35.54,4.86,1.09,9.89,1.55,14.87.83,8.95,1.58,17.94,2.31,26.71,1.41,16.83,2.86,34.23,4.84,51.27,3.71,31.88,14.75,58.72,32.82,79.8,8.18,9.55,11.29,19.06,10.08,30.84a12,12,0,0,1-3.45,8c-5.92,5.78-12.21,12-18.32,18.36a20.87,20.87,0,0,1-10.44,6c-8.84,2.25-17.76,4.41-26.39,6.5-18.7,4.53-38,9.21-56.74,14.77-14.51,4.31-26,12.11-34.13,23.17C3.45,403.58.28,415,.13,431.06c-.06,6.75,0,13.61,0,20.27,0,9.09.09,18.5-.11,27.72-.33,15.09,5.72,24.83,18.49,29.77l.44.17H456.42l.43-.16c12.63-4.8,18.67-14.56,18.47-29.84C475.21,470.78,475.23,462.45,475.25,454.35Zm-460-26.72c-.22-18.42,8.87-31.93,27-40.14,7.42-3.36,15.34-5.25,23-7.07l.2,0c1.92-.46,3.83-.91,5.74-1.39q9.84-2.48,19.69-4.9l1.08-.27c12.71-3.14,25.84-6.39,38.78-9.78,5.15-1.35,8.17,0,10.78,4.82,4.35,8,8.88,16.15,13.28,24,5.52,9.88,11.23,20.09,16.62,30.24,3.2,6,7.7,10,12.67,11.27,4.53,1.13,9.27.05,14.09-3.19,1.21-.82,2.64-1.57,4-.92.38.18,1.55.74,1.81,3.56a23.4,23.4,0,0,0,5.86,13.58,8.15,8.15,0,0,1,1.73,7.27l-1,5.77c-1.59,9.21-3.24,18.73-4.67,28.16-.65,4.29-3,6.2-7.43,6.21-11.91-.1-23.93-.09-35.56-.07H104c-8.68,0-9.48-.78-9.49-9.25,0-3.24,0-6.46,0-9.68,0-8.47,0-17.23-.09-25.8-.05-4.79-3-8.13-7.21-8.13-3.95,0-6.87,3.15-7.27,7.81-.09,1.06-.08,2.18-.07,3.27,0,.37,0,.74,0,1.1,0,3.1,0,6.21,0,9.34,0,7.75-.09,15.76.13,23.59.06,2.14-.1,4.54-1.68,6.13s-3.75,1.73-5.52,1.73h-.47c-6.19-.12-12.46-.15-18.67-.15l-9.86,0h-.54c-5.13,0-10.25,0-15.37,0-9,0-12.53-3.58-12.56-12.67q0-9.88,0-19.76V462C15.34,450.75,15.35,439.12,15.22,427.63Zm109.45-297v-.13c-1.53-14.54-3-28.28-3.74-42.23a66.85,66.85,0,0,1,15.38-46.5c14.87-18.26,34.39-27.52,58-27.52h.23c12.22,0,24.65,0,36.69,0h3.64c15.45,0,31.43,0,47.13,0,35.83.17,64.55,24,71.46,59.37,1.91,9.76.93,19.5,0,28.92-.24,2.37-.49,4.81-.68,7.27-.56,6.92-1.35,13.83-2.18,21.15-.39,3.4-.78,6.91-1.18,10.58l-.55,5.09-2.29-4.58c-1.5-3-2.86-5.9-4.18-8.7a159.94,159.94,0,0,0-8.18-15.87c-1.06-1.72-2.1-3.45-3.15-5.2-2.25-3.75-4.58-7.63-7.07-11.3-2.84-4.2-6.25-5.27-10.15-3.2-14.66,7.8-30.83,9.75-46.48,11.64l-1.76.21c-24.84,3-52.29,4.43-86.39,4.45-2.73,0-5.51.13-8.2.24h-.16c-3.33.15-6.77.3-10.15.22a12.17,12.17,0,0,0-10.39,5,201.32,201.32,0,0,0-20.84,30.9l-2.34,4.24-.46-4.82h0C126,143.34,125.33,136.88,124.67,130.6Zm15.05,32.09a183.18,183.18,0,0,1,18.38-29.45,9.57,9.57,0,0,1,8.43-4c4,.12,8.13.09,11.76.07h.39l4.83,0,1.58,0c31.65-.85,64.37-1.74,96.18-6.91,10.9-1.77,19.94-3.4,28.8-6.85,3.35-1.3,5.6-.51,7.5,2.66,12.94,21.52,21.71,42.37,26.8,63.74,2.32,9.72.42,19.62-1.41,29.18q-.3,1.57-.59,3.14c-5.49,29.5-18,54.3-37.25,73.72S261.94,318,237.67,318c-21.57,0-42.49-8.2-60.5-23.71C152.09,272.7,137,242.9,131.08,203.18,128.71,187.28,133.83,174.32,139.72,162.69Zm40.95,152.84a6.75,6.75,0,0,0,.7.52c18.79,11.06,37.77,16.67,56.41,16.67s37.75-5.69,56.42-16.89a6.06,6.06,0,0,0,.63-.45l.08-.07c1.17-.9,2.36-1.67,4-1.18,1.44.43,2.09,1.52,1.94,3.27l0,.25,0,.31a8.07,8.07,0,0,1-2.47,7.09c-17.49,17.45-37.32,37.23-56.83,56.88a5.68,5.68,0,0,1-3.87,2,5.85,5.85,0,0,1-3.95-2.1c-13.35-13.44-26.89-27-40-40.09l-.26-.26-16.21-16.22-.23-.23c-1.14-1.13-2.43-2.42-2.49-4.54,0-.27,0-.61-.1-1v-.1c-.23-1.73-.33-3.68,1.41-4.87a2.89,2.89,0,0,1,1.66-.57,5.07,5.07,0,0,1,3.05,1.44Zm59.18,126.19h-3.39c-1,.06-2.08.09-3,.09-5.79,0-9.58-1-11.92-3.29-3.25-3.13-3.14-8.05-3-13.8,0-1.13.05-2.32.05-3.54s.23-3,1.32-3.91a115.1,115.1,0,0,1,15-10.36l1.2-.73a2.91,2.91,0,0,1,1.52-.39,3.77,3.77,0,0,1,2,.52c1.46,1,3,1.84,4.58,2.78,3.91,2.28,8,4.63,10.77,8.08,4.27,5.22,2.48,12.84.76,18.12h0c-1.39,4.28-5.05,6.44-10.87,6.44h-.31C242.94,441.71,241.39,441.71,239.85,441.72Zm-19.16,46.87c1.74-9.72,3.3-18.5,4.7-27.44.53-3.36,2.39-4.91,5.88-4.82,1.48,0,3,0,4.59,0,1.12,0,2.24,0,3.36,0h2.93c6.21-.06,7.07.27,8,6.23.16,1,.34,2.12.61,3.49.77,4,1.43,8,2.08,12,.55,3.33,1.12,6.78,1.74,10.12.17.95.64,3.46-.82,5.14h0a5.25,5.25,0,0,1-4.2,1.51h-.53c-1.47-.07-3-.08-4.43-.08l-3.25,0h-.17c-2.32,0-4.48,0-6.7,0h-.31c-2.62,0-5.33,0-8,0-2.18.08-3.76-.42-4.7-1.52S220.31,490.66,220.68,488.59ZM324.56,354.86l-.32.69-.06.12c-.29.64-.65,1.43-1.07,2.18l-7.92,14.3L314,374.29c-7.43,13.4-15.11,27.26-22.72,41.21-1.11,2-2.21,3.08-3.57,3.41a3.74,3.74,0,0,1-.87.1,7.19,7.19,0,0,1-3.85-1.53c-8.8-6.05-18.16-12.3-28.6-19.09-2-1.29-2.9-2.41-3-3.74s.52-2.61,2.11-4.19c15.4-15.24,32.14-32,51.16-51.15a5.58,5.58,0,0,1,3.83-2,5.37,5.37,0,0,1,3.61,2h0c2.31,2.49,4.74,4.92,7.09,7.26,1.13,1.12,2.25,2.25,3.37,3.38a6.4,6.4,0,0,1,2.17,4.13l0,.41ZM165.68,337.48c.26-.15.47-.28.68-.42l1-.64.87.76.94.8c.62.53,1.27,1.07,1.86,1.67l13.2,13.2,1.39,1.39c11.84,11.85,24.08,24.1,36.29,36.19,1.61,1.59,2.27,2.89,2.13,4.22s-1,2.44-3,3.72c-8.9,5.78-18.4,12.11-29.05,19.36a6.39,6.39,0,0,1-3.48,1.35,3.59,3.59,0,0,1-.84-.1c-1.84-.44-2.88-2.33-3.27-3-9.85-17.88-19.89-35.86-29.59-53.24l-2.91-5.21c-1.64-2.93-1.46-5.22.54-7.2s3.88-3.86,5.81-5.79l.51-.51q2.66-2.67,5.34-5.33A8.19,8.19,0,0,1,165.68,337.48ZM427,494.73c-8.29,0-16.86,0-25.25.09h-.2c-.87,0-3.19,0-4.7-1.51s-1.52-3.4-1.49-5c.13-8.46.11-17.06.1-25.43q0-4.53,0-9v-1a30.16,30.16,0,0,0-.09-3.33c-.47-4.55-3.39-7.58-7.33-7.58h-.14c-4.08.12-7,3.35-7,7.85-.1,8.89-.09,17.94-.08,26.69V478q0,4.13,0,8.26c0,4.2-.05,6-1.35,7.22s-3,1.29-7.31,1.3h-24.9l-36-.06c-11.16,0-22.69,0-34,.09h-.13c-4.66,0-6.86-1.9-7.59-6.54-1.28-8.13-2.75-16.35-4.17-24.3-.52-2.91-1-5.77-1.53-8.63s-.45-5.47,1.63-7.81A23.48,23.48,0,0,0,271.35,434c.14-1.38.47-3.05,1.86-3.7.38-.18,1.55-.72,3.86.86,4.81,3.3,9.55,4.41,14.07,3.29,5.2-1.29,9.77-5.45,13.23-12,5.79-11,12-22.06,17.93-32.74,4.1-7.33,8.34-14.91,12.43-22.44,2.39-4.41,5.48-4.31,8.47-3.55,12.22,3.1,24.67,6.21,36.7,9.21l.79.2c12.48,3.12,25.39,6.34,38.07,9.56,9.73,2.47,20.86,6.2,29.73,15.15,7.54,7.6,11.39,16.34,11.45,26,.11,18,.13,37.5,0,59.49,0,7.55-3.81,11.41-11.24,11.46C441.52,494.73,434.18,494.73,427,494.73Z"/></g></g></svg>