<svg xmlns="http://www.w3.org/2000/svg" viewBox="0 0 142.42 142.91"><defs><style>.cls-1{opacity:0.07;}.cls-2{fill:#005826;}</style></defs><title>program-item-bg</title><g id="Слой_2" data-name="Слой 2"><g id="Слой_1-2" data-name="Слой 1"><g id="_Группа_" data-name="&lt;Группа&gt;" class="cls-1"><path class="cls-2" d="M64.77,71.45l-18-18.62c-5-4.92-11.16-8.68-20.28-8.68C11.46,44.15,0,56.37,0,71.45S11.46,98.76,26.49,98.76c9.12,0,15.27-3.76,20.28-8.69ZM26.49,87.08c-8.33,0-14.85-6.86-14.85-15.63s6.52-15.62,14.85-15.62c4.81,0,8.22,1.5,12.07,5.28L48.92,71.45,38.62,81.73C34.71,85.58,31.3,87.08,26.49,87.08Zm44.72-9.17C69.63,77.91,52.66,96,52.66,96c-4.9,5-8.65,11.19-8.65,20.35,0,15.08,12.17,26.59,27.21,26.59s27.21-11.5,27.21-26.59c0-9.16-3.75-15.33-8.65-20.35Zm0,53.32c-8.87,0-15.57-6.4-15.57-14.9,0-4.83,1.49-8.24,5.27-12.11l10.3-10.4,10.23,10.33c3.84,3.94,5.34,7.35,5.34,12.18C86.79,124.82,80.09,131.23,71.21,131.23Zm0-66.24L89.76,46.93c4.9-5,8.66-11.2,8.66-20.35C98.43,11.5,86.24,0,71.21,0S44,11.5,44,26.58c0,9.15,3.75,15.33,8.65,20.35Zm0-53.31c8.74,0,15.57,6.55,15.57,14.9,0,4.83-1.5,8.24-5.28,12.11L71.21,49.08,61,38.76c-3.83-3.93-5.32-7.35-5.32-12.18C55.65,18.08,62.34,11.68,71.21,11.68Zm44.72,32.47c-9.11,0-15.27,3.76-20.28,8.68l-18,18.62,18,18.63c5,4.92,11.17,8.69,20.28,8.69,15,0,26.49-12.22,26.49-27.31S131,44.15,115.93,44.15Zm0,42.93c-4.81,0-8.21-1.49-12.07-5.28L93.51,71.45l10.29-10.28c3.92-3.84,7.32-5.34,12.13-5.34,8.33,0,14.85,6.86,14.85,15.62S124.26,87.08,115.93,87.08Z"/></g></g></g></svg>